<svg width="152" height="152" viewBox="0 0 152 152" fill="none" xmlns="http://www.w3.org/2000/svg">
<rect width="152" height="152" rx="30" fill="#0A2D4A"/>
<path d="M70.0543 30C92.2096 30 110.109 47.851 110.109 69.9462C110.109 73.4415 109.608 76.812 108.732 80.0577C116.618 83.553 122 91.4174 122 100.53C122 112.889 111.861 123 99.4693 123C89.9565 123 81.9457 117.258 78.5661 109.019C75.8121 109.518 72.9334 109.892 70.0543 109.892C47.8993 109.892 30 92.0417 30 69.9462C30 47.851 47.8993 30 70.0543 30ZM99.4693 86.7986C91.8339 86.7986 85.7007 92.9153 85.7007 100.53C85.7007 108.145 91.8339 114.262 99.4693 114.262C107.105 114.262 113.238 108.145 113.238 100.53C113.238 92.9153 107.105 86.7986 99.4693 86.7986ZM70.0543 38.6134C52.7809 38.6134 38.7619 52.5946 38.7619 69.8214C38.7619 87.0482 52.7809 101.03 70.0543 101.03C72.4325 101.03 74.6856 100.78 76.9387 100.281C77.0638 87.9221 87.0775 78.0603 99.4693 77.9355H100.22C100.971 75.3141 101.347 72.6927 101.347 69.8214C101.347 52.5946 87.3277 38.6134 70.0543 38.6134Z" fill="white"/>
</svg>
