<svg xmlns="http://www.w3.org/2000/svg" width="169" height="18" fill="none"><path fill="#fff" fill-rule="evenodd" d="M26.58 17.48h4.3v-5.34h2.27l2.72 5.34h4.52l-3.28-6.19.3-.17c.24-.15.46-.33.66-.53a5.1 5.1 0 001.48-2.37c.19-.62.28-1.26.28-1.9a5.72 5.72 0 00-1.63-4.16A5.53 5.53 0 0034.05.5h-7.47v16.99zm8.94-11.17a1.64 1.64 0 01-1.7 1.7h-2.94V4.62h2.94a1.65 1.65 0 011.7 1.69zm10.2 5.22c-.02-.67.2-1.31.64-1.8.37-.48.92-.75 1.5-.75.59 0 1.14.27 1.5.74.44.5.67 1.14.66 1.81.01.67-.22 1.31-.65 1.8-.37.48-.92.75-1.5.75-.59 0-1.14-.27-1.51-.74a2.65 2.65 0 01-.65-1.8zm8.25 0c0-1.65-.6-3.1-1.8-4.33a5.95 5.95 0 00-8.63 0 6.02 6.02 0 00-1.8 4.33c0 1.65.6 3.1 1.8 4.33a5.95 5.95 0 008.64 0 6.03 6.03 0 001.8-4.33zm1.59 0c0 1.65.6 3.1 1.8 4.33a5.8 5.8 0 006.03 1.6c.46-.15.91-.34 1.34-.59a6.2 6.2 0 001.7-1.57l-2.26-2.55-.23.3c-.22.3-.5.52-.81.7-.37.21-.8.33-1.22.33a2.23 2.23 0 01-1.7-.73 2.56 2.56 0 01-.68-1.82c-.02-.68.22-1.33.68-1.82a2.23 2.23 0 011.7-.73c.44 0 .87.14 1.24.38.28.16.54.36.76.6.1.12.18.24.26.36l2.26-2.55-.18-.25a3.46 3.46 0 00-.58-.61c-.3-.26-.62-.5-.94-.7a5.93 5.93 0 00-7.37 1 6.02 6.02 0 00-1.8 4.32zm20.38-.84l4.07-5.1H75.6L72.3 9.71V.49h-3.84v16.99h3.84v-3.03l1.02-1.21 2.61 4.24h4.2l-4.2-6.8zM83.07 0l-2.5 5.95 2.39 1.46 3.28-5.47L83.07 0zm8.71 5.58h-3.85v11.9h3.85v-5.95c0-.71.17-1.27.51-1.68.32-.4.8-.63 1.3-.62.44-.01.86.18 1.15.52.29.35.44.82.44 1.43v6.3h3.85v-7.04c0-1.52-.38-2.74-1.14-3.68a3.6 3.6 0 00-4.67-.94c-.55.32-.9.57-1.07.75-.16.19-.28.34-.37.47V5.58zM103.44 0l-2.49 5.95 2.38 1.46 3.28-5.47L103.44 0zm13.02 17.48c1.69 0 3.07-.5 4.15-1.5a4.6 4.6 0 001.62-3.48c0-.54-.1-1.08-.3-1.57a4 4 0 00-1.54-1.88 6.04 6.04 0 00-.99-.55l.21-.12c.19-.11.36-.24.52-.4.2-.2.4-.42.59-.66a4.21 4.21 0 00.72-2.35c0-1.2-.5-2.25-1.5-3.15-1-.89-2.3-1.33-3.93-1.33h-7.14v16.99h7.59zm-3.28-3.64v-3.4h2.94c.45-.02.9.16 1.22.49.64.67.64 1.75 0 2.43-.32.33-.77.5-1.22.48h-2.95zm2.37-9.7c.4-.03.78.12 1.08.4.27.27.41.65.4 1.05.01.4-.13.78-.4 1.05-.3.28-.68.42-1.08.4h-2.38v-2.9h2.38zm12.8-3.65h-3.85v16.99h3.85v-17zm6.23 11.04c-.02-.67.21-1.31.64-1.8.38-.48.93-.75 1.51-.75s1.14.27 1.5.74c.44.5.67 1.14.65 1.81.02.67-.22 1.31-.65 1.8-.36.48-.92.75-1.5.75s-1.13-.27-1.5-.74a2.65 2.65 0 01-.65-1.8zm8.26 0c0-1.65-.6-3.1-1.8-4.33a5.95 5.95 0 00-8.63 0 6.02 6.02 0 00-1.8 4.33c0 1.65.6 3.1 1.8 4.33a5.95 5.95 0 008.63 0 6.03 6.03 0 001.8-4.33zm1.58 0c0 1.65.6 3.1 1.8 4.33a5.8 5.8 0 006.03 1.6 6.2 6.2 0 001.34-.59 6.2 6.2 0 001.52-1.3c.08-.12.14-.2.19-.27l-2.26-2.55-.23.3c-.23.3-.5.52-.82.7-.37.21-.79.33-1.22.33a2.23 2.23 0 01-1.7-.73 2.56 2.56 0 01-.68-1.82c-.01-.68.23-1.33.68-1.82a2.23 2.23 0 011.7-.73c.44 0 .87.14 1.25.38.28.16.53.36.76.6.1.12.18.24.26.36l2.26-2.55-.18-.25a3.5 3.5 0 00-.59-.61c-.3-.26-.61-.5-.94-.7a5.93 5.93 0 00-7.37 1 6.02 6.02 0 00-1.8 4.32zm20.39-.84l4.07-5.1h-4.41l-3.29 4.13V.49h-3.85v16.99h3.85v-3.03l1.02-1.21 2.6 4.24h4.2l-4.2-6.8z" clip-rule="evenodd"/><path fill="red" fill-rule="evenodd" d="M0 0h16.35v17.04H0V0z" clip-rule="evenodd"/><path fill="#fff" fill-rule="evenodd" d="M10.4 1.36l-7 7.55h4.37l-2.66 6.76 7.84-9.12H8.59l1.81-5.19z" clip-rule="evenodd"/></svg>