<svg xmlns="http://www.w3.org/2000/svg" width="65" height="101" fill="none"><g fill-rule="evenodd" clip-rule="evenodd" style="mix-blend-mode:luminosity"><path fill="url(#paint0_linear)" d="M35.2.25c-7.26 2.58-14.27 10.1-21.03 22.55C4.03 41.5-9.07 68.04 8.97 89.07c8.34 9.72 22.12 15.46 40.2 6.37 14.53-7.3 18.57-28.26 13.35-38.11C51.76 37 40.85 32 37.92 19.4 35.99 11 35.08 4.62 35.22.25z"/><path fill="url(#paint1_linear)" d="M35.2 0c-7.3 2.6-14.3 10.12-21.03 22.55C4.08 41.2-9.07 67.79 8.97 88.8c8.34 9.73 21.94 12.87 29.49 7.1 4.92-3.76 8.26-7.34 10.2-14.9 2.14-8.4.5-19.73-.64-24.93a78.85 78.85 0 01-1.4-21.67l-.39-.47c-3.93-4.81-6.96-9-8.3-14.8C35.98 10.75 35.07 4.37 35.2 0z"/><path fill="url(#paint2_linear)" d="M29.16 3.27C22.36 8.65 17.3 17.67 14 30.32 9.02 49.31 8.5 66.82 10.24 77c3.4 19.74 21 27.23 39.07 18.04 11.12-5.65 15.75-17.79 15.5-30.97-.25-13.64-26.61-29.1-31.28-40.48-3.11-7.6-4.57-14.37-4.37-20.32z"/><path fill="url(#paint3_linear)" d="M46.4 38.87c8.16 10.46 9.94 17.74 5.34 21.84-6.9 6.16-23.78 10.17-34.28 2.73-7-4.97-9.64-15.61-7.94-31.95a146.68 146.68 0 00-7.33 18.34A44.8 44.8 0 00.44 69.27c2.5 5.06 8.59 8.44 18.25 10.14 14.5 2.55 28.22 1.29 37.43-3.35 6.14-3.1 9.04-6.18 8.7-9.24.23-4.53-1.17-8.84-4.18-12.93-3.01-4.1-7.76-9.1-14.23-15.02z"/><path fill="url(#paint4_linear)" d="M14.53 28.42a41.5 41.5 0 005.83 21.55c5.93 10.21 12.85 20.3 23.2 28.67 6.91 5.57 12.43 7.38 16.56 5.4-3.4 6.07-7 9.05-10.82 8.93-5.73-.19-12.72-2.69-23.92-16.15-7.47-8.97-12.57-17.46-15.32-25.46.43-3.17.9-6.34 1.38-9.49a135.9 135.9 0 013.09-13.45z"/><path fill="url(#paint5_linear)" d="M32.05 38.79c.63 6.15 3.03 16 0 22.55-3.03 6.56-17.02 18.4-13.16 28.83 3.87 10.43 13.28 8.09 19.18 3.28 5.9-4.8 9.06-12.62 9.76-18.12.7-5.5-1.67-16.07-2.45-25.27-.51-6.14-.16-11.4 1.05-15.78L44.63 32l-10.65-3.15c-1.71 2.52-2.35 5.84-1.93 9.94z"/><path fill="url(#paint6_linear)" d="M35.85 8.3c-3.45 1.46-6.71 4.35-9.8 8.66-4.62 6.47-6.98 10.35-5.23 23.18 1.16 8.55 2 16.42 2.5 23.6l14.9-43.33c-.54-2.2-1-4.2-1.36-5.98-.37-1.78-.7-3.82-1.01-6.13z"/><path fill="#330A4C" fill-opacity=".316" d="M38.2 20.33c-3.79 2.2-6.72 6.73-8.8 13.58-2.08 6.84-3.99 16.4-5.71 28.7 2.3-7.82 3.83-13.48 4.58-16.99 1.13-5.26 1.51-12.7 4.5-17.75 2-3.36 3.81-5.88 5.43-7.54z"/><path fill="#fff" d="M20.67 93.65c6.23.9 9.49 1.69 9.77 2.38.43 1.04-.79 1.99-4.24 1.35a8.26 8.26 0 01-5.53-3.73z"/><path fill="#EDEDED" fill-opacity=".603" d="M23.8 8.3a80.5 80.5 0 00-8.9 13.02c-2.52 4.59-4.31 8-5.4 10.27a40.7 40.7 0 00-.48 7.45c0 3.28.3 6.93.85 10.95.5-7.87 2-15.5 4.5-22.92 2.52-7.4 5.66-13.66 9.43-18.77z"/></g><defs><linearGradient id="paint0_linear" x1="33.81" x2="30.341" y1="7.622" y2="99.926" gradientUnits="userSpaceOnUse"><stop stop-color="#D9D8DC"/><stop offset="1" stop-color="#fff" stop-opacity=".385"/></linearGradient><linearGradient id="paint1_linear" x1="35.378" x2="-.877" y1="7.599" y2="87.059" gradientUnits="userSpaceOnUse"><stop stop-color="#8D67AF" stop-opacity=".672"/><stop offset="1" stop-color="#9F8DAF"/></linearGradient><linearGradient id="paint2_linear" x1="39.425" x2="39.425" y1="33.344" y2="97.243" gradientUnits="userSpaceOnUse"><stop stop-color="#26053D" stop-opacity=".762"/><stop offset="1" stop-color="#B7B4B4" stop-opacity=".278"/></linearGradient><linearGradient id="paint3_linear" x1="6.639" x2="22.906" y1="37.665" y2="80.755" gradientUnits="userSpaceOnUse"><stop stop-color="#91739F" stop-opacity=".46"/><stop offset="1" stop-color="#32054F" stop-opacity=".54"/></linearGradient><linearGradient id="paint4_linear" x1="50.12" x2="5.387" y1="90.654" y2="53.587" gradientUnits="userSpaceOnUse"><stop stop-color="#463D49" stop-opacity=".331"/><stop offset="1" stop-color="#340A50" stop-opacity=".821"/></linearGradient><linearGradient id="paint5_linear" x1="40.925" x2="9.376" y1="33.946" y2="81.942" gradientUnits="userSpaceOnUse"><stop stop-color="#715383" stop-opacity=".145"/><stop offset="1" stop-color="#F4F4F4" stop-opacity=".234"/></linearGradient><linearGradient id="paint6_linear" x1="43.943" x2="21.6" y1="48.586" y2="47.222" gradientUnits="userSpaceOnUse"><stop stop-color="#A5A1A8" stop-opacity=".356"/><stop offset="1" stop-color="#370C50" stop-opacity=".582"/></linearGradient></defs></svg>