<svg xmlns="http://www.w3.org/2000/svg" width="100" height="100" fill="none"><path fill="#fff" d="M99.31 48.59l-4.2-2.6c-.03-.4-.07-.8-.11-1.21l3.6-3.35a1.44 1.44 0 00-.47-2.4L93.5 37.3c-.11-.4-.23-.8-.36-1.19l2.88-3.98a1.44 1.44 0 00-.94-2.26l-4.86-.79a40.8 40.8 0 00-.59-1.09l2.05-4.46a1.44 1.44 0 00-1.37-2.04l-4.93.17c-.26-.32-.52-.63-.78-.94l1.13-4.79A1.43 1.43 0 0084 14.21l-4.8 1.13c-.32-.27-.63-.53-.95-.78l.17-4.92a1.45 1.45 0 00-2.04-1.36l-4.49 2.04c-.36-.2-.72-.4-1.09-.58L70 4.89a1.45 1.45 0 00-2.26-.94l-4 2.87c-.4-.13-.79-.24-1.19-.36l-1.72-4.6a1.44 1.44 0 00-2.41-.47l-3.37 3.6c-.4-.05-.81-.1-1.22-.13L51.23.68a1.45 1.45 0 00-2.46 0l-2.6 4.18c-.4.04-.81.08-1.22.12l-3.36-3.6a1.45 1.45 0 00-2.41.49l-1.73 4.6c-.4.1-.8.23-1.19.35l-4-2.87A1.44 1.44 0 0030 4.9l-.79 4.85c-.37.19-.73.38-1.1.58l-4.48-2.04a1.45 1.45 0 00-2.04 1.36l.17 4.92c-.32.25-.63.51-.94.78L16 14.2a1.43 1.43 0 00-1.74 1.73l1.13 4.79c-.26.3-.52.62-.78.94l-4.93-.17a1.45 1.45 0 00-1.5 1.32c-.01.25.03.5.13.71L10.36 28c-.2.36-.4.72-.59 1.1l-4.86.78a1.44 1.44 0 00-.94 2.26l2.87 3.98c-.12.4-.24.79-.36 1.19l-4.6 1.71a1.44 1.44 0 00-.49 2.4L5 44.79c-.04.4-.08.81-.12 1.22l-4.2 2.59a1.44 1.44 0 000 2.44l4.2 2.6c.04.4.08.8.12 1.21l-3.6 3.35a1.44 1.44 0 00.47 2.4l4.61 1.72c.12.4.24.8.37 1.19l-2.88 3.98a1.43 1.43 0 00.94 2.26l4.86.79c.2.36.39.73.59 1.09L8.3 76.08a1.44 1.44 0 001.37 2.04l4.93-.17c.26.32.52.63.78.94l-1.13 4.79A1.44 1.44 0 0016 85.41l4.8-1.13c.32.27.63.52.95.78l-.17 4.91a1.44 1.44 0 002.04 1.36l4.49-2.03c.36.2.72.39 1.1.58l.78 4.84a1.44 1.44 0 002.27.94l4-2.87c.4.13.8.25 1.2.36l1.72 4.6a1.44 1.44 0 001.8.86c.23-.07.44-.2.6-.39l3.37-3.6c.4.05.82.1 1.23.13l2.6 4.18a1.45 1.45 0 002.45 0l2.6-4.18c.4-.04.82-.07 1.22-.12l3.37 3.6a1.44 1.44 0 002.4-.48l1.73-4.6c.4-.11.8-.23 1.2-.36l3.99 2.87a1.45 1.45 0 002.27-.94l.8-4.84c.36-.19.72-.39 1.08-.58l4.49 2.03a1.44 1.44 0 002.04-1.36l-.17-4.91c.32-.26.63-.52.95-.78l4.8 1.13a1.44 1.44 0 001.74-1.73l-1.13-4.79c.26-.31.52-.63.78-.94l4.93.17a1.44 1.44 0 001.37-2.04l-2.05-4.46c.2-.36.4-.73.59-1.1l4.86-.78a1.44 1.44 0 00.94-2.26l-2.88-3.98c.13-.4.25-.8.37-1.19l4.6-1.72a1.44 1.44 0 00.49-2.4L95 54.84c.04-.4.08-.81.12-1.22l4.2-2.59a1.44 1.44 0 000-2.44zm-28.1 34.69a2.96 2.96 0 111.25-5.8 2.96 2.96 0 11-1.24 5.8zm-1.42-9.61a2.7 2.7 0 00-3.22 2.07l-1.49 6.93A36.53 36.53 0 0150 85.9c-5.5 0-10.72-1.2-15.4-3.38l-1.5-6.92a2.7 2.7 0 00-3.2-2.08l-6.15 1.31a36.34 36.34 0 01-3.17-3.72h29.87c.34 0 .57-.06.57-.37V60.21c0-.3-.23-.37-.56-.37h-8.74v-6.67h9.45c.86 0 4.6.25 5.81 5.02.37 1.47 1.2 6.25 1.76 7.78.57 1.71 2.85 5.14 5.3 5.14h14.88c.17 0 .35-.02.54-.06a36.57 36.57 0 01-3.39 3.96l-6.28-1.34zm-41.32 9.46a2.97 2.97 0 11-1.25-5.8 2.97 2.97 0 011.25 5.8zM17.13 37.35a2.96 2.96 0 01-3.78 3.96 2.97 2.97 0 01-1.7-3.83 2.96 2.96 0 011.56-1.64c1.5-.66 3.26.01 3.92 1.51zm-3.48 8.23l6.4-2.84a2.7 2.7 0 001.37-3.56l-1.32-2.97h5.18v23.27H14.83a36.33 36.33 0 01-1.18-13.9zm28.07-2.26v-6.86h12.34c.63 0 4.5.73 4.5 3.61 0 2.39-2.97 3.24-5.4 3.24H41.72zm44.84 6.17c0 .9-.03 1.8-.1 2.7h-3.75c-.38 0-.53.25-.53.61v1.72c0 4.04-2.29 4.92-4.29 5.14-1.9.22-4.02-.8-4.28-1.96-1.13-6.3-3-7.65-5.97-9.98 3.68-2.32 7.5-5.75 7.5-10.34 0-4.96-3.4-8.08-5.73-9.62a16.33 16.33 0 00-7.85-2.57h-38.8a36.55 36.55 0 0120.46-11.5l4.57 4.78a2.71 2.71 0 003.83.1l5.11-4.88a36.59 36.59 0 0125.03 17.75l-3.5 7.88a2.7 2.7 0 001.38 3.56l6.74 2.99c.12 1.2.18 2.4.18 3.62zM47.79 9.63a2.98 2.98 0 014.77 3.34 2.96 2.96 0 01-2.79 1.76 2.97 2.97 0 01-2.64-4.16c.15-.35.38-.67.66-.94zm34.76 27.86a2.97 2.97 0 015.43 2.4 2.97 2.97 0 01-5.43-2.4z"/></svg>