<svg xmlns="http://www.w3.org/2000/svg" width="44" height="45" fill="none"><path fill="#565656" d="M16.25 25.37a8.39 8.39 0 015.62-7.97 8.04 8.04 0 00-2.6-.43 8.3 8.3 0 00-8.2 8.4 8.3 8.3 0 008.2 8.4c.91 0 1.79-.15 2.6-.43a8.39 8.39 0 01-5.62-7.97z"/><path fill="#fff" d="M19.28 35.54c-5.48 0-9.94-4.56-9.94-10.17 0-5.6 4.46-10.16 9.94-10.16 5.48 0 9.94 4.56 9.94 10.16 0 5.6-4.46 10.17-9.94 10.17zm0-16.8a6.57 6.57 0 00-6.49 6.63c0 3.66 2.91 6.63 6.49 6.63a6.57 6.57 0 006.48-6.63c0-3.65-2.9-6.63-6.48-6.63zm4.5-16.53c0 1.22.96 2.21 2.15 2.21 1.2 0 2.16-.99 2.16-2.21S27.13 0 25.93 0c-1.19 0-2.16.99-2.16 2.21zm-8.3.27c0 1.22.96 2.2 2.15 2.2 1.2 0 2.17-.98 2.17-2.2 0-1.23-.97-2.21-2.17-2.21-1.19 0-2.16.98-2.16 2.2zm-7.7 3.7c0 1.23.97 2.22 2.16 2.22 1.2 0 2.16-1 2.16-2.21 0-1.22-.97-2.21-2.16-2.21-1.2 0-2.16.99-2.16 2.2zm-5.45 6.55c0 1.22.97 2.21 2.17 2.21 1.19 0 2.16-.99 2.16-2.2 0-1.23-.97-2.22-2.16-2.22-1.2 0-2.17.99-2.17 2.21zM.1 21.04c0 1.22.96 2.21 2.16 2.21 1.2 0 2.16-.99 2.16-2.2 0-1.23-.97-2.22-2.16-2.22-1.2 0-2.16 1-2.16 2.21zm1.2 8.58c0 1.22.97 2.2 2.17 2.2s2.16-.98 2.16-2.2c0-1.22-.97-2.21-2.16-2.21-1.2 0-2.16.99-2.16 2.2zm4.59 7.25c0 1.22.97 2.2 2.16 2.2 1.2 0 2.16-.98 2.16-2.2 0-1.22-.97-2.21-2.16-2.21-1.2 0-2.16.99-2.16 2.2zm7.09 4.68c0 1.22.96 2.21 2.16 2.21 1.2 0 2.16-.99 2.16-2.2 0-1.23-.97-2.22-2.16-2.22-1.2 0-2.16 1-2.16 2.21zm8.3 1.24c0 1.22.96 2.21 2.16 2.21 1.19 0 2.16-.99 2.16-2.21s-.97-2.21-2.16-2.21c-1.2 0-2.16.99-2.16 2.21zm8.2-2.39c0 1.22.98 2.21 2.17 2.21 1.2 0 2.16-.99 2.16-2.2 0-1.23-.97-2.22-2.16-2.22-1.2 0-2.16 1-2.16 2.21zm6.4-5.57c0 1.22.97 2.21 2.17 2.21 1.19 0 2.16-.99 2.16-2.2 0-1.23-.97-2.22-2.16-2.22-1.2 0-2.17 1-2.17 2.21zm3.63-7.78c0 1.22.97 2.21 2.17 2.21 1.19 0 2.16-.99 2.16-2.2 0-1.23-.97-2.22-2.16-2.22-1.2 0-2.17 1-2.17 2.21zm.1-8.66c0 1.22.96 2.2 2.15 2.2 1.2 0 2.16-.98 2.16-2.2 0-1.22-.96-2.21-2.16-2.21-1.2 0-2.16.99-2.16 2.2z"/><path fill="#D34214" d="M36.65 13.8a6.13 6.13 0 01-6.05-6.2 6.13 6.13 0 016.05-6.19 6.13 6.13 0 016.05 6.2 6.13 6.13 0 01-6.05 6.18zm0-8.85a2.63 2.63 0 00-2.6 2.65 2.63 2.63 0 002.6 2.66c1.43 0 2.6-1.2 2.6-2.66a2.63 2.63 0 00-2.6-2.65z"/></svg>