<svg xmlns="http://www.w3.org/2000/svg" width="100" height="100" fill="none"><path fill="#fff" d="M34.84 72.83c0 5.94 0 11.88 0 17.82 0 .7 0 .7.69.7 2.65 0 5.3 0 7.96 0 .7 0 .7 0 .7-.68 0-11.9 0-23.8 0-35.71 0-.6 0-.6.6-.6 3.95 0 7.91 0 11.87 0 .55 0 .57-.01.56-.57-.02-2.41-.05-4.82-.07-7.24 0-.37-.1-.51-.5-.51-4.63 0-9.26-.05-13.9-.05-6.65 0-13.3.04-19.95.06-.9 0-.92 0-.92.9-.01 2.27-.01 4.55-.01 6.82 0 .6 0 .6.6.6 3.93 0 7.86 0 11.8 0 .57 0 .57 0 .57.56 0 5.97 0 11.94 0 17.9zM76.77 91.9c.94-.05 1.89-.03 2.81-.15 1.96-.25 3.84-.78 5.62-1.66 2.79-1.37 4.92-3.38 6.05-6.31a14.2 14.2 0 00.72-7.07 12.03 12.03 0 00-4.93-8.48c-2.45-1.81-5.2-3.07-7.97-4.32-1.62-.74-3.24-1.47-4.81-2.31-1.7-.9-2.62-2.32-2.44-4.33.08-.95.41-1.77 1.12-2.42 1.23-1.12 2.74-1.2 4.27-1.03 1.7.19 2.97 1.1 3.94 2.48.26.36.54.71.82 1.06.15.2.31.24.54.09 2.16-1.44 4.32-2.88 6.48-4.32.3-.2.35-.4.14-.7-.4-.53-.76-1.08-1.16-1.6a12.77 12.77 0 00-10.3-5.21c-1.4-.02-2.8-.1-4.16.05-1.92.2-3.71.86-5.36 1.88a11.26 11.26 0 00-5.48 8.08c-.18 1.15-.1 2.35-.1 3.52-.01 1.66.4 3.2 1.14 4.7a13.78 13.78 0 006.15 6.13c2.28 1.2 4.66 2.23 6.99 3.33 1.43.67 2.87 1.32 4.17 2.27 2 1.45 1.97 4.25.98 5.65a5.16 5.16 0 01-2.72 1.88 9.46 9.46 0 01-4.45.32 8.33 8.33 0 01-3.81-1.45 14.17 14.17 0 01-3.48-3.74c-.13-.2-.24-.36-.53-.2-2.32 1.36-4.65 2.71-6.98 4.06-.32.18-.35.37-.17.68 1.6 2.82 3.7 5.12 6.6 6.67a20.52 20.52 0 0010.31 2.45zM100 0v100H0V0c.17.01.33.04.5.04 33 0 66 0 99 0 .17 0 .33-.03.5-.04z"/></svg>