<svg xmlns="http://www.w3.org/2000/svg" width="38" height="39" fill="none"><path fill="#D34214" d="M26.8 33.44c1.02 0 1.85.85 1.85 1.9 0 1.06-.83 1.9-1.86 1.9a1.88 1.88 0 01-1.85-1.9c0-1.05.83-1.9 1.85-1.9zM13.2 20.04c0 1.04.83 1.9 1.86 1.9 1.02 0 1.85-.86 1.85-1.9 0-1.06-.83-1.91-1.85-1.91-1.03 0-1.86.85-1.86 1.9z"/><path fill="#fff" d="M38 37.1c0 1.05-.83 1.9-1.86 1.9a1.88 1.88 0 01-1.85-1.9c0-1.06.83-1.9 1.85-1.9 1.03 0 1.86.84 1.86 1.9zm-5.94-12.65c0 2.52-2 4.57-4.45 4.57a4.52 4.52 0 01-4.45-4.57c0-1.34.56-2.54 1.46-3.38l-3.2-7.84c-.32-.77.04-1.67.8-1.99.75-.33 1.62.04 1.93.82l3.2 7.83c.09 0 .17 0 .26 0a4.52 4.52 0 014.45 4.56zm-2.97 0a1.5 1.5 0 00-1.48-1.52 1.5 1.5 0 00-1.48 1.52c0 .84.66 1.52 1.48 1.52a1.5 1.5 0 001.48-1.52zm-22.93-2.9c-1.02 0-1.86.86-1.86 1.91 0 1.05.84 1.9 1.86 1.9s1.86-.85 1.86-1.9c0-1.05-.84-1.9-1.86-1.9zM0 12.27C0 9.74 2 7.7 4.45 7.7a4.52 4.52 0 014.46 4.57c0 2.52-2 4.57-4.46 4.57A4.52 4.52 0 010 12.26zm2.97 0c0 .84.66 1.53 1.48 1.53a1.5 1.5 0 001.49-1.53 1.5 1.5 0 00-1.49-1.52 1.5 1.5 0 00-1.48 1.52zm17.92 15.02c.32.78-.04 1.67-.79 2L8.9 34.16c0 .1 0 .18 0 .27 0 2.52-2 4.57-4.45 4.57A4.52 4.52 0 010 34.43c0-2.52 2-4.57 4.45-4.57 1.3 0 2.48.58 3.3 1.5l11.19-4.88c.75-.33 1.63.03 1.95.8zM5.94 34.43a1.5 1.5 0 00-1.49-1.52 1.5 1.5 0 00-1.48 1.52c0 .84.66 1.52 1.48 1.52a1.5 1.5 0 001.49-1.52zm22.7-18.65l2.23-7.56A4.6 4.6 0 0133.55 0 4.52 4.52 0 0138 4.57a4.52 4.52 0 01-4.3 4.57l-2.22 7.53a1.49 1.49 0 01-1.85 1.01 1.53 1.53 0 01-1-1.9zm3.42-11.21c0 .84.67 1.52 1.49 1.52a1.5 1.5 0 001.48-1.52 1.5 1.5 0 00-1.48-1.52 1.5 1.5 0 00-1.49 1.52zM10.84 8.89a1.54 1.54 0 01.68-2.03l3.5-1.75A4.52 4.52 0 0119.44 0a4.52 4.52 0 014.46 4.56c0 2.52-2 4.57-4.45 4.57-1.21 0-2.3-.5-3.11-1.3L12.82 9.6a1.48 1.48 0 01-1.98-.7zm7.12-4.32c0 .84.67 1.52 1.49 1.52a1.5 1.5 0 001.48-1.52 1.5 1.5 0 00-1.48-1.52 1.5 1.5 0 00-1.49 1.52z"/></svg>