<svg width="52" height="70" viewBox="0 0 52 70" fill="none" xmlns="http://www.w3.org/2000/svg">
<path d="M11.1134 53.5938V16.4062C11.1134 11.293 13.7889 6.84961 17.8638 4.49805C17.658 3.95117 16.4644 2.73438 16.4644 2.73438C8.89075 2.73438 2.74405 8.85938 2.74405 16.4062V53.5938C2.74405 61.1406 8.89075 67.2656 16.4644 67.2656H23.1462C15.5863 67.2656 11.1134 61.1406 11.1134 53.5938Z" fill="#565656"/>
<path d="M35.5356 70H16.4644C7.38153 70 0 62.6445 0 53.5938V16.4062C0 7.35547 7.38153 0 16.4644 0H26C29.6359 0.150391 29.6359 5.33203 26 5.46875H16.4644C10.4137 5.46875 5.48813 10.377 5.48813 16.4062V53.5938C5.48813 59.623 10.4137 64.5312 16.4644 64.5312H35.5356C41.5863 64.5312 46.5119 59.623 46.5119 53.5938V46.7578C46.6628 43.1348 51.8628 43.1348 52 46.7578V53.5938C52 62.6445 44.6185 70 35.5356 70Z" fill="white"/>
<path d="M26.2058 51.543C24.3124 51.543 22.7757 53.0742 22.7757 54.9609C22.9541 59.5 29.4575 59.4863 29.6359 54.9609C29.6359 53.0742 28.0992 51.543 26.2058 51.543Z" fill="#D34214"/>
<path d="M49.2559 33.7559C47.7467 33.7559 46.5119 32.5254 46.5119 31.0215V16.4063C46.5119 11.1289 42.7388 6.71289 37.7446 5.6875C36.4686 5.42774 35.5356 4.33399 35.5356 3.02149V2.9668C35.5356 1.27149 37.0997 -0.0273423 38.7736 0.314455C46.3061 1.81836 52 8.46289 52 16.4063V31.0215C52 32.5254 50.7652 33.7559 49.2559 33.7559Z" fill="white"/>
</svg>
