<svg xmlns="http://www.w3.org/2000/svg" width="19" height="18" fill="none"><path fill="#4FBB9E" d="M18.3 12.96a.72.72 0 10-1.34.54 1.55 1.55 0 01-1.44 2.12H3c-.57 0-1.07-.3-1.35-.8s-.27-1.09.03-1.57L7.94 3.12a1.54 1.54 0 012.64 0l4.63 7.49a.72.72 0 101.23-.76l-4.63-7.5A2.98 2.98 0 009.26.94c-1.05 0-2 .54-2.55 1.43L.45 12.49c-.58.94-.6 2.07-.06 3.04A2.96 2.96 0 003 17.07h12.52c1 0 1.91-.48 2.48-1.32a3 3 0 00.3-2.79z"/><path fill="#4FBB9E" d="M9.26 14.2a.72.72 0 100-1.44.72.72 0 100 1.45zM9.98 10.95V5.64a.72.72 0 10-1.44 0v5.31a.72.72 0 101.44 0z"/></svg>