<svg xmlns="http://www.w3.org/2000/svg" width="44" height="44" fill="none"><path fill="#565656" d="M19.14 29.62l-1.52 8.7-2 3.16c-1.17 1.62-3.73.57-3.41-1.4l2.31-14.21h1.38c2 0 3.53 1.77 3.24 3.75zm-9.6-2.6a3.72 3.72 0 01-1.06-5.36L17.1 7.91l.72-4c.32-1.96-2.24-3.01-3.4-1.4L2.43 21.67c-1.8 2.5 0 5.92 3.1 5.92H9.4c.04-.18.09-.37.14-.56z"/><path fill="#fff" d="M14.1 44c-.46 0-.94-.1-1.4-.28a3.55 3.55 0 01-2.19-3.91l1.73-10.5h-6.7A5.5 5.5 0 01.6 26.31a5.42 5.42 0 01.4-5.61L12.96 1.6c.02-.03.04-.06.06-.1A3.55 3.55 0 0117.33.29a3.55 3.55 0 012.19 3.9l-1.76 10.6h6.65c2.1 0 4 1.13 4.93 2.96a5.3 5.3 0 01-.4 5.56L17.06 42.4c-.02.03-.04.06-.06.1a3.55 3.55 0 01-2.9 1.51zm1.74-40.51s-11.98 19.14-12 19.17a1.96 1.96 0 00-.17 2.09c.35.7 1.05 1.12 1.86 1.12h8.74a1.72 1.72 0 011.7 2l-2.06 12.5c-.02.06-.02.12.1.17.1.04.15.01.18-.03l11.85-19.06a1.9 1.9 0 00.24-2.13 2.06 2.06 0 00-1.87-1.1h-8.68a1.72 1.72 0 01-1.7-2l2.1-12.59c0-.06.01-.12-.11-.17-.1-.04-.15-.01-.18.03z"/><path fill="#D34214" d="M33.51 27.33a1.72 1.72 0 01-1.4-2.72l8.34-11.57c.05-.06.18-.24.06-.47-.04-.08-.18-.28-.51-.28h-6.23a1.72 1.72 0 01-1.7-1.99l.8-5.07-4.14 5.82a1.72 1.72 0 11-2.8-1.99l5.6-7.86a2.84 2.84 0 015.13 2.1l-.88 5.55H40c1.52 0 2.89.83 3.57 2.15.66 1.3.54 2.85-.33 4.05l-8.33 11.56c-.34.47-.87.72-1.4.72z"/></svg>