<svg xmlns="http://www.w3.org/2000/svg" width="29" height="17" fill="none"><path fill="#AAA" d="M22.19.17c-.14-.2-.44-.22-.63-.08L17.13 3.6 11.4 1.23a.44.44 0 00-.41.06L4.87 5.67a.44.44 0 00-.11.6c.08.13.22.19.36.19.08 0 .16-.03.24-.08l5.94-4.24 5.74 2.38a.5.5 0 00.44-.06L22.1.8c.2-.14.22-.44.09-.63z"/><path fill="#AAA" d="M28.59 15.16h-2.03V2.49c0-.24-.19-.43-.43-.43H22.1c-.24 0-.43.19-.43.43v12.67h-1.48V6.87c0-.25-.2-.44-.44-.44H15.7c-.24 0-.44.2-.44.44v8.29H13.8V6.2c0-.24-.2-.43-.44-.43H9.33c-.25 0-.44.19-.44.43v8.95H7.41V8.78c0-.24-.19-.43-.43-.43H2.93c-.25 0-.44.19-.44.43v6.38H.44c-.25 0-.44.19-.44.44 0 .24.2.43.44.43h28.12c.25 0 .44-.19.44-.43.02-.25-.17-.44-.41-.44zm-22.08 0H3.36V9.22h3.15v5.94zm6.4 0H9.77v-8.5h3.14v8.5zm6.38 0h-3.15V7.3h3.15v7.85zm6.4 0h-3.15V2.93h3.15v12.23z"/></svg>