<svg xmlns="http://www.w3.org/2000/svg" width="99" height="111" fill="none"><path fill="#fff" fill-rule="evenodd" d="M49.23 39.07a16.28 16.28 0 00-14.14 24.37l28.22-16.26a16.27 16.27 0 00-14.09-8.11z" clip-rule="evenodd" opacity=".6"/><path fill="#fff" fill-rule="evenodd" d="M16.53 55.36a32.7 32.7 0 0161-16.37l19.71-11.36a9.4 9.4 0 00-3.56-3.47C80.58 16.6 67.45 9.06 54.35 1.49 50.82-.55 47.4-.48 43.9 1.6 38.67 4.67 12.55 19.64 4.77 24.16 1.57 26 .01 28.86 0 32.55c0 15.2 0 30.41 0 45.62 0 1.82.38 3.43 1.15 4.82l19.71-11.36a32.58 32.58 0 01-4.33-16.27z" clip-rule="evenodd" opacity=".6"/><path fill="#fff" fill-rule="evenodd" d="M35.1 63.44a16.27 16.27 0 0028.31-.1l-14.03-8.13-14.29 8.23z" clip-rule="evenodd" opacity=".75"/><path fill="#fff" fill-rule="evenodd" d="M49.23 88.07a32.67 32.67 0 01-28.37-16.44L1.16 83a9.37 9.37 0 003.6 3.57c7.79 4.5 33.91 19.48 39.13 22.56 3.5 2.07 6.93 2.14 10.46.1 13.1-7.57 26.23-15.1 39.33-22.67A9.37 9.37 0 0097.3 83l-19.68-11.4a32.68 32.68 0 01-28.4 16.48z" clip-rule="evenodd" opacity=".75"/><path fill="#fff" fill-rule="evenodd" d="M95.81 57.2h-3.74v3.74h-3.75V57.2h-3.74v-3.74h3.74V49.7h3.75v3.75h3.74v3.74zm-13.67 0H78.4v3.74h-3.74V57.2H70.9v-3.74h3.75V49.7h3.74v3.75h3.75v3.74zm16.3-24.65c0-1.86-.4-3.5-1.2-4.92L49.38 55.21 97.3 82.99c.77-1.4 1.15-3 1.15-4.83 0 0 0-30.4 0-45.61z" clip-rule="evenodd" opacity=".9"/></svg>