<svg xmlns="http://www.w3.org/2000/svg" width="36" height="42" fill="none"><path fill="#565656" d="M7.17 32.16V9.84c0-4.53 3.66-8.2 8.18-8.2h-4.98a8.2 8.2 0 00-8.2 8.2v22.32a8.2 8.2 0 008.2 8.2h4.98a8.19 8.19 0 01-8.18-8.2z"/><path fill="#fff" d="M25.55 42h-15.1a9.85 9.85 0 01-9.84-9.84V9.84A9.85 9.85 0 0110.45 0h15.1a9.85 9.85 0 019.84 9.84v22.32A9.85 9.85 0 0125.55 42zM10.45 3.28A6.57 6.57 0 003.9 9.84v22.32a6.57 6.57 0 006.56 6.56h15.1a6.57 6.57 0 006.56-6.56V9.84a6.57 6.57 0 00-6.56-6.56h-15.1zm18.3 11.81c0-.9-.74-1.64-1.64-1.64h-2.8A2.46 2.46 0 0121.87 11V8.2a1.64 1.64 0 10-3.29 0V11a5.75 5.75 0 005.75 5.73h2.79c.9 0 1.64-.73 1.64-1.64zm-6 17.48V23.7a1.64 1.64 0 10-3.27 0v8.86a1.64 1.64 0 103.28 0zm6.08 0v-3.94a1.64 1.64 0 10-3.28 0v3.94a1.64 1.64 0 103.28 0zm-18.38 0v-6.4a1.64 1.64 0 10-3.28 0v6.4a1.64 1.64 0 103.28 0z"/><path fill="#D34214" d="M14.96 34.2c-.9 0-1.64-.73-1.64-1.63V18.79a1.64 1.64 0 113.29 0v13.78c0 .9-.74 1.64-1.65 1.64z"/></svg>