<svg xmlns="http://www.w3.org/2000/svg" width="18" height="18" fill="none"><path fill="#fff" d="M17.63 0c-3.51-.06-7.52 1.78-10.06 4.62A9.52 9.52 0 001.05 7.4a.38.38 0 00.21.64l2.9.41-.36.4a.37.37 0 00.01.52l4.82 4.82a.37.37 0 00.52.01l.4-.35.4 2.89c.03.14.14.24.27.29.04 0 .08.01.11.01.1 0 .22-.04.3-.12a9.5 9.5 0 002.75-6.5C16.23 7.88 18.08 3.88 18 .37c0-.2-.17-.36-.37-.37zm-3.45 6.48a1.87 1.87 0 01-2.66 0 1.88 1.88 0 112.66 0zM2.04 12.68c-.8.8-1.9 4.43-2.02 4.84a.38.38 0 00.46.46c.41-.12 4.04-1.22 4.84-2.02a2.32 2.32 0 00-3.28-3.28z"/></svg>