<svg xmlns="http://www.w3.org/2000/svg" width="42" height="42" fill="none"><path fill="#565656" d="M23.54 30.08a9.43 9.43 0 110-18.17 9.44 9.44 0 000 18.17zM6.56 21c0-9.86 7.37-18 16.9-19.2a19.36 19.36 0 100 38.4A19.36 19.36 0 016.56 21z"/><path fill="#fff" d="M21 42c-5.6 0-10.88-2.18-14.85-6.15A20.86 20.86 0 010 21c0-5.6 2.18-10.88 6.15-14.85A20.86 20.86 0 0121 0c6.75 0 13.14 3.26 17.08 8.72a1.64 1.64 0 01-2.66 1.92A17.74 17.74 0 003.28 21a17.74 17.74 0 0032.14 10.36 1.64 1.64 0 012.66 1.92A21.11 21.11 0 0121 42zm7.9-13.3a1.64 1.64 0 00-2.35-2.28A7.67 7.67 0 0121 28.8a7.8 7.8 0 010-15.58c2.1 0 4.07.84 5.55 2.37a1.64 1.64 0 002.36-2.28A10.93 10.93 0 0021 9.93C14.9 9.93 9.93 14.89 9.93 21c0 6.1 4.96 11.07 11.07 11.07 3 0 5.8-1.2 7.9-3.37z"/><path fill="#D34214" d="M39.58 22.67a2.34 2.34 0 010-3.34l1.94-1.92a1.64 1.64 0 10-2.32-2.33L37.27 17a5.61 5.61 0 00-1.43 2.36H21a1.64 1.64 0 100 3.28h14.84c.27.88.75 1.69 1.43 2.36l1.93 1.92a1.64 1.64 0 002.32 0c.64-.65.64-1.69 0-2.33l-1.94-1.92z"/></svg>