<svg xmlns="http://www.w3.org/2000/svg" width="51" height="31" fill="none"><path fill="#53BDA0" d="M27.05 25.65a15.9 15.9 0 001.56 2.98 3.5 3.5 0 002.85 1.46v.86H19.9v-.86c2.15-.15 3.2-.66 3.2-1.51 0-.66-.4-1.87-1.15-3.64L14.38 6.56 7.56 23.12c-1.1 2.63-1.65 4.3-1.65 5.1 0 1.21 1.05 1.82 3.1 1.87v.86H0v-.86c1-.15 1.8-.55 2.35-1.16.8-.86 1.96-3.13 3.51-6.82L15.13 0h.9l11.02 25.65zM41.98.86V0h8.97v.86c-1 .15-1.8.55-2.35 1.16-.8.86-1.96 3.13-3.51 6.82l-9.22 22.1h-.9L23.9 5.36a15.89 15.89 0 00-1.56-2.98 3.47 3.47 0 00-2.8-1.51V0H31.1v.86c-2.15.15-3.2.65-3.2 1.51 0 .66.4 1.87 1.15 3.64l7.56 18.38 6.81-16.51c1.1-2.63 1.66-4.3 1.66-5.1 0-1.21-1.05-1.87-3.1-1.92z"/></svg>