<svg xmlns="http://www.w3.org/2000/svg" width="100" height="87" fill="none"><path fill="#fff" fill-rule="evenodd" d="M39.2 27.07L14.9 69.3l-5.67-9.65 6.55-11.3-13-.04L0 43.48l2.83-4.93 18.51.06L28 27.1l11.2-.04zm1.86 33.75h48.6l-5.5 9.75-13.03-.03 6.47 11.31-2.77 4.82h-5.67l-9.21-16.1-13.26-.03-5.63-9.72zm28.29-18.5L45.05.1 56.22 0l6.48 11.34L69.23.06h5.55L77.62 5l-9.3 16.05 6.6 11.53-5.57 9.75z" clip-rule="evenodd" opacity=".7"/><path fill="#fff" fill-rule="evenodd" d="M30.43 44.46l24.3 42.22-11.17.1-6.49-11.34-6.53 11.28H25l-2.84-4.92 9.31-16.06-6.6-11.53 5.57-9.75zm28.22-18.6h-48.6l5.5-9.76 13.03.04-6.47-11.32L24.88 0h5.68l9.2 16.11 13.26.03 5.63 9.72zm1.9 33.84l24.3-42.21 5.67 9.64-6.55 11.31 13 .03 2.77 4.82-2.83 4.94-18.5-.06-6.66 11.5-11.2.03z" clip-rule="evenodd"/></svg>