<svg xmlns="http://www.w3.org/2000/svg" width="20" height="24" fill="none"><path fill="#AAA" d="M17.97 14.77V6.42c0-.26-.21-.44-.47-.44h-1.83c-.26 0-.48.18-.48.44v7.53c-.3.01-.6.05-.9.12V8.88c0-.26-.22-.45-.48-.45h-1.82c-.26 0-.48.19-.48.45v7.04a4.67 4.67 0 106.46-1.15zm-1.84-7.84h.9v7.34a4.2 4.2 0 00-.9-.24v-7.1zm-3.68 2.45h.9v5.02a4.8 4.8 0 00-.9.54V9.38zm6.09 11.15a3.73 3.73 0 11-2.92-5.62 3.73 3.73 0 012.9 5.62z"/><path fill="#AAA" d="M15.33 18.24a.6.6 0 01-.6-.59c0-.33.27-.6.6-.6.33 0 .6.27.6.6 0 .26.2.47.46.47.27 0 .48-.21.48-.47 0-.64-.38-1.2-.97-1.44v-.39a.47.47 0 00-.47-.47.47.47 0 00-.47.47v.34a1.54 1.54 0 00.37 3.02.6.6 0 01.59.6.6.6 0 01-.6.59.6.6 0 01-.59-.6.47.47 0 00-.47-.47c-.26 0-.46.2-.46.47 0 .7.48 1.31 1.15 1.49v.2c0 .27.21.48.47.48s.47-.21.47-.47v-.26a1.54 1.54 0 00-.56-2.97zM6.42 12.2H4.58a.47.47 0 00-.47.48v7.4c0 .26.21.47.47.47h1.84c.26 0 .47-.21.47-.47v-7.4a.47.47 0 00-.47-.47zm-.47 7.45h-.9v-6.5h.9v6.5zM10.14 11.12H8.3a.47.47 0 00-.47.47v8.54c0 .26.21.47.47.47h1.84c.26 0 .47-.21.47-.47v-8.54a.47.47 0 00-.47-.47zm-.47 8.53h-.9v-7.59h.9v7.6zM2.7 16.26H.84a.47.47 0 00-.47.47v3.35c0 .26.21.47.47.47H2.7c.26 0 .47-.21.47-.47v-3.35a.47.47 0 00-.47-.47zm-.48 3.4h-.9V17.2h.9v2.46zM17.9 0h-3.23a.47.47 0 000 .94h2.1l-5.12 5.1-1.8-1.77a.46.46 0 00-.33-.13.46.46 0 00-.33.13L.14 13.32a.47.47 0 00.33.8c.13 0 .25-.05.34-.14l8.72-8.72 1.79 1.8c.08.1.2.14.33.15a.5.5 0 00.34-.15l5.44-5.45v2.1c0 .26.2.48.46.49.27 0 .47-.23.47-.49V.48A.48.48 0 0017.9 0z"/></svg>