<svg width="58" height="70" viewBox="0 0 58 70" fill="none" xmlns="http://www.w3.org/2000/svg">
<path d="M10.9375 53.5994V16.4006C10.9375 8.85295 17.0412 2.73438 24.5705 2.73438H16.2695C8.71869 2.73438 2.59766 8.85541 2.59766 16.4062V53.5938C2.59766 61.1445 8.71869 67.2656 16.2695 67.2656H24.5705C17.0412 67.2656 10.9375 61.147 10.9375 53.5994Z" fill="#565656"/>
<path d="M41.5625 70H16.4062C7.35984 70 0 62.6402 0 53.5938V16.4062C0 7.35984 7.35984 0 16.4062 0H41.5625C50.6089 0 57.9688 7.35984 57.9688 16.4062V53.5938C57.9688 62.6402 50.6089 70 41.5625 70ZM16.4062 5.46875C10.3753 5.46875 5.46875 10.3753 5.46875 16.4062V53.5938C5.46875 59.6247 10.3753 64.5312 16.4062 64.5312H41.5625C47.5934 64.5312 52.5 59.6247 52.5 53.5938V16.4062C52.5 10.3753 47.5934 5.46875 41.5625 5.46875H16.4062ZM46.8945 25.1562C46.8945 23.6461 45.6704 22.4219 44.1602 22.4219H39.5117C37.2501 22.4219 35.4102 20.5819 35.4102 18.3203V13.6719C35.4102 12.1617 34.186 10.9375 32.6758 10.9375C31.1656 10.9375 29.9414 12.1617 29.9414 13.6719V18.3203C29.9414 23.5974 34.2346 27.8906 39.5117 27.8906H44.1602C45.6704 27.8906 46.8945 26.6664 46.8945 25.1562ZM36.9141 54.2773V39.5117C36.9141 38.0015 35.6899 36.7773 34.1797 36.7773C32.6695 36.7773 31.4453 38.0015 31.4453 39.5117V54.2773C31.4453 55.7875 32.6695 57.0117 34.1797 57.0117C35.6899 57.0117 36.9141 55.7875 36.9141 54.2773ZM47.0312 54.2773V47.7148C47.0312 46.2046 45.8071 44.9805 44.2969 44.9805C42.7867 44.9805 41.5625 46.2046 41.5625 47.7148V54.2773C41.5625 55.7875 42.7867 57.0117 44.2969 57.0117C45.8071 57.0117 47.0312 55.7875 47.0312 54.2773ZM16.4062 54.2773V43.6133C16.4062 42.1031 15.1821 40.8789 13.6719 40.8789C12.1617 40.8789 10.9375 42.1031 10.9375 43.6133V54.2773C10.9375 55.7875 12.1617 57.0117 13.6719 57.0117C15.1821 57.0117 16.4062 55.7875 16.4062 54.2773Z" fill="white"/>
<path d="M23.9258 57.0117C22.4156 57.0117 21.1914 55.7875 21.1914 54.2773V31.3086C21.1914 29.7984 22.4156 28.5742 23.9258 28.5742C25.436 28.5742 26.6602 29.7984 26.6602 31.3086V54.2773C26.6602 55.7875 25.436 57.0117 23.9258 57.0117Z" fill="#D34214"/>
</svg>
