<svg xmlns="http://www.w3.org/2000/svg" width="42" height="42" fill="none"><path fill="#565656" d="M25.68 37.38L7.93 19.8a3.85 3.85 0 01.11-5.55c.66-.6 1.4-1.13 2.17-1.58a14.87 14.87 0 00-7.34 3.44 3.85 3.85 0 00-.1 5.54L20.5 39.23a3.85 3.85 0 005.54-.1c.28-.3.54-.63.79-.96a3.87 3.87 0 01-1.16-.8z"/><path fill="#fff" d="M23.06 27.2a72.97 72.97 0 01-2.73 2.57 1.64 1.64 0 102.16 2.47c.73-.63 1.44-1.31 2.85-2.68a1.64 1.64 0 10-2.28-2.35zM12.43 16.91c-.54.56-.96.99-1.33 1.36-.5.5-.89.9-1.26 1.32a1.64 1.64 0 002.47 2.16c.3-.35.64-.69 1.12-1.16.36-.37.81-.82 1.37-1.4a1.64 1.64 0 00-2.37-2.28z"/><path fill="#fff" d="M40.5 1.49a5.01 5.01 0 00-4.96-1.3c-3.43.97-8.95 3.4-15.83 9.44a5.16 5.16 0 01-4.05 1.23c-2.25-.28-4.77-.1-7.1.5a15.96 15.96 0 00-6.8 3.54A5.4 5.4 0 000 18.8a5.55 5.55 0 001.61 4.02L19.35 40.4a5.55 5.55 0 004.02 1.6 5.4 5.4 0 003.9-1.76 15.97 15.97 0 003.54-6.83c.6-2.34.78-4.87.48-7.11a5.17 5.17 0 011.22-4.06c5.94-6.8 8.33-12.34 9.3-15.77.5-1.8.01-3.66-1.31-4.98zm-1.85 4.1c-.87 3.1-3.07 8.15-8.6 14.49a8.45 8.45 0 00-2 6.64c.43 3.4-.39 8.22-3.2 11.3a2.22 2.22 0 01-3.18.05L3.92 20.49a2.22 2.22 0 01.05-3.17c3.06-2.8 7.87-3.63 11.27-3.2 2.4.3 4.82-.43 6.63-2.02 6.42-5.65 11.45-7.87 14.55-8.74.9-.26 1.53.23 1.75.45.47.47.64 1.13.47 1.77z"/><path fill="#fff" d="M23.79 20.5a2.05 2.05 0 100-4.1 2.05 2.05 0 000 4.1z"/><path fill="#D34214" d="M26.82 13.37a2.05 2.05 0 014.1 0 2.05 2.05 0 01-4.1 0zM5.51 41.77c2.05-.7 4.95-2.38 5.08-2.45a1.64 1.64 0 00-1.65-2.84c-.03.02-2.75 1.6-4.49 2.19a.86.86 0 01-.92-.22.84.84 0 01-.19-.9l.04-.12c.63-1.68.64-1.72 2.2-4.25a1.64 1.64 0 00-2.8-1.72C1.1 34.2 1.02 34.41.32 36.28l-.04.12a4.11 4.11 0 00.9 4.33 4.13 4.13 0 004.34 1.04z"/></svg>