<svg width="70" height="70" viewBox="0 0 70 70" fill="none" xmlns="http://www.w3.org/2000/svg">
<path d="M38.7881 47.3145C36.6747 44.1453 35.5469 40.4213 35.5469 36.6121V10.9372C35.5469 7.90138 37.1972 5.25292 39.6484 3.83435C38.4416 3.136 37.0417 2.73419 35.5469 2.73419C31.0166 2.73419 27.344 6.4068 27.344 10.9372V37.9862C27.344 41.7954 28.4717 45.5194 30.5851 48.6886L35.5469 55.9167L40.1201 49.2548L38.7881 47.3145Z" fill="#565656"/>
<path d="M35.5469 58.6513C34.6458 58.6513 33.8026 58.2074 33.2926 57.4644L28.3308 50.2362C28.3238 50.2261 28.317 50.216 28.3103 50.2058C25.8893 46.5754 24.6098 42.3499 24.6098 37.9863V10.9373C24.6098 4.90647 29.5163 0 35.5471 0C41.5779 0 46.4844 4.90647 46.4844 10.9373V37.9863C46.4844 42.3499 45.2048 46.5753 42.7839 50.2058C42.777 50.216 42.7702 50.2261 42.7634 50.2362L37.8015 57.4644C37.2912 58.2072 36.4479 58.6513 35.5469 58.6513ZM32.8497 47.1563L35.5469 51.0855L38.2441 47.1566C40.0572 44.431 41.0156 41.2603 41.0156 37.9863V10.9373C41.0156 7.92189 38.5624 5.46865 35.5469 5.46865C32.5315 5.46865 30.0783 7.92189 30.0783 10.9373V37.9863C30.0783 41.2603 31.0365 44.4307 32.8497 47.1563ZM69.9994 67.2644C69.9994 65.7542 68.7753 64.5301 67.2651 64.5301H2.73504C1.22487 64.5301 0.000717163 65.7542 0.000717163 67.2644C0.000717163 68.7746 1.22487 69.9987 2.73504 69.9987H67.2651C68.7751 69.9987 69.9994 68.7744 69.9994 67.2644Z" fill="white"/>
<path d="M52.0322 51.4242C51.3407 51.4242 50.649 51.1636 50.1166 50.6409C49.0391 49.583 49.0232 47.8518 50.0811 46.7742L56.677 40.0562C57.7352 38.9785 59.4663 38.9628 60.5437 40.0208C61.6213 41.0787 61.6372 42.81 60.5793 43.8876L53.9834 50.6055C53.448 51.1508 52.7402 51.4242 52.0322 51.4242ZM56.6343 60.5185L67.9055 57.803C69.3735 57.4493 70.2771 55.9723 69.9233 54.5043C69.5695 53.0362 68.0925 52.1322 66.6246 52.4865L55.3534 55.2021C53.8854 55.5557 52.9818 57.0327 53.3356 58.5008C53.6375 59.7536 54.7572 60.5952 55.9916 60.5952C56.2035 60.5952 56.4191 60.5705 56.6343 60.5185ZM63.1636 33.8715C63.1636 35.7591 64.6939 37.2894 66.5815 37.2894C68.4692 37.2894 69.9994 35.7591 69.9994 33.8715C69.9994 31.9838 68.4692 30.4536 66.5815 30.4536C64.6939 30.4536 63.1636 31.9837 63.1636 33.8715ZM19.8834 50.6409C20.961 49.583 20.9768 47.8518 19.9189 46.7742L13.323 40.0562C12.265 38.9785 10.5339 38.9628 9.45628 40.0208C8.37868 41.0787 8.36282 42.81 9.42073 43.8876L16.0166 50.6055C16.552 51.1509 17.2596 51.4242 17.9678 51.4242C18.6592 51.4242 19.3511 51.1635 19.8834 50.6409ZM16.6644 58.5008C17.0182 57.0327 16.1146 55.5557 14.6466 55.2021L3.37541 52.4865C1.90722 52.1325 0.430546 53.0361 0.0767247 54.5043C-0.277097 55.9723 0.626461 57.4493 2.09452 57.803L13.3657 60.5185C13.581 60.5705 13.7962 60.5952 14.0084 60.5952C15.2427 60.5952 16.3625 59.7536 16.6644 58.5008ZM3.41862 30.4536C1.53098 30.4536 0.00071043 31.9838 0.00071043 33.8715C0.00071043 35.7591 1.53098 37.2894 3.41862 37.2894C5.30626 37.2894 6.83652 35.7591 6.83652 33.8715C6.83652 31.9837 5.30626 30.4536 3.41862 30.4536Z" fill="#D34214"/>
</svg>
