<svg width="174" height="28" viewBox="0 0 174 28" fill="none" xmlns="http://www.w3.org/2000/svg">
<path d="M94.4186 27.5134C93.2003 26.7302 91.7644 27.1653 90.4591 26.7302C89.7194 26.4691 88.8927 26.4256 88.066 25.947C88.066 17.6364 88.066 9.2823 88.066 0.841193C89.85 0.362574 91.5469 0.580128 93.3308 0.66715C93.94 2.75567 93.3308 4.88771 93.7224 7.01974C94.8102 7.01974 95.7674 7.01974 96.7682 7.01974C101.598 7.06325 104.383 9.36933 105.079 14.1555C105.427 16.4616 105.427 18.7677 104.905 21.0738C104.035 24.9462 101.641 26.9477 97.5514 27.1653C96.6377 27.2523 95.6369 26.7302 94.8102 27.5569C94.7232 27.5134 94.5491 27.5134 94.4186 27.5134ZM93.5919 22.2485C94.4621 22.7707 95.1148 22.6837 95.7674 22.6837C98.204 22.7272 99.2918 21.9005 99.5094 19.5074C99.6834 17.8104 99.7269 16.0265 99.4224 14.3296C99.0743 12.3716 98.1605 11.6319 96.159 11.5449C95.2888 11.5014 94.4621 11.6754 93.5919 11.98C93.5919 12.7197 93.5919 13.3723 93.5919 14.025C93.5919 16.7662 93.5919 19.5074 93.5919 22.2485Z" fill="#4D4D5D"/>
<path d="M94.4186 27.5134C93.2003 26.7302 91.7644 27.1653 90.4591 26.7302C89.7194 26.4691 88.8927 26.4256 88.066 25.947C88.066 17.6364 88.066 9.2823 88.066 0.841193C89.85 0.362574 91.5469 0.580128 93.3308 0.66715C93.94 2.75567 93.3308 4.88771 93.7224 7.01974C94.8102 7.01974 95.7674 7.01974 96.7682 7.01974C101.598 7.06325 104.383 9.36933 105.079 14.1555C105.427 16.4616 105.427 18.7677 104.905 21.0738C104.035 24.9462 101.641 26.9477 97.5514 27.1653C96.6377 27.2523 95.6369 26.7302 94.8102 27.5569C94.7232 27.5134 94.5491 27.5134 94.4186 27.5134ZM93.5919 22.2485C94.4621 22.7707 95.1148 22.6837 95.7674 22.6837C98.204 22.7272 99.2918 21.9005 99.5094 19.5074C99.6834 17.8104 99.7269 16.0265 99.4224 14.3296C99.0743 12.3716 98.1605 11.6319 96.159 11.5449C95.2888 11.5014 94.4621 11.6754 93.5919 11.98C93.5919 12.7197 93.5919 13.3723 93.5919 14.025C93.5919 16.7662 93.5919 19.5074 93.5919 22.2485Z" fill="url(#paint0_linear)" fill-opacity="0.4"/>
<path d="M127.052 27.5134C126.617 26.7737 125.79 26.9042 125.181 26.5997C122.57 25.4684 121.047 23.5539 120.525 20.7692C120.09 18.3761 120.09 16.0265 120.525 13.6334C121.308 9.23882 124.702 6.80221 129.793 6.97626C134.101 7.10679 137.103 9.89148 137.581 14.2426C137.712 15.3303 137.755 16.4181 137.799 17.5059C137.799 17.854 137.712 18.2456 137.32 18.7677C133.709 18.7677 129.923 18.7677 126.095 18.7677C126.095 21.5089 127.052 22.5532 129.488 22.6402C131.098 22.6837 132.665 22.6837 134.275 22.4226C135.058 22.2921 135.841 22.2051 136.668 22.4661C137.233 23.5974 136.929 24.7287 136.929 25.9035C135.145 27.3393 132.839 26.5997 130.968 27.4699C129.662 27.5134 128.357 27.5134 127.052 27.5134ZM125.964 15.3303C128.053 15.2868 130.141 15.5479 132.23 15.1563C131.664 12.2846 130.663 11.2838 128.792 11.4579C127.008 11.6319 126.182 12.7197 125.964 15.3303Z" fill="#4D4D5D"/>
<path d="M127.052 27.5134C126.617 26.7737 125.79 26.9042 125.181 26.5997C122.57 25.4684 121.047 23.5539 120.525 20.7692C120.09 18.3761 120.09 16.0265 120.525 13.6334C121.308 9.23882 124.702 6.80221 129.793 6.97626C134.101 7.10679 137.103 9.89148 137.581 14.2426C137.712 15.3303 137.755 16.4181 137.799 17.5059C137.799 17.854 137.712 18.2456 137.32 18.7677C133.709 18.7677 129.923 18.7677 126.095 18.7677C126.095 21.5089 127.052 22.5532 129.488 22.6402C131.098 22.6837 132.665 22.6837 134.275 22.4226C135.058 22.2921 135.841 22.2051 136.668 22.4661C137.233 23.5974 136.929 24.7287 136.929 25.9035C135.145 27.3393 132.839 26.5997 130.968 27.4699C129.662 27.5134 128.357 27.5134 127.052 27.5134ZM125.964 15.3303C128.053 15.2868 130.141 15.5479 132.23 15.1563C131.664 12.2846 130.663 11.2838 128.792 11.4579C127.008 11.6319 126.182 12.7197 125.964 15.3303Z" fill="url(#paint1_linear)" fill-opacity="0.4"/>
<path d="M26.1065 27.5135C25.7584 26.8173 25.0188 26.9044 24.4531 26.6433C21.4509 25.4685 19.8845 23.2059 19.5364 20.0731C19.3623 18.2022 19.3623 16.2877 19.5364 14.4167C19.841 10.8924 21.886 8.2817 25.3233 7.36797C28.6302 6.49776 31.8935 6.71531 34.4171 9.32596C36.9407 11.9366 37.1148 15.1999 36.7232 18.8113C32.8072 18.8113 29.0653 18.8113 25.3233 18.8113C25.1493 21.2915 26.0195 22.4662 28.2386 22.6403C29.892 22.7273 31.5889 22.6838 33.2423 22.4662C34.069 22.3357 34.9392 22.1182 35.8965 22.5968C36.2446 23.6846 36.0705 24.8158 36.027 26.0777C34.156 26.9914 32.1545 27.1654 30.153 27.1219C28.9782 27.2524 27.6729 26.5998 26.5851 27.5135C26.4111 27.5135 26.2371 27.5135 26.1065 27.5135ZM31.1973 15.374C31.0668 12.6763 30.1095 11.458 28.1951 11.458C26.1936 11.458 25.1493 12.7633 25.1928 15.1999C25.5844 15.461 26.0195 15.3305 26.4546 15.374C27.9775 15.374 29.5004 15.374 31.1973 15.374Z" fill="#4D4D5D"/>
<path d="M26.1065 27.5135C25.7584 26.8173 25.0188 26.9044 24.4531 26.6433C21.4509 25.4685 19.8845 23.2059 19.5364 20.0731C19.3623 18.2022 19.3623 16.2877 19.5364 14.4167C19.841 10.8924 21.886 8.2817 25.3233 7.36797C28.6302 6.49776 31.8935 6.71531 34.4171 9.32596C36.9407 11.9366 37.1148 15.1999 36.7232 18.8113C32.8072 18.8113 29.0653 18.8113 25.3233 18.8113C25.1493 21.2915 26.0195 22.4662 28.2386 22.6403C29.892 22.7273 31.5889 22.6838 33.2423 22.4662C34.069 22.3357 34.9392 22.1182 35.8965 22.5968C36.2446 23.6846 36.0705 24.8158 36.027 26.0777C34.156 26.9914 32.1545 27.1654 30.153 27.1219C28.9782 27.2524 27.6729 26.5998 26.5851 27.5135C26.4111 27.5135 26.2371 27.5135 26.1065 27.5135ZM31.1973 15.374C31.0668 12.6763 30.1095 11.458 28.1951 11.458C26.1936 11.458 25.1493 12.7633 25.1928 15.1999C25.5844 15.461 26.0195 15.3305 26.4546 15.374C27.9775 15.374 29.5004 15.374 31.1973 15.374Z" fill="url(#paint2_linear)" fill-opacity="0.4"/>
<path d="M161.86 27.5133C161.773 27.0782 161.382 26.9912 161.077 26.9042C158.945 26.0775 158.032 24.3806 157.727 22.2485C157.292 18.8982 158.684 16.6791 161.947 15.7219C162.948 15.4173 163.949 15.3303 164.95 15.3303C165.863 15.3303 166.821 15.3303 167.691 15.3303C168.431 12.5456 167.908 11.8059 165.341 11.7624C163.34 11.7189 161.295 11.7624 159.206 11.7624C158.597 10.6311 158.902 9.41281 158.989 7.93344C162.861 6.93269 166.734 6.32354 170.606 8.02046C172.216 8.71664 173.13 10.109 173.565 11.8059C173.695 12.2845 173.521 12.8502 174 13.1983C174 17.6799 174 22.205 174 26.6866C171.911 27.2088 169.866 27.5133 167.821 26.208C167.125 26.8607 165.95 26.7301 165.298 27.5568C164.167 27.5133 163.035 27.5133 161.86 27.5133ZM168.257 22.1615C168.3 20.9432 168.387 19.8119 168.17 18.6371C166.995 18.4196 165.907 18.4196 164.863 18.7241C163.557 19.1157 162.992 20.16 163.209 21.5959C163.427 23.0752 164.515 23.1622 165.646 23.0752C166.516 23.0317 167.386 22.8142 168.257 22.1615Z" fill="#4D4D5D"/>
<path d="M161.86 27.5133C161.773 27.0782 161.382 26.9912 161.077 26.9042C158.945 26.0775 158.032 24.3806 157.727 22.2485C157.292 18.8982 158.684 16.6791 161.947 15.7219C162.948 15.4173 163.949 15.3303 164.95 15.3303C165.863 15.3303 166.821 15.3303 167.691 15.3303C168.431 12.5456 167.908 11.8059 165.341 11.7624C163.34 11.7189 161.295 11.7624 159.206 11.7624C158.597 10.6311 158.902 9.41281 158.989 7.93344C162.861 6.93269 166.734 6.32354 170.606 8.02046C172.216 8.71664 173.13 10.109 173.565 11.8059C173.695 12.2845 173.521 12.8502 174 13.1983C174 17.6799 174 22.205 174 26.6866C171.911 27.2088 169.866 27.5133 167.821 26.208C167.125 26.8607 165.95 26.7301 165.298 27.5568C164.167 27.5133 163.035 27.5133 161.86 27.5133ZM168.257 22.1615C168.3 20.9432 168.387 19.8119 168.17 18.6371C166.995 18.4196 165.907 18.4196 164.863 18.7241C163.557 19.1157 162.992 20.16 163.209 21.5959C163.427 23.0752 164.515 23.1622 165.646 23.0752C166.516 23.0317 167.386 22.8142 168.257 22.1615Z" fill="url(#paint3_linear)" fill-opacity="0.4"/>
<path d="M43.0758 27.5132C42.8147 26.8606 42.1621 26.9041 41.6834 26.5995C40.3346 25.8598 39.5079 24.7285 39.1163 23.2492C38.0285 18.8546 39.943 15.9829 44.4246 15.3737C45.904 15.1997 47.4269 15.1997 48.9062 15.1562C49.5589 12.415 49.0803 11.7188 46.4696 11.7188C44.4681 11.6753 42.4231 11.7188 40.3781 11.7188C39.8125 10.5005 40.03 9.3257 40.2041 7.84633C44.033 6.9326 47.8185 6.32345 51.6039 7.88984C53.2573 8.58601 54.4321 9.89134 54.6497 11.6318C55.1718 16.679 54.7802 21.7263 54.9107 26.9041C52.8222 26.9041 50.9513 27.6003 49.2108 26.1644C48.4711 26.7736 47.2528 26.643 46.5131 27.5132C45.3819 27.5132 44.2506 27.5132 43.0758 27.5132ZM49.5154 22.1179C49.3414 20.9431 49.7765 19.7248 49.2108 18.5935C48.123 18.463 47.1223 18.4195 46.1215 18.724C44.7727 19.1156 44.2071 20.1164 44.3811 21.5523C44.5552 22.9881 45.5994 23.2057 46.7742 23.1186C47.6879 23.0316 48.5146 22.8141 49.5154 22.1179Z" fill="#4D4D5D"/>
<path d="M43.0758 27.5132C42.8147 26.8606 42.1621 26.9041 41.6834 26.5995C40.3346 25.8598 39.5079 24.7285 39.1163 23.2492C38.0285 18.8546 39.943 15.9829 44.4246 15.3737C45.904 15.1997 47.4269 15.1997 48.9062 15.1562C49.5589 12.415 49.0803 11.7188 46.4696 11.7188C44.4681 11.6753 42.4231 11.7188 40.3781 11.7188C39.8125 10.5005 40.03 9.3257 40.2041 7.84633C44.033 6.9326 47.8185 6.32345 51.6039 7.88984C53.2573 8.58601 54.4321 9.89134 54.6497 11.6318C55.1718 16.679 54.7802 21.7263 54.9107 26.9041C52.8222 26.9041 50.9513 27.6003 49.2108 26.1644C48.4711 26.7736 47.2528 26.643 46.5131 27.5132C45.3819 27.5132 44.2506 27.5132 43.0758 27.5132ZM49.5154 22.1179C49.3414 20.9431 49.7765 19.7248 49.2108 18.5935C48.123 18.463 47.1223 18.4195 46.1215 18.724C44.7727 19.1156 44.2071 20.1164 44.3811 21.5523C44.5552 22.9881 45.5994 23.2057 46.7742 23.1186C47.6879 23.0316 48.5146 22.8141 49.5154 22.1179Z" fill="url(#paint4_linear)" fill-opacity="0.4"/>
<path d="M0 8.8037C0.652663 8.28157 1.34884 8.10753 2.17554 7.93348C5.43886 7.32433 6.70068 5.84496 7.04876 2.49462C7.09227 1.75494 6.91823 0.884721 7.52738 0.232058C9.31133 -0.116029 10.9212 -0.0725181 12.7052 0.362591C13.4884 2.19005 12.3571 4.0175 12.5311 5.93198C13.4014 6.49762 14.2716 5.75794 15.1853 5.75794C16.3166 5.80145 17.0128 6.10603 16.9257 7.36784C16.8387 8.58615 17.0998 9.80445 16.7517 10.8487C16.099 11.6319 15.2723 11.4144 14.6197 11.6319C12.3571 12.3281 10.9647 14.112 10.9647 16.4181C10.9647 18.8982 12.183 20.3341 14.7502 20.9867C15.3593 21.1173 16.012 21.2913 16.6647 21.4219C17.2303 22.9012 16.9257 24.3371 16.8822 25.7294C16.8387 26.9042 15.838 26.9477 14.9242 26.8607C8.83271 26.2516 5.04726 21.9875 5.26482 15.896C5.30833 15.0258 5.43886 14.199 5.52588 13.2853C3.65491 13.0243 1.74044 14.8952 0 13.1548C0 11.7189 0 10.2831 0 8.8037ZM11.7479 7.23731C9.31133 7.41135 6.96174 9.71743 6.22206 12.6327C8.83271 11.5449 10.7037 9.89147 11.7479 7.23731Z" fill="#4D4D5D"/>
<path d="M0 8.8037C0.652663 8.28157 1.34884 8.10753 2.17554 7.93348C5.43886 7.32433 6.70068 5.84496 7.04876 2.49462C7.09227 1.75494 6.91823 0.884721 7.52738 0.232058C9.31133 -0.116029 10.9212 -0.0725181 12.7052 0.362591C13.4884 2.19005 12.3571 4.0175 12.5311 5.93198C13.4014 6.49762 14.2716 5.75794 15.1853 5.75794C16.3166 5.80145 17.0128 6.10603 16.9257 7.36784C16.8387 8.58615 17.0998 9.80445 16.7517 10.8487C16.099 11.6319 15.2723 11.4144 14.6197 11.6319C12.3571 12.3281 10.9647 14.112 10.9647 16.4181C10.9647 18.8982 12.183 20.3341 14.7502 20.9867C15.3593 21.1173 16.012 21.2913 16.6647 21.4219C17.2303 22.9012 16.9257 24.3371 16.8822 25.7294C16.8387 26.9042 15.838 26.9477 14.9242 26.8607C8.83271 26.2516 5.04726 21.9875 5.26482 15.896C5.30833 15.0258 5.43886 14.199 5.52588 13.2853C3.65491 13.0243 1.74044 14.8952 0 13.1548C0 11.7189 0 10.2831 0 8.8037ZM11.7479 7.23731C9.31133 7.41135 6.96174 9.71743 6.22206 12.6327C8.83271 11.5449 10.7037 9.89147 11.7479 7.23731Z" fill="url(#paint5_linear)" fill-opacity="0.4"/>
<path d="M26.5416 27.5135C27.6294 26.5998 28.9347 27.2524 30.1095 27.1219C30.066 27.2524 30.0225 27.383 30.0225 27.5135C28.8477 27.5135 27.7164 27.5135 26.5416 27.5135Z" fill="#4D4D5D"/>
<path d="M26.5416 27.5135C27.6294 26.5998 28.9347 27.2524 30.1095 27.1219C30.066 27.2524 30.0225 27.383 30.0225 27.5135C28.8477 27.5135 27.7164 27.5135 26.5416 27.5135Z" fill="url(#paint6_linear)" fill-opacity="0.4"/>
<path d="M94.8537 27.5133C95.6804 26.6866 96.6812 27.2087 97.5949 27.1217C97.5079 27.2522 97.4644 27.3827 97.4644 27.5133C96.5941 27.5133 95.7239 27.5133 94.8537 27.5133Z" fill="#4D4D5D"/>
<path d="M94.8537 27.5133C95.6804 26.6866 96.6812 27.2087 97.5949 27.1217C97.5079 27.2522 97.4644 27.3827 97.4644 27.5133C96.5941 27.5133 95.7239 27.5133 94.8537 27.5133Z" fill="url(#paint7_linear)" fill-opacity="0.4"/>
<path d="M58.4786 7.28094C60.4366 7.45498 62.4816 6.28019 64.048 8.28169C68.2686 6.45423 69.835 6.49774 73.1418 8.45573C75.0128 7.4985 77.0578 6.84583 79.3203 7.01988C81.9745 7.23743 83.8455 8.49925 84.2806 11.0664C85.1073 16.1572 84.8027 21.2914 84.5416 26.4257C84.5416 26.5563 84.3676 26.6433 84.2371 26.8608C82.6707 27.1219 81.0173 27.0349 79.4944 26.9043C78.8417 26.0341 79.1028 25.2509 79.1028 24.4677C79.0593 21.2914 79.1898 18.0716 79.0593 14.8953C78.9287 11.545 77.841 10.9794 74.3601 12.3717C74.3601 17.0709 74.3601 21.8136 74.3601 26.7303C72.4456 27.1654 70.7052 27.1219 68.8777 26.7738C68.5731 24.7288 68.7472 22.7708 68.7037 20.8128C68.6602 18.9419 68.7037 17.0274 68.7037 15.1564C68.7037 11.458 67.4854 10.7618 63.961 12.7633C63.961 17.2884 63.961 21.9876 63.961 26.7303C62.0465 27.1219 60.3496 27.0784 58.5221 26.7738C58.4786 20.3342 58.4786 13.9381 58.4786 7.28094Z" fill="#4D4D5D"/>
<path d="M58.4786 7.28094C60.4366 7.45498 62.4816 6.28019 64.048 8.28169C68.2686 6.45423 69.835 6.49774 73.1418 8.45573C75.0128 7.4985 77.0578 6.84583 79.3203 7.01988C81.9745 7.23743 83.8455 8.49925 84.2806 11.0664C85.1073 16.1572 84.8027 21.2914 84.5416 26.4257C84.5416 26.5563 84.3676 26.6433 84.2371 26.8608C82.6707 27.1219 81.0173 27.0349 79.4944 26.9043C78.8417 26.0341 79.1028 25.2509 79.1028 24.4677C79.0593 21.2914 79.1898 18.0716 79.0593 14.8953C78.9287 11.545 77.841 10.9794 74.3601 12.3717C74.3601 17.0709 74.3601 21.8136 74.3601 26.7303C72.4456 27.1654 70.7052 27.1219 68.8777 26.7738C68.5731 24.7288 68.7472 22.7708 68.7037 20.8128C68.6602 18.9419 68.7037 17.0274 68.7037 15.1564C68.7037 11.458 67.4854 10.7618 63.961 12.7633C63.961 17.2884 63.961 21.9876 63.961 26.7303C62.0465 27.1219 60.3496 27.0784 58.5221 26.7738C58.4786 20.3342 58.4786 13.9381 58.4786 7.28094Z" fill="url(#paint8_linear)" fill-opacity="0.4"/>
<path d="M154.812 26.9478C153.071 27.0348 151.418 27.1654 149.59 26.8173C149.59 18.1586 149.59 9.54348 149.59 0.79779C151.331 0.31917 153.028 0.580236 154.681 0.623746C155.29 2.23365 155.421 24.5547 154.812 26.9478Z" fill="#4D4D5D"/>
<path d="M154.812 26.9478C153.071 27.0348 151.418 27.1654 149.59 26.8173C149.59 18.1586 149.59 9.54348 149.59 0.79779C151.331 0.31917 153.028 0.580236 154.681 0.623746C155.29 2.23365 155.421 24.5547 154.812 26.9478Z" fill="url(#paint9_linear)" fill-opacity="0.4"/>
<path d="M140.671 0.710584C142.585 0.536541 144.195 0.449519 146.023 0.754095C146.023 9.45627 146.023 18.0714 146.023 26.8171C144.239 27.2087 142.542 27.1217 140.671 26.8606C140.671 18.1149 140.671 9.49978 140.671 0.710584Z" fill="#4D4D5D"/>
<path d="M140.671 0.710584C142.585 0.536541 144.195 0.449519 146.023 0.754095C146.023 9.45627 146.023 18.0714 146.023 26.8171C144.239 27.2087 142.542 27.1217 140.671 26.8606C140.671 18.1149 140.671 9.49978 140.671 0.710584Z" fill="url(#paint10_linear)" fill-opacity="0.4"/>
<path d="M113.607 26.6432C111.344 27.1219 109.865 27.1219 108.038 26.6432C108.038 20.3342 108.038 13.9816 108.038 7.36791C110.039 7.23738 112.041 6.5412 113.998 8.1076C115.304 7.49844 116.783 6.62823 118.611 7.15036C119.046 8.45568 118.828 9.80452 118.785 11.2404C117.131 11.893 115.26 11.632 113.607 12.8938C113.607 17.3754 113.607 21.9876 113.607 26.6432Z" fill="#4D4D5D"/>
<path d="M113.607 26.6432C111.344 27.1219 109.865 27.1219 108.038 26.6432C108.038 20.3342 108.038 13.9816 108.038 7.36791C110.039 7.23738 112.041 6.5412 113.998 8.1076C115.304 7.49844 116.783 6.62823 118.611 7.15036C119.046 8.45568 118.828 9.80452 118.785 11.2404C117.131 11.893 115.26 11.632 113.607 12.8938C113.607 17.3754 113.607 21.9876 113.607 26.6432Z" fill="url(#paint11_linear)" fill-opacity="0.4"/>
<defs>
<linearGradient id="paint0_linear" x1="96.6937" y1="0.541748" x2="96.6937" y2="27.5569" gradientUnits="userSpaceOnUse">
<stop stop-color="white"/>
<stop offset="1" stop-color="white" stop-opacity="0"/>
</linearGradient>
<linearGradient id="paint1_linear" x1="128.999" y1="6.96753" x2="128.999" y2="27.5134" gradientUnits="userSpaceOnUse">
<stop stop-color="white"/>
<stop offset="1" stop-color="white" stop-opacity="0"/>
</linearGradient>
<linearGradient id="paint2_linear" x1="28.1444" y1="6.90869" x2="28.1444" y2="27.5135" gradientUnits="userSpaceOnUse">
<stop stop-color="white"/>
<stop offset="1" stop-color="white" stop-opacity="0"/>
</linearGradient>
<linearGradient id="paint3_linear" x1="165.825" y1="6.95605" x2="165.825" y2="27.5568" gradientUnits="userSpaceOnUse">
<stop stop-color="white"/>
<stop offset="1" stop-color="white" stop-opacity="0"/>
</linearGradient>
<linearGradient id="paint4_linear" x1="46.8743" y1="6.92627" x2="46.8743" y2="27.5132" gradientUnits="userSpaceOnUse">
<stop stop-color="white"/>
<stop offset="1" stop-color="white" stop-opacity="0"/>
</linearGradient>
<linearGradient id="paint5_linear" x1="8.5015" y1="0" x2="8.5015" y2="26.8893" gradientUnits="userSpaceOnUse">
<stop stop-color="white"/>
<stop offset="1" stop-color="white" stop-opacity="0"/>
</linearGradient>
<linearGradient id="paint6_linear" x1="28.3256" y1="27.0168" x2="28.3256" y2="27.5135" gradientUnits="userSpaceOnUse">
<stop stop-color="white"/>
<stop offset="1" stop-color="white" stop-opacity="0"/>
</linearGradient>
<linearGradient id="paint7_linear" x1="96.2243" y1="27.0381" x2="96.2243" y2="27.5133" gradientUnits="userSpaceOnUse">
<stop stop-color="white"/>
<stop offset="1" stop-color="white" stop-opacity="0"/>
</linearGradient>
<linearGradient id="paint8_linear" x1="71.6489" y1="6.948" x2="71.6489" y2="27.0458" gradientUnits="userSpaceOnUse">
<stop stop-color="white"/>
<stop offset="1" stop-color="white" stop-opacity="0"/>
</linearGradient>
<linearGradient id="paint9_linear" x1="152.399" y1="0.513672" x2="152.399" y2="27.0457" gradientUnits="userSpaceOnUse">
<stop stop-color="white"/>
<stop offset="1" stop-color="white" stop-opacity="0"/>
</linearGradient>
<linearGradient id="paint10_linear" x1="143.347" y1="0.55249" x2="143.347" y2="27.0839" gradientUnits="userSpaceOnUse">
<stop stop-color="white"/>
<stop offset="1" stop-color="white" stop-opacity="0"/>
</linearGradient>
<linearGradient id="paint11_linear" x1="113.458" y1="6.99023" x2="113.458" y2="27.0022" gradientUnits="userSpaceOnUse">
<stop stop-color="white"/>
<stop offset="1" stop-color="white" stop-opacity="0"/>
</linearGradient>
</defs>
</svg>
