<svg width="196" height="46" viewBox="0 0 196 46" fill="none" xmlns="http://www.w3.org/2000/svg">
<path d="M70.0305 28.2899C68.5277 29.9054 66.9874 30.6943 65.2968 30.6943C62.0657 30.6943 59.5487 28.0268 59.5487 24.6081C59.5487 21.1516 61.9907 18.4842 65.1465 18.4842C67.4758 18.4842 68.9786 19.724 69.9929 20.8135L70.1808 21.0389L72.1345 18.9726L71.9465 18.7848C70.6316 17.3946 68.678 15.7792 65.1841 15.7792C60.3752 15.7792 56.4679 19.7615 56.4679 24.6456C56.4679 29.6048 60.3 33.5119 65.1841 33.5119C68.7156 33.5119 70.7444 31.7462 72.0968 30.2435L72.2846 30.018L70.256 28.1396L70.0305 28.2899Z" fill="#4D4D5D"/>
<path d="M70.0305 28.2899C68.5277 29.9054 66.9874 30.6943 65.2968 30.6943C62.0657 30.6943 59.5487 28.0268 59.5487 24.6081C59.5487 21.1516 61.9907 18.4842 65.1465 18.4842C67.4758 18.4842 68.9786 19.724 69.9929 20.8135L70.1808 21.0389L72.1345 18.9726L71.9465 18.7848C70.6316 17.3946 68.678 15.7792 65.1841 15.7792C60.3752 15.7792 56.4679 19.7615 56.4679 24.6456C56.4679 29.6048 60.3 33.5119 65.1841 33.5119C68.7156 33.5119 70.7444 31.7462 72.0968 30.2435L72.2846 30.018L70.256 28.1396L70.0305 28.2899Z" fill="url(#paint0_linear)" fill-opacity="0.4"/>
<path d="M82.6534 15.7422C80.4368 15.7422 78.6335 16.6063 77.3186 18.3346V9.13L74.313 10.5952V33.0243H77.3186V23.3689C77.3186 20.5136 79.2346 18.5225 81.9772 18.5225C84.6447 18.5225 86.2226 20.2883 86.2226 23.1811V33.0619H89.2282V22.58C89.2282 18.4098 86.6734 15.7423 82.6534 15.7423V15.7422Z" fill="#4D4D5D"/>
<path d="M82.6534 15.7422C80.4368 15.7422 78.6335 16.6063 77.3186 18.3346V9.13L74.313 10.5952V33.0243H77.3186V23.3689C77.3186 20.5136 79.2346 18.5225 81.9772 18.5225C84.6447 18.5225 86.2226 20.2883 86.2226 23.1811V33.0619H89.2282V22.58C89.2282 18.4098 86.6734 15.7423 82.6534 15.7423V15.7422Z" fill="url(#paint1_linear)" fill-opacity="0.4"/>
<path d="M99.2588 15.8191C96.6666 15.8191 94.7881 16.4953 93.1726 17.2467L92.9471 17.3594L93.8864 19.8765L94.1494 19.7638C95.9151 18.975 97.3803 18.5992 99.0333 18.5992C102.039 18.5992 103.617 20.0268 103.617 22.7694V22.9197C102.377 22.5815 100.949 22.3185 98.8831 22.3185C94.2997 22.3185 91.5947 24.4225 91.5947 27.954C91.5947 31.5231 94.8256 33.4016 98.019 33.4016C100.762 33.4016 102.527 32.237 103.654 31.0722V33.0259H106.622V22.7318C106.622 20.5528 106.021 18.8997 104.819 17.6975C103.542 16.4953 101.626 15.8191 99.2588 15.8191ZM103.617 25.4368V26.7517C103.617 29.1186 101.4 30.8844 98.4323 30.8844C96.5914 30.8844 94.6002 29.9451 94.6002 27.8788C94.6002 25.9628 96.2908 24.7982 99.1086 24.7982C101.062 24.7982 102.603 25.1363 103.617 25.4368Z" fill="#4D4D5D"/>
<path d="M99.2588 15.8191C96.6666 15.8191 94.7881 16.4953 93.1726 17.2467L92.9471 17.3594L93.8864 19.8765L94.1494 19.7638C95.9151 18.975 97.3803 18.5992 99.0333 18.5992C102.039 18.5992 103.617 20.0268 103.617 22.7694V22.9197C102.377 22.5815 100.949 22.3185 98.8831 22.3185C94.2997 22.3185 91.5947 24.4225 91.5947 27.954C91.5947 31.5231 94.8256 33.4016 98.019 33.4016C100.762 33.4016 102.527 32.237 103.654 31.0722V33.0259H106.622V22.7318C106.622 20.5528 106.021 18.8997 104.819 17.6975C103.542 16.4953 101.626 15.8191 99.2588 15.8191ZM103.617 25.4368V26.7517C103.617 29.1186 101.4 30.8844 98.4323 30.8844C96.5914 30.8844 94.6002 29.9451 94.6002 27.8788C94.6002 25.9628 96.2908 24.7982 99.1086 24.7982C101.062 24.7982 102.603 25.1363 103.617 25.4368Z" fill="url(#paint2_linear)" fill-opacity="0.4"/>
<path d="M118.495 15.7411C116.278 15.7411 114.475 16.6053 113.16 18.3335V16.1169H110.154V33.0977H113.16V23.3672C113.16 20.5119 115.076 18.5208 117.818 18.5208C120.486 18.5208 122.064 20.2866 122.064 23.1794V33.0602H125.069V22.5783C125.069 18.4081 122.477 15.7406 118.495 15.7406V15.7411Z" fill="#4D4D5D"/>
<path d="M118.495 15.7411C116.278 15.7411 114.475 16.6053 113.16 18.3335V16.1169H110.154V33.0977H113.16V23.3672C113.16 20.5119 115.076 18.5208 117.818 18.5208C120.486 18.5208 122.064 20.2866 122.064 23.1794V33.0602H125.069V22.5783C125.069 18.4081 122.477 15.7406 118.495 15.7406V15.7411Z" fill="url(#paint3_linear)" fill-opacity="0.4"/>
<path d="M141.68 18.522C140.064 16.6811 137.998 15.7418 135.556 15.7418C133.527 15.7418 131.499 16.5308 130.033 17.8834C128.418 19.3861 127.554 21.4524 127.554 23.7818C127.554 26.0735 128.418 28.1773 130.033 29.6802C131.499 31.0326 133.527 31.8216 135.556 31.8216C137.998 31.8216 140.027 30.8448 141.718 28.8912V30.0183C141.718 33.5498 139.651 35.5786 136.045 35.5786C133.828 35.5786 131.762 34.9022 129.883 33.5498L129.62 33.362L128.231 35.7664L128.455 35.9167C130.672 37.457 133.264 38.2459 136.082 38.2459C138.825 38.2459 141.041 37.457 142.544 35.9542C143.972 34.489 144.724 32.4978 144.724 29.9431V16.0803H141.718V18.5224H141.68V18.522ZM141.793 23.7441C141.793 27.0878 138.863 29.079 136.045 29.079C133.001 29.079 130.635 26.7497 130.635 23.7818C130.635 20.701 132.889 18.4844 136.045 18.4844C138.863 18.4468 141.793 20.4381 141.793 23.7441Z" fill="#4D4D5D"/>
<path d="M141.68 18.522C140.064 16.6811 137.998 15.7418 135.556 15.7418C133.527 15.7418 131.499 16.5308 130.033 17.8834C128.418 19.3861 127.554 21.4524 127.554 23.7818C127.554 26.0735 128.418 28.1773 130.033 29.6802C131.499 31.0326 133.527 31.8216 135.556 31.8216C137.998 31.8216 140.027 30.8448 141.718 28.8912V30.0183C141.718 33.5498 139.651 35.5786 136.045 35.5786C133.828 35.5786 131.762 34.9022 129.883 33.5498L129.62 33.362L128.231 35.7664L128.455 35.9167C130.672 37.457 133.264 38.2459 136.082 38.2459C138.825 38.2459 141.041 37.457 142.544 35.9542C143.972 34.489 144.724 32.4978 144.724 29.9431V16.0803H141.718V18.5224H141.68V18.522ZM141.793 23.7441C141.793 27.0878 138.863 29.079 136.045 29.079C133.001 29.079 130.635 26.7497 130.635 23.7818C130.635 20.701 132.889 18.4844 136.045 18.4844C138.863 18.4468 141.793 20.4381 141.793 23.7441Z" fill="url(#paint4_linear)" fill-opacity="0.4"/>
<path d="M155.648 15.7412C150.989 15.7412 147.496 19.5358 147.496 24.6077C147.496 29.6796 151.14 33.474 155.987 33.474C158.842 33.474 160.983 32.4972 162.974 30.2806L163.161 30.0552L161.208 28.327L161.02 28.5148C159.556 30.0552 157.977 30.7314 156.061 30.7314C153.169 30.7314 151.027 28.7779 150.614 25.8475H163.575L163.613 25.5844C163.65 25.2088 163.65 24.9458 163.65 24.7204C163.613 19.3479 160.42 15.7412 155.648 15.7412ZM160.532 23.3303H150.577C151.027 20.3998 153.056 18.3711 155.61 18.3711C158.728 18.3711 160.194 20.8507 160.532 23.3303Z" fill="#4D4D5D"/>
<path d="M155.648 15.7412C150.989 15.7412 147.496 19.5358 147.496 24.6077C147.496 29.6796 151.14 33.474 155.987 33.474C158.842 33.474 160.983 32.4972 162.974 30.2806L163.161 30.0552L161.208 28.327L161.02 28.5148C159.556 30.0552 157.977 30.7314 156.061 30.7314C153.169 30.7314 151.027 28.7779 150.614 25.8475H163.575L163.613 25.5844C163.65 25.2088 163.65 24.9458 163.65 24.7204C163.613 19.3479 160.42 15.7412 155.648 15.7412ZM160.532 23.3303H150.577C151.027 20.3998 153.056 18.3711 155.61 18.3711C158.728 18.3711 160.194 20.8507 160.532 23.3303Z" fill="url(#paint5_linear)" fill-opacity="0.4"/>
<path d="M166.438 33.063H169.443V10.1831L166.438 11.6858V33.0629V33.063Z" fill="#4D4D5D"/>
<path d="M166.438 33.063H169.443V10.1831L166.438 11.6858V33.0629V33.063Z" fill="url(#paint6_linear)" fill-opacity="0.4"/>
<path d="M173.384 33.0614H176.389V9.12939L173.384 10.6321V33.0613V33.0614Z" fill="#4D4D5D"/>
<path d="M173.384 33.0614H176.389V9.12939L173.384 10.6321V33.0613V33.0614Z" fill="url(#paint7_linear)" fill-opacity="0.4"/>
<path d="M192.396 16.0809L187.286 29.3053L181.501 16.0809H178.195L185.783 32.7247C184.769 35.0539 183.905 35.5048 182.741 35.5048C181.764 35.5048 181.088 35.3545 180.299 34.9413L180.036 34.791L178.984 37.2705L179.209 37.3833C180.449 37.9844 181.501 38.2473 182.816 38.2473C185.483 38.2473 187.137 36.8573 188.526 33.4384L195.589 16.0809H192.396Z" fill="#4D4D5D"/>
<path d="M192.396 16.0809L187.286 29.3053L181.501 16.0809H178.195L185.783 32.7247C184.769 35.0539 183.905 35.5048 182.741 35.5048C181.764 35.5048 181.088 35.3545 180.299 34.9413L180.036 34.791L178.984 37.2705L179.209 37.3833C180.449 37.9844 181.501 38.2473 182.816 38.2473C185.483 38.2473 187.137 36.8573 188.526 33.4384L195.589 16.0809H192.396Z" fill="url(#paint8_linear)" fill-opacity="0.4"/>
<path d="M48.1439 0.0752065C47.9561 0.0752065 43.7859 0.263057 38.6012 1.50285C31.5758 3.15586 26.316 5.89854 23.085 9.61787C22.3711 10.4444 21.6949 11.2333 21.0937 11.9848C19.8164 12.3229 16.2848 13.2997 14.6694 13.6002C13.7301 13.7881 12.9412 14.3141 12.3777 15.1031C11.213 16.7936 9.18428 20.2501 9.1092 20.4004L6.77985 24.3827L11.0252 22.5418C12.8662 21.7153 15.4585 21.1518 16.2099 21.6025C16.2474 21.6402 16.285 21.6402 16.3225 21.8655C16.3225 23.0678 16.6231 24.2324 17.1867 25.3971C16.0221 26.2988 15.3834 27.7264 15.4585 29.1916V34.3763H20.643C22.1083 34.4513 23.4983 33.7751 24.4375 32.648C25.6023 33.2115 26.7669 33.4745 27.969 33.5121C28.157 33.5496 28.1945 33.5873 28.1945 33.6248C28.6454 34.3763 28.0818 36.9685 27.2553 38.8094L25.4143 43.0172L29.3967 40.6879C29.547 40.6128 33.0034 38.584 34.6941 37.4194C35.4831 36.8933 36.009 36.0668 36.1968 35.1276C36.5349 33.5121 37.4742 29.9806 37.8123 28.7032C38.5637 28.1021 39.3527 27.4258 40.1792 26.712C48.8953 19.0103 49.6843 2.32923 49.7219 1.61547L49.7969 0L48.1439 0.0751388V0.0752065ZM16.9237 18.6725C15.9469 18.372 14.8198 18.4095 13.7303 18.5975C14.1436 17.9211 14.5568 17.2824 14.8949 16.794C14.9701 16.6437 15.1204 16.5687 15.3082 16.5311C16.0596 16.3808 17.2242 16.0803 18.3888 15.8172C17.7126 16.8317 17.2618 17.7708 16.9237 18.6725ZM22.0331 30.7324C21.7325 31.1456 21.2066 31.3711 20.7182 31.3334H20.2298L23.348 26.4494L18.464 29.6053V29.0792C18.4265 28.5533 18.6519 28.0649 19.0652 27.7643L25.0387 23.0305C25.3392 22.7676 25.7526 22.5798 26.1282 22.5046L27.7061 22.129L27.3304 23.7069C27.2177 24.1201 27.0675 24.4959 26.8044 24.7963L22.0331 30.7324ZM33.2288 34.5268C33.1912 34.6771 33.1162 34.8274 32.9659 34.9401C32.4775 35.2782 31.8388 35.6915 31.1625 36.1047C31.3504 35.0153 31.3879 33.8881 31.0874 32.9113C31.9891 32.5732 32.9283 32.1224 33.9427 31.4837C33.6796 32.6108 33.3791 33.7378 33.2288 34.5268ZM38.1879 24.4582C33.0034 29.0417 30.1481 30.3943 28.0818 30.4693H28.0067C27.368 30.4693 26.842 30.3566 26.316 30.1688L29.0961 26.6373C29.6222 25.961 29.9978 25.2096 30.2233 24.3831L31.7261 18.0714L25.4143 19.5742C24.5878 19.7621 23.7989 20.1377 23.1602 20.6638L19.6287 23.4439C19.4408 22.9179 19.3281 22.3919 19.3281 21.7532V21.6781C19.3656 19.6493 20.7557 16.7565 25.3392 11.5718C30.862 5.29778 42.283 3.6071 46.5656 3.19391C46.1523 7.51439 44.4617 18.9349 38.1876 24.4586L38.1879 24.4582Z" fill="#4D4D5D"/>
<path d="M48.1439 0.0752065C47.9561 0.0752065 43.7859 0.263057 38.6012 1.50285C31.5758 3.15586 26.316 5.89854 23.085 9.61787C22.3711 10.4444 21.6949 11.2333 21.0937 11.9848C19.8164 12.3229 16.2848 13.2997 14.6694 13.6002C13.7301 13.7881 12.9412 14.3141 12.3777 15.1031C11.213 16.7936 9.18428 20.2501 9.1092 20.4004L6.77985 24.3827L11.0252 22.5418C12.8662 21.7153 15.4585 21.1518 16.2099 21.6025C16.2474 21.6402 16.285 21.6402 16.3225 21.8655C16.3225 23.0678 16.6231 24.2324 17.1867 25.3971C16.0221 26.2988 15.3834 27.7264 15.4585 29.1916V34.3763H20.643C22.1083 34.4513 23.4983 33.7751 24.4375 32.648C25.6023 33.2115 26.7669 33.4745 27.969 33.5121C28.157 33.5496 28.1945 33.5873 28.1945 33.6248C28.6454 34.3763 28.0818 36.9685 27.2553 38.8094L25.4143 43.0172L29.3967 40.6879C29.547 40.6128 33.0034 38.584 34.6941 37.4194C35.4831 36.8933 36.009 36.0668 36.1968 35.1276C36.5349 33.5121 37.4742 29.9806 37.8123 28.7032C38.5637 28.1021 39.3527 27.4258 40.1792 26.712C48.8953 19.0103 49.6843 2.32923 49.7219 1.61547L49.7969 0L48.1439 0.0751388V0.0752065ZM16.9237 18.6725C15.9469 18.372 14.8198 18.4095 13.7303 18.5975C14.1436 17.9211 14.5568 17.2824 14.8949 16.794C14.9701 16.6437 15.1204 16.5687 15.3082 16.5311C16.0596 16.3808 17.2242 16.0803 18.3888 15.8172C17.7126 16.8317 17.2618 17.7708 16.9237 18.6725ZM22.0331 30.7324C21.7325 31.1456 21.2066 31.3711 20.7182 31.3334H20.2298L23.348 26.4494L18.464 29.6053V29.0792C18.4265 28.5533 18.6519 28.0649 19.0652 27.7643L25.0387 23.0305C25.3392 22.7676 25.7526 22.5798 26.1282 22.5046L27.7061 22.129L27.3304 23.7069C27.2177 24.1201 27.0675 24.4959 26.8044 24.7963L22.0331 30.7324ZM33.2288 34.5268C33.1912 34.6771 33.1162 34.8274 32.9659 34.9401C32.4775 35.2782 31.8388 35.6915 31.1625 36.1047C31.3504 35.0153 31.3879 33.8881 31.0874 32.9113C31.9891 32.5732 32.9283 32.1224 33.9427 31.4837C33.6796 32.6108 33.3791 33.7378 33.2288 34.5268ZM38.1879 24.4582C33.0034 29.0417 30.1481 30.3943 28.0818 30.4693H28.0067C27.368 30.4693 26.842 30.3566 26.316 30.1688L29.0961 26.6373C29.6222 25.961 29.9978 25.2096 30.2233 24.3831L31.7261 18.0714L25.4143 19.5742C24.5878 19.7621 23.7989 20.1377 23.1602 20.6638L19.6287 23.4439C19.4408 22.9179 19.3281 22.3919 19.3281 21.7532V21.6781C19.3656 19.6493 20.7557 16.7565 25.3392 11.5718C30.862 5.29778 42.283 3.6071 46.5656 3.19391C46.1523 7.51439 44.4617 18.9349 38.1876 24.4586L38.1879 24.4582Z" fill="url(#paint9_linear)" fill-opacity="0.4"/>
<path d="M14.8398 41.7988C12.9238 42.1744 10.9702 42.2871 9.01663 42.3247C7.88955 42.3247 6.76248 42.2871 5.59786 42.1744C6.0487 41.423 6.46196 40.6717 6.83766 39.8827C7.55147 38.2671 8.07744 36.6516 8.49067 34.9986C8.86637 33.4207 9.3172 31.8803 9.88078 30.34C10.4068 28.7997 11.0079 27.2593 11.6841 25.719C11.083 26.3201 10.557 26.9588 10.0686 27.635C9.58021 28.3113 9.0918 29.0251 8.64096 29.7389C7.77685 31.1665 7.02549 32.7445 6.3868 34.2847C5.7857 35.7876 5.14702 37.2903 4.39568 38.6429C3.64428 39.9953 2.78021 41.2351 1.72822 42.4374L0 44.4661L2.66747 44.8419C4.77133 45.1424 6.91287 45.2927 9.05427 45.2175C10.1438 45.18 11.1957 45.1048 12.2852 44.9169C13.3372 44.7667 14.4266 44.5038 15.4411 44.2032C17.5074 43.602 19.4985 42.6253 21.2643 41.3854C22.1285 40.7468 22.955 40.033 23.6312 39.2064C24.3074 38.3799 24.9461 37.5158 25.3594 36.539C23.9317 38.0417 22.2035 39.1313 20.4378 39.9953C18.6345 40.8595 16.756 41.423 14.8399 41.7988H14.8398Z" fill="#4D4D5D"/>
<path d="M14.8398 41.7988C12.9238 42.1744 10.9702 42.2871 9.01663 42.3247C7.88955 42.3247 6.76248 42.2871 5.59786 42.1744C6.0487 41.423 6.46196 40.6717 6.83766 39.8827C7.55147 38.2671 8.07744 36.6516 8.49067 34.9986C8.86637 33.4207 9.3172 31.8803 9.88078 30.34C10.4068 28.7997 11.0079 27.2593 11.6841 25.719C11.083 26.3201 10.557 26.9588 10.0686 27.635C9.58021 28.3113 9.0918 29.0251 8.64096 29.7389C7.77685 31.1665 7.02549 32.7445 6.3868 34.2847C5.7857 35.7876 5.14702 37.2903 4.39568 38.6429C3.64428 39.9953 2.78021 41.2351 1.72822 42.4374L0 44.4661L2.66747 44.8419C4.77133 45.1424 6.91287 45.2927 9.05427 45.2175C10.1438 45.18 11.1957 45.1048 12.2852 44.9169C13.3372 44.7667 14.4266 44.5038 15.4411 44.2032C17.5074 43.602 19.4985 42.6253 21.2643 41.3854C22.1285 40.7468 22.955 40.033 23.6312 39.2064C24.3074 38.3799 24.9461 37.5158 25.3594 36.539C23.9317 38.0417 22.2035 39.1313 20.4378 39.9953C18.6345 40.8595 16.756 41.423 14.8399 41.7988H14.8398Z" fill="url(#paint10_linear)" fill-opacity="0.4"/>
<path d="M37.0992 17.9589C38.4518 17.9589 39.8042 17.4329 40.8562 16.4185C42.9225 14.3521 42.9225 11.0085 40.8562 8.94213C39.8417 7.92775 38.5268 7.40173 37.0992 7.40173C35.6715 7.40173 34.3566 7.96527 33.3422 8.94213C31.276 11.0085 31.276 14.3521 33.3422 16.4185C34.3566 17.4329 35.7091 17.9589 37.0992 17.9589ZM35.4462 11.0461C35.8969 10.5953 36.4605 10.3699 37.0617 10.3699C37.6628 10.3699 38.2638 10.5953 38.6771 11.0461C39.5788 11.9478 39.5788 13.3754 38.6771 14.2771C37.7754 15.1786 36.3478 15.1786 35.4462 14.2771C34.582 13.4129 34.582 11.9477 35.4462 11.0461Z" fill="#4D4D5D"/>
<path d="M37.0992 17.9589C38.4518 17.9589 39.8042 17.4329 40.8562 16.4185C42.9225 14.3521 42.9225 11.0085 40.8562 8.94213C39.8417 7.92775 38.5268 7.40173 37.0992 7.40173C35.6715 7.40173 34.3566 7.96527 33.3422 8.94213C31.276 11.0085 31.276 14.3521 33.3422 16.4185C34.3566 17.4329 35.7091 17.9589 37.0992 17.9589ZM35.4462 11.0461C35.8969 10.5953 36.4605 10.3699 37.0617 10.3699C37.6628 10.3699 38.2638 10.5953 38.6771 11.0461C39.5788 11.9478 39.5788 13.3754 38.6771 14.2771C37.7754 15.1786 36.3478 15.1786 35.4462 14.2771C34.582 13.4129 34.582 11.9477 35.4462 11.0461Z" fill="url(#paint11_linear)" fill-opacity="0.4"/>
<defs>
<linearGradient id="paint0_linear" x1="64.3763" y1="15.7792" x2="64.3763" y2="33.5119" gradientUnits="userSpaceOnUse">
<stop stop-color="white"/>
<stop offset="1" stop-color="white" stop-opacity="0"/>
</linearGradient>
<linearGradient id="paint1_linear" x1="81.7706" y1="9.13" x2="81.7706" y2="33.0619" gradientUnits="userSpaceOnUse">
<stop stop-color="white"/>
<stop offset="1" stop-color="white" stop-opacity="0"/>
</linearGradient>
<linearGradient id="paint2_linear" x1="99.1085" y1="15.8191" x2="99.1085" y2="33.4016" gradientUnits="userSpaceOnUse">
<stop stop-color="white"/>
<stop offset="1" stop-color="white" stop-opacity="0"/>
</linearGradient>
<linearGradient id="paint3_linear" x1="117.612" y1="15.7406" x2="117.612" y2="33.0977" gradientUnits="userSpaceOnUse">
<stop stop-color="white"/>
<stop offset="1" stop-color="white" stop-opacity="0"/>
</linearGradient>
<linearGradient id="paint4_linear" x1="136.139" y1="15.7418" x2="136.139" y2="38.2459" gradientUnits="userSpaceOnUse">
<stop stop-color="white"/>
<stop offset="1" stop-color="white" stop-opacity="0"/>
</linearGradient>
<linearGradient id="paint5_linear" x1="155.573" y1="15.7412" x2="155.573" y2="33.474" gradientUnits="userSpaceOnUse">
<stop stop-color="white"/>
<stop offset="1" stop-color="white" stop-opacity="0"/>
</linearGradient>
<linearGradient id="paint6_linear" x1="167.941" y1="10.1831" x2="167.941" y2="33.063" gradientUnits="userSpaceOnUse">
<stop stop-color="white"/>
<stop offset="1" stop-color="white" stop-opacity="0"/>
</linearGradient>
<linearGradient id="paint7_linear" x1="174.887" y1="9.12939" x2="174.887" y2="33.0614" gradientUnits="userSpaceOnUse">
<stop stop-color="white"/>
<stop offset="1" stop-color="white" stop-opacity="0"/>
</linearGradient>
<linearGradient id="paint8_linear" x1="186.892" y1="16.0809" x2="186.892" y2="38.2473" gradientUnits="userSpaceOnUse">
<stop stop-color="white"/>
<stop offset="1" stop-color="white" stop-opacity="0"/>
</linearGradient>
<linearGradient id="paint9_linear" x1="28.2884" y1="0" x2="28.2884" y2="43.0172" gradientUnits="userSpaceOnUse">
<stop stop-color="white"/>
<stop offset="1" stop-color="white" stop-opacity="0"/>
</linearGradient>
<linearGradient id="paint10_linear" x1="12.6797" y1="25.719" x2="12.6797" y2="45.2367" gradientUnits="userSpaceOnUse">
<stop stop-color="white"/>
<stop offset="1" stop-color="white" stop-opacity="0"/>
</linearGradient>
<linearGradient id="paint11_linear" x1="37.0992" y1="7.40173" x2="37.0992" y2="17.9589" gradientUnits="userSpaceOnUse">
<stop stop-color="white"/>
<stop offset="1" stop-color="white" stop-opacity="0"/>
</linearGradient>
</defs>
</svg>
