<svg xmlns="http://www.w3.org/2000/svg" width="140" height="42" fill="none"><path fill="#4D4D5D" d="M17.97 0c9.93 0 17.96 7.95 17.96 17.79 0 1.55-.22 3.05-.62 4.5a9.94 9.94 0 015.96 9.11c0 5.5-4.55 10-10.11 10-4.27 0-7.86-2.55-9.38-6.22a21.7 21.7 0 01-3.81.4A17.86 17.86 0 010 17.77C0 7.96 8.03 0 17.97 0zm13.19 25.29a6.13 6.13 0 00-6.18 6.11 6.13 6.13 0 006.18 6.12 6.13 6.13 0 006.18-6.12c0-3.39-2.76-6.11-6.18-6.11zM17.96 3.84A13.97 13.97 0 003.94 17.73c0 7.67 6.29 13.9 14.04 13.9 1.06 0 2.07-.12 3.08-.34.06-5.5 4.55-9.9 10.11-9.95h.34c.33-1.16.5-2.33.5-3.61 0-7.67-6.29-13.9-14.03-13.9zm32.29 5.83c1.18 0 2.24 1.11 2.24 2.78v9.12c0 1.22.4 2.22 1.13 3a3.91 3.91 0 002.92 1.22c1.18 0 2.19-.39 2.92-1.22a4.13 4.13 0 001.18-3V12.5c0-1.67.9-2.78 2.19-2.78h1c.12 0 .29.05.4.16a.5.5 0 01.17.4v11.55c0 2.12-.73 3.95-2.25 5.45a7.58 7.58 0 01-5.56 2.22 7.58 7.58 0 01-5.56-2.22 7.5 7.5 0 01-2.35-5.5V10.23a.6.6 0 01.17-.4.51.51 0 01.39-.16h1zm82.25-.33a9.3 9.3 0 015.61 1.83c.12.06.23.22.28.45a.7.7 0 01-.05.5l-1.07 1.55c-.28.45-.62.56-1 .34-1.64-1-2.93-1.56-3.94-1.56a2.7 2.7 0 00-1.8.61c-.44.4-.67.84-.67 1.34 0 .66.28 1.22.79 1.66.5.5 1.34.95 2.52 1.4.79.33 1.52.6 2.08.94.56.33 1.18.72 1.8 1.22.62.5 1.12 1.11 1.46 1.78.34.67.5 1.44.5 2.33a5.2 5.2 0 01-1.8 3.9c-1.17 1.1-2.75 1.6-4.65 1.6a10.8 10.8 0 01-3.04-.44c-.95-.33-1.62-.61-2.07-.89a3.3 3.3 0 01-.96-.67c-.28-.27-.28-.55-.11-.83l1.01-1.72a.82.82 0 01.5-.34c.23 0 .34 0 .45.12l.12.05c.11.06.22.17.33.22.12.06.28.17.45.28.17.11.4.22.56.33.17.12.4.23.62.28.23.11.5.17.68.28.22.06.44.11.67.17a3 3 0 00.67.05 2.7 2.7 0 001.8-.6c.5-.45.73-.95.73-1.5 0-.68-.28-1.29-.84-1.84a7.42 7.42 0 00-2.7-1.5 12 12 0 01-3.82-2.34 4.96 4.96 0 01-1.45-3.67c0-1.39.56-2.66 1.62-3.72 1.07-1.06 2.64-1.61 4.72-1.61zm-47.78.33c1.69 0 3.15.56 4.32 1.78a5.72 5.72 0 011.8 4.22 5.6 5.6 0 01-1.12 3.4 6.54 6.54 0 01-3.03 2.22l3.87 7.06a.5.5 0 010 .55.6.6 0 01-.5.28h-2.92c-.23 0-.34-.11-.45-.28l-3.77-7.39h-3.08v7.11a.6.6 0 01-.17.4.51.51 0 01-.4.16H76.7a.51.51 0 01-.39-.17c-.06-.1-.11-.22-.11-.39v-18.4a.5.5 0 01.17-.38.51.51 0 01.39-.17h7.97zm24.14-.22c.23 0 .4.11.45.28l8.65 18.73c.11.16.11.33 0 .5a.51.51 0 01-.45.22h-2.47c-.34 0-.62-.17-.84-.56l-1.4-3h-8.43l-1.35 3a.84.84 0 01-.84.56h-2.36c-.22 0-.33-.06-.45-.22a.41.41 0 010-.5l8.7-18.73c.12-.23.29-.28.51-.28h.28zm-.22 6.95h-.06l-2.75 6.11h5.62l-2.81-6.11zm-24.2-3.34h-4.6v5.5h4.6c.73 0 1.4-.27 1.97-.83.56-.56.84-1.22.84-2 0-.72-.28-1.39-.84-1.89a2.82 2.82 0 00-1.97-.78z"/><path fill="url(#paint0_linear)" fill-opacity=".4" d="M17.97 0c9.93 0 17.96 7.95 17.96 17.79 0 1.55-.22 3.05-.62 4.5a9.94 9.94 0 015.96 9.11c0 5.5-4.55 10-10.11 10-4.27 0-7.86-2.55-9.38-6.22a21.7 21.7 0 01-3.81.4A17.86 17.86 0 010 17.77C0 7.96 8.03 0 17.97 0zm13.19 25.29a6.13 6.13 0 00-6.18 6.11 6.13 6.13 0 006.18 6.12 6.13 6.13 0 006.18-6.12c0-3.39-2.76-6.11-6.18-6.11zM17.96 3.84A13.97 13.97 0 003.94 17.73c0 7.67 6.29 13.9 14.04 13.9 1.06 0 2.07-.12 3.08-.34.06-5.5 4.55-9.9 10.11-9.95h.34c.33-1.16.5-2.33.5-3.61 0-7.67-6.29-13.9-14.03-13.9zm32.29 5.83c1.18 0 2.24 1.11 2.24 2.78v9.12c0 1.22.4 2.22 1.13 3a3.91 3.91 0 002.92 1.22c1.18 0 2.19-.39 2.92-1.22a4.13 4.13 0 001.18-3V12.5c0-1.67.9-2.78 2.19-2.78h1c.12 0 .29.05.4.16a.5.5 0 01.17.4v11.55c0 2.12-.73 3.95-2.25 5.45a7.58 7.58 0 01-5.56 2.22 7.58 7.58 0 01-5.56-2.22 7.5 7.5 0 01-2.35-5.5V10.23a.6.6 0 01.17-.4.51.51 0 01.39-.16h1zm82.25-.33a9.3 9.3 0 015.61 1.83c.12.06.23.22.28.45a.7.7 0 01-.05.5l-1.07 1.55c-.28.45-.62.56-1 .34-1.64-1-2.93-1.56-3.94-1.56a2.7 2.7 0 00-1.8.61c-.44.4-.67.84-.67 1.34 0 .66.28 1.22.79 1.66.5.5 1.34.95 2.52 1.4.79.33 1.52.6 2.08.94.56.33 1.18.72 1.8 1.22.62.5 1.12 1.11 1.46 1.78.34.67.5 1.44.5 2.33a5.2 5.2 0 01-1.8 3.9c-1.17 1.1-2.75 1.6-4.65 1.6a10.8 10.8 0 01-3.04-.44c-.95-.33-1.62-.61-2.07-.89a3.3 3.3 0 01-.96-.67c-.28-.27-.28-.55-.11-.83l1.01-1.72a.82.82 0 01.5-.34c.23 0 .34 0 .45.12l.12.05c.11.06.22.17.33.22.12.06.28.17.45.28.17.11.4.22.56.33.17.12.4.23.62.28.23.11.5.17.68.28.22.06.44.11.67.17a3 3 0 00.67.05 2.7 2.7 0 001.8-.6c.5-.45.73-.95.73-1.5 0-.68-.28-1.29-.84-1.84a7.42 7.42 0 00-2.7-1.5 12 12 0 01-3.82-2.34 4.96 4.96 0 01-1.45-3.67c0-1.39.56-2.66 1.62-3.72 1.07-1.06 2.64-1.61 4.72-1.61zm-47.78.33c1.69 0 3.15.56 4.32 1.78a5.72 5.72 0 011.8 4.22 5.6 5.6 0 01-1.12 3.4 6.54 6.54 0 01-3.03 2.22l3.87 7.06a.5.5 0 010 .55.6.6 0 01-.5.28h-2.92c-.23 0-.34-.11-.45-.28l-3.77-7.39h-3.08v7.11a.6.6 0 01-.17.4.51.51 0 01-.4.16H76.7a.51.51 0 01-.39-.17c-.06-.1-.11-.22-.11-.39v-18.4a.5.5 0 01.17-.38.51.51 0 01.39-.17h7.97zm24.14-.22c.23 0 .4.11.45.28l8.65 18.73c.11.16.11.33 0 .5a.51.51 0 01-.45.22h-2.47c-.34 0-.62-.17-.84-.56l-1.4-3h-8.43l-1.35 3a.84.84 0 01-.84.56h-2.36c-.22 0-.33-.06-.45-.22a.41.41 0 010-.5l8.7-18.73c.12-.23.29-.28.51-.28h.28zm-.22 6.95h-.06l-2.75 6.11h5.62l-2.81-6.11zm-24.2-3.34h-4.6v5.5h4.6c.73 0 1.4-.27 1.97-.83.56-.56.84-1.22.84-2 0-.72-.28-1.39-.84-1.89a2.82 2.82 0 00-1.97-.78z"/><defs><linearGradient id="paint0_linear" x1="69.506" x2="69.506" y1="0" y2="41.408" gradientUnits="userSpaceOnUse"><stop stop-color="#fff"/><stop offset="1" stop-color="#fff" stop-opacity="0"/></linearGradient></defs></svg>