<svg width="214" height="46" viewBox="0 0 214 46" fill="none" xmlns="http://www.w3.org/2000/svg">
<path d="M15.5181 32.2947C15.9375 31.7355 16.2172 31.3161 16.6366 30.7568C16.9162 30.4772 17.056 30.1976 17.3356 29.918C17.6152 29.4986 17.8948 29.0792 18.1744 28.6598C18.454 28.2404 18.7336 27.9608 19.0132 27.5414C19.4326 26.9821 19.852 26.2831 20.4113 25.7239C20.6909 25.3045 20.9705 25.0249 21.2501 24.6055C21.3899 24.3259 21.6695 24.0463 21.8093 23.7667C22.0889 23.4871 22.2287 23.0676 22.2287 22.6482C22.2287 22.2288 22.2287 21.6696 21.9491 21.2502C21.6695 20.8308 21.3899 20.4114 21.1103 19.992C20.6909 19.4327 20.4113 19.0133 19.9919 18.4541C19.7122 18.1745 19.5724 17.8949 19.2928 17.6153C19.0132 17.1959 18.7336 16.7765 18.454 16.3571C18.3142 16.0775 18.0346 15.7978 17.8948 15.5182C17.6152 15.0988 17.3356 14.6794 17.056 14.26C16.7764 13.8406 16.4968 13.561 16.2172 13.1416C15.6579 13.0018 15.3783 12.5824 15.0987 12.163C14.8191 11.8833 14.6793 11.6037 14.3997 11.3241C13.7007 11.0445 13.0017 11.1843 12.5823 11.7435C12.3026 12.163 12.023 12.5824 11.7434 13.1416C11.4638 13.561 11.1842 14.1202 10.9046 14.5396C10.625 15.0988 10.2056 15.658 9.92599 16.3571C9.78618 16.4969 9.64638 16.7765 9.64638 16.9163C9.50658 17.1959 9.22697 17.6153 9.08717 17.8949C8.94736 18.1745 8.80756 18.3143 8.66775 18.5939C8.38815 19.1531 8.10854 19.5725 7.82893 20.1318C7.54932 20.5512 7.40952 20.8308 7.12991 21.2502C6.85031 21.6696 6.5707 22.2288 6.7105 22.788C6.7105 23.3472 6.85031 23.7667 7.12991 24.1861C7.26972 24.3259 7.26972 24.4657 7.40952 24.7453C7.54932 25.1647 7.82893 25.4443 7.96874 25.8637C8.10854 26.1433 8.38815 26.5627 8.66775 26.9821C8.80756 27.1219 8.94736 27.4016 8.94736 27.5414C9.22697 27.9608 9.36677 28.2404 9.64638 28.6598C9.78618 28.9394 9.78618 29.0792 9.92599 29.3588C10.2056 29.918 10.4852 30.3374 10.7648 30.8966C10.9046 31.1763 11.0444 31.3161 11.1842 31.5957C11.4638 32.1549 11.7434 32.5743 12.023 33.1335C12.1628 33.4131 12.4425 33.8325 12.7221 33.9723C13.0017 34.1121 13.4211 34.2519 13.8405 34.1121C14.2599 33.9723 14.3997 33.6927 14.6793 33.4131C14.9589 33.1335 15.2385 32.7141 15.5181 32.2947Z" fill="#4D4D5D"/>
<path d="M15.5181 32.2947C15.9375 31.7355 16.2172 31.3161 16.6366 30.7568C16.9162 30.4772 17.056 30.1976 17.3356 29.918C17.6152 29.4986 17.8948 29.0792 18.1744 28.6598C18.454 28.2404 18.7336 27.9608 19.0132 27.5414C19.4326 26.9821 19.852 26.2831 20.4113 25.7239C20.6909 25.3045 20.9705 25.0249 21.2501 24.6055C21.3899 24.3259 21.6695 24.0463 21.8093 23.7667C22.0889 23.4871 22.2287 23.0676 22.2287 22.6482C22.2287 22.2288 22.2287 21.6696 21.9491 21.2502C21.6695 20.8308 21.3899 20.4114 21.1103 19.992C20.6909 19.4327 20.4113 19.0133 19.9919 18.4541C19.7122 18.1745 19.5724 17.8949 19.2928 17.6153C19.0132 17.1959 18.7336 16.7765 18.454 16.3571C18.3142 16.0775 18.0346 15.7978 17.8948 15.5182C17.6152 15.0988 17.3356 14.6794 17.056 14.26C16.7764 13.8406 16.4968 13.561 16.2172 13.1416C15.6579 13.0018 15.3783 12.5824 15.0987 12.163C14.8191 11.8833 14.6793 11.6037 14.3997 11.3241C13.7007 11.0445 13.0017 11.1843 12.5823 11.7435C12.3026 12.163 12.023 12.5824 11.7434 13.1416C11.4638 13.561 11.1842 14.1202 10.9046 14.5396C10.625 15.0988 10.2056 15.658 9.92599 16.3571C9.78618 16.4969 9.64638 16.7765 9.64638 16.9163C9.50658 17.1959 9.22697 17.6153 9.08717 17.8949C8.94736 18.1745 8.80756 18.3143 8.66775 18.5939C8.38815 19.1531 8.10854 19.5725 7.82893 20.1318C7.54932 20.5512 7.40952 20.8308 7.12991 21.2502C6.85031 21.6696 6.5707 22.2288 6.7105 22.788C6.7105 23.3472 6.85031 23.7667 7.12991 24.1861C7.26972 24.3259 7.26972 24.4657 7.40952 24.7453C7.54932 25.1647 7.82893 25.4443 7.96874 25.8637C8.10854 26.1433 8.38815 26.5627 8.66775 26.9821C8.80756 27.1219 8.94736 27.4016 8.94736 27.5414C9.22697 27.9608 9.36677 28.2404 9.64638 28.6598C9.78618 28.9394 9.78618 29.0792 9.92599 29.3588C10.2056 29.918 10.4852 30.3374 10.7648 30.8966C10.9046 31.1763 11.0444 31.3161 11.1842 31.5957C11.4638 32.1549 11.7434 32.5743 12.023 33.1335C12.1628 33.4131 12.4425 33.8325 12.7221 33.9723C13.0017 34.1121 13.4211 34.2519 13.8405 34.1121C14.2599 33.9723 14.3997 33.6927 14.6793 33.4131C14.9589 33.1335 15.2385 32.7141 15.5181 32.2947Z" fill="url(#paint0_linear)" fill-opacity="0.4"/>
<path d="M42.6401 28.3802C42.7799 28.1006 43.0595 27.6812 43.1993 27.4016C43.3391 27.1219 43.4789 26.9821 43.6187 26.7025C43.8983 26.1433 44.1779 25.7239 44.4575 25.1647C44.5973 24.8851 44.8769 24.4657 45.0168 24.1861C45.2964 23.7667 45.4362 23.2074 45.4362 22.788C45.4362 22.6482 45.4362 22.5084 45.4362 22.3686C45.4362 22.2288 45.4362 21.9492 45.2964 21.8094C45.0168 21.2502 44.7371 20.8308 44.4575 20.2716C44.1779 19.8522 44.0381 19.5725 43.7585 19.1531C43.6187 18.7337 43.3391 18.4541 43.1993 18.0347C43.0595 17.6153 42.7799 17.3357 42.5003 16.9163C42.2207 16.4969 42.0809 16.2173 41.8013 15.7978C41.3819 15.0988 41.1022 14.5396 40.6828 13.9804C40.4032 13.4212 40.1236 12.862 39.7042 12.3028C39.5644 12.0231 39.4246 11.7435 39.145 11.6037C38.8654 11.3241 38.5858 11.1843 38.3062 11.1843C38.0266 11.1843 37.747 11.3241 37.4674 11.4639C37.0479 11.8833 36.7683 12.4426 36.3489 12.862C36.3489 13.4212 36.2091 13.7008 36.0693 13.9804C35.7897 14.26 35.6499 14.6794 35.3703 14.959C35.2305 15.2386 34.9509 15.5182 34.8111 15.7978C34.5315 16.0775 34.3917 16.4969 34.1121 16.7765C33.9723 17.0561 33.6927 17.3357 33.5529 17.6153C33.2732 17.8949 33.1334 18.3143 32.8538 18.5939C32.714 18.8735 32.4344 19.1531 32.2946 19.4327C32.015 19.7123 31.8752 20.1318 31.5956 20.4114C31.316 20.691 31.1762 20.9706 31.0364 21.2502C30.7568 21.6696 30.4772 22.089 30.617 22.6482C30.617 23.0676 30.7568 23.3472 30.8966 23.7667C31.1762 24.1861 31.4558 24.6055 31.8752 25.0249C32.1548 25.4443 32.4344 25.8637 32.714 26.2831C32.8538 26.5627 33.1334 26.8423 33.2732 27.1219C33.5528 27.5414 33.8325 27.9608 34.1121 28.3802C34.3917 28.7996 34.8111 29.3588 35.0907 29.7782C35.5101 30.3374 36.0693 31.0364 36.4887 31.5957C36.7683 31.8753 37.0479 32.2947 37.1877 32.5743C37.4674 32.8539 37.6072 33.2733 37.8868 33.5529C38.3062 33.8325 38.5858 34.1121 39.145 33.9723C39.4246 33.8325 39.7042 33.6927 39.844 33.4131C39.9838 33.1335 40.1236 32.8539 40.2634 32.7141C40.543 32.2947 40.6828 31.8753 40.9624 31.5957C41.1022 31.3161 41.2421 31.1763 41.3819 30.8966C41.6615 30.3374 41.9411 29.918 42.2207 29.3588C42.3605 28.9394 42.5003 28.6598 42.6401 28.3802Z" fill="#4D4D5D"/>
<path d="M42.6401 28.3802C42.7799 28.1006 43.0595 27.6812 43.1993 27.4016C43.3391 27.1219 43.4789 26.9821 43.6187 26.7025C43.8983 26.1433 44.1779 25.7239 44.4575 25.1647C44.5973 24.8851 44.8769 24.4657 45.0168 24.1861C45.2964 23.7667 45.4362 23.2074 45.4362 22.788C45.4362 22.6482 45.4362 22.5084 45.4362 22.3686C45.4362 22.2288 45.4362 21.9492 45.2964 21.8094C45.0168 21.2502 44.7371 20.8308 44.4575 20.2716C44.1779 19.8522 44.0381 19.5725 43.7585 19.1531C43.6187 18.7337 43.3391 18.4541 43.1993 18.0347C43.0595 17.6153 42.7799 17.3357 42.5003 16.9163C42.2207 16.4969 42.0809 16.2173 41.8013 15.7978C41.3819 15.0988 41.1022 14.5396 40.6828 13.9804C40.4032 13.4212 40.1236 12.862 39.7042 12.3028C39.5644 12.0231 39.4246 11.7435 39.145 11.6037C38.8654 11.3241 38.5858 11.1843 38.3062 11.1843C38.0266 11.1843 37.747 11.3241 37.4674 11.4639C37.0479 11.8833 36.7683 12.4426 36.3489 12.862C36.3489 13.4212 36.2091 13.7008 36.0693 13.9804C35.7897 14.26 35.6499 14.6794 35.3703 14.959C35.2305 15.2386 34.9509 15.5182 34.8111 15.7978C34.5315 16.0775 34.3917 16.4969 34.1121 16.7765C33.9723 17.0561 33.6927 17.3357 33.5529 17.6153C33.2732 17.8949 33.1334 18.3143 32.8538 18.5939C32.714 18.8735 32.4344 19.1531 32.2946 19.4327C32.015 19.7123 31.8752 20.1318 31.5956 20.4114C31.316 20.691 31.1762 20.9706 31.0364 21.2502C30.7568 21.6696 30.4772 22.089 30.617 22.6482C30.617 23.0676 30.7568 23.3472 30.8966 23.7667C31.1762 24.1861 31.4558 24.6055 31.8752 25.0249C32.1548 25.4443 32.4344 25.8637 32.714 26.2831C32.8538 26.5627 33.1334 26.8423 33.2732 27.1219C33.5528 27.5414 33.8325 27.9608 34.1121 28.3802C34.3917 28.7996 34.8111 29.3588 35.0907 29.7782C35.5101 30.3374 36.0693 31.0364 36.4887 31.5957C36.7683 31.8753 37.0479 32.2947 37.1877 32.5743C37.4674 32.8539 37.6072 33.2733 37.8868 33.5529C38.3062 33.8325 38.5858 34.1121 39.145 33.9723C39.4246 33.8325 39.7042 33.6927 39.844 33.4131C39.9838 33.1335 40.1236 32.8539 40.2634 32.7141C40.543 32.2947 40.6828 31.8753 40.9624 31.5957C41.1022 31.3161 41.2421 31.1763 41.3819 30.8966C41.6615 30.3374 41.9411 29.918 42.2207 29.3588C42.3605 28.9394 42.5003 28.6598 42.6401 28.3802Z" fill="url(#paint1_linear)" fill-opacity="0.4"/>
<path d="M27.5411 29.0792C27.4013 28.9394 27.4013 28.7996 27.2614 28.6598C26.9818 28.3802 26.842 28.1006 26.5624 27.821C26.4226 27.6812 26.4226 27.6812 26.2828 27.5414C26.143 27.4016 26.0032 27.4016 26.0032 27.5414L25.8634 27.6812C25.7236 27.9608 25.5838 28.1006 25.3042 28.3802C24.8848 28.9394 24.4654 29.4986 24.046 30.0578C23.7664 30.4773 23.4867 30.7569 23.2071 31.1763C23.0673 31.4559 22.9275 31.5957 22.6479 31.8753C22.3683 32.2947 22.0887 32.7141 21.8091 33.1335C21.5295 33.5529 21.2499 33.8325 20.9703 34.252C20.4111 34.951 19.9917 35.65 19.4324 36.349C19.013 36.9082 18.5936 37.4674 18.1742 38.1665C18.1742 38.3063 18.1742 38.4461 18.1742 38.5859C18.1742 38.7257 18.314 39.0053 18.314 39.1451C18.5936 39.5645 18.8732 39.8441 19.4324 39.8441C21.6693 39.8441 23.9062 39.8441 26.2828 39.8441C28.5197 39.8441 30.8963 39.8441 33.1332 39.8441C33.4128 39.8441 33.6924 39.7043 33.8322 39.5645C34.1118 39.4247 34.2516 39.1451 34.3914 38.8655C34.5312 38.5859 34.5312 38.4461 34.2516 38.1665C34.1118 38.0266 33.972 37.747 33.8322 37.6072C33.5526 37.1878 33.273 36.7684 32.9934 36.349C32.574 35.7898 32.1546 35.0908 31.5954 34.5316C31.0361 33.8325 30.6167 33.1335 30.0575 32.4345C29.6381 31.8753 29.3585 31.4559 28.9391 30.8967C28.5197 30.3374 27.9605 29.7782 27.5411 29.0792Z" fill="#4D4D5D"/>
<path d="M27.5411 29.0792C27.4013 28.9394 27.4013 28.7996 27.2614 28.6598C26.9818 28.3802 26.842 28.1006 26.5624 27.821C26.4226 27.6812 26.4226 27.6812 26.2828 27.5414C26.143 27.4016 26.0032 27.4016 26.0032 27.5414L25.8634 27.6812C25.7236 27.9608 25.5838 28.1006 25.3042 28.3802C24.8848 28.9394 24.4654 29.4986 24.046 30.0578C23.7664 30.4773 23.4867 30.7569 23.2071 31.1763C23.0673 31.4559 22.9275 31.5957 22.6479 31.8753C22.3683 32.2947 22.0887 32.7141 21.8091 33.1335C21.5295 33.5529 21.2499 33.8325 20.9703 34.252C20.4111 34.951 19.9917 35.65 19.4324 36.349C19.013 36.9082 18.5936 37.4674 18.1742 38.1665C18.1742 38.3063 18.1742 38.4461 18.1742 38.5859C18.1742 38.7257 18.314 39.0053 18.314 39.1451C18.5936 39.5645 18.8732 39.8441 19.4324 39.8441C21.6693 39.8441 23.9062 39.8441 26.2828 39.8441C28.5197 39.8441 30.8963 39.8441 33.1332 39.8441C33.4128 39.8441 33.6924 39.7043 33.8322 39.5645C34.1118 39.4247 34.2516 39.1451 34.3914 38.8655C34.5312 38.5859 34.5312 38.4461 34.2516 38.1665C34.1118 38.0266 33.972 37.747 33.8322 37.6072C33.5526 37.1878 33.273 36.7684 32.9934 36.349C32.574 35.7898 32.1546 35.0908 31.5954 34.5316C31.0361 33.8325 30.6167 33.1335 30.0575 32.4345C29.6381 31.8753 29.3585 31.4559 28.9391 30.8967C28.5197 30.3374 27.9605 29.7782 27.5411 29.0792Z" fill="url(#paint2_linear)" fill-opacity="0.4"/>
<path d="M31.8755 10.3455C32.1551 9.92604 32.5745 9.36683 32.9939 8.94742C33.2735 8.52801 33.6929 7.96879 33.9725 7.54938C34.1123 7.26977 34.2521 6.99017 34.1123 6.71056C34.1123 6.57076 33.9725 6.43095 33.8327 6.29115C33.8327 6.15134 33.6929 6.15135 33.6929 6.01154C33.4133 5.73193 33.1337 5.73193 32.7143 5.73193C30.6172 5.73193 28.5202 5.73193 26.2833 5.73193C24.0465 5.73193 22.0892 5.73193 19.8523 5.73193C19.7125 5.73193 19.5727 5.73193 19.4329 5.73193C19.0135 5.73193 18.7339 6.01154 18.4543 6.43095C18.3145 6.71056 18.1747 6.99017 18.4543 7.26977C18.5941 7.40958 18.7339 7.68919 18.8737 7.82899C19.1533 8.2484 19.4329 8.66781 19.7125 9.08722C19.9921 9.50663 20.4116 10.0658 20.6912 10.4853C20.9708 10.9047 21.3902 11.4639 21.8096 11.8833C22.0892 12.3027 22.3688 12.5823 22.6484 13.0017C22.928 13.4211 23.3474 13.9804 23.627 14.3998C23.7668 14.6794 24.0465 14.959 24.1863 15.0988C24.6057 15.658 24.8853 16.0774 25.3047 16.6366C25.5843 16.9162 25.8639 17.3356 26.0037 17.6152C26.1435 17.755 26.2833 17.755 26.2833 17.6152C26.5629 17.3356 26.7027 17.1958 26.9823 16.9162C27.4017 16.4968 27.6814 15.9376 28.1008 15.5182C28.5202 14.959 28.9396 14.3998 29.2192 13.8405C29.4988 13.5609 29.6386 13.1415 29.9182 12.8619C30.3376 12.3027 30.6172 11.8833 31.0366 11.3241C31.3162 11.0445 31.5959 10.6251 31.8755 10.3455Z" fill="#4D4D5D"/>
<path d="M31.8755 10.3455C32.1551 9.92604 32.5745 9.36683 32.9939 8.94742C33.2735 8.52801 33.6929 7.96879 33.9725 7.54938C34.1123 7.26977 34.2521 6.99017 34.1123 6.71056C34.1123 6.57076 33.9725 6.43095 33.8327 6.29115C33.8327 6.15134 33.6929 6.15135 33.6929 6.01154C33.4133 5.73193 33.1337 5.73193 32.7143 5.73193C30.6172 5.73193 28.5202 5.73193 26.2833 5.73193C24.0465 5.73193 22.0892 5.73193 19.8523 5.73193C19.7125 5.73193 19.5727 5.73193 19.4329 5.73193C19.0135 5.73193 18.7339 6.01154 18.4543 6.43095C18.3145 6.71056 18.1747 6.99017 18.4543 7.26977C18.5941 7.40958 18.7339 7.68919 18.8737 7.82899C19.1533 8.2484 19.4329 8.66781 19.7125 9.08722C19.9921 9.50663 20.4116 10.0658 20.6912 10.4853C20.9708 10.9047 21.3902 11.4639 21.8096 11.8833C22.0892 12.3027 22.3688 12.5823 22.6484 13.0017C22.928 13.4211 23.3474 13.9804 23.627 14.3998C23.7668 14.6794 24.0465 14.959 24.1863 15.0988C24.6057 15.658 24.8853 16.0774 25.3047 16.6366C25.5843 16.9162 25.8639 17.3356 26.0037 17.6152C26.1435 17.755 26.2833 17.755 26.2833 17.6152C26.5629 17.3356 26.7027 17.1958 26.9823 16.9162C27.4017 16.4968 27.6814 15.9376 28.1008 15.5182C28.5202 14.959 28.9396 14.3998 29.2192 13.8405C29.4988 13.5609 29.6386 13.1415 29.9182 12.8619C30.3376 12.3027 30.6172 11.8833 31.0366 11.3241C31.3162 11.0445 31.5959 10.6251 31.8755 10.3455Z" fill="url(#paint3_linear)" fill-opacity="0.4"/>
<path d="M41.8013 6.85034C41.8013 6.99015 41.8013 7.12995 41.9412 7.12995C44.3178 12.1629 46.6945 17.3356 49.0711 22.3686C49.2109 22.5084 49.2109 22.6482 49.0711 22.9278C48.0925 24.885 47.2537 26.8423 46.2751 28.7995C44.7372 32.015 43.3392 35.2305 41.8013 38.3062C41.8013 38.446 41.6615 38.446 41.6615 38.5858C45.1566 33.2732 48.5119 27.9607 52.007 22.6482C48.6517 17.3356 45.1566 12.0231 41.8013 6.85034Z" fill="#4D4D5D"/>
<path d="M41.8013 6.85034C41.8013 6.99015 41.8013 7.12995 41.9412 7.12995C44.3178 12.1629 46.6945 17.3356 49.0711 22.3686C49.2109 22.5084 49.2109 22.6482 49.0711 22.9278C48.0925 24.885 47.2537 26.8423 46.2751 28.7995C44.7372 32.015 43.3392 35.2305 41.8013 38.3062C41.8013 38.446 41.6615 38.446 41.6615 38.5858C45.1566 33.2732 48.5119 27.9607 52.007 22.6482C48.6517 17.3356 45.1566 12.0231 41.8013 6.85034Z" fill="url(#paint4_linear)" fill-opacity="0.4"/>
<path d="M3.07568 23.0676C2.93588 22.9278 2.93588 22.788 3.07568 22.6482C5.45234 17.3357 7.96881 12.1629 10.3455 6.99018C10.3455 6.85037 10.3455 6.85037 10.4853 6.71057C6.85038 12.1629 3.49509 17.4755 0 22.788C3.49509 28.1005 6.85038 33.2733 10.3455 38.5858C10.3455 38.446 10.3455 38.446 10.3455 38.3062C7.82901 33.2733 5.45234 28.1005 3.07568 23.0676Z" fill="#4D4D5D"/>
<path d="M3.07568 23.0676C2.93588 22.9278 2.93588 22.788 3.07568 22.6482C5.45234 17.3357 7.96881 12.1629 10.3455 6.99018C10.3455 6.85037 10.3455 6.85037 10.4853 6.71057C6.85038 12.1629 3.49509 17.4755 0 22.788C3.49509 28.1005 6.85038 33.2733 10.3455 38.5858C10.3455 38.446 10.3455 38.446 10.3455 38.3062C7.82901 33.2733 5.45234 28.1005 3.07568 23.0676Z" fill="url(#paint5_linear)" fill-opacity="0.4"/>
<path d="M36.2095 43.7586C34.8114 43.6188 33.2736 43.3392 31.8756 43.1994C30.1979 43.0595 28.5203 42.7799 26.8426 42.6401C26.7028 42.6401 26.563 42.6401 26.4232 42.6401C25.864 42.6401 25.165 42.7799 24.6058 42.9197C23.0679 43.0595 21.5301 43.3392 19.9923 43.479C18.3146 43.6188 16.637 43.8984 14.9593 44.0382H14.8195H14.9593C15.6583 44.178 16.3574 44.178 16.9166 44.3178C18.4544 44.4576 19.9923 44.7372 21.5301 44.877C22.9281 45.0168 24.1864 45.1566 25.5844 45.2964C26.0038 45.2964 26.4232 45.4362 26.8426 45.4362C28.6601 45.1566 30.3377 45.0168 32.1552 44.7372C34.1124 44.4576 35.9299 44.3178 37.8871 44.0382H38.0269C37.8871 44.0382 37.8871 43.8984 37.7473 43.8984C37.1881 43.8984 36.7687 43.8984 36.2095 43.7586Z" fill="#4D4D5D"/>
<path d="M36.2095 43.7586C34.8114 43.6188 33.2736 43.3392 31.8756 43.1994C30.1979 43.0595 28.5203 42.7799 26.8426 42.6401C26.7028 42.6401 26.563 42.6401 26.4232 42.6401C25.864 42.6401 25.165 42.7799 24.6058 42.9197C23.0679 43.0595 21.5301 43.3392 19.9923 43.479C18.3146 43.6188 16.637 43.8984 14.9593 44.0382H14.8195H14.9593C15.6583 44.178 16.3574 44.178 16.9166 44.3178C18.4544 44.4576 19.9923 44.7372 21.5301 44.877C22.9281 45.0168 24.1864 45.1566 25.5844 45.2964C26.0038 45.2964 26.4232 45.4362 26.8426 45.4362C28.6601 45.1566 30.3377 45.0168 32.1552 44.7372C34.1124 44.4576 35.9299 44.3178 37.8871 44.0382H38.0269C37.8871 44.0382 37.8871 43.8984 37.7473 43.8984C37.1881 43.8984 36.7687 43.8984 36.2095 43.7586Z" fill="url(#paint6_linear)" fill-opacity="0.4"/>
<path d="M14.8195 1.53784C16.4971 1.67764 18.035 1.95725 19.7126 2.09706C21.5301 2.37666 23.4873 2.51647 25.3048 2.79607C25.7242 2.79607 26.0038 2.79607 26.4232 2.79607C27.4018 2.65627 28.3805 2.51647 29.3591 2.51647C30.6173 2.37666 32.0154 2.23686 33.2736 2.09706C34.8114 1.95725 36.2095 1.81745 37.7473 1.53784C37.8871 1.53784 37.8871 1.53784 38.0269 1.53784C37.7473 1.39804 37.6075 1.39804 37.4677 1.25823C35.7901 1.11843 34.1124 0.838822 32.4348 0.699018C30.6173 0.419411 28.7999 0.279607 26.9824 0C26.563 0 26.1436 0 25.7242 0C24.0465 0.279607 22.3689 0.419411 20.6913 0.559215C18.734 0.838822 16.637 1.11843 14.8195 1.53784C14.6797 1.39804 14.6797 1.39804 14.5399 1.39804C14.6797 1.39804 14.6797 1.53784 14.8195 1.53784Z" fill="#4D4D5D"/>
<path d="M14.8195 1.53784C16.4971 1.67764 18.035 1.95725 19.7126 2.09706C21.5301 2.37666 23.4873 2.51647 25.3048 2.79607C25.7242 2.79607 26.0038 2.79607 26.4232 2.79607C27.4018 2.65627 28.3805 2.51647 29.3591 2.51647C30.6173 2.37666 32.0154 2.23686 33.2736 2.09706C34.8114 1.95725 36.2095 1.81745 37.7473 1.53784C37.8871 1.53784 37.8871 1.53784 38.0269 1.53784C37.7473 1.39804 37.6075 1.39804 37.4677 1.25823C35.7901 1.11843 34.1124 0.838822 32.4348 0.699018C30.6173 0.419411 28.7999 0.279607 26.9824 0C26.563 0 26.1436 0 25.7242 0C24.0465 0.279607 22.3689 0.419411 20.6913 0.559215C18.734 0.838822 16.637 1.11843 14.8195 1.53784C14.6797 1.39804 14.6797 1.39804 14.5399 1.39804C14.6797 1.39804 14.6797 1.53784 14.8195 1.53784Z" fill="url(#paint7_linear)" fill-opacity="0.4"/>
<path d="M70.741 30.3374V26.9821H73.9565L70.741 18.5938L66.1275 30.3374H62.3528L69.0634 13.5609H72.4187L79.1293 30.3374H70.741Z" fill="#4D4D5D"/>
<path d="M70.741 30.3374V26.9821H73.9565L70.741 18.5938L66.1275 30.3374H62.3528L69.0634 13.5609H72.4187L79.1293 30.3374H70.741Z" fill="url(#paint8_linear)" fill-opacity="0.4"/>
<path d="M102.197 21.9491L95.9059 13.5609H100.1L104.294 19.1531L108.488 13.5609H112.682L106.391 21.9491L112.682 30.3374H108.488L104.294 24.7452L100.1 30.3374H95.9059L102.197 21.9491Z" fill="#4D4D5D"/>
<path d="M102.197 21.9491L95.9059 13.5609H100.1L104.294 19.1531L108.488 13.5609H112.682L106.391 21.9491L112.682 30.3374H108.488L104.294 24.7452L100.1 30.3374H95.9059L102.197 21.9491Z" fill="url(#paint9_linear)" fill-opacity="0.4"/>
<path d="M139.385 13.5609V30.3374H136.029V13.5609H139.385Z" fill="#4D4D5D"/>
<path d="M139.385 13.5609V30.3374H136.029V13.5609H139.385Z" fill="url(#paint10_linear)" fill-opacity="0.4"/>
<path d="M162.872 30.3374V13.5609H179.648V30.3374H162.872ZM176.293 26.9821V16.9162H166.227V26.9821H176.293Z" fill="#4D4D5D"/>
<path d="M162.872 30.3374V13.5609H179.648V30.3374H162.872ZM176.293 26.9821V16.9162H166.227V26.9821H176.293Z" fill="url(#paint11_linear)" fill-opacity="0.4"/>
<path d="M196.424 30.3374V13.5609H199.779L209.845 25.4442V13.5609H213.201V30.3374H209.845L199.779 18.8735V30.3374H196.424Z" fill="#4D4D5D"/>
<path d="M196.424 30.3374V13.5609H199.779L209.845 25.4442V13.5609H213.201V30.3374H209.845L199.779 18.8735V30.3374H196.424Z" fill="url(#paint12_linear)" fill-opacity="0.4"/>
<defs>
<linearGradient id="paint0_linear" x1="14.451" y1="11.1843" x2="14.451" y2="34.17" gradientUnits="userSpaceOnUse">
<stop stop-color="white"/>
<stop offset="1" stop-color="white" stop-opacity="0"/>
</linearGradient>
<linearGradient id="paint1_linear" x1="38.008" y1="11.1843" x2="38.008" y2="34.0095" gradientUnits="userSpaceOnUse">
<stop stop-color="white"/>
<stop offset="1" stop-color="white" stop-opacity="0"/>
</linearGradient>
<linearGradient id="paint2_linear" x1="26.3287" y1="27.4365" x2="26.3287" y2="39.8441" gradientUnits="userSpaceOnUse">
<stop stop-color="white"/>
<stop offset="1" stop-color="white" stop-opacity="0"/>
</linearGradient>
<linearGradient id="paint3_linear" x1="26.2316" y1="5.73193" x2="26.2316" y2="17.7201" gradientUnits="userSpaceOnUse">
<stop stop-color="white"/>
<stop offset="1" stop-color="white" stop-opacity="0"/>
</linearGradient>
<linearGradient id="paint4_linear" x1="46.8343" y1="6.85034" x2="46.8343" y2="38.5858" gradientUnits="userSpaceOnUse">
<stop stop-color="white"/>
<stop offset="1" stop-color="white" stop-opacity="0"/>
</linearGradient>
<linearGradient id="paint5_linear" x1="5.24264" y1="6.71057" x2="5.24264" y2="38.5858" gradientUnits="userSpaceOnUse">
<stop stop-color="white"/>
<stop offset="1" stop-color="white" stop-opacity="0"/>
</linearGradient>
<linearGradient id="paint6_linear" x1="26.4232" y1="42.6401" x2="26.4232" y2="45.4362" gradientUnits="userSpaceOnUse">
<stop stop-color="white"/>
<stop offset="1" stop-color="white" stop-opacity="0"/>
</linearGradient>
<linearGradient id="paint7_linear" x1="26.2834" y1="0" x2="26.2834" y2="2.79607" gradientUnits="userSpaceOnUse">
<stop stop-color="white"/>
<stop offset="1" stop-color="white" stop-opacity="0"/>
</linearGradient>
<linearGradient id="paint8_linear" x1="70.741" y1="13.5609" x2="70.741" y2="30.3374" gradientUnits="userSpaceOnUse">
<stop stop-color="white"/>
<stop offset="1" stop-color="white" stop-opacity="0"/>
</linearGradient>
<linearGradient id="paint9_linear" x1="104.294" y1="13.5609" x2="104.294" y2="30.3374" gradientUnits="userSpaceOnUse">
<stop stop-color="white"/>
<stop offset="1" stop-color="white" stop-opacity="0"/>
</linearGradient>
<linearGradient id="paint10_linear" x1="137.707" y1="13.5609" x2="137.707" y2="30.3374" gradientUnits="userSpaceOnUse">
<stop stop-color="white"/>
<stop offset="1" stop-color="white" stop-opacity="0"/>
</linearGradient>
<linearGradient id="paint11_linear" x1="171.26" y1="13.5609" x2="171.26" y2="30.3374" gradientUnits="userSpaceOnUse">
<stop stop-color="white"/>
<stop offset="1" stop-color="white" stop-opacity="0"/>
</linearGradient>
<linearGradient id="paint12_linear" x1="204.812" y1="13.5609" x2="204.812" y2="30.3374" gradientUnits="userSpaceOnUse">
<stop stop-color="white"/>
<stop offset="1" stop-color="white" stop-opacity="0"/>
</linearGradient>
</defs>
</svg>
