<svg xmlns="http://www.w3.org/2000/svg" width="160" height="33" fill="none"><path fill="#4D4D5D" fill-rule="evenodd" d="M159.5 8.3l-8.32 8.3-8.31-8.3 8.31-8.3 8.31 8.3z" clip-rule="evenodd"/><path fill="url(#paint0_linear)" fill-opacity=".4" fill-rule="evenodd" d="M159.5 8.3l-8.32 8.3-8.31-8.3 8.31-8.3 8.31 8.3z" clip-rule="evenodd"/><path fill="#4D4D5D" fill-rule="evenodd" d="M37.19 8.61h-4.7l-.48.43-4.82 16.26h-.03l-5.4-16.26-.48-.43h-4.9l-.5.43-5.36 16.17-.1-.06-.03-.02-4.81-16.1-.5-.42H.32L0 9.04l7.51 22.9.52.46h4.72l.53-.45 5.36-16.4h.12l5.4 16.4.52.45h4.78l.52-.45L37.5 9.04l-.31-.43zm53.07 0h-4.72l-.52.43-6.6 16.93-.06.03-6.53-16.96-.52-.43H66.5l-.3.43 9.4 22.9.56.46h4.35l.55-.45 9.5-22.91-.3-.43z" clip-rule="evenodd"/><path fill="url(#paint1_linear)" fill-opacity=".4" fill-rule="evenodd" d="M37.19 8.61h-4.7l-.48.43-4.82 16.26h-.03l-5.4-16.26-.48-.43h-4.9l-.5.43-5.36 16.17-.1-.06-.03-.02-4.81-16.1-.5-.42H.32L0 9.04l7.51 22.9.52.46h4.72l.53-.45 5.36-16.4h.12l5.4 16.4.52.45h4.78l.52-.45L37.5 9.04l-.31-.43zm53.07 0h-4.72l-.52.43-6.6 16.93-.06.03-6.53-16.96-.52-.43H66.5l-.3.43 9.4 22.9.56.46h4.35l.55-.45 9.5-22.91-.3-.43z" clip-rule="evenodd"/><path fill="#4D4D5D" d="M114.6 21.77l.46-.42v-.7c0-3.7-1.07-6.9-3.19-9.14-2.11-2.23-4.97-3.38-8.46-3.38-3.37 0-6.2 1.24-8.37 3.65a12.55 12.55 0 00-3.25 8.66c0 3.54 1.14 6.5 3.37 8.82 2.24 2.32 5.19 3.5 8.74 3.5 2.58 0 4.78-.6 6.56-1.84 1.78-1.2 3.65-3.2 4.3-5.92l-.34-.45H110l-.61.45c-1.1 2.18-2.79 3.2-5.58 3.2a6.9 6.9 0 01-4.78-1.87 6.67 6.67 0 01-2.21-4.62l17.78.06zm-17.47-4.22a6.45 6.45 0 016.28-4.9c4.14 0 5.86 2.9 6.35 4.9H97.13zM58.53 8.6l-.46.46v2.35l-.1.1a8.49 8.49 0 00-3.12-2.43 10.2 10.2 0 00-4.45-.93c-3.03 0-5.7 1.2-7.9 3.56a12.4 12.4 0 00-3.32 8.79c0 3.47 1.1 6.43 3.31 8.78a10.55 10.55 0 007.91 3.56c1.63 0 3.1-.3 4.42-.93.24-.13.52-.25.76-.4a8.9 8.9 0 002.36-1.96c.03-.03.13.03.16 0v2.45l.46.45h4.01l.46-.45V9.04l-.46-.46h-4.04v.03zm-2.49 17.57a6.5 6.5 0 01-4.93 2.11c-1.9 0-3.31-.7-4.7-2.14-1.37-1.42-2.05-3.32-2.05-5.7 0-2.36.7-4.26 2.06-5.71 1.38-1.42 2.76-2.14 4.69-2.14 1.93 0 3.55.7 4.93 2.1a7.38 7.38 0 011.81 3.42v4.59a6.92 6.92 0 01-1.8 3.47z"/><path fill="url(#paint2_linear)" fill-opacity=".4" d="M114.6 21.77l.46-.42v-.7c0-3.7-1.07-6.9-3.19-9.14-2.11-2.23-4.97-3.38-8.46-3.38-3.37 0-6.2 1.24-8.37 3.65a12.55 12.55 0 00-3.25 8.66c0 3.54 1.14 6.5 3.37 8.82 2.24 2.32 5.19 3.5 8.74 3.5 2.58 0 4.78-.6 6.56-1.84 1.78-1.2 3.65-3.2 4.3-5.92l-.34-.45H110l-.61.45c-1.1 2.18-2.79 3.2-5.58 3.2a6.9 6.9 0 01-4.78-1.87 6.67 6.67 0 01-2.21-4.62l17.78.06zm-17.47-4.22a6.45 6.45 0 016.28-4.9c4.14 0 5.86 2.9 6.35 4.9H97.13zM58.53 8.6l-.46.46v2.35l-.1.1a8.49 8.49 0 00-3.12-2.43 10.2 10.2 0 00-4.45-.93c-3.03 0-5.7 1.2-7.9 3.56a12.4 12.4 0 00-3.32 8.79c0 3.47 1.1 6.43 3.31 8.78a10.55 10.55 0 007.91 3.56c1.63 0 3.1-.3 4.42-.93.24-.13.52-.25.76-.4a8.9 8.9 0 002.36-1.96c.03-.03.13.03.16 0v2.45l.46.45h4.01l.46-.45V9.04l-.46-.46h-4.04v.03zm-2.49 17.57a6.5 6.5 0 01-4.93 2.11c-1.9 0-3.31-.7-4.7-2.14-1.37-1.42-2.05-3.32-2.05-5.7 0-2.36.7-4.26 2.06-5.71 1.38-1.42 2.76-2.14 4.69-2.14 1.93 0 3.55.7 4.93 2.1a7.38 7.38 0 011.81 3.42v4.59a6.92 6.92 0 01-1.8 3.47z"/><path fill="#4D4D5D" fill-rule="evenodd" d="M131.62 18.63s-2.64-.54-4.82-1.02c-1.99-.46-3-1.03-3-2.42 0-1.48 1.44-2.71 4.54-2.71 3.03 0 4.72 1.32 4.72 2.5l.52.46h4.41l.34-.43c0-3.1-2.73-6.82-9.87-6.82-7.45 0-9.78 4.32-9.78 7.1 0 2.32.86 5.06 6.56 6.36l4.9 1.09c2.49.54 3.53 1.39 3.53 2.8 0 1.3-1.32 2.87-4.75 2.87-3.19 0-5.12-1.5-5.21-3.29l-.55-.45h-4.51l-.34.45c.4 3.99 3.4 7.73 10.58 7.73 8.12 0 9.78-4.89 9.78-7.46 0-3.44-2-5.67-7.05-6.76z" clip-rule="evenodd"/><path fill="url(#paint3_linear)" fill-opacity=".4" fill-rule="evenodd" d="M131.62 18.63s-2.64-.54-4.82-1.02c-1.99-.46-3-1.03-3-2.42 0-1.48 1.44-2.71 4.54-2.71 3.03 0 4.72 1.32 4.72 2.5l.52.46h4.41l.34-.43c0-3.1-2.73-6.82-9.87-6.82-7.45 0-9.78 4.32-9.78 7.1 0 2.32.86 5.06 6.56 6.36l4.9 1.09c2.49.54 3.53 1.39 3.53 2.8 0 1.3-1.32 2.87-4.75 2.87-3.19 0-5.12-1.5-5.21-3.29l-.55-.45h-4.51l-.34.45c.4 3.99 3.4 7.73 10.58 7.73 8.12 0 9.78-4.89 9.78-7.46 0-3.44-2-5.67-7.05-6.76z" clip-rule="evenodd"/><defs><linearGradient id="paint0_linear" x1="151.18" x2="151.18" y1="0" y2="16.594" gradientUnits="userSpaceOnUse"><stop stop-color="#fff"/><stop offset="1" stop-color="#fff" stop-opacity="0"/></linearGradient><linearGradient id="paint1_linear" x1="45.283" x2="45.283" y1="8.611" y2="32.4" gradientUnits="userSpaceOnUse"><stop stop-color="#fff"/><stop offset="1" stop-color="#fff" stop-opacity="0"/></linearGradient><linearGradient id="paint2_linear" x1="77.121" x2="77.121" y1="8.13" y2="32.851" gradientUnits="userSpaceOnUse"><stop stop-color="#fff"/><stop offset="1" stop-color="#fff" stop-opacity="0"/></linearGradient><linearGradient id="paint3_linear" x1="128.49" x2="128.49" y1="8.19" y2="32.85" gradientUnits="userSpaceOnUse"><stop stop-color="#fff"/><stop offset="1" stop-color="#fff" stop-opacity="0"/></linearGradient></defs></svg>