<svg xmlns="http://www.w3.org/2000/svg" width="138" height="53" fill="none"><path fill="#4D4D5D" d="M75 16.7c1.85 1.63 2.78 4.06 2.78 7.2v16.3H73.7V25.3c0-2.64-.57-4.59-1.72-5.78a5.99 5.99 0 00-4.55-1.77c-1.33 0-2.64.3-3.84.89a7.11 7.11 0 00-2.91 2.91c-.8 1.33-1.15 3.05-1.15 5.08V40.2h-4.11V15.46L59.18 17l.1 1.68a7.73 7.73 0 013.53-3.4c1.56-.76 3.29-1.14 5.03-1.1 2.89 0 5.27.84 7.16 2.51z"/><path fill="url(#paint0_linear)" fill-opacity=".4" d="M75 16.7c1.85 1.63 2.78 4.06 2.78 7.2v16.3H73.7V25.3c0-2.64-.57-4.59-1.72-5.78a5.99 5.99 0 00-4.55-1.77c-1.33 0-2.64.3-3.84.89a7.11 7.11 0 00-2.91 2.91c-.8 1.33-1.15 3.05-1.15 5.08V40.2h-4.11V15.46L59.18 17l.1 1.68a7.73 7.73 0 013.53-3.4c1.56-.76 3.29-1.14 5.03-1.1 2.89 0 5.27.84 7.16 2.51z"/><path fill="#4D4D5D" d="M106.8 28.97H87.58c.22 2.6 1.1 4.6 2.56 6.01a7.98 7.98 0 005.75 2.16c1.61.05 3.21-.28 4.68-.97a5.08 5.08 0 002.52-2.82l3.4 1.8a10.1 10.1 0 01-4.07 4.11c-1.68.98-3.88 1.46-6.53 1.46-3.85 0-6.85-1.2-9.06-3.53-2.2-2.34-3.27-5.61-3.27-9.76 0-4.15 1.02-7.38 3.14-9.72 2.12-2.34 5.03-3.53 8.88-3.53 2.17-.06 4.3.49 6.18 1.59a10.2 10.2 0 013.93 4.28c.9 1.89 1.35 3.96 1.33 6.05-.01.96-.09 1.92-.22 2.87zm-16.66-9.23c-1.37 1.33-2.2 3.18-2.51 5.61h15.45c-.26-2.38-1.06-4.24-2.34-5.56a6.88 6.88 0 00-5.16-2.04c-2.17 0-4.07.67-5.44 2z"/><path fill="url(#paint1_linear)" fill-opacity=".4" d="M106.8 28.97H87.58c.22 2.6 1.1 4.6 2.56 6.01a7.98 7.98 0 005.75 2.16c1.61.05 3.21-.28 4.68-.97a5.08 5.08 0 002.52-2.82l3.4 1.8a10.1 10.1 0 01-4.07 4.11c-1.68.98-3.88 1.46-6.53 1.46-3.85 0-6.85-1.2-9.06-3.53-2.2-2.34-3.27-5.61-3.27-9.76 0-4.15 1.02-7.38 3.14-9.72 2.12-2.34 5.03-3.53 8.88-3.53 2.17-.06 4.3.49 6.18 1.59a10.2 10.2 0 013.93 4.28c.9 1.89 1.35 3.96 1.33 6.05-.01.96-.09 1.92-.22 2.87zm-16.66-9.23c-1.37 1.33-2.2 3.18-2.51 5.61h15.45c-.26-2.38-1.06-4.24-2.34-5.56a6.88 6.88 0 00-5.16-2.04c-2.17 0-4.07.67-5.44 2z"/><path fill="#4D4D5D" d="M134 17.71c2.21 2.34 3.31 5.57 3.31 9.72s-1.1 7.42-3.3 9.76c-2.22 2.34-5.22 3.53-9.06 3.53-3.84 0-6.85-1.2-9.06-3.53-2.2-2.34-3.27-5.61-3.27-9.76 0-4.15 1.1-7.38 3.27-9.72 2.17-2.34 5.22-3.53 9.06-3.53 3.84 0 6.89 1.19 9.05 3.53zm-15.1 2.6c-1.46 1.73-2.21 4.11-2.21 7.12 0 3 .75 5.43 2.2 7.15 1.46 1.73 3.5 2.6 6.06 2.6 2.56 0 4.64-.87 6.1-2.6 1.45-1.72 2.16-4.1 2.16-7.15 0-3.05-.71-5.4-2.17-7.11-1.45-1.73-3.49-2.6-6.1-2.6-2.6 0-4.59.83-6.04 2.6z"/><path fill="url(#paint2_linear)" fill-opacity=".4" d="M134 17.71c2.21 2.34 3.31 5.57 3.31 9.72s-1.1 7.42-3.3 9.76c-2.22 2.34-5.22 3.53-9.06 3.53-3.84 0-6.85-1.2-9.06-3.53-2.2-2.34-3.27-5.61-3.27-9.76 0-4.15 1.1-7.38 3.27-9.72 2.17-2.34 5.22-3.53 9.06-3.53 3.84 0 6.89 1.19 9.05 3.53zm-15.1 2.6c-1.46 1.73-2.21 4.11-2.21 7.12 0 3 .75 5.43 2.2 7.15 1.46 1.73 3.5 2.6 6.06 2.6 2.56 0 4.64-.87 6.1-2.6 1.45-1.72 2.16-4.1 2.16-7.15 0-3.05-.71-5.4-2.17-7.11-1.45-1.73-3.49-2.6-6.1-2.6-2.6 0-4.59.83-6.04 2.6z"/><path fill="#4D4D5D" d="M0 9.28v35.46L23.06 53V17.23l24.86-9.15L25.35 0 0 9.28z"/><path fill="url(#paint3_linear)" fill-opacity=".4" d="M0 9.28v35.46L23.06 53V17.23l24.86-9.15L25.35 0 0 9.28z"/><path fill="#4D4D5D" d="M24.91 18.55v19.12l23.01 8.22V10.03l-23.01 8.52z"/><path fill="url(#paint4_linear)" fill-opacity=".4" d="M24.91 18.55v19.12l23.01 8.22V10.03l-23.01 8.52z"/><defs><linearGradient id="paint0_linear" x1="66.603" x2="66.603" y1="14.175" y2="40.191" gradientUnits="userSpaceOnUse"><stop stop-color="#fff"/><stop offset="1" stop-color="#fff" stop-opacity="0"/></linearGradient><linearGradient id="paint1_linear" x1="95.29" x2="95.29" y1="14.173" y2="40.722" gradientUnits="userSpaceOnUse"><stop stop-color="#fff"/><stop offset="1" stop-color="#fff" stop-opacity="0"/></linearGradient><linearGradient id="paint2_linear" x1="124.97" x2="124.97" y1="14.178" y2="40.722" gradientUnits="userSpaceOnUse"><stop stop-color="#fff"/><stop offset="1" stop-color="#fff" stop-opacity="0"/></linearGradient><linearGradient id="paint3_linear" x1="23.96" x2="23.96" y1="0" y2="53" gradientUnits="userSpaceOnUse"><stop stop-color="#fff"/><stop offset="1" stop-color="#fff" stop-opacity="0"/></linearGradient><linearGradient id="paint4_linear" x1="36.415" x2="36.415" y1="10.026" y2="45.889" gradientUnits="userSpaceOnUse"><stop stop-color="#fff"/><stop offset="1" stop-color="#fff" stop-opacity="0"/></linearGradient></defs></svg>