<svg xmlns="http://www.w3.org/2000/svg" width="77" height="57" fill="none"><path fill="url(#paint0_linear)" d="M48.44 22.3v-2.47h-2.49v2.47h-3.72v12.4h3.72v2.47h2.49V34.7a3.73 3.73 0 002.77-6.2 3.73 3.73 0 00-2.77-6.2zm0 9.92H44.7v-2.48h3.73a1.24 1.24 0 110 2.48zm0-4.96H44.7v-2.48h3.73a1.24 1.24 0 110 2.48zm9.93-18.59h2.48v2.48h-2.48V8.67zm4.97 0h2.48v2.48h-2.48V8.67zm-4.97 37.18h2.48v2.48h-2.48v-2.48zm4.97 0h2.48v2.48h-2.48v-2.48zM47.19 14.87c-2.58 0-4.99.73-7.05 1.98a44.46 44.46 0 00-8.47-14.18 26.2 26.2 0 0115.96 8.09l.37.4h7.89V8.66h-6.81A28.56 28.56 0 000 28.5a28.56 28.56 0 0049.08 19.83h6.8v-2.48H48l-.37.39a26.2 26.2 0 01-15.96 8.09 44.46 44.46 0 008.47-14.18 13.67 13.67 0 0019.22-5.45h12.67v-2.48H57.76l-.33.74a11.18 11.18 0 01-21.41-4.46 11.18 11.18 0 0121.41-4.46l.33.74h14.27V22.3H59.36a13.67 13.67 0 00-12.17-7.43zM28.57 2.98a42.76 42.76 0 019 14.08 26.1 26.1 0 01-9 1.53c-3.6 0-6.56-.6-9-1.48a43.11 43.11 0 019-14.13zM17.24 16.1a18.06 18.06 0 01-7.03-6.06 26.02 26.02 0 0115.23-7.36 44.43 44.43 0 00-8.2 13.42zM8.49 11.9a20.95 20.95 0 007.94 6.56A34.3 34.3 0 0014.9 28.5c0 3.62.6 6.98 1.53 10.03a20.94 20.94 0 00-7.94 6.56 25.87 25.87 0 010-33.18zm29.08 28.03a42.91 42.91 0 01-9 14.08 43.12 43.12 0 01-9-14.1c2.45-.9 5.41-1.5 9-1.5 3.28 0 6.29.53 9 1.52zM25.44 54.32c-5.9-.71-11.2-3.38-15.22-7.35a18.43 18.43 0 017.03-6.04 44.41 44.41 0 008.19 13.39zm11.09-17.33a29.6 29.6 0 00-7.97-1.06c-3.87 0-7.11.64-9.8 1.6a31.27 31.27 0 01-1.37-9.03c0-3.23.54-6.25 1.38-9.03a28.8 28.8 0 009.8 1.6c2.83 0 5.48-.37 7.96-1.06a13.54 13.54 0 000 16.98zM74.52 22.3H77v2.48h-2.48V22.3zm0 9.92H77v2.48h-2.48v-2.48zm-16.15-2.48v-2.48h7.45v2.48h-7.45zm9.94 0v-2.48h2.48v2.48h-2.48zm-8.7 7.43h12.42v2.48H59.61v-2.48zm14.9 0H77v2.48h-2.48v-2.48zm-14.9-19.82h12.42v2.48H59.61v-2.48zm14.9 0H77v2.48h-2.48v-2.48z"/><defs><linearGradient id="paint0_linear" x1="38.5" x2="38.5" y1="57" y2="0" gradientUnits="userSpaceOnUse"><stop stop-color="#7F85A8"/><stop offset="1" stop-color="#6B6B8B"/></linearGradient></defs></svg>