<svg xmlns="http://www.w3.org/2000/svg" width="174" height="28" fill="none"><path fill="#4D4D5D" d="M94.42 27.51c-1.22-.78-2.66-.34-3.96-.78-.74-.26-1.57-.3-2.4-.78 0-8.31 0-16.67 0-25.1 1.79-.49 3.49-.27 5.27-.18.61 2.09 0 4.22.4 6.35 1.08 0 2.04 0 3.04 0 4.83.04 7.61 2.35 8.3 7.14.36 2.3.36 4.6-.16 6.91-.88 3.88-3.27 5.88-7.36 6.1-.91.08-1.91-.44-2.74.39-.09-.05-.26-.05-.4-.05zm-.83-5.26c.87.52 1.52.43 2.18.43 2.43.05 3.52-.78 3.74-3.17.17-1.7.22-3.48-.09-5.18-.35-1.96-1.26-2.7-3.26-2.79-.87-.04-1.7.14-2.57.44 0 .74 0 1.4 0 2.04 0 2.75 0 5.49 0 8.23z"/><path fill="url(#paint0_linear)" fill-opacity=".4" d="M94.42 27.51c-1.22-.78-2.66-.34-3.96-.78-.74-.26-1.57-.3-2.4-.78 0-8.31 0-16.67 0-25.1 1.79-.49 3.49-.27 5.27-.18.61 2.09 0 4.22.4 6.35 1.08 0 2.04 0 3.04 0 4.83.04 7.61 2.35 8.3 7.14.36 2.3.36 4.6-.16 6.91-.88 3.88-3.27 5.88-7.36 6.1-.91.08-1.91-.44-2.74.39-.09-.05-.26-.05-.4-.05zm-.83-5.26c.87.52 1.52.43 2.18.43 2.43.05 3.52-.78 3.74-3.17.17-1.7.22-3.48-.09-5.18-.35-1.96-1.26-2.7-3.26-2.79-.87-.04-1.7.14-2.57.44 0 .74 0 1.4 0 2.04 0 2.75 0 5.49 0 8.23z"/><path fill="#4D4D5D" d="M127.05 27.51c-.43-.74-1.26-.6-1.87-.91a7.47 7.47 0 01-4.66-5.83c-.43-2.4-.43-4.74 0-7.14.79-4.4 4.18-6.83 9.27-6.65 4.31.13 7.31 2.91 7.8 7.26.12 1.09.16 2.18.2 3.27a2 2 0 01-.47 1.26c-3.61 0-7.4 0-11.22 0 0 2.74.95 3.78 3.39 3.87 1.6.04 3.17.04 4.78-.22a4.96 4.96 0 012.4.05c.56 1.13.26 2.26.26 3.43-1.78 1.44-4.1.7-5.96 1.57-1.3.04-2.61.04-3.92.04zm-1.09-12.18c2.1-.04 4.18.22 6.27-.17-.57-2.88-1.57-3.88-3.44-3.7-1.78.17-2.6 1.26-2.83 3.87z"/><path fill="url(#paint1_linear)" fill-opacity=".4" d="M127.05 27.51c-.43-.74-1.26-.6-1.87-.91a7.47 7.47 0 01-4.66-5.83c-.43-2.4-.43-4.74 0-7.14.79-4.4 4.18-6.83 9.27-6.65 4.31.13 7.31 2.91 7.8 7.26.12 1.09.16 2.18.2 3.27a2 2 0 01-.47 1.26c-3.61 0-7.4 0-11.22 0 0 2.74.95 3.78 3.39 3.87 1.6.04 3.17.04 4.78-.22a4.96 4.96 0 012.4.05c.56 1.13.26 2.26.26 3.43-1.78 1.44-4.1.7-5.96 1.57-1.3.04-2.61.04-3.92.04zm-1.09-12.18c2.1-.04 4.18.22 6.27-.17-.57-2.88-1.57-3.88-3.44-3.7-1.78.17-2.6 1.26-2.83 3.87z"/><path fill="#4D4D5D" d="M26.1 27.51c-.34-.7-1.08-.6-1.65-.87-3-1.17-4.57-3.43-4.91-6.57a30.7 30.7 0 010-5.65c.3-3.53 2.35-6.14 5.78-7.05 3.31-.87 6.57-.65 9.1 1.96 2.52 2.6 2.7 5.87 2.3 9.48-3.91 0-7.65 0-11.4 0-.17 2.48.7 3.66 2.92 3.83 1.65.09 3.35.04 5-.17.83-.13 1.7-.35 2.66.13.34 1.08.17 2.22.13 3.48a12.47 12.47 0 01-5.88 1.04c-1.17.13-2.48-.52-3.56.4-.18 0-.35 0-.48 0zm5.1-12.14c-.13-2.7-1.09-3.91-3-3.91-2 0-3.05 1.3-3 3.74.38.26.82.13 1.25.17 1.53 0 3.05 0 4.75 0z"/><path fill="url(#paint2_linear)" fill-opacity=".4" d="M26.1 27.51c-.34-.7-1.08-.6-1.65-.87-3-1.17-4.57-3.43-4.91-6.57a30.7 30.7 0 010-5.65c.3-3.53 2.35-6.14 5.78-7.05 3.31-.87 6.57-.65 9.1 1.96 2.52 2.6 2.7 5.87 2.3 9.48-3.91 0-7.65 0-11.4 0-.17 2.48.7 3.66 2.92 3.83 1.65.09 3.35.04 5-.17.83-.13 1.7-.35 2.66.13.34 1.08.17 2.22.13 3.48a12.47 12.47 0 01-5.88 1.04c-1.17.13-2.48-.52-3.56.4-.18 0-.35 0-.48 0zm5.1-12.14c-.13-2.7-1.09-3.91-3-3.91-2 0-3.05 1.3-3 3.74.38.26.82.13 1.25.17 1.53 0 3.05 0 4.75 0z"/><path fill="#4D4D5D" d="M161.86 27.51c-.09-.43-.48-.52-.78-.6-2.14-.83-3.05-2.53-3.35-4.66-.44-3.35.95-5.57 4.22-6.53 1-.3 2-.39 3-.39.91 0 1.87 0 2.74 0 .74-2.78.22-3.52-2.35-3.57-2-.04-4.05 0-6.13 0-.61-1.13-.3-2.35-.22-3.83 3.87-1 7.74-1.6 11.62.09 1.6.7 2.52 2.09 2.95 3.79.13.47-.04 1.04.44 1.39 0 4.48 0 9 0 13.49-2.09.52-4.13.82-6.18-.48-.7.65-1.87.52-2.52 1.35-1.13-.05-2.27-.05-3.44-.05zm6.4-5.35c.04-1.22.13-2.35-.09-3.52a7.04 7.04 0 00-3.3.08c-1.31.4-1.88 1.44-1.66 2.88.22 1.48 1.3 1.56 2.44 1.48a4.53 4.53 0 002.6-.92z"/><path fill="url(#paint3_linear)" fill-opacity=".4" d="M161.86 27.51c-.09-.43-.48-.52-.78-.6-2.14-.83-3.05-2.53-3.35-4.66-.44-3.35.95-5.57 4.22-6.53 1-.3 2-.39 3-.39.91 0 1.87 0 2.74 0 .74-2.78.22-3.52-2.35-3.57-2-.04-4.05 0-6.13 0-.61-1.13-.3-2.35-.22-3.83 3.87-1 7.74-1.6 11.62.09 1.6.7 2.52 2.09 2.95 3.79.13.47-.04 1.04.44 1.39 0 4.48 0 9 0 13.49-2.09.52-4.13.82-6.18-.48-.7.65-1.87.52-2.52 1.35-1.13-.05-2.27-.05-3.44-.05zm6.4-5.35c.04-1.22.13-2.35-.09-3.52a7.04 7.04 0 00-3.3.08c-1.31.4-1.88 1.44-1.66 2.88.22 1.48 1.3 1.56 2.44 1.48a4.53 4.53 0 002.6-.92z"/><path fill="#4D4D5D" d="M43.08 27.51c-.27-.65-.92-.6-1.4-.91a5.14 5.14 0 01-2.56-3.35c-1.1-4.4.82-7.27 5.3-7.88 1.48-.17 3-.17 4.49-.21.65-2.75.17-3.44-2.44-3.44-2-.04-4.05 0-6.1 0-.56-1.22-.34-2.4-.17-3.87 3.83-.92 7.62-1.53 11.4.04 1.66.7 2.83 2 3.05 3.74.52 5.05.13 10.1.26 15.27-2.09 0-3.96.7-5.7-.74-.74.61-1.96.48-2.7 1.35-1.13 0-2.26 0-3.43 0zm6.44-5.4c-.18-1.17.26-2.39-.3-3.52a7.35 7.35 0 00-3.1.13c-1.35.4-1.91 1.4-1.74 2.83.18 1.44 1.22 1.66 2.4 1.57a5.3 5.3 0 002.74-1z"/><path fill="url(#paint4_linear)" fill-opacity=".4" d="M43.08 27.51c-.27-.65-.92-.6-1.4-.91a5.14 5.14 0 01-2.56-3.35c-1.1-4.4.82-7.27 5.3-7.88 1.48-.17 3-.17 4.49-.21.65-2.75.17-3.44-2.44-3.44-2-.04-4.05 0-6.1 0-.56-1.22-.34-2.4-.17-3.87 3.83-.92 7.62-1.53 11.4.04 1.66.7 2.83 2 3.05 3.74.52 5.05.13 10.1.26 15.27-2.09 0-3.96.7-5.7-.74-.74.61-1.96.48-2.7 1.35-1.13 0-2.26 0-3.43 0zm6.44-5.4c-.18-1.17.26-2.39-.3-3.52a7.35 7.35 0 00-3.1.13c-1.35.4-1.91 1.4-1.74 2.83.18 1.44 1.22 1.66 2.4 1.57a5.3 5.3 0 002.74-1z"/><path fill="#4D4D5D" d="M0 8.8a4.8 4.8 0 012.18-.87c3.26-.6 4.52-2.09 4.87-5.44.04-.74-.13-1.6.48-2.26 1.78-.35 3.4-.3 5.18.13.78 1.83-.35 3.66-.18 5.57.87.57 1.74-.17 2.66-.17 1.13.04 1.82.35 1.74 1.6-.1 1.23.17 2.44-.18 3.49-.65.78-1.48.56-2.13.78a4.88 4.88 0 00-3.66 4.79c0 2.48 1.22 3.91 3.79 4.57.6.13 1.26.3 1.91.43.57 1.48.27 2.92.22 4.3-.04 1.18-1.04 1.23-1.96 1.14-6.09-.6-9.87-4.87-9.66-10.96.05-.87.18-1.7.27-2.61-1.88-.27-3.79 1.6-5.53-.14 0-1.43 0-2.87 0-4.35zm11.75-1.56c-2.44.17-4.79 2.48-5.53 5.4 2.61-1.1 4.48-2.75 5.53-5.4z"/><path fill="url(#paint5_linear)" fill-opacity=".4" d="M0 8.8a4.8 4.8 0 012.18-.87c3.26-.6 4.52-2.09 4.87-5.44.04-.74-.13-1.6.48-2.26 1.78-.35 3.4-.3 5.18.13.78 1.83-.35 3.66-.18 5.57.87.57 1.74-.17 2.66-.17 1.13.04 1.82.35 1.74 1.6-.1 1.23.17 2.44-.18 3.49-.65.78-1.48.56-2.13.78a4.88 4.88 0 00-3.66 4.79c0 2.48 1.22 3.91 3.79 4.57.6.13 1.26.3 1.91.43.57 1.48.27 2.92.22 4.3-.04 1.18-1.04 1.23-1.96 1.14-6.09-.6-9.87-4.87-9.66-10.96.05-.87.18-1.7.27-2.61-1.88-.27-3.79 1.6-5.53-.14 0-1.43 0-2.87 0-4.35zm11.75-1.56c-2.44.17-4.79 2.48-5.53 5.4 2.61-1.1 4.48-2.75 5.53-5.4z"/><path fill="#4D4D5D" d="M26.54 27.51c1.09-.91 2.4-.26 3.57-.39-.04.13-.09.26-.09.4-1.17 0-2.3 0-3.48 0z"/><path fill="url(#paint6_linear)" fill-opacity=".4" d="M26.54 27.51c1.09-.91 2.4-.26 3.57-.39-.04.13-.09.26-.09.4-1.17 0-2.3 0-3.48 0z"/><path fill="#4D4D5D" d="M94.85 27.51c.83-.82 1.83-.3 2.74-.39a.7.7 0 00-.13.4c-.87 0-1.74 0-2.6 0z"/><path fill="url(#paint7_linear)" fill-opacity=".4" d="M94.85 27.51c.83-.82 1.83-.3 2.74-.39a.7.7 0 00-.13.4c-.87 0-1.74 0-2.6 0z"/><path fill="#4D4D5D" d="M58.48 7.28c1.96.17 4-1 5.57 1 4.22-1.83 5.78-1.78 9.1.18a11.49 11.49 0 016.17-1.44c2.65.22 4.53 1.48 4.96 4.05.83 5.09.52 10.22.26 15.36 0 .13-.17.21-.3.43-1.57.26-3.22.17-4.75.04-.65-.87-.39-1.65-.39-2.43-.04-3.18.09-6.4-.04-9.57-.13-3.36-1.22-3.92-4.7-2.53 0 4.7 0 9.44 0 14.36-1.91.44-3.65.4-5.48.04-.3-2.04-.13-4-.18-5.96-.04-1.87 0-3.78 0-5.65 0-3.7-1.21-4.4-4.74-2.4 0 4.53 0 9.23 0 13.97-1.91.4-3.61.35-5.44.04-.04-6.44-.04-12.83-.04-19.49z"/><path fill="url(#paint8_linear)" fill-opacity=".4" d="M58.48 7.28c1.96.17 4-1 5.57 1 4.22-1.83 5.78-1.78 9.1.18a11.49 11.49 0 016.17-1.44c2.65.22 4.53 1.48 4.96 4.05.83 5.09.52 10.22.26 15.36 0 .13-.17.21-.3.43-1.57.26-3.22.17-4.75.04-.65-.87-.39-1.65-.39-2.43-.04-3.18.09-6.4-.04-9.57-.13-3.36-1.22-3.92-4.7-2.53 0 4.7 0 9.44 0 14.36-1.91.44-3.65.4-5.48.04-.3-2.04-.13-4-.18-5.96-.04-1.87 0-3.78 0-5.65 0-3.7-1.21-4.4-4.74-2.4 0 4.53 0 9.23 0 13.97-1.91.4-3.61.35-5.44.04-.04-6.44-.04-12.83-.04-19.49z"/><path fill="#4D4D5D" d="M154.81 26.95c-1.74.08-3.4.22-5.22-.13 0-8.66 0-17.28 0-26.02 1.74-.48 3.44-.22 5.1-.18.6 1.61.73 23.93.12 26.33z"/><path fill="url(#paint9_linear)" fill-opacity=".4" d="M154.81 26.95c-1.74.08-3.4.22-5.22-.13 0-8.66 0-17.28 0-26.02 1.74-.48 3.44-.22 5.1-.18.6 1.61.73 23.93.12 26.33z"/><path fill="#4D4D5D" d="M140.67.71a20 20 0 015.35.04c0 8.7 0 17.32 0 26.07-1.78.39-3.48.3-5.35.04 0-8.75 0-17.36 0-26.15z"/><path fill="url(#paint10_linear)" fill-opacity=".4" d="M140.67.71a20 20 0 015.35.04c0 8.7 0 17.32 0 26.07-1.78.39-3.48.3-5.35.04 0-8.75 0-17.36 0-26.15z"/><path fill="#4D4D5D" d="M113.6 26.64c-2.26.48-3.73.48-5.56 0 0-6.3 0-12.66 0-19.27 2-.13 4-.83 5.96.74 1.3-.61 2.78-1.48 4.61-.96.44 1.3.22 2.65.17 4.09-1.65.65-3.52.4-5.17 1.65 0 4.49 0 9.1 0 13.75z"/><path fill="url(#paint11_linear)" fill-opacity=".4" d="M113.6 26.64c-2.26.48-3.73.48-5.56 0 0-6.3 0-12.66 0-19.27 2-.13 4-.83 5.96.74 1.3-.61 2.78-1.48 4.61-.96.44 1.3.22 2.65.17 4.09-1.65.65-3.52.4-5.17 1.65 0 4.49 0 9.1 0 13.75z"/><defs><linearGradient id="paint6_linear" x1="28.326" x2="28.326" y1="27.017" y2="27.514" gradientUnits="userSpaceOnUse"><stop stop-color="#fff"/><stop offset="1" stop-color="#fff" stop-opacity="0"/></linearGradient><linearGradient id="paint0_linear" x1="96.694" x2="96.694" y1=".542" y2="27.557" gradientUnits="userSpaceOnUse"><stop stop-color="#fff"/><stop offset="1" stop-color="#fff" stop-opacity="0"/></linearGradient><linearGradient id="paint2_linear" x1="28.144" x2="28.144" y1="6.909" y2="27.514" gradientUnits="userSpaceOnUse"><stop stop-color="#fff"/><stop offset="1" stop-color="#fff" stop-opacity="0"/></linearGradient><linearGradient id="paint3_linear" x1="165.825" x2="165.825" y1="6.956" y2="27.557" gradientUnits="userSpaceOnUse"><stop stop-color="#fff"/><stop offset="1" stop-color="#fff" stop-opacity="0"/></linearGradient><linearGradient id="paint4_linear" x1="46.874" x2="46.874" y1="6.926" y2="27.513" gradientUnits="userSpaceOnUse"><stop stop-color="#fff"/><stop offset="1" stop-color="#fff" stop-opacity="0"/></linearGradient><linearGradient id="paint5_linear" x1="8.502" x2="8.502" y1="0" y2="26.889" gradientUnits="userSpaceOnUse"><stop stop-color="#fff"/><stop offset="1" stop-color="#fff" stop-opacity="0"/></linearGradient><linearGradient id="paint1_linear" x1="128.999" x2="128.999" y1="6.968" y2="27.513" gradientUnits="userSpaceOnUse"><stop stop-color="#fff"/><stop offset="1" stop-color="#fff" stop-opacity="0"/></linearGradient><linearGradient id="paint7_linear" x1="96.224" x2="96.224" y1="27.038" y2="27.513" gradientUnits="userSpaceOnUse"><stop stop-color="#fff"/><stop offset="1" stop-color="#fff" stop-opacity="0"/></linearGradient><linearGradient id="paint8_linear" x1="71.649" x2="71.649" y1="6.948" y2="27.046" gradientUnits="userSpaceOnUse"><stop stop-color="#fff"/><stop offset="1" stop-color="#fff" stop-opacity="0"/></linearGradient><linearGradient id="paint9_linear" x1="152.399" x2="152.399" y1=".514" y2="27.046" gradientUnits="userSpaceOnUse"><stop stop-color="#fff"/><stop offset="1" stop-color="#fff" stop-opacity="0"/></linearGradient><linearGradient id="paint10_linear" x1="143.347" x2="143.347" y1=".552" y2="27.084" gradientUnits="userSpaceOnUse"><stop stop-color="#fff"/><stop offset="1" stop-color="#fff" stop-opacity="0"/></linearGradient><linearGradient id="paint11_linear" x1="113.458" x2="113.458" y1="6.99" y2="27.002" gradientUnits="userSpaceOnUse"><stop stop-color="#fff"/><stop offset="1" stop-color="#fff" stop-opacity="0"/></linearGradient></defs></svg>