<svg width="26" height="19" viewBox="0 0 26 19" fill="none" xmlns="http://www.w3.org/2000/svg">
<path d="M25.9948 10.0861C25.9637 9.36601 25.2592 8.79099 23.8968 8.37657C22.84 8.06057 21.4983 7.8689 20.0478 7.83782V2.31042C20.0426 2.21717 20.0167 2.12911 19.9701 2.0514C19.8251 1.42459 19.1257 0.916916 17.8876 0.543933C16.7221 0.191672 15.199 0 13.5983 0C12.0028 0 10.4953 0.191672 9.35047 0.543933C8.41283 0.834031 7.2887 1.37278 7.2887 2.30006C7.2887 2.35704 7.29388 2.41403 7.30424 2.47101L7.36123 4.83323C3.99402 4.19087 0.745965 6.40287 0.108787 9.76489C0.0362622 10.1482 0 10.5316 0 10.9201C0 14.3391 2.78183 17.1209 6.20084 17.1209C7.62542 17.1209 9.00339 16.634 10.1068 15.7326C11.0755 15.9606 12.2152 16.0849 13.4222 16.0952C13.6864 17.5302 16.7946 18.1881 19.6904 18.1881C21.2859 18.1881 22.7934 17.9912 23.9382 17.6338C24.8759 17.3437 26 16.7998 26 15.8725V10.1845C26 10.1534 26 10.1172 25.9948 10.0861ZM18.9651 5.17513C18.9651 5.24248 18.7165 5.59992 17.5924 5.94182C16.5407 6.25782 15.0851 6.44431 13.6035 6.44431C12.324 6.44431 11.0703 6.30962 10.0757 6.05579C10.0602 6.05061 10.0498 6.05061 10.0343 6.04543C9.54214 5.6569 8.99821 5.34608 8.41283 5.12851L8.37657 3.66766C8.73401 3.84897 9.10699 3.99402 9.49552 4.09763C10.6196 4.42399 12.0753 4.60012 13.6035 4.60012C15.199 4.60012 16.7272 4.40845 17.8928 4.05619C18.2813 3.94222 18.6595 3.79199 19.0169 3.6055V4.96274C18.96 5.03527 18.9651 5.10261 18.9651 5.17513ZM9.66129 1.54373C10.7077 1.22255 12.1064 1.04124 13.5983 1.04124C15.0799 1.04124 16.5356 1.22255 17.5872 1.54373C18.7113 1.88563 18.96 2.2379 18.96 2.30524C18.96 2.37776 18.7061 2.73521 17.582 3.07193C16.5304 3.38793 15.0799 3.56924 13.5983 3.56924C12.1686 3.56924 10.8113 3.40347 9.78043 3.10301C8.66667 2.78183 8.35585 2.42957 8.32995 2.3156C8.32995 2.30524 8.32477 2.30524 8.32477 2.30524C8.32995 2.20681 8.56824 1.87527 9.66129 1.54373ZM9.67683 14.7432C7.56844 16.6599 4.29966 16.5097 2.38294 14.4013C0.466228 12.2929 0.616457 9.02411 2.72485 7.10739C3.67284 6.24228 4.91612 5.76569 6.20084 5.76569C6.71887 5.76569 7.23172 5.8434 7.72903 5.99362C9.5266 6.5531 10.8787 8.04503 11.262 9.88404C11.3293 10.2259 11.3656 10.5782 11.3656 10.9253C11.3708 12.381 10.7543 13.7641 9.67683 14.7432ZM10.9926 14.8571C11.4122 14.3443 11.749 13.7693 11.9872 13.1528C12.4276 13.1891 12.8834 13.215 13.36 13.2202V13.3134L13.3911 15.0695C12.5882 15.0592 11.7852 14.9867 10.9926 14.8571ZM12.3758 10.3088C12.6762 10.3295 12.9922 10.3399 13.3134 10.3451L13.3445 12.1789C12.9819 12.1737 12.6244 12.1582 12.2825 12.1323C12.3602 11.7334 12.4017 11.3242 12.4017 10.9201C12.4017 10.7181 12.3913 10.516 12.3758 10.3088ZM13.6501 9.31421C13.6346 9.31421 13.6139 9.31421 13.5983 9.31421C13.101 9.31421 12.6192 9.29348 12.1737 9.2624C11.9769 8.56824 11.6661 7.91552 11.2465 7.33533C12.0235 7.43375 12.8057 7.48556 13.5931 7.48556C15.1939 7.48556 16.7221 7.29388 17.8876 6.94162C18.2761 6.82765 18.6491 6.67743 19.0066 6.49612V7.85336C16.7842 7.91552 14.4997 8.38175 13.6501 9.31421ZM14.3339 10.1379C14.3339 10.1327 14.3339 10.1275 14.3391 10.1172C14.3857 9.97729 14.7535 9.63539 15.8259 9.33493C16.8308 9.05001 18.1415 8.8946 19.5194 8.8946H19.6075C21.0891 8.8946 22.5396 9.06555 23.5963 9.38673C24.6997 9.71827 24.9588 10.0602 24.9639 10.1379V10.1431C24.9588 10.2208 24.6997 10.5782 23.5497 10.9201C22.4877 11.2361 21.0891 11.4071 19.6127 11.4071C18.1829 11.4071 16.8257 11.2413 15.7948 10.946C14.681 10.6248 14.3754 10.2674 14.3443 10.1586C14.3339 10.1379 14.3339 10.1379 14.3339 10.1379ZM23.6378 16.6495C22.5914 16.9759 21.1875 17.1572 19.6956 17.1572C18.1984 17.1572 16.7998 16.9811 15.7637 16.6651C14.6707 16.3284 14.4427 15.9813 14.4427 15.9036C14.4427 15.8984 14.4427 15.8984 14.4427 15.8932L14.4168 14.3909C14.8312 14.5929 15.2612 14.7484 15.7067 14.8623C16.7946 15.1472 18.1777 15.3078 19.5971 15.3078C21.1978 15.3078 22.7157 15.1162 23.8761 14.7639C24.2542 14.6499 24.6169 14.4997 24.9639 14.3236V15.8777H24.9691C24.9691 15.9502 24.7308 16.3076 23.6378 16.6495ZM24.9743 12.8368H24.9691C24.9691 12.8886 24.938 12.9508 24.938 13.0078C24.938 13.0803 24.6946 13.4326 23.5756 13.7745C22.5136 14.0956 21.0994 14.2718 19.6023 14.2718C16.7324 14.2718 14.8002 13.6242 14.3961 13.1217L14.3909 12.6866L14.3702 11.4951C14.7328 11.6764 15.111 11.8215 15.4995 11.9303C16.6236 12.2566 18.0793 12.4328 19.6075 12.4328C21.1823 12.4328 22.6846 12.2463 23.8398 11.9044C24.2335 11.7956 24.6117 11.6453 24.9743 11.4589V12.8368Z" fill="#AAAAAA"/>
</svg>
