<svg xmlns="http://www.w3.org/2000/svg" width="131" height="54" fill="none"><path fill="#4D4D5D" fill-rule="evenodd" d="M48.07 40.97a2.06 2.06 0 01-1.79-3.1 22.32 22.32 0 002.26-17.08A22.38 22.38 0 0038.02 7.12a22.69 22.69 0 00-22.58 0 2.06 2.06 0 11-2.07-3.57 26.8 26.8 0 0126.71.01 26.45 26.45 0 0112.45 16.17c1.84 6.87.9 14.04-2.66 20.21a2.07 2.07 0 01-1.8 1.03z" clip-rule="evenodd"/><path fill="url(#paint0_linear)" fill-opacity=".4" fill-rule="evenodd" d="M48.07 40.97a2.06 2.06 0 01-1.79-3.1 22.32 22.32 0 002.26-17.08A22.38 22.38 0 0038.02 7.12a22.69 22.69 0 00-22.58 0 2.06 2.06 0 11-2.07-3.57 26.8 26.8 0 0126.71.01 26.45 26.45 0 0112.45 16.17c1.84 6.87.9 14.04-2.66 20.21a2.07 2.07 0 01-1.8 1.03z" clip-rule="evenodd"/><path fill="#4D4D5D" fill-rule="evenodd" d="M35.58 28.69h-17.7a2.07 2.07 0 110-4.13h17.7a2.07 2.07 0 110 4.13z" clip-rule="evenodd"/><path fill="url(#paint1_linear)" fill-opacity=".4" fill-rule="evenodd" d="M35.58 28.69h-17.7a2.07 2.07 0 110-4.13h17.7a2.07 2.07 0 110 4.13z" clip-rule="evenodd"/><path fill="#4D4D5D" fill-rule="evenodd" d="M39.05 21.72H22.69a2.07 2.07 0 110-4.13h16.36a2.07 2.07 0 110 4.13z" clip-rule="evenodd"/><path fill="url(#paint2_linear)" fill-opacity=".4" fill-rule="evenodd" d="M39.05 21.72H22.69a2.07 2.07 0 110-4.13h16.36a2.07 2.07 0 110 4.13z" clip-rule="evenodd"/><path fill="#4D4D5D" fill-rule="evenodd" d="M22.7 21.72c-.72 0-1.41-.37-1.8-1.03L12.61 6.37a2.06 2.06 0 01.76-2.82 2.07 2.07 0 012.82.75l8.29 14.33a2.06 2.06 0 01-1.79 3.09z" clip-rule="evenodd"/><path fill="url(#paint3_linear)" fill-opacity=".4" fill-rule="evenodd" d="M22.7 21.72c-.72 0-1.41-.37-1.8-1.03L12.61 6.37a2.06 2.06 0 01.76-2.82 2.07 2.07 0 012.82.75l8.29 14.33a2.06 2.06 0 01-1.79 3.09z" clip-rule="evenodd"/><path fill="#4D4D5D" fill-rule="evenodd" d="M30.76 35.65H14.4a2.07 2.07 0 110-4.13h16.36a2.07 2.07 0 110 4.13z" clip-rule="evenodd"/><path fill="url(#paint4_linear)" fill-opacity=".4" fill-rule="evenodd" d="M30.76 35.65H14.4a2.07 2.07 0 110-4.13h16.36a2.07 2.07 0 110 4.13z" clip-rule="evenodd"/><path fill="#4D4D5D" fill-rule="evenodd" d="M39.05 49.97c-.7 0-1.4-.37-1.79-1.03l-8.29-14.32a2.07 2.07 0 013.58-2.06l8.29 14.32a2.06 2.06 0 01-1.79 3.09z" clip-rule="evenodd"/><path fill="url(#paint5_linear)" fill-opacity=".4" fill-rule="evenodd" d="M39.05 49.97c-.7 0-1.4-.37-1.79-1.03l-8.29-14.32a2.07 2.07 0 013.58-2.06l8.29 14.32a2.06 2.06 0 01-1.79 3.09z" clip-rule="evenodd"/><path fill="#4D4D5D" fill-rule="evenodd" d="M26.73 53.24c-4.62 0-9.24-1.18-13.36-3.56A26.43 26.43 0 01.92 33.52 26.44 26.44 0 013.59 13.3a2.07 2.07 0 012.82-.75c.99.57 1.32 1.83.75 2.82a22.3 22.3 0 00-2.25 17.08 22.41 22.41 0 0010.53 13.67 22.69 22.69 0 0022.57 0 2.06 2.06 0 112.07 3.57 26.85 26.85 0 01-13.35 3.55z" clip-rule="evenodd"/><path fill="url(#paint6_linear)" fill-opacity=".4" fill-rule="evenodd" d="M26.73 53.24c-4.62 0-9.24-1.18-13.36-3.56A26.43 26.43 0 01.92 33.52 26.44 26.44 0 013.59 13.3a2.07 2.07 0 012.82-.75c.99.57 1.32 1.83.75 2.82a22.3 22.3 0 00-2.25 17.08 22.41 22.41 0 0010.53 13.67 22.69 22.69 0 0022.57 0 2.06 2.06 0 112.07 3.57 26.85 26.85 0 01-13.35 3.55z" clip-rule="evenodd"/><path fill="#4D4D5D" d="M71 18.6h14.12c.56 0 .83.33.83.98 0 .63-.27.95-.83.95H71v3.02c0 1.38 1.3 2.07 3.9 2.07h10.23c.6 0 .88.3.88.92 0 .64-.29.96-.88.96h-10.3c-4.16 0-6.24-1.29-6.24-3.86v-8.2c0-2.62 2.15-3.93 6.46-3.93h2.8c.55 0 .82.31.82.95 0 .62-.27.93-.83.93h-1.88c-3.3 0-4.96.68-4.96 2.05v3.16z"/><path fill="url(#paint7_linear)" fill-opacity=".4" d="M71 18.6h14.12c.56 0 .83.33.83.98 0 .63-.27.95-.83.95H71v3.02c0 1.38 1.3 2.07 3.9 2.07h10.23c.6 0 .88.3.88.92 0 .64-.29.96-.88.96h-10.3c-4.16 0-6.24-1.29-6.24-3.86v-8.2c0-2.62 2.15-3.93 6.46-3.93h2.8c.55 0 .82.31.82.95 0 .62-.27.93-.83.93h-1.88c-3.3 0-4.96.68-4.96 2.05v3.16z"/><path fill="#4D4D5D" d="M107.98 26.02c0 .53-.15.94-.45 1.2-.29.27-.63.4-1.02.4a1.53 1.53 0 01-1.11-.48L91.22 14.52V26.6c0 .68-.4 1.02-1.18 1.02-.78 0-1.16-.34-1.16-1.02V12.88c0-.5.15-.86.45-1.09.3-.23.64-.33 1-.33.24 0 .46.03.66.08.2.06.4.18.58.37l14.05 12.38V12.36c0-.65.4-.98 1.21-.98.75 0 1.13.33 1.13.98v13.66h.02z"/><path fill="url(#paint8_linear)" fill-opacity=".4" d="M107.98 26.02c0 .53-.15.94-.45 1.2-.29.27-.63.4-1.02.4a1.53 1.53 0 01-1.11-.48L91.22 14.52V26.6c0 .68-.4 1.02-1.18 1.02-.78 0-1.16-.34-1.16-1.02V12.88c0-.5.15-.86.45-1.09.3-.23.64-.33 1-.33.24 0 .46.03.66.08.2.06.4.18.58.37l14.05 12.38V12.36c0-.65.4-.98 1.21-.98.75 0 1.13.33 1.13.98v13.66h.02z"/><path fill="#4D4D5D" d="M130.1 23.35c0 1.8-.96 3.04-2.89 3.7l1.21.68c.13.09.24.21.34.39a1 1 0 01.13.46c0 .28-.1.52-.33.7-.22.18-.47.27-.75.27-.17 0-.36-.05-.58-.17l-3.34-1.96h-6.74c-4.1 0-6.16-1.36-6.16-4.08v-7.8c0-2.69 2.04-4.03 6.14-4.03h6.7c4.18 0 6.27 1.33 6.27 4v7.84zm-2.4-7.85c0-1.4-1.52-2.11-4.53-2.11h-5.34c-2.94 0-4.42.7-4.42 2.11v7.91c0 1.47 1.48 2.22 4.42 2.22h6.4c2.3 0 3.46-.73 3.46-2.2V15.5z"/><path fill="url(#paint9_linear)" fill-opacity=".4" d="M130.1 23.35c0 1.8-.96 3.04-2.89 3.7l1.21.68c.13.09.24.21.34.39a1 1 0 01.13.46c0 .28-.1.52-.33.7-.22.18-.47.27-.75.27-.17 0-.36-.05-.58-.17l-3.34-1.96h-6.74c-4.1 0-6.16-1.36-6.16-4.08v-7.8c0-2.69 2.04-4.03 6.14-4.03h6.7c4.18 0 6.27 1.33 6.27 4v7.84zm-2.4-7.85c0-1.4-1.52-2.11-4.53-2.11h-5.34c-2.94 0-4.42.7-4.42 2.11v7.91c0 1.47 1.48 2.22 4.42 2.22h6.4c2.3 0 3.46-.73 3.46-2.2V15.5z"/><path fill="#4D4D5D" d="M69.57 38.54h5.7c.22 0 .33.13.33.39s-.1.38-.33.38h-5.7v1.22c0 .55.53.84 1.57.84h4.13c.23 0 .35.12.35.37 0 .26-.12.39-.35.39H71.1c-1.68 0-2.51-.52-2.51-1.55v-3.31c0-1.07.87-1.6 2.6-1.6h1.13c.22 0 .33.13.33.4 0 .24-.1.37-.33.37h-.76c-1.33 0-2 .27-2 .83v1.27z"/><path fill="url(#paint10_linear)" fill-opacity=".4" d="M69.57 38.54h5.7c.22 0 .33.13.33.39s-.1.38-.33.38h-5.7v1.22c0 .55.53.84 1.57.84h4.13c.23 0 .35.12.35.37 0 .26-.12.39-.35.39H71.1c-1.68 0-2.51-.52-2.51-1.55v-3.31c0-1.07.87-1.6 2.6-1.6h1.13c.22 0 .33.13.33.4 0 .24-.1.37-.33.37h-.76c-1.33 0-2 .27-2 .83v1.27z"/><path fill="#4D4D5D" d="M84.49 41.53c0 .22-.06.37-.18.48a.58.58 0 01-.41.16.71.71 0 01-.22-.04.6.6 0 01-.22-.15l-5.72-5.1v4.87c0 .28-.16.42-.48.42-.3 0-.47-.14-.47-.42v-5.53c0-.2.06-.35.19-.44.12-.1.26-.13.4-.13.1 0 .18 0 .26.03.08.02.16.07.23.15l5.67 5V36c0-.26.16-.39.49-.39.3 0 .45.13.45.4v5.5z"/><path fill="url(#paint11_linear)" fill-opacity=".4" d="M84.49 41.53c0 .22-.06.37-.18.48a.58.58 0 01-.41.16.71.71 0 01-.22-.04.6.6 0 01-.22-.15l-5.72-5.1v4.87c0 .28-.16.42-.48.42-.3 0-.47-.14-.47-.42v-5.53c0-.2.06-.35.19-.44.12-.1.26-.13.4-.13.1 0 .18 0 .26.03.08.02.16.07.23.15l5.67 5V36c0-.26.16-.39.49-.39.3 0 .45.13.45.4v5.5z"/><path fill="#4D4D5D" d="M86.68 38.54h5.7c.23 0 .34.13.34.39s-.11.38-.34.38h-5.7v1.22c0 .56.53.84 1.58.84h4.12c.24 0 .35.13.35.37 0 .26-.11.39-.35.39h-4.15c-1.68 0-2.52-.52-2.52-1.55v-3.31c0-1.06.87-1.59 2.6-1.59h1.13c.23 0 .34.13.34.38s-.11.38-.34.38h-.76c-1.33 0-2 .28-2 .83v1.27z"/><path fill="url(#paint12_linear)" fill-opacity=".4" d="M86.68 38.54h5.7c.23 0 .34.13.34.39s-.11.38-.34.38h-5.7v1.22c0 .56.53.84 1.58.84h4.12c.24 0 .35.13.35.37 0 .26-.11.39-.35.39h-4.15c-1.68 0-2.52-.52-2.52-1.55v-3.31c0-1.06.87-1.59 2.6-1.59h1.13c.23 0 .34.13.34.38s-.11.38-.34.38h-.76c-1.33 0-2 .28-2 .83v1.27z"/><path fill="#4D4D5D" d="M96.39 36.43c-1.08 0-1.63.25-1.63.76v3.3c0 .58.6.87 1.79.87h3.54c.24 0 .35.13.35.37 0 .26-.11.4-.35.4h-3.68c-1.73 0-2.6-.55-2.6-1.63v-3.32c0-1 .84-1.52 2.54-1.52h3.74c.24 0 .35.13.35.38 0 .26-.11.38-.35.38h-3.7v.01z"/><path fill="url(#paint13_linear)" fill-opacity=".4" d="M96.39 36.43c-1.08 0-1.63.25-1.63.76v3.3c0 .58.6.87 1.79.87h3.54c.24 0 .35.13.35.37 0 .26-.11.4-.35.4h-3.68c-1.73 0-2.6-.55-2.6-1.63v-3.32c0-1 .84-1.52 2.54-1.52h3.74c.24 0 .35.13.35.38 0 .26-.11.38-.35.38h-3.7v.01z"/><path fill="#4D4D5D" d="M109.21 40.34c0 1.19-1.06 1.78-3.2 1.78h-1.44c-2.01 0-3.01-.6-3.01-1.78v-4.33c0-.26.16-.39.47-.39.33 0 .5.13.5.4v4.26c0 .71.64 1.08 1.9 1.08h1.76c1.38 0 2.07-.36 2.07-1.08V36c0-.26.16-.39.48-.39.32 0 .48.13.48.4v4.32z"/><path fill="url(#paint14_linear)" fill-opacity=".4" d="M109.21 40.34c0 1.19-1.06 1.78-3.2 1.78h-1.44c-2.01 0-3.01-.6-3.01-1.78v-4.33c0-.26.16-.39.47-.39.33 0 .5.13.5.4v4.26c0 .71.64 1.08 1.9 1.08h1.76c1.38 0 2.07-.36 2.07-1.08V36c0-.26.16-.39.48-.39.32 0 .48.13.48.4v4.32z"/><path fill="#4D4D5D" d="M118.09 40.34c0 1.19-1.07 1.78-3.2 1.78h-1.45c-2 0-3-.6-3-1.78v-4.33c0-.26.15-.39.46-.39.34 0 .5.13.5.4v4.26c0 .71.64 1.08 1.9 1.08h1.76c1.38 0 2.08-.36 2.08-1.08V36c0-.26.16-.39.48-.39.32 0 .47.13.47.4v4.32z"/><path fill="url(#paint15_linear)" fill-opacity=".4" d="M118.09 40.34c0 1.19-1.07 1.78-3.2 1.78h-1.45c-2 0-3-.6-3-1.78v-4.33c0-.26.15-.39.46-.39.34 0 .5.13.5.4v4.26c0 .71.64 1.08 1.9 1.08h1.76c1.38 0 2.08-.36 2.08-1.08V36c0-.26.16-.39.48-.39.32 0 .47.13.47.4v4.32z"/><path fill="#4D4D5D" d="M129.87 41.76c0 .28-.17.42-.5.42-.3 0-.45-.14-.45-.42v-4.7l-3.62 4.77a.78.78 0 01-.64.34.8.8 0 01-.68-.34l-3.68-4.76v4.68c0 .28-.16.42-.47.42-.32 0-.48-.14-.48-.42v-5.59c0-.36.18-.54.54-.54.25 0 .46.11.64.34l4.14 5.26 4.05-5.31a.7.7 0 01.59-.29c.38 0 .57.2.57.57v5.57h-.01z"/><path fill="url(#paint16_linear)" fill-opacity=".4" d="M129.87 41.76c0 .28-.17.42-.5.42-.3 0-.45-.14-.45-.42v-4.7l-3.62 4.77a.78.78 0 01-.64.34.8.8 0 01-.68-.34l-3.68-4.76v4.68c0 .28-.16.42-.47.42-.32 0-.48-.14-.48-.42v-5.59c0-.36.18-.54.54-.54.25 0 .46.11.64.34l4.14 5.26 4.05-5.31a.7.7 0 01.59-.29c.38 0 .57.2.57.57v5.57h-.01z"/><defs><linearGradient id="paint8_linear" x1="98.429" x2="98.429" y1="11.38" y2="27.624" gradientUnits="userSpaceOnUse"><stop stop-color="#fff"/><stop offset="1" stop-color="#fff" stop-opacity="0"/></linearGradient><linearGradient id="paint0_linear" x1="32.896" x2="32.896" y1="0" y2="40.969" gradientUnits="userSpaceOnUse"><stop stop-color="#fff"/><stop offset="1" stop-color="#fff" stop-opacity="0"/></linearGradient><linearGradient id="paint2_linear" x1="30.874" x2="30.874" y1="17.589" y2="21.717" gradientUnits="userSpaceOnUse"><stop stop-color="#fff"/><stop offset="1" stop-color="#fff" stop-opacity="0"/></linearGradient><linearGradient id="paint3_linear" x1="18.545" x2="18.545" y1="3.275" y2="21.717" gradientUnits="userSpaceOnUse"><stop stop-color="#fff"/><stop offset="1" stop-color="#fff" stop-opacity="0"/></linearGradient><linearGradient id="paint4_linear" x1="22.577" x2="22.577" y1="31.518" y2="35.646" gradientUnits="userSpaceOnUse"><stop stop-color="#fff"/><stop offset="1" stop-color="#fff" stop-opacity="0"/></linearGradient><linearGradient id="paint5_linear" x1="34.905" x2="34.905" y1="31.526" y2="49.968" gradientUnits="userSpaceOnUse"><stop stop-color="#fff"/><stop offset="1" stop-color="#fff" stop-opacity="0"/></linearGradient><linearGradient id="paint6_linear" x1="20.558" x2="20.558" y1="12.274" y2="53.244" gradientUnits="userSpaceOnUse"><stop stop-color="#fff"/><stop offset="1" stop-color="#fff" stop-opacity="0"/></linearGradient><linearGradient id="paint7_linear" x1="77.292" x2="77.292" y1="11.506" y2="27.499" gradientUnits="userSpaceOnUse"><stop stop-color="#fff"/><stop offset="1" stop-color="#fff" stop-opacity="0"/></linearGradient><linearGradient id="paint1_linear" x1="26.725" x2="26.725" y1="24.558" y2="28.686" gradientUnits="userSpaceOnUse"><stop stop-color="#fff"/><stop offset="1" stop-color="#fff" stop-opacity="0"/></linearGradient><linearGradient id="paint9_linear" x1="120.546" x2="120.546" y1="11.506" y2="29.555" gradientUnits="userSpaceOnUse"><stop stop-color="#fff"/><stop offset="1" stop-color="#fff" stop-opacity="0"/></linearGradient><linearGradient id="paint10_linear" x1="72.108" x2="72.108" y1="35.678" y2="42.129" gradientUnits="userSpaceOnUse"><stop stop-color="#fff"/><stop offset="1" stop-color="#fff" stop-opacity="0"/></linearGradient><linearGradient id="paint11_linear" x1="80.64" x2="80.64" y1="35.621" y2="42.172" gradientUnits="userSpaceOnUse"><stop stop-color="#fff"/><stop offset="1" stop-color="#fff" stop-opacity="0"/></linearGradient><linearGradient id="paint12_linear" x1="89.222" x2="89.222" y1="35.68" y2="42.13" gradientUnits="userSpaceOnUse"><stop stop-color="#fff"/><stop offset="1" stop-color="#fff" stop-opacity="0"/></linearGradient><linearGradient id="paint13_linear" x1="97.126" x2="97.126" y1="35.663" y2="42.122" gradientUnits="userSpaceOnUse"><stop stop-color="#fff"/><stop offset="1" stop-color="#fff" stop-opacity="0"/></linearGradient><linearGradient id="paint14_linear" x1="105.389" x2="105.389" y1="35.621" y2="42.122" gradientUnits="userSpaceOnUse"><stop stop-color="#fff"/><stop offset="1" stop-color="#fff" stop-opacity="0"/></linearGradient><linearGradient id="paint15_linear" x1="114.265" x2="114.265" y1="35.621" y2="42.122" gradientUnits="userSpaceOnUse"><stop stop-color="#fff"/><stop offset="1" stop-color="#fff" stop-opacity="0"/></linearGradient><linearGradient id="paint16_linear" x1="124.615" x2="124.615" y1="35.621" y2="42.181" gradientUnits="userSpaceOnUse"><stop stop-color="#fff"/><stop offset="1" stop-color="#fff" stop-opacity="0"/></linearGradient></defs></svg>