<svg xmlns="http://www.w3.org/2000/svg" width="68" height="68" fill="none"><path fill="url(#paint0_linear)" d="M28.52 41.68h3.29v2.2H34v-2.2h1.1A4.4 4.4 0 0038 34a4.38 4.38 0 00-2.9-7.68H34v-2.2h-2.2v2.2h-3.28v15.36zm2.19-13.16h4.39a2.2 2.2 0 010 4.38H30.7v-4.38zm0 6.58h4.39a2.2 2.2 0 010 4.38H30.7V35.1zm2.2-32.9h-2.2V0h2.2v2.2zm-2.2 2.19h2.2v16.45h-2.2V4.39zm6.58-2.2h-2.2V0h2.2v2.2zm-2.2 2.2h2.2v16.45h-2.2V4.39zm-13.15-2.2h-2.2V0h2.2v2.2zm26.32 0h-2.2V0h2.2v2.2zM35.1 65.81h2.19V68h-2.2v-2.2zm2.19-2.2h-2.2V47.16h2.2v16.45zm-6.58 2.2h2.2V68h-2.2v-2.2zm2.2-2.2h-2.2V47.16h2.2v16.45zm15.35 2.2V68h-2.2v-2.2h2.2zm-28.52 0h2.2V68h-2.2v-2.2zm6.58-13.68l-6.58 5.48v6h2.2v-4.97l6.58-5.48v-6l-.63-.3a14.2 14.2 0 01-4.66-22.2l-1.65-1.42a16.4 16.4 0 004.74 25.3v.81H13.11a12.08 12.08 0 00-10.92-10.9v-8.9a12.08 12.08 0 0010.92-10.9h13.21v.82a16.7 16.7 0 00-3.08 2.1l1.44 1.67c.98-.85 2.06-1.56 3.21-2.1l.63-.3v-6l-6.58-5.48V4.39h-2.2v6l6.58 5.48v.58H0v35.1h26.32v.58zM10.9 18.65a9.88 9.88 0 01-8.7 8.7v-8.7h8.7zm-8.7 22c4.56.5 8.2 4.14 8.7 8.7H2.2v-8.7zm39.48-24.78l6.58-5.48v-6h-2.2v4.97l-6.58 5.48v6l.63.3a14.2 14.2 0 014.66 22.2l1.65 1.42a16.4 16.4 0 00-4.74-25.3v-.81h13.21a12.08 12.08 0 0010.92 10.9v8.9a12.08 12.08 0 00-10.92 10.9H41.68v-.82a16.7 16.7 0 003.08-2.1l-1.44-1.67c-.98.85-2.06 1.56-3.21 2.1l-.63.3v6l6.58 5.48v4.97h2.2v-6l-6.58-5.48v-.58H68v-35.1H41.68v-.58zM57.1 49.35a9.88 9.88 0 018.7-8.7v8.7h-8.7zm8.7-22a9.88 9.88 0 01-8.7-8.7h8.7v8.7zM6.59 23.03h-2.2v-2.2h2.2v2.2zm57.03 0h-2.2v-2.2h2.2v2.2zM4.4 44.97h2.2v2.2h-2.2v-2.2zm57.03 0h2.2v2.2h-2.2v-2.2z"/><defs><linearGradient id="paint0_linear" x1="34" x2="34" y1="68" y2="0" gradientUnits="userSpaceOnUse"><stop stop-color="#7F85A8"/><stop offset="1" stop-color="#6B6B8B"/></linearGradient></defs></svg>