<svg xmlns="http://www.w3.org/2000/svg" width="176" height="55" fill="none"><path fill="#4D4D5D" d="M54.7 27.04a27.22 27.22 0 01-27.38 26.98C11.92 54-.3 41.86.02 26.42.3 11.84 11.66.02 27.4 0a27.1 27.1 0 0127.3 27.04zm-9.38-4.72c0-.9-.02-1.82 0-2.73 0-.4-.17-.57-.58-.57-1.8.02-3.6.02-5.4 0-.5 0-.72.2-.67.68.02.23 0 .48 0 .7 0 1.25 0 1.25-1.26 1.25-1.94 0-1.96 0-2.02-1.88-.02-.5-.09-.76-.68-.75-1.68.04-3.35.02-5.04 0-.5 0-.7.16-.7.66.01 1.74.01 3.48 0 5.22 0 .55.21.69.73.69 1.86.03 1.86.05 1.86 1.92 0 .05 0 .12 0 .17 0 1.17-.26 1.37-1.44 1.2-.36-.06-.58-.3-.8-.54-1.1-1.06-2.18-2.18-3.3-3.23-.35-.34-.5-.71-.48-1.17.02-1.3-.02-2.6.02-3.89.02-.73-.2-1.06-1.03-1.04-1.56.03-1.56 0-1.56-1.55 0-.05 0-.12 0-.18 0-1.4 0-1.4 1.42-1.4 1.12 0 1.15-.03 1.15-1.15 0-.18.02-.36 0-.53-.07-.68.25-.9.9-.86.22.02.42 0 .63 0 1.82 0 1.84 0 1.88 1.74.01.57.18.8.77.78 1.58-.01 3.17-.03 4.77 0 .65.02.83-.23.83-.83-.04-1.61-.04-3.25 0-4.86.02-.64-.23-.82-.85-.8-1.26.04-2.52.02-3.78.02-1.69 0-1.7 0-1.73 1.67 0 .65-.28.9-.9.9-.23 0-.48 0-.72 0-1.76 0-1.78 0-1.78-1.7 0-.64-.22-.9-.88-.89-1.59.04-3.17.02-4.77 0-.62 0-.85.23-.85.83.02 1.6.02 3.18 0 4.78-.02.65.3.87.94.87 1.67.03 1.67.05 1.67 1.65 0 .05 0 .12 0 .17-.02 1.4.18 1.28-1.3 1.3-1.53.02-1.33-.14-1.35 1.31-.02 1.51.1 1.3-1.28 1.3-1.81.02-1.85 0-1.85-1.78 0-.6-.18-.85-.81-.83-1.68.04-3.35.04-5.04 0-.67-.02-.81.25-.8.83.04 1.51 0 3 .02 4.51 0 1.4-.1 1.2 1.26 1.23 1.3.01 1.37.07 1.37 1.36 0 1.76.24 2.08-1.93 1.94-.57-.04-.7.2-.7.7.04 1.7.02 3.36 0 5.05 0 .56.18.78.78.78 1.62-.04 3.24-.04 4.86 0 .65.01.83-.25.83-.84-.02-1.61-.04-3.24 0-4.86.02-.7-.22-.83-.87-.83-1.67.01-1.67-.02-1.67-1.67 0-.09 0-.18 0-.27 0-1.35 0-1.4 1.4-1.33.9.05 1.25-.21 1.16-1.12-.15-1.4.21-1.54 1.47-1.5 1.78.05 1.96-.32 1.9 1.79-.04.69.26.85.9.83 1.34-.03 2.7 0 4.05-.02.41 0 .75.1 1.04.4 1.15 1.15 2.29 2.3 3.46 3.44.52.51.56 1.11.34 1.72-.22.58-.83.37-1.28.37-2.09-.02-2.07.36-2.03-1.88.01-.51-.15-.75-.7-.75-1.68.02-3.36.04-5.05 0-.61-.01-.76.24-.76.79.04 1.43.02 2.89.02 4.33 0 1.34 0 1.34 1.37 1.4 1.23.03 1.23.03 1.23 1.22 0 .09 0 .18 0 .27 0 1.65 0 1.68-1.71 1.72-.65.02-.9.25-.89.9.04 1.57.04 3.13 0 4.69-.02.66.26.89.9.89 1.53-.04 3.06-.04 4.6 0 .73.01 1.02-.23 1-.96-.03-1.44-.01-2.9-.01-4.33 0-1.16 0-1.16-1.23-1.17-1.35 0-1.35 0-1.35-1.35 0-1.76 0-1.78 1.75-1.85.56-.02.8-.23.84-.78.13-1.79.15-1.79 2-1.79.1 0 .18.02.27 0 .87-.12 1.17.23 1.16 1.08-.04 1.42 0 1.42 1.38 1.51 1.2.05 1.2.05 1.2 1.26 0 1.86 0 1.88-1.86 1.93-.53.02-.76.18-.74.73.02 1.69.02 3.36 0 5.04 0 .55.23.71.75.7 1.63-.02 3.25-.02 4.87 0 .54 0 .75-.18.73-.72-.01-1.68-.01-3.35 0-5.04 0-.47-.16-.67-.66-.7-1.86-.11-1.86-.13-1.86-1.98 0-.12 0-.23 0-.35-.03-.64.27-.92.92-.87.24.02.49-.02.72 0 .67.07.9-.2.9-.85-.03-1.62-.03-3.25 0-4.86.02-.6-.16-.82-.79-.82-1.73 0-1.73-.02-1.73-1.72 0-.18.02-.36 0-.53-.05-.73.18-1.07 1.01-1.05 1.48.05 1.48 0 1.5-1.42 0-.04 0-.05 0-.09-.06-.74.3-1.1 1.06-1.06.3.01.6 0 .9 0 1.44 0 1.44 0 1.44 1.4.02 1.17.03 1.19 1.2 1.19 1.37 0 1.37 0 1.37 1.35 0 1.84 0 1.86-1.89 1.95-.48.02-.7.16-.7.67.02 1.69.02 3.36 0 5.04 0 .6.29.84.9.82 1.66-.02 3.3-.04 4.95 0 .63.02.76-.27.74-.8-.02-1.42 0-2.82 0-4.24 0-1.47 0-1.53-1.5-1.47-.9.03-1.2-.25-1.16-1.16.05-2.04.01-2.06 2.07-2.15.47-.01.63-.16.61-.62-.07-.9-.05-1.79-.05-2.68z"/><path fill="url(#paint0_linear)" fill-opacity=".4" d="M54.7 27.04a27.22 27.22 0 01-27.38 26.98C11.92 54-.3 41.86.02 26.42.3 11.84 11.66.02 27.4 0a27.1 27.1 0 0127.3 27.04zm-9.38-4.72c0-.9-.02-1.82 0-2.73 0-.4-.17-.57-.58-.57-1.8.02-3.6.02-5.4 0-.5 0-.72.2-.67.68.02.23 0 .48 0 .7 0 1.25 0 1.25-1.26 1.25-1.94 0-1.96 0-2.02-1.88-.02-.5-.09-.76-.68-.75-1.68.04-3.35.02-5.04 0-.5 0-.7.16-.7.66.01 1.74.01 3.48 0 5.22 0 .55.21.69.73.69 1.86.03 1.86.05 1.86 1.92 0 .05 0 .12 0 .17 0 1.17-.26 1.37-1.44 1.2-.36-.06-.58-.3-.8-.54-1.1-1.06-2.18-2.18-3.3-3.23-.35-.34-.5-.71-.48-1.17.02-1.3-.02-2.6.02-3.89.02-.73-.2-1.06-1.03-1.04-1.56.03-1.56 0-1.56-1.55 0-.05 0-.12 0-.18 0-1.4 0-1.4 1.42-1.4 1.12 0 1.15-.03 1.15-1.15 0-.18.02-.36 0-.53-.07-.68.25-.9.9-.86.22.02.42 0 .63 0 1.82 0 1.84 0 1.88 1.74.01.57.18.8.77.78 1.58-.01 3.17-.03 4.77 0 .65.02.83-.23.83-.83-.04-1.61-.04-3.25 0-4.86.02-.64-.23-.82-.85-.8-1.26.04-2.52.02-3.78.02-1.69 0-1.7 0-1.73 1.67 0 .65-.28.9-.9.9-.23 0-.48 0-.72 0-1.76 0-1.78 0-1.78-1.7 0-.64-.22-.9-.88-.89-1.59.04-3.17.02-4.77 0-.62 0-.85.23-.85.83.02 1.6.02 3.18 0 4.78-.02.65.3.87.94.87 1.67.03 1.67.05 1.67 1.65 0 .05 0 .12 0 .17-.02 1.4.18 1.28-1.3 1.3-1.53.02-1.33-.14-1.35 1.31-.02 1.51.1 1.3-1.28 1.3-1.81.02-1.85 0-1.85-1.78 0-.6-.18-.85-.81-.83-1.68.04-3.35.04-5.04 0-.67-.02-.81.25-.8.83.04 1.51 0 3 .02 4.51 0 1.4-.1 1.2 1.26 1.23 1.3.01 1.37.07 1.37 1.36 0 1.76.24 2.08-1.93 1.94-.57-.04-.7.2-.7.7.04 1.7.02 3.36 0 5.05 0 .56.18.78.78.78 1.62-.04 3.24-.04 4.86 0 .65.01.83-.25.83-.84-.02-1.61-.04-3.24 0-4.86.02-.7-.22-.83-.87-.83-1.67.01-1.67-.02-1.67-1.67 0-.09 0-.18 0-.27 0-1.35 0-1.4 1.4-1.33.9.05 1.25-.21 1.16-1.12-.15-1.4.21-1.54 1.47-1.5 1.78.05 1.96-.32 1.9 1.79-.04.69.26.85.9.83 1.34-.03 2.7 0 4.05-.02.41 0 .75.1 1.04.4 1.15 1.15 2.29 2.3 3.46 3.44.52.51.56 1.11.34 1.72-.22.58-.83.37-1.28.37-2.09-.02-2.07.36-2.03-1.88.01-.51-.15-.75-.7-.75-1.68.02-3.36.04-5.05 0-.61-.01-.76.24-.76.79.04 1.43.02 2.89.02 4.33 0 1.34 0 1.34 1.37 1.4 1.23.03 1.23.03 1.23 1.22 0 .09 0 .18 0 .27 0 1.65 0 1.68-1.71 1.72-.65.02-.9.25-.89.9.04 1.57.04 3.13 0 4.69-.02.66.26.89.9.89 1.53-.04 3.06-.04 4.6 0 .73.01 1.02-.23 1-.96-.03-1.44-.01-2.9-.01-4.33 0-1.16 0-1.16-1.23-1.17-1.35 0-1.35 0-1.35-1.35 0-1.76 0-1.78 1.75-1.85.56-.02.8-.23.84-.78.13-1.79.15-1.79 2-1.79.1 0 .18.02.27 0 .87-.12 1.17.23 1.16 1.08-.04 1.42 0 1.42 1.38 1.51 1.2.05 1.2.05 1.2 1.26 0 1.86 0 1.88-1.86 1.93-.53.02-.76.18-.74.73.02 1.69.02 3.36 0 5.04 0 .55.23.71.75.7 1.63-.02 3.25-.02 4.87 0 .54 0 .75-.18.73-.72-.01-1.68-.01-3.35 0-5.04 0-.47-.16-.67-.66-.7-1.86-.11-1.86-.13-1.86-1.98 0-.12 0-.23 0-.35-.03-.64.27-.92.92-.87.24.02.49-.02.72 0 .67.07.9-.2.9-.85-.03-1.62-.03-3.25 0-4.86.02-.6-.16-.82-.79-.82-1.73 0-1.73-.02-1.73-1.72 0-.18.02-.36 0-.53-.05-.73.18-1.07 1.01-1.05 1.48.05 1.48 0 1.5-1.42 0-.04 0-.05 0-.09-.06-.74.3-1.1 1.06-1.06.3.01.6 0 .9 0 1.44 0 1.44 0 1.44 1.4.02 1.17.03 1.19 1.2 1.19 1.37 0 1.37 0 1.37 1.35 0 1.84 0 1.86-1.89 1.95-.48.02-.7.16-.7.67.02 1.69.02 3.36 0 5.04 0 .6.29.84.9.82 1.66-.02 3.3-.04 4.95 0 .63.02.76-.27.74-.8-.02-1.42 0-2.82 0-4.24 0-1.47 0-1.53-1.5-1.47-.9.03-1.2-.25-1.16-1.16.05-2.04.01-2.06 2.07-2.15.47-.01.63-.16.61-.62-.07-.9-.05-1.79-.05-2.68z"/><path fill="#4D4D5D" d="M112.34 30.84c0 2.68-.03 5.27.02 7.86.02.8-.18 1.05-1.02 1.03-2.11-.05-2.11-.02-2.11-2.07 0-3.7.02-7.37-.02-11.06 0-.76.16-1 1.01-1.08 1.7-.18 2.67.39 3.48 1.88 1.31 2.41 2.9 4.67 4.39 7 .32-.31.2-.67.2-.97.02-2.36.02-4.72 0-7.08 0-.58.14-.81.79-.83 2.43-.02 2.43-.05 2.43 2.32 0 3.66-.02 7.31.02 10.97 0 .7-.22.98-.9.87-.14-.02-.3-.02-.45 0-1.46.25-2.36-.25-3.1-1.6-1.24-2.29-2.75-4.45-4.14-6.67a2 2 0 00-.6-.57z"/><path fill="url(#paint1_linear)" fill-opacity=".4" d="M112.34 30.84c0 2.68-.03 5.27.02 7.86.02.8-.18 1.05-1.02 1.03-2.11-.05-2.11-.02-2.11-2.07 0-3.7.02-7.37-.02-11.06 0-.76.16-1 1.01-1.08 1.7-.18 2.67.39 3.48 1.88 1.31 2.41 2.9 4.67 4.39 7 .32-.31.2-.67.2-.97.02-2.36.02-4.72 0-7.08 0-.58.14-.81.79-.83 2.43-.02 2.43-.05 2.43 2.32 0 3.66-.02 7.31.02 10.97 0 .7-.22.98-.9.87-.14-.02-.3-.02-.45 0-1.46.25-2.36-.25-3.1-1.6-1.24-2.29-2.75-4.45-4.14-6.67a2 2 0 00-.6-.57z"/><path fill="#4D4D5D" d="M89.69 11.36c0 1.61 0 3.16 0 4.7 0 1.2-.02 2.41.02 3.62.02.53-.16.71-.72.73-2.36.05-2.36.07-2.36-2.19 0-3.7.02-7.41-.02-11.12 0-.7.2-.92.9-.92 2.27-.04 2.29-.08 3.75 2.2 1.4 2.2 2.77 4.45 4.17 6.72.33-.32.24-.67.24-1.01 0-2.36.02-4.72 0-7.06 0-.59.14-.85.8-.84 2.96.07 2.37-.4 2.4 2.26.04 3.67-.01 7.36.02 11.03 0 .73-.23.86-.95.98-1.86.28-2.88-.48-3.73-2.04-1.3-2.36-2.85-4.6-4.29-6.89-.03-.07-.1-.08-.23-.17z"/><path fill="url(#paint2_linear)" fill-opacity=".4" d="M89.69 11.36c0 1.61 0 3.16 0 4.7 0 1.2-.02 2.41.02 3.62.02.53-.16.71-.72.73-2.36.05-2.36.07-2.36-2.19 0-3.7.02-7.41-.02-11.12 0-.7.2-.92.9-.92 2.27-.04 2.29-.08 3.75 2.2 1.4 2.2 2.77 4.45 4.17 6.72.33-.32.24-.67.24-1.01 0-2.36.02-4.72 0-7.06 0-.59.14-.85.8-.84 2.96.07 2.37-.4 2.4 2.26.04 3.67-.01 7.36.02 11.03 0 .73-.23.86-.95.98-1.86.28-2.88-.48-3.73-2.04-1.3-2.36-2.85-4.6-4.29-6.89-.03-.07-.1-.08-.23-.17z"/><path fill="#4D4D5D" d="M133.88 13.24c0-2.1.02-4.19-.01-6.28 0-.62.18-.82.8-.82 2.5.04 4.98 0 7.46.04 1.48.01 3.2 1.27 3.7 3.03.35 1.31-.12 3.37-1.56 4.17-.21.12-.5.21-.14.44 1.39.86 1.51 2.26 1.68 3.64.09.82 0 1.65.35 2.43.13.29-.01.46-.32.46-.32 0-.66.02-.99.02-2.1 0-2.1 0-2.25-2.13-.04-.65-.04-1.31-.29-1.97-.3-.78-.72-1.22-1.6-1.22-.9 0-1.8 0-2.7-.05-.58-.04-.8.17-.78.76.04 1.3 0 2.59.02 3.88.02.54-.16.77-.72.73-.67-.03-1.31-.05-1.98 0-.65.06-.72-.26-.72-.8.07-2.09.05-4.2.05-6.33zm5.62-.76c.5 0 1.01.01 1.51 0 .98-.04 1.54-.57 1.59-1.5.07-1.38-.29-1.97-1.42-2.09-.8-.09-1.6-.07-2.42-.09-1.53-.02-1.53 0-1.53 1.46 0 2.23 0 2.23 2.27 2.22z"/><path fill="url(#paint3_linear)" fill-opacity=".4" d="M133.88 13.24c0-2.1.02-4.19-.01-6.28 0-.62.18-.82.8-.82 2.5.04 4.98 0 7.46.04 1.48.01 3.2 1.27 3.7 3.03.35 1.31-.12 3.37-1.56 4.17-.21.12-.5.21-.14.44 1.39.86 1.51 2.26 1.68 3.64.09.82 0 1.65.35 2.43.13.29-.01.46-.32.46-.32 0-.66.02-.99.02-2.1 0-2.1 0-2.25-2.13-.04-.65-.04-1.31-.29-1.97-.3-.78-.72-1.22-1.6-1.22-.9 0-1.8 0-2.7-.05-.58-.04-.8.17-.78.76.04 1.3 0 2.59.02 3.88.02.54-.16.77-.72.73-.67-.03-1.31-.05-1.98 0-.65.06-.72-.26-.72-.8.07-2.09.05-4.2.05-6.33zm5.62-.76c.5 0 1.01.01 1.51 0 .98-.04 1.54-.57 1.59-1.5.07-1.38-.29-1.97-1.42-2.09-.8-.09-1.6-.07-2.42-.09-1.53-.02-1.53 0-1.53 1.46 0 2.23 0 2.23 2.27 2.22z"/><path fill="#4D4D5D" d="M124 20.7c-4.04.1-7.12-3.11-7.06-7.4.05-4.21 2.88-7.53 7.18-7.43 5.15.13 7.06 3.77 7.06 7.56 0 4.16-2.8 7.35-7.18 7.28zm-3.68-7.4c-.12.79.1 1.52.35 2.25a3.44 3.44 0 003.24 2.44 3.5 3.5 0 003.44-2.27 6.66 6.66 0 00-.24-5.29c-.6-1.3-1.75-1.75-3.02-1.79a3.19 3.19 0 00-3.05 1.65c-.47.9-.9 1.9-.72 3z"/><path fill="url(#paint4_linear)" fill-opacity=".4" d="M124 20.7c-4.04.1-7.12-3.11-7.06-7.4.05-4.21 2.88-7.53 7.18-7.43 5.15.13 7.06 3.77 7.06 7.56 0 4.16-2.8 7.35-7.18 7.28zm-3.68-7.4c-.12.79.1 1.52.35 2.25a3.44 3.44 0 003.24 2.44 3.5 3.5 0 003.44-2.27 6.66 6.66 0 00-.24-5.29c-.6-1.3-1.75-1.75-3.02-1.79a3.19 3.19 0 00-3.05 1.65c-.47.9-.9 1.9-.72 3z"/><path fill="#4D4D5D" d="M65.32 40.07c-2.75-.02-4.8-.55-6.08-2.72-.3-.51-.3-1.1-.54-1.65-.2-.46.14-.7.6-.72.7-.02 1.4-.02 2.08 0 .32.01.58.1.67.55.25 1.2 1.1 1.86 2.4 1.88.9.02 1.81.18 2.66-.41.72-.5.77-1.81-.13-2.25-1.26-.64-2.66-.8-3.96-1.26-.97-.34-1.96-.66-2.68-1.39-1.88-1.91-1.36-4.5 1.06-5.94 2.56-1.51 5-1.21 7.38.26a3.22 3.22 0 011.55 2.98c0 .4-.14.54-.52.52a9.99 9.99 0 00-1.26 0c-.87.07-1.53-.02-1.66-1.08-.05-.38-.45-.57-.83-.73a3.36 3.36 0 00-2.92.05c-.5.27-.73.75-.68 1.24.05.55.45.95 1.03 1.09 1.26.32 2.54.58 3.76.97 2.09.66 3.35 1.62 3.71 3.82.16 1-.52 3-1.94 3.78a6.86 6.86 0 01-3.7 1.01z"/><path fill="url(#paint5_linear)" fill-opacity=".4" d="M65.32 40.07c-2.75-.02-4.8-.55-6.08-2.72-.3-.51-.3-1.1-.54-1.65-.2-.46.14-.7.6-.72.7-.02 1.4-.02 2.08 0 .32.01.58.1.67.55.25 1.2 1.1 1.86 2.4 1.88.9.02 1.81.18 2.66-.41.72-.5.77-1.81-.13-2.25-1.26-.64-2.66-.8-3.96-1.26-.97-.34-1.96-.66-2.68-1.39-1.88-1.91-1.36-4.5 1.06-5.94 2.56-1.51 5-1.21 7.38.26a3.22 3.22 0 011.55 2.98c0 .4-.14.54-.52.52a9.99 9.99 0 00-1.26 0c-.87.07-1.53-.02-1.66-1.08-.05-.38-.45-.57-.83-.73a3.36 3.36 0 00-2.92.05c-.5.27-.73.75-.68 1.24.05.55.45.95 1.03 1.09 1.26.32 2.54.58 3.76.97 2.09.66 3.35 1.62 3.71 3.82.16 1-.52 3-1.94 3.78a6.86 6.86 0 01-3.7 1.01z"/><path fill="#4D4D5D" d="M95.61 32.62c0-2.1.02-4.2-.01-6.29-.02-.62.2-.8.8-.8 3.07.04 6.11.04 9.17 0 .62 0 .76.2.76.77.02 1.92.04 1.92-1.9 1.92-1.58 0-3.16.01-4.75-.02-.59-.02-.77.2-.77.76-.05 2.2-.07 2.2 2.18 2.2 1.31 0 2.63.02 3.96-.02.61-.01.85.16.85.8.02 1.85.05 1.85-1.82 1.85-1.48 0-2.94.03-4.4-.02-.6-.02-.79.2-.75.76.07.78-.33 1.8.14 2.31.49.53 1.53.16 2.33.18 1.49.03 2.98.03 4.48 0 .6-.02.76.2.76.76 0 1.9.03 1.9-1.91 1.9-2.8 0-5.57-.02-8.36.02-.58 0-.77-.15-.77-.73.03-2.11.01-4.22.01-6.35z"/><path fill="url(#paint6_linear)" fill-opacity=".4" d="M95.61 32.62c0-2.1.02-4.2-.01-6.29-.02-.62.2-.8.8-.8 3.07.04 6.11.04 9.17 0 .62 0 .76.2.76.77.02 1.92.04 1.92-1.9 1.92-1.58 0-3.16.01-4.75-.02-.59-.02-.77.2-.77.76-.05 2.2-.07 2.2 2.18 2.2 1.31 0 2.63.02 3.96-.02.61-.01.85.16.85.8.02 1.85.05 1.85-1.82 1.85-1.48 0-2.94.03-4.4-.02-.6-.02-.79.2-.75.76.07.78-.33 1.8.14 2.31.49.53 1.53.16 2.33.18 1.49.03 2.98.03 4.48 0 .6-.02.76.2.76.76 0 1.9.03 1.9-1.91 1.9-2.8 0-5.57-.02-8.36.02-.58 0-.77-.15-.77-.73.03-2.11.01-4.22.01-6.35z"/><path fill="#4D4D5D" d="M108.78 5.9a5.93 5.93 0 016.01 4.16c.24.98.2 1.08-.79 1.1-.3 0-.6-.02-.9 0-.8.07-1.35-.03-1.7-.96-.42-1.17-1.65-1.54-2.78-1.56a3.06 3.06 0 00-2.92 1.7c-.95 1.9-1 3.84-.07 5.8a3.39 3.39 0 003.19 1.85c1.44-.1 2.43-.87 2.8-2.27.19-.65.45-1.04 1.23-.92.29.05.6 0 .9 0 1.24 0 1.46.27 1.12 1.44-1.07 3.65-4.43 5.14-8 4.3a6.36 6.36 0 01-4.7-4.13c-.6-1.6-.8-3.2-.32-4.93.37-1.4.9-2.6 1.94-3.65 1.39-1.4 3-1.96 4.99-1.94z"/><path fill="url(#paint7_linear)" fill-opacity=".4" d="M108.78 5.9a5.93 5.93 0 016.01 4.16c.24.98.2 1.08-.79 1.1-.3 0-.6-.02-.9 0-.8.07-1.35-.03-1.7-.96-.42-1.17-1.65-1.54-2.78-1.56a3.06 3.06 0 00-2.92 1.7c-.95 1.9-1 3.84-.07 5.8a3.39 3.39 0 003.19 1.85c1.44-.1 2.43-.87 2.8-2.27.19-.65.45-1.04 1.23-.92.29.05.6 0 .9 0 1.24 0 1.46.27 1.12 1.44-1.07 3.65-4.43 5.14-8 4.3a6.36 6.36 0 01-4.7-4.13c-.6-1.6-.8-3.2-.32-4.93.37-1.4.9-2.6 1.94-3.65 1.39-1.4 3-1.96 4.99-1.94z"/><path fill="#4D4D5D" d="M79.7 40.05c-3.44.23-6.24-2.48-6.8-5.25-.64-3.18-.14-5.98 2.44-8.1 3.3-2.7 9-1.77 10.46 2.62.32.97.2 1.17-.85 1.18-.32 0-.66-.01-.99 0-.72.04-1.2-.01-1.55-.88-.45-1.14-1.58-1.62-2.8-1.58-1.28.03-2.38.57-2.94 1.77a6.7 6.7 0 000 5.8c.54 1.2 2.27 1.89 3.2 1.82a3 3 0 002.76-2.2c.22-.79.58-1.26 1.5-1.09.2.04.4 0 .63 0 1.26 0 1.54.45 1.13 1.67a6.08 6.08 0 01-6.2 4.24z"/><path fill="url(#paint8_linear)" fill-opacity=".4" d="M79.7 40.05c-3.44.23-6.24-2.48-6.8-5.25-.64-3.18-.14-5.98 2.44-8.1 3.3-2.7 9-1.77 10.46 2.62.32.97.2 1.17-.85 1.18-.32 0-.66-.01-.99 0-.72.04-1.2-.01-1.55-.88-.45-1.14-1.58-1.62-2.8-1.58-1.28.03-2.38.57-2.94 1.77a6.7 6.7 0 000 5.8c.54 1.2 2.27 1.89 3.2 1.82a3 3 0 002.76-2.2c.22-.79.58-1.26 1.5-1.09.2.04.4 0 .63 0 1.26 0 1.54.45 1.13 1.67a6.08 6.08 0 01-6.2 4.24z"/><path fill="#4D4D5D" d="M169.38 40.07a6.43 6.43 0 01-6.2-4.26c-1.24-2.96-.59-7 2.07-9.12 3.35-2.64 9.04-1.78 10.49 2.57.32 1.01.23 1.2-.81 1.2-.31 0-.6 0-.9 0-.78.06-1.3-.03-1.72-.91-.97-2.08-4.32-1.96-5.47-.16-1.19 1.82-1.22 4.95.09 6.67a3.12 3.12 0 003.03 1.28c1.22-.22 2.28-.8 2.59-2.15.18-.78.56-1.28 1.47-1.1.24.05.5 0 .72 0 1.2 0 1.48.32 1.1 1.47-.64 2-1.81 3.53-4.01 4.17-.72.25-1.43.27-2.45.34z"/><path fill="url(#paint9_linear)" fill-opacity=".4" d="M169.38 40.07a6.43 6.43 0 01-6.2-4.26c-1.24-2.96-.59-7 2.07-9.12 3.35-2.64 9.04-1.78 10.49 2.57.32 1.01.23 1.2-.81 1.2-.31 0-.6 0-.9 0-.78.06-1.3-.03-1.72-.91-.97-2.08-4.32-1.96-5.47-.16-1.19 1.82-1.22 4.95.09 6.67a3.12 3.12 0 003.03 1.28c1.22-.22 2.28-.8 2.59-2.15.18-.78.56-1.28 1.47-1.1.24.05.5 0 .72 0 1.2 0 1.48.32 1.1 1.47-.64 2-1.81 3.53-4.01 4.17-.72.25-1.43.27-2.45.34z"/><path fill="#4D4D5D" d="M83.13 20.39c-.03 0-.05 0-.09 0-1.69 0-1.69 0-2.1-1.58-.11-.39-.36-.73-.42-1.15-.05-.4-.46-.29-.73-.29-1.12-.01-2.22 0-3.34 0-1.4 0-1.4 0-1.82 1.28-.55 1.74-.55 1.74-2.34 1.74-.21 0-.41 0-.63 0-.84-.02-.95-.16-.66-.92 1.64-4.24 3.27-8.49 4.9-12.73.14-.4.4-.56.79-.58.6 0 1.2.07 1.8-.02.88-.14 1.22.37 1.46 1.03a362.6 362.6 0 003.92 10.4c.26.64.45 1.3.74 1.93.22.52.25 1-.6.89-.28-.04-.59 0-.88 0zM77.8 9.99c-.54 1.5-.97 2.79-1.47 4.06-.25.64-.02.77.56.73.59-.03 1.2-.05 1.8 0 .79.1.75-.37.6-.83-.46-1.26-.95-2.5-1.49-3.96z"/><path fill="url(#paint10_linear)" fill-opacity=".4" d="M83.13 20.39c-.03 0-.05 0-.09 0-1.69 0-1.69 0-2.1-1.58-.11-.39-.36-.73-.42-1.15-.05-.4-.46-.29-.73-.29-1.12-.01-2.22 0-3.34 0-1.4 0-1.4 0-1.82 1.28-.55 1.74-.55 1.74-2.34 1.74-.21 0-.41 0-.63 0-.84-.02-.95-.16-.66-.92 1.64-4.24 3.27-8.49 4.9-12.73.14-.4.4-.56.79-.58.6 0 1.2.07 1.8-.02.88-.14 1.22.37 1.46 1.03a362.6 362.6 0 003.92 10.4c.26.64.45 1.3.74 1.93.22.52.25 1-.6.89-.28-.04-.59 0-.88 0zM77.8 9.99c-.54 1.5-.97 2.79-1.47 4.06-.25.64-.02.77.56.73.59-.03 1.2-.05 1.8 0 .79.1.75-.37.6-.83-.46-1.26-.95-2.5-1.49-3.96z"/><path fill="#4D4D5D" d="M144.26 32.65c0-2.11.02-4.24-.02-6.35 0-.59.18-.75.75-.75 2.89.02 5.75.02 8.63 0 .52 0 .74.13.78.68.09 2 .1 2-1.91 2-1.39 0-2.76.02-4.13-.01-.52-.02-.77.12-.74.67.04.62.04 1.24 0 1.85-.03.56.22.69.74.67 1.44-.02 2.88.02 4.3-.02.66-.02.98.1.94.87-.09 1.88.33 1.72-1.8 1.72-1.13 0-2.27.02-3.42-.01-.58-.02-.8.17-.77.76.03 1.42-.02 2.82.01 4.24.02.53-.16.74-.7.7-.65-.03-1.31-.03-1.98 0-.56.04-.7-.15-.7-.7.03-2.08.02-4.19.02-6.32z"/><path fill="url(#paint11_linear)" fill-opacity=".4" d="M144.26 32.65c0-2.11.02-4.24-.02-6.35 0-.59.18-.75.75-.75 2.89.02 5.75.02 8.63 0 .52 0 .74.13.78.68.09 2 .1 2-1.91 2-1.39 0-2.76.02-4.13-.01-.52-.02-.77.12-.74.67.04.62.04 1.24 0 1.85-.03.56.22.69.74.67 1.44-.02 2.88.02 4.3-.02.66-.02.98.1.94.87-.09 1.88.33 1.72-1.8 1.72-1.13 0-2.27.02-3.42-.01-.58-.02-.8.17-.77.76.03 1.42-.02 2.82.01 4.24.02.53-.16.74-.7.7-.65-.03-1.31-.03-1.98 0-.56.04-.7-.15-.7-.7.03-2.08.02-4.19.02-6.32z"/><path fill="#4D4D5D" d="M59.6 13.3c0-2.14.02-4.25-.02-6.38 0-.57.18-.8.77-.76.54.03 1.08.05 1.62 0 .81-.1 1.03.26 1.03 1-.04 3.17.02 6.3-.04 9.47-.01.8.18 1.08 1.05 1.04 1.64-.07 3.3 0 4.95-.03.7-.02 1.01.16 1 .92-.04 1.83 0 1.83-1.86 1.83-2.54 0-5.1-.02-7.64.02-.66.02-.88-.18-.86-.84.02-2.09 0-4.18 0-6.28z"/><path fill="url(#paint12_linear)" fill-opacity=".4" d="M59.6 13.3c0-2.14.02-4.25-.02-6.38 0-.57.18-.8.77-.76.54.03 1.08.05 1.62 0 .81-.1 1.03.26 1.03 1-.04 3.17.02 6.3-.04 9.47-.01.8.18 1.08 1.05 1.04 1.64-.07 3.3 0 4.95-.03.7-.02 1.01.16 1 .92-.04 1.83 0 1.83-1.86 1.83-2.54 0-5.1-.02-7.64.02-.66.02-.88-.18-.86-.84.02-2.09 0-4.18 0-6.28z"/><path fill="#4D4D5D" d="M129.38 25.57c1.73 0 3.48.02 5.2 0 .5 0 .67.14.69.64.07 2.04.09 2.04-1.95 2.04-2.37 0-2.37 0-2.37 2.3 0 2.81-.02 5.6.02 8.4 0 .62-.18.78-.81.78-2.47 0-2.47.02-2.47-2.43 0-2.71-.02-5.41.02-8.13.01-.72-.22-.99-.98-.94-.86.06-1.73 0-2.6.02-.48.02-.62-.14-.64-.6-.1-2.08-.12-2.08 1.95-2.08 1.31 0 2.63 0 3.94 0z"/><path fill="url(#paint13_linear)" fill-opacity=".4" d="M129.38 25.57c1.73 0 3.48.02 5.2 0 .5 0 .67.14.69.64.07 2.04.09 2.04-1.95 2.04-2.37 0-2.37 0-2.37 2.3 0 2.81-.02 5.6.02 8.4 0 .62-.18.78-.81.78-2.47 0-2.47.02-2.47-2.43 0-2.71-.02-5.41.02-8.13.01-.72-.22-.99-.98-.94-.86.06-1.73 0-2.6.02-.48.02-.62-.14-.64-.6-.1-2.08-.12-2.08 1.95-2.08 1.31 0 2.63 0 3.94 0z"/><path fill="#4D4D5D" d="M137.6 32.65c0-2.13.01-4.24-.03-6.37 0-.58.19-.78.78-.74.63.03 1.26.03 1.9 0 .53-.04.71.16.71.7-.02 4.28-.02 8.54 0 12.82 0 .53-.23.64-.7.62-.67-.02-1.32-.04-1.98 0-.56.03-.72-.16-.7-.7.03-2.09.01-4.2.01-6.33z"/><path fill="url(#paint14_linear)" fill-opacity=".4" d="M137.6 32.65c0-2.13.01-4.24-.03-6.37 0-.58.19-.78.78-.74.63.03 1.26.03 1.9 0 .53-.04.71.16.71.7-.02 4.28-.02 8.54 0 12.82 0 .53-.23.64-.7.62-.67-.02-1.32-.04-1.98 0-.56.03-.72-.16-.7-.7.03-2.09.01-4.2.01-6.33z"/><path fill="#4D4D5D" d="M156.88 32.62c0-2.1.02-4.2-.02-6.29-.02-.62.18-.85.81-.78.83.1 1.9-.35 2.42.2.48.5.14 1.53.14 2.3.02 3.6 0 7.2.02 10.8 0 .62-.1.95-.81.86-.83-.1-1.9.36-2.41-.19-.5-.5-.13-1.5-.15-2.3-.02-1.53 0-3.06 0-4.6z"/><path fill="url(#paint15_linear)" fill-opacity=".4" d="M156.88 32.62c0-2.1.02-4.2-.02-6.29-.02-.62.18-.85.81-.78.83.1 1.9-.35 2.42.2.48.5.14 1.53.14 2.3.02 3.6 0 7.2.02 10.8 0 .62-.1.95-.81.86-.83-.1-1.9.36-2.41-.19-.5-.5-.13-1.5-.15-2.3-.02-1.53 0-3.06 0-4.6z"/><path fill="#4D4D5D" d="M88.95 32.62c0-2.1.02-4.2-.02-6.27-.01-.62.18-.85.81-.8.63.06 1.26.04 1.9 0 .46-.01.63.18.63.62-.02 4.33-.02 8.66 0 12.98 0 .44-.18.58-.6.55-.04 0-.05 0-.09 0-2.63.12-2.63.12-2.63-2.5 0-1.51 0-3.04 0-4.58z"/><path fill="url(#paint16_linear)" fill-opacity=".4" d="M88.95 32.62c0-2.1.02-4.2-.02-6.27-.01-.62.18-.85.81-.8.63.06 1.26.04 1.9 0 .46-.01.63.18.63.62-.02 4.33-.02 8.66 0 12.98 0 .44-.18.58-.6.55-.04 0-.05 0-.09 0-2.63.12-2.63.12-2.63-2.5 0-1.51 0-3.04 0-4.58z"/><path fill="#4D4D5D" d="M110.27 47.1c0-1.12 0-2 0-2.88 0-.5-.1-1 .72-1 .9 0 .65.6.65 1.04.02 1.44.02 2.87 0 4.33 0 .33.27.83-.27.97-.52.13-1.04.06-1.4-.46-.8-1.1-1.62-2.2-2.63-3.25 0 .98-.02 1.96 0 2.92 0 .47.03.83-.67.83-.72 0-.74-.36-.72-.87.02-1.53 0-3.05.02-4.6 0-.28-.2-.72.25-.83.45-.1.96-.2 1.3.28.61.82 1.22 1.64 1.85 2.43.22.34.49.63.9 1.09z"/><path fill="url(#paint17_linear)" fill-opacity=".4" d="M110.27 47.1c0-1.12 0-2 0-2.88 0-.5-.1-1 .72-1 .9 0 .65.6.65 1.04.02 1.44.02 2.87 0 4.33 0 .33.27.83-.27.97-.52.13-1.04.06-1.4-.46-.8-1.1-1.62-2.2-2.63-3.25 0 .98-.02 1.96 0 2.92 0 .47.03.83-.67.83-.72 0-.74-.36-.72-.87.02-1.53 0-3.05.02-4.6 0-.28-.2-.72.25-.83.45-.1.96-.2 1.3.28.61.82 1.22 1.64 1.85 2.43.22.34.49.63.9 1.09z"/><path fill="#4D4D5D" d="M73.95 46.83c0-.98.04-1.93-.02-2.9-.02-.63.33-.65.8-.67.5-.01.6.2.59.63-.02 1.61 0 3.24-.02 4.86 0 .28.22.74-.27.8-.4.05-.86.2-1.22-.27-.81-1.1-1.68-2.17-2.53-3.25-.05-.07-.1-.12-.32-.35 0 1.17-.02 2.18.02 3.2.02.5-.1.74-.69.72-.54-.02-.73-.16-.72-.71.04-1.56 0-3.12.02-4.69 0-.31-.23-.78.27-.9.49-.12 1.01-.12 1.37.37.58.78 1.15 1.56 1.75 2.33.23.32.5.6.75.9.11-.02.17-.05.22-.07z"/><path fill="url(#paint18_linear)" fill-opacity=".4" d="M73.95 46.83c0-.98.04-1.93-.02-2.9-.02-.63.33-.65.8-.67.5-.01.6.2.59.63-.02 1.61 0 3.24-.02 4.86 0 .28.22.74-.27.8-.4.05-.86.2-1.22-.27-.81-1.1-1.68-2.17-2.53-3.25-.05-.07-.1-.12-.32-.35 0 1.17-.02 2.18.02 3.2.02.5-.1.74-.69.72-.54-.02-.73-.16-.72-.71.04-1.56 0-3.12.02-4.69 0-.31-.23-.78.27-.9.49-.12 1.01-.12 1.37.37.58.78 1.15 1.56 1.75 2.33.23.32.5.6.75.9.11-.02.17-.05.22-.07z"/><path fill="#4D4D5D" d="M156.56 46.4c0-.81 0-1.65 0-2.46 0-.25-.04-.64.32-.62 1.28.05 2.58-.25 3.87.25 1.17.46 1.68 2.5.72 3.35-.73.66-.47 1.08-.01 1.67.21.26.64.53.37.96-.18.26-1.3.01-1.51-.32-.16-.23-.3-.5-.41-.75-.36-.76-1.05-.58-1.64-.51-.6.07-.33.62-.33.94 0 .51-.1.74-.68.72-.56-.01-.72-.23-.7-.74.01-.83 0-1.67 0-2.49zm2.4.2c.15 0 .28 0 .39 0 .66.02 1.19-.14 1.24-.92.07-.75-.3-1.07-1.03-1.12-.36-.02-.7-.07-1.06-.09-.22-.02-.5.04-.52.23-.05.59-.13 1.19.02 1.74.1.34.66.09.95.16z"/><path fill="url(#paint19_linear)" fill-opacity=".4" d="M156.56 46.4c0-.81 0-1.65 0-2.46 0-.25-.04-.64.32-.62 1.28.05 2.58-.25 3.87.25 1.17.46 1.68 2.5.72 3.35-.73.66-.47 1.08-.01 1.67.21.26.64.53.37.96-.18.26-1.3.01-1.51-.32-.16-.23-.3-.5-.41-.75-.36-.76-1.05-.58-1.64-.51-.6.07-.33.62-.33.94 0 .51-.1.74-.68.72-.56-.01-.72-.23-.7-.74.01-.83 0-1.67 0-2.49zm2.4.2c.15 0 .28 0 .39 0 .66.02 1.19-.14 1.24-.92.07-.75-.3-1.07-1.03-1.12-.36-.02-.7-.07-1.06-.09-.22-.02-.5.04-.52.23-.05.59-.13 1.19.02 1.74.1.34.66.09.95.16z"/><path fill="#4D4D5D" d="M78.18 46.48c0-.82.02-1.65 0-2.47-.02-.5.11-.78.7-.73 1.37.1 2.76-.25 4.06.66 1.58 1.12 1.69 3.85-.04 5.06-1.42.99-2.92.48-4.4.58-.37.04-.28-.37-.28-.62-.04-.85-.04-1.67-.04-2.48zm1.42-.06c0 .3 0 .59 0 .89 0 1.31.24 1.47 1.52 1.06.1-.03.21-.07.34-.1a1.8 1.8 0 001.31-2c-.21-1.28-1.15-1.96-2.6-1.73-1.1.16-.33 1.1-.57 1.63-.01.06 0 .16 0 .25z"/><path fill="url(#paint20_linear)" fill-opacity=".4" d="M78.18 46.48c0-.82.02-1.65 0-2.47-.02-.5.11-.78.7-.73 1.37.1 2.76-.25 4.06.66 1.58 1.12 1.69 3.85-.04 5.06-1.42.99-2.92.48-4.4.58-.37.04-.28-.37-.28-.62-.04-.85-.04-1.67-.04-2.48zm1.42-.06c0 .3 0 .59 0 .89 0 1.31.24 1.47 1.52 1.06.1-.03.21-.07.34-.1a1.8 1.8 0 001.31-2c-.21-1.28-1.15-1.96-2.6-1.73-1.1.16-.33 1.1-.57 1.63-.01.06 0 .16 0 .25z"/><path fill="#4D4D5D" d="M129.3 46.4c0-.83 0-1.65 0-2.48 0-.25-.1-.64.28-.62 1.26.03 2.52-.23 3.78.23 1.39.51 1.71 2.52.78 3.35-.74.64-.5 1.09-.04 1.67.22.29.77.68.34.96-.38.25-1.04.25-1.42-.3-.15-.21-.34-.43-.42-.66-.28-.81-.97-.67-1.58-.62-.67.05-.38.64-.4.98-.01.46-.09.69-.64.69-.56 0-.74-.2-.7-.73.03-.8.01-1.63.01-2.47zm2.26.18c.38 0 .65.06.9-.02.41-.08.78-.28.8-.78.01-.4.08-.9-.4-1.06-.53-.16-1.07-.4-1.64-.36-.18.02-.38-.01-.47.18-.3.59-.22 1.23-.1 1.81.12.5.68.14.91.23z"/><path fill="url(#paint21_linear)" fill-opacity=".4" d="M129.3 46.4c0-.83 0-1.65 0-2.48 0-.25-.1-.64.28-.62 1.26.03 2.52-.23 3.78.23 1.39.51 1.71 2.52.78 3.35-.74.64-.5 1.09-.04 1.67.22.29.77.68.34.96-.38.25-1.04.25-1.42-.3-.15-.21-.34-.43-.42-.66-.28-.81-.97-.67-1.58-.62-.67.05-.38.64-.4.98-.01.46-.09.69-.64.69-.56 0-.74-.2-.7-.73.03-.8.01-1.63.01-2.47zm2.26.18c.38 0 .65.06.9-.02.41-.08.78-.28.8-.78.01-.4.08-.9-.4-1.06-.53-.16-1.07-.4-1.64-.36-.18.02-.38-.01-.47.18-.3.59-.22 1.23-.1 1.81.12.5.68.14.91.23z"/><path fill="#4D4D5D" d="M124.47 49.6c-.6 0-1.21-.02-1.8 0-.46.02-.64-.18-.64-.64.02-1.65.02-3.3 0-4.95 0-.52.17-.76.72-.75 1.2.02 2.4.02 3.59 0 .4 0 .61.1.6.55-.03.43-.06.77-.62.77-.72 0-1.44.01-2.16 0-.5-.02-.58.26-.58.67 0 .43.11.68.61.66.64-.02 1.27 0 1.9 0 .37 0 .5.16.5.53s-.13.55-.5.53c-.64-.02-1.27.02-1.9 0-.55-.03-.64.29-.64.71 0 .43 0 .85.63.84.75-.02 1.5.01 2.25 0 .45-.02.54.2.54.58 0 .4-.16.52-.54.5-.65-.02-1.32 0-1.97 0z"/><path fill="url(#paint22_linear)" fill-opacity=".4" d="M124.47 49.6c-.6 0-1.21-.02-1.8 0-.46.02-.64-.18-.64-.64.02-1.65.02-3.3 0-4.95 0-.52.17-.76.72-.75 1.2.02 2.4.02 3.59 0 .4 0 .61.1.6.55-.03.43-.06.77-.62.77-.72 0-1.44.01-2.16 0-.5-.02-.58.26-.58.67 0 .43.11.68.61.66.64-.02 1.27 0 1.9 0 .37 0 .5.16.5.53s-.13.55-.5.53c-.64-.02-1.27.02-1.9 0-.55-.03-.64.29-.64.71 0 .43 0 .85.63.84.75-.02 1.5.01 2.25 0 .45-.02.54.2.54.58 0 .4-.16.52-.54.5-.65-.02-1.32 0-1.97 0z"/><path fill="#4D4D5D" d="M143.34 49.6c-.61-.05-1.59.32-2.06-.13-.52-.47-.16-1.45-.18-2.2-.03-1.06.02-2.1-.01-3.17-.02-.6.16-.85.8-.82 1.1.04 2.22.02 3.32.02.41 0 .8 0 .76.59-.04.51-.25.74-.78.72-.68-.02-1.37.02-2.07 0-.54-.02-.54.29-.56.68 0 .4.08.69.58.64.36-.04.74-.08 1.08.01.49.13 1.39-.48 1.37.55-.02.93-.85.4-1.31.5-.38.09-.78.04-1.18.02-.64-.04-.52.42-.52.78 0 .37-.07.8.56.76.68-.03 1.37-.02 2.07 0 .38 0 .8-.1.81.52.02.69-.45.55-.84.56-.58-.03-1.16-.03-1.84-.03z"/><path fill="url(#paint23_linear)" fill-opacity=".4" d="M143.34 49.6c-.61-.05-1.59.32-2.06-.13-.52-.47-.16-1.45-.18-2.2-.03-1.06.02-2.1-.01-3.17-.02-.6.16-.85.8-.82 1.1.04 2.22.02 3.32.02.41 0 .8 0 .76.59-.04.51-.25.74-.78.72-.68-.02-1.37.02-2.07 0-.54-.02-.54.29-.56.68 0 .4.08.69.58.64.36-.04.74-.08 1.08.01.49.13 1.39-.48 1.37.55-.02.93-.85.4-1.31.5-.38.09-.78.04-1.18.02-.64-.04-.52.42-.52.78 0 .37-.07.8.56.76.68-.03 1.37-.02 2.07 0 .38 0 .8-.1.81.52.02.69-.45.55-.84.56-.58-.03-1.16-.03-1.84-.03z"/><path fill="#4D4D5D" d="M103.2 49.58c-.47.1-.74-.16-.83-.57-.15-.64-.56-.76-1.12-.7-.4.03-.77.03-1.17 0-.6-.04-1.04.06-1.22.74-.18.7-.8.58-1.32.53-.38-.03-.27-.34-.18-.53.78-1.76 1.55-3.5 2.32-5.24.22-.48.62-.55 1.1-.53.45.02.65.2.83.62.67 1.67 1.39 3.3 2.16 4.94.36.69.1.8-.57.74zm-2.67-2.38c.33-.2.81.25 1-.3.06-.25-.82-1.74-.93-1.67-.54.41-.7 1.07-.84 1.64-.15.56.54.12.77.33z"/><path fill="url(#paint24_linear)" fill-opacity=".4" d="M103.2 49.58c-.47.1-.74-.16-.83-.57-.15-.64-.56-.76-1.12-.7-.4.03-.77.03-1.17 0-.6-.04-1.04.06-1.22.74-.18.7-.8.58-1.32.53-.38-.03-.27-.34-.18-.53.78-1.76 1.55-3.5 2.32-5.24.22-.48.62-.55 1.1-.53.45.02.65.2.83.62.67 1.67 1.39 3.3 2.16 4.94.36.69.1.8-.57.74zm-2.67-2.38c.33-.2.81.25 1-.3.06-.25-.82-1.74-.93-1.67-.54.41-.7 1.07-.84 1.64-.15.56.54.12.77.33z"/><path fill="#4D4D5D" d="M154.54 49.51c-.7.04-1.46.46-1.76-.64-.11-.4-.46-.64-.96-.57-.41.06-.85.06-1.26 0-.72-.1-1.08.25-1.3.87-.25.78-.93.46-1.33.36-.38-.1-.04-.55.07-.8.7-1.62 1.48-3.21 2.15-4.84.2-.48.45-.64.91-.6.42 0 .72-.04.96.5.74 1.67 1.55 3.3 2.07 5.06.1.27.43.3.45.66zm-3.42-4.65c-.3.7-.54 1.2-.76 1.74-.07.2-.13.46.11.53.41.14.88.16 1.3 0 .28-.1.16-.39.07-.6-.22-.5-.43-1-.72-1.67z"/><path fill="url(#paint25_linear)" fill-opacity=".4" d="M154.54 49.51c-.7.04-1.46.46-1.76-.64-.11-.4-.46-.64-.96-.57-.41.06-.85.06-1.26 0-.72-.1-1.08.25-1.3.87-.25.78-.93.46-1.33.36-.38-.1-.04-.55.07-.8.7-1.62 1.48-3.21 2.15-4.84.2-.48.45-.64.91-.6.42 0 .72-.04.96.5.74 1.67 1.55 3.3 2.07 5.06.1.27.43.3.45.66zm-3.42-4.65c-.3.7-.54 1.2-.76 1.74-.07.2-.13.46.11.53.41.14.88.16 1.3 0 .28-.1.16-.39.07-.6-.22-.5-.43-1-.72-1.67z"/><path fill="#4D4D5D" d="M117.22 49.6c-1.4.09-2.3-.68-2.95-1.8-.66-1.18-.4-2.37.43-3.35 1.12-1.33 3.3-1.68 4.7-.5.3.25.5.45.18.84-.28.37-.52.44-.93.18-1.46-.89-3-.23-3.3 1.35-.12.69.72 1.82 1.48 1.9.65.07 1.3.15 1.89-.3.4-.3.72-.06.97.3.3.42-.1.51-.32.7-.6.59-1.32.75-2.15.68z"/><path fill="url(#paint26_linear)" fill-opacity=".4" d="M117.22 49.6c-1.4.09-2.3-.68-2.95-1.8-.66-1.18-.4-2.37.43-3.35 1.12-1.33 3.3-1.68 4.7-.5.3.25.5.45.18.84-.28.37-.52.44-.93.18-1.46-.89-3-.23-3.3 1.35-.12.69.72 1.82 1.48 1.9.65.07 1.3.15 1.89-.3.4-.3.72-.06.97.3.3.42-.1.51-.32.7-.6.59-1.32.75-2.15.68z"/><path fill="#4D4D5D" d="M93.36 49.62c-2.03-.06-3.58-1.6-3.38-3.41.14-1.38 1-2.36 2.32-2.79a3.23 3.23 0 013.19.55c.36.3.34.59.09.9-.24.3-.45.38-.87.13-1.49-.85-2.8-.4-3.22 1.09-.23.83.47 2.04 1.33 2.14.67.07 1.35.18 1.97-.32.34-.26.6-.05.82.22.27.32.15.53-.14.8-.67.53-1.39.76-2.1.69z"/><path fill="url(#paint27_linear)" fill-opacity=".4" d="M93.36 49.62c-2.03-.06-3.58-1.6-3.38-3.41.14-1.38 1-2.36 2.32-2.79a3.23 3.23 0 013.19.55c.36.3.34.59.09.9-.24.3-.45.38-.87.13-1.49-.85-2.8-.4-3.22 1.09-.23.83.47 2.04 1.33 2.14.67.07 1.35.18 1.97-.32.34-.26.6-.05.82.22.27.32.15.53-.14.8-.67.53-1.39.76-2.1.69z"/><path fill="#4D4D5D" d="M61.29 43.26c.5 0 1.03 0 1.53 0 .4 0 .81-.03.78.57-.02.53-.37.71-.82.73-.59.03-1.2.03-1.8 0-.54-.04-.63.23-.64.7 0 .47.1.72.64.67.47-.04.96 0 1.44-.02.5-.02.87.03.85.69-.02.67-.41.67-.9.66-.05 0-.13 0-.18 0-1.76 0-1.78 0-1.84 1.68-.01.5-.16.66-.66.66s-.76-.1-.74-.68c.03-1.68.02-3.35 0-5.04 0-.46.14-.63.61-.62.6.02 1.15 0 1.73 0z"/><path fill="url(#paint28_linear)" fill-opacity=".4" d="M61.29 43.26c.5 0 1.03 0 1.53 0 .4 0 .81-.03.78.57-.02.53-.37.71-.82.73-.59.03-1.2.03-1.8 0-.54-.04-.63.23-.64.7 0 .47.1.72.64.67.47-.04.96 0 1.44-.02.5-.02.87.03.85.69-.02.67-.41.67-.9.66-.05 0-.13 0-.18 0-1.76 0-1.78 0-1.84 1.68-.01.5-.16.66-.66.66s-.76-.1-.74-.68c.03-1.68.02-3.35 0-5.04 0-.46.14-.63.61-.62.6.02 1.15 0 1.73 0z"/><path fill="#4D4D5D" d="M164.34 46.42c0-.8.01-1.6 0-2.38-.02-.56.23-.78.8-.78.58 0 .8.22.78.78-.03 1.18.02 2.36-.02 3.54-.02.53.16.76.72.7.42-.03.85 0 1.26 0 .56-.01.7.3.72.79.02.55-.34.51-.72.51-.93 0-1.85-.02-2.79 0-.61.02-.79-.25-.77-.8.03-.76.02-1.56.02-2.36z"/><path fill="url(#paint29_linear)" fill-opacity=".4" d="M164.34 46.42c0-.8.01-1.6 0-2.38-.02-.56.23-.78.8-.78.58 0 .8.22.78.78-.03 1.18.02 2.36-.02 3.54-.02.53.16.76.72.7.42-.03.85 0 1.26 0 .56-.01.7.3.72.79.02.55-.34.51-.72.51-.93 0-1.85-.02-2.79 0-.61.02-.79-.25-.77-.8.03-.76.02-1.56.02-2.36z"/><path fill="#4D4D5D" d="M172.9 49.6c-.32-.02-.77.09-.7-.43.28-1.95-1.15-3.26-1.85-4.86-.14-.3-.65-.58-.23-.98.32-.3 1.2 0 1.42.5.27.62.76 1.1 1.03 1.7.23.5.43.3.6.04.39-.6.75-1.22 1.09-1.88.32-.64.85-.44 1.33-.36.36.08.11.32.04.47-.56 1.04-1.08 2.1-1.71 3.12-.42.66-.3 1.35-.33 2.04-.05.62-.05.62-.7.64z"/><path fill="url(#paint30_linear)" fill-opacity=".4" d="M172.9 49.6c-.32-.02-.77.09-.7-.43.28-1.95-1.15-3.26-1.85-4.86-.14-.3-.65-.58-.23-.98.32-.3 1.2 0 1.42.5.27.62.76 1.1 1.03 1.7.23.5.43.3.6.04.39-.6.75-1.22 1.09-1.88.32-.64.85-.44 1.33-.36.36.08.11.32.04.47-.56 1.04-1.08 2.1-1.71 3.12-.42.66-.3 1.35-.33 2.04-.05.62-.05.62-.7.64z"/><path fill="#4D4D5D" d="M67.02 46.42c0 .85-.02 1.7.01 2.56.02.53-.2.65-.68.64-.43-.02-.74-.02-.72-.6.04-1.71.04-3.41 0-5.1-.02-.53.22-.64.68-.64.45 0 .74.05.72.6-.03.84-.01 1.7-.01 2.54z"/><path fill="url(#paint31_linear)" fill-opacity=".4" d="M67.02 46.42c0 .85-.02 1.7.01 2.56.02.53-.2.65-.68.64-.43-.02-.74-.02-.72-.6.04-1.71.04-3.41 0-5.1-.02-.53.22-.64.68-.64.45 0 .74.05.72.6-.03.84-.01 1.7-.01 2.54z"/><defs><linearGradient id="paint16_linear" x1="90.599" x2="90.599" y1="25.546" y2="39.737" gradientUnits="userSpaceOnUse"><stop stop-color="#fff"/><stop offset="1" stop-color="#fff" stop-opacity="0"/></linearGradient><linearGradient id="paint0_linear" x1="27.349" x2="27.349" y1="0" y2="54.018" gradientUnits="userSpaceOnUse"><stop stop-color="#fff"/><stop offset="1" stop-color="#fff" stop-opacity="0"/></linearGradient><linearGradient id="paint2_linear" x1="92.755" x2="92.755" y1="6.167" y2="20.519" gradientUnits="userSpaceOnUse"><stop stop-color="#fff"/><stop offset="1" stop-color="#fff" stop-opacity="0"/></linearGradient><linearGradient id="paint3_linear" x1="140.02" x2="140.02" y1="6.14" y2="20.378" gradientUnits="userSpaceOnUse"><stop stop-color="#fff"/><stop offset="1" stop-color="#fff" stop-opacity="0"/></linearGradient><linearGradient id="paint4_linear" x1="124.059" x2="124.059" y1="5.871" y2="20.711" gradientUnits="userSpaceOnUse"><stop stop-color="#fff"/><stop offset="1" stop-color="#fff" stop-opacity="0"/></linearGradient><linearGradient id="paint5_linear" x1="64.812" x2="64.812" y1="25.162" y2="40.086" gradientUnits="userSpaceOnUse"><stop stop-color="#fff"/><stop offset="1" stop-color="#fff" stop-opacity="0"/></linearGradient><linearGradient id="paint6_linear" x1="101.116" x2="101.116" y1="25.536" y2="39.697" gradientUnits="userSpaceOnUse"><stop stop-color="#fff"/><stop offset="1" stop-color="#fff" stop-opacity="0"/></linearGradient><linearGradient id="paint7_linear" x1="108.299" x2="108.299" y1="5.879" y2="20.765" gradientUnits="userSpaceOnUse"><stop stop-color="#fff"/><stop offset="1" stop-color="#fff" stop-opacity="0"/></linearGradient><linearGradient id="paint8_linear" x1="79.358" x2="79.358" y1="25.184" y2="40.066" gradientUnits="userSpaceOnUse"><stop stop-color="#fff"/><stop offset="1" stop-color="#fff" stop-opacity="0"/></linearGradient><linearGradient id="paint9_linear" x1="169.288" x2="169.288" y1="25.195" y2="40.07" gradientUnits="userSpaceOnUse"><stop stop-color="#fff"/><stop offset="1" stop-color="#fff" stop-opacity="0"/></linearGradient><linearGradient id="paint10_linear" x1="77.798" x2="77.798" y1="6.116" y2="20.405" gradientUnits="userSpaceOnUse"><stop stop-color="#fff"/><stop offset="1" stop-color="#fff" stop-opacity="0"/></linearGradient><linearGradient id="paint11_linear" x1="149.332" x2="149.332" y1="25.554" y2="39.683" gradientUnits="userSpaceOnUse"><stop stop-color="#fff"/><stop offset="1" stop-color="#fff" stop-opacity="0"/></linearGradient><linearGradient id="paint12_linear" x1="64.766" x2="64.766" y1="6.145" y2="20.409" gradientUnits="userSpaceOnUse"><stop stop-color="#fff"/><stop offset="1" stop-color="#fff" stop-opacity="0"/></linearGradient><linearGradient id="paint13_linear" x1="129.373" x2="129.373" y1="25.572" y2="39.733" gradientUnits="userSpaceOnUse"><stop stop-color="#fff"/><stop offset="1" stop-color="#fff" stop-opacity="0"/></linearGradient><linearGradient id="paint14_linear" x1="139.267" x2="139.267" y1="25.532" y2="39.683" gradientUnits="userSpaceOnUse"><stop stop-color="#fff"/><stop offset="1" stop-color="#fff" stop-opacity="0"/></linearGradient><linearGradient id="paint15_linear" x1="158.558" x2="158.558" y1="25.468" y2="39.795" gradientUnits="userSpaceOnUse"><stop stop-color="#fff"/><stop offset="1" stop-color="#fff" stop-opacity="0"/></linearGradient><linearGradient id="paint1_linear" x1="115.37" x2="115.37" y1="25.487" y2="39.741" gradientUnits="userSpaceOnUse"><stop stop-color="#fff"/><stop offset="1" stop-color="#fff" stop-opacity="0"/></linearGradient><linearGradient id="paint17_linear" x1="108.818" x2="108.818" y1="43.215" y2="49.617" gradientUnits="userSpaceOnUse"><stop stop-color="#fff"/><stop offset="1" stop-color="#fff" stop-opacity="0"/></linearGradient><linearGradient id="paint18_linear" x1="72.443" x2="72.443" y1="43.23" y2="49.615" gradientUnits="userSpaceOnUse"><stop stop-color="#fff"/><stop offset="1" stop-color="#fff" stop-opacity="0"/></linearGradient><linearGradient id="paint19_linear" x1="159.264" x2="159.264" y1="43.274" y2="49.658" gradientUnits="userSpaceOnUse"><stop stop-color="#fff"/><stop offset="1" stop-color="#fff" stop-opacity="0"/></linearGradient><linearGradient id="paint20_linear" x1="81.171" x2="81.171" y1="43.275" y2="49.622" gradientUnits="userSpaceOnUse"><stop stop-color="#fff"/><stop offset="1" stop-color="#fff" stop-opacity="0"/></linearGradient><linearGradient id="paint21_linear" x1="131.968" x2="131.968" y1="43.255" y2="49.67" gradientUnits="userSpaceOnUse"><stop stop-color="#fff"/><stop offset="1" stop-color="#fff" stop-opacity="0"/></linearGradient><linearGradient id="paint22_linear" x1="124.501" x2="124.501" y1="43.263" y2="49.601" gradientUnits="userSpaceOnUse"><stop stop-color="#fff"/><stop offset="1" stop-color="#fff" stop-opacity="0"/></linearGradient><linearGradient id="paint23_linear" x1="143.511" x2="143.511" y1="43.278" y2="49.695" gradientUnits="userSpaceOnUse"><stop stop-color="#fff"/><stop offset="1" stop-color="#fff" stop-opacity="0"/></linearGradient><linearGradient id="paint24_linear" x1="100.604" x2="100.604" y1="43.279" y2="49.625" gradientUnits="userSpaceOnUse"><stop stop-color="#fff"/><stop offset="1" stop-color="#fff" stop-opacity="0"/></linearGradient><linearGradient id="paint25_linear" x1="151.148" x2="151.148" y1="43.277" y2="49.684" gradientUnits="userSpaceOnUse"><stop stop-color="#fff"/><stop offset="1" stop-color="#fff" stop-opacity="0"/></linearGradient><linearGradient id="paint26_linear" x1="116.845" x2="116.845" y1="43.233" y2="49.615" gradientUnits="userSpaceOnUse"><stop stop-color="#fff"/><stop offset="1" stop-color="#fff" stop-opacity="0"/></linearGradient><linearGradient id="paint27_linear" x1="92.863" x2="92.863" y1="43.23" y2="49.63" gradientUnits="userSpaceOnUse"><stop stop-color="#fff"/><stop offset="1" stop-color="#fff" stop-opacity="0"/></linearGradient><linearGradient id="paint28_linear" x1="61.273" x2="61.273" y1="43.263" y2="49.599" gradientUnits="userSpaceOnUse"><stop stop-color="#fff"/><stop offset="1" stop-color="#fff" stop-opacity="0"/></linearGradient><linearGradient id="paint29_linear" x1="166.461" x2="166.461" y1="43.264" y2="49.582" gradientUnits="userSpaceOnUse"><stop stop-color="#fff"/><stop offset="1" stop-color="#fff" stop-opacity="0"/></linearGradient><linearGradient id="paint30_linear" x1="172.869" x2="172.869" y1="43.214" y2="49.599" gradientUnits="userSpaceOnUse"><stop stop-color="#fff"/><stop offset="1" stop-color="#fff" stop-opacity="0"/></linearGradient><linearGradient id="paint31_linear" x1="66.332" x2="66.332" y1="43.282" y2="49.619" gradientUnits="userSpaceOnUse"><stop stop-color="#fff"/><stop offset="1" stop-color="#fff" stop-opacity="0"/></linearGradient></defs></svg>