<svg xmlns="http://www.w3.org/2000/svg" width="64" height="64" fill="none"><path fill="url(#paint0_linear)" d="M15.48 42.32h-1.03v-2.06H12.4v2.06h-3.1v14.45h3.1v2.07h2.06v-2.07h1.03a4.13 4.13 0 002.73-7.22 4.12 4.12 0 00-2.73-7.23zm0 12.39h-4.13v-4.13h4.13a2.07 2.07 0 010 4.13zm0-6.2h-4.13V44.4h4.13a2.07 2.07 0 010 4.13zM5.05 57.6a12.37 12.37 0 013.57-18.99l1.01-.48a12.37 12.37 0 0112.87 2.02l1.35-1.57c-.37-.31-.75-.6-1.14-.87v-8.8h-8.26v6.22c-1.92-.01-3.85.35-5.67 1.12l-1.08.52a14.43 14.43 0 00-4.22 22.18l1.57-1.35zm15.6-26.63v5.55c-1.31-.62-2.7-1.03-4.13-1.24v-4.31h4.13zm35.1 21.68h-2.07V18.58h-8.26v34.07h-2.07V22.7H35.1v29.94h-2.07V12.39h-8.26v24.77h2.07v-22.7h4.13v38.19h-2.4a14.45 14.45 0 00-3.14-12.5l-1.58 1.35A12.37 12.37 0 016.4 58.95l-1.35 1.57a14.45 14.45 0 009.4 3.48c6.15 0 11.4-3.87 13.48-9.29H64V11.35h-8.26v41.3zm-8.27-32h4.13v32h-4.13v-32zm-10.32 4.12h4.13v27.88h-4.13V24.77zm20.65-11.35h4.13v39.23H57.8V13.42zm-42.33 1.03a3.1 3.1 0 006.2 0c0-.53-.15-1.02-.38-1.45l6.4-7.05a3.08 3.08 0 002.05.11l6.94 9.72a3.1 3.1 0 105.63 1.77c0-.18-.02-.35-.05-.51l4.2-2.34a3.07 3.07 0 005.06-3l6.44-4.1a3.1 3.1 0 10-1.12-1.74l-6.44 4.1a3.07 3.07 0 00-1.9-.67 3.1 3.1 0 00-3.04 3.6l-4.2 2.35a3.07 3.07 0 00-2.04-.79c-.3 0-.58.06-.85.13l-6.94-9.71A3.1 3.1 0 1025.8 3.1c0 .53.14 1.02.38 1.45l-6.41 7.05a3.1 3.1 0 00-4.3 2.85zm44.4-10.32a1.03 1.03 0 11-.01 2.07 1.03 1.03 0 010-2.07zm-11.36 7.22a1.03 1.03 0 110 2.07 1.03 1.03 0 010-2.07zm-8.26 6.2a1.03 1.03 0 11-2.07 0 1.03 1.03 0 012.07 0zM28.9 2.06a1.03 1.03 0 110 2.07 1.03 1.03 0 010-2.07zM18.58 13.42a1.03 1.03 0 110 2.07 1.03 1.03 0 010-2.07zM2.06 2.06H0V0h2.06v2.06zm0 4.13H0V4.13h2.06v2.06zm0 4.13H0V8.26h2.06v2.06zm0 4.13H0V12.4h2.06v2.06zm0 4.13H0v-2.06h2.06v2.06zM6.2 2.06H4.13V0h2.06v2.06zm0 4.13H4.13V4.13h2.06v2.06zm0 4.13H4.13V8.26h2.06v2.06zm4.13-8.26H8.26V0h2.06v2.06zm4.13 0H12.4V0h2.06v2.06zm4.13 0h-2.06V0h2.06v2.06zM10.32 6.2H8.26V4.13h2.06v2.06zm2.07-2.06h2.06v2.06H12.4V4.13zM8.26 8.26h2.06v2.06H8.26V8.26zm-2.07 6.2H4.13v-2.07h2.06v2.06zm-2.06 2.06h2.06v2.06H4.13v-2.06zM2.06 22.7H0v-2.06h2.06v2.06zm0 4.13H0v-2.07h2.06v2.07z"/><defs><linearGradient id="paint0_linear" x1="32" x2="32" y1="64" y2="0" gradientUnits="userSpaceOnUse"><stop stop-color="#7F85A8"/><stop offset="1" stop-color="#6B6B8B"/></linearGradient></defs></svg>