<svg width="126" height="71" viewBox="0 0 126 71" fill="none" xmlns="http://www.w3.org/2000/svg">
<path d="M55.551 58.8557V31.8331L61.0726 31.1429L61.9511 35.3887C63.7707 32.4606 66.3851 31.0383 69.8571 31.0383C70.5891 31.0383 71.1747 31.0802 71.6349 31.122L71.5512 36.6436C70.861 36.56 70.1708 36.4972 69.4388 36.4972C67.0126 36.4972 65.193 37.1456 64.0008 38.4214C62.8086 39.6973 62.223 41.5378 62.223 43.8176V58.8138H55.551V58.8557Z" fill="#4D4D5D"/>
<path d="M55.551 58.8557V31.8331L61.0726 31.1429L61.9511 35.3887C63.7707 32.4606 66.3851 31.0383 69.8571 31.0383C70.5891 31.0383 71.1747 31.0802 71.6349 31.122L71.5512 36.6436C70.861 36.56 70.1708 36.4972 69.4388 36.4972C67.0126 36.4972 65.193 37.1456 64.0008 38.4214C62.8086 39.6973 62.223 41.5378 62.223 43.8176V58.8138H55.551V58.8557Z" fill="url(#paint0_linear)" fill-opacity="0.4"/>
<path d="M84.2677 59.3577C80.1892 59.3577 76.9055 58.6675 74.4793 57.2453L75.1695 52.2674C76.2571 52.8531 77.6794 53.4178 79.4153 53.9198C81.1095 54.3799 82.699 54.6518 84.1213 54.6518C85.5854 54.6518 86.7357 54.3799 87.5514 53.8361C88.3671 53.2923 88.7854 52.5184 88.7854 51.4099C88.7854 50.4478 88.4298 49.7158 87.6351 49.1302C86.8612 48.5445 85.3971 47.8961 83.2428 47.0805C82.5108 46.8085 82.0088 46.6203 81.8206 46.5367C79.2689 45.5327 77.4284 44.4242 76.299 43.253C75.1486 42.019 74.6048 40.3666 74.6048 38.3169C74.6048 35.8071 75.5251 33.8829 77.3447 32.5025C79.1644 31.1848 81.6951 30.4946 84.9788 30.4946C88.4926 30.4946 91.609 31.1848 94.2652 32.5025L92.6129 37.0829C89.9567 35.8489 87.4468 35.2633 85.0625 35.2633C83.7448 35.2633 82.6781 35.4934 81.9461 35.9535C81.2141 36.4137 80.7958 37.1039 80.7958 37.9614C80.7958 38.8398 81.1513 39.4673 81.8834 39.9693C82.6154 40.4294 84.0376 41.0568 86.1292 41.8516C86.171 41.8516 86.4011 41.9353 86.7775 42.0817C87.1331 42.2281 87.4259 42.3118 87.656 42.3954C90.1658 43.3157 92.0482 44.4033 93.2404 45.6791C94.4325 46.955 95.0182 48.6491 95.0182 50.6988C95.0182 53.4805 94.0561 55.593 92.1737 57.1407C90.354 58.5839 87.6978 59.3577 84.2677 59.3577Z" fill="#4D4D5D"/>
<path d="M84.2677 59.3577C80.1892 59.3577 76.9055 58.6675 74.4793 57.2453L75.1695 52.2674C76.2571 52.8531 77.6794 53.4178 79.4153 53.9198C81.1095 54.3799 82.699 54.6518 84.1213 54.6518C85.5854 54.6518 86.7357 54.3799 87.5514 53.8361C88.3671 53.2923 88.7854 52.5184 88.7854 51.4099C88.7854 50.4478 88.4298 49.7158 87.6351 49.1302C86.8612 48.5445 85.3971 47.8961 83.2428 47.0805C82.5108 46.8085 82.0088 46.6203 81.8206 46.5367C79.2689 45.5327 77.4284 44.4242 76.299 43.253C75.1486 42.019 74.6048 40.3666 74.6048 38.3169C74.6048 35.8071 75.5251 33.8829 77.3447 32.5025C79.1644 31.1848 81.6951 30.4946 84.9788 30.4946C88.4926 30.4946 91.609 31.1848 94.2652 32.5025L92.6129 37.0829C89.9567 35.8489 87.4468 35.2633 85.0625 35.2633C83.7448 35.2633 82.6781 35.4934 81.9461 35.9535C81.2141 36.4137 80.7958 37.1039 80.7958 37.9614C80.7958 38.8398 81.1513 39.4673 81.8834 39.9693C82.6154 40.4294 84.0376 41.0568 86.1292 41.8516C86.171 41.8516 86.4011 41.9353 86.7775 42.0817C87.1331 42.2281 87.4259 42.3118 87.656 42.3954C90.1658 43.3157 92.0482 44.4033 93.2404 45.6791C94.4325 46.955 95.0182 48.6491 95.0182 50.6988C95.0182 53.4805 94.0561 55.593 92.1737 57.1407C90.354 58.5839 87.6978 59.3577 84.2677 59.3577Z" fill="url(#paint1_linear)" fill-opacity="0.4"/>
<path d="M113.445 43.0855L124.739 31.1429H116.875L105.58 42.7509V22.0865L98.9921 23.3206V58.8556H105.58V51.347L109.241 47.4568L117.46 58.8556H125.471L113.445 43.0855Z" fill="#4D4D5D"/>
<path d="M113.445 43.0855L124.739 31.1429H116.875L105.58 42.7509V22.0865L98.9921 23.3206V58.8556H105.58V51.347L109.241 47.4568L117.46 58.8556H125.471L113.445 43.0855Z" fill="url(#paint2_linear)" fill-opacity="0.4"/>
<path d="M49.2973 31.7494C49.1091 31.6657 44.2777 29.0932 40.1992 31.4357C36.9573 33.3181 36.2671 37.1037 36.1834 38.6515L34.6776 39.5299C33.9455 38.7979 32.8997 38.3377 31.7494 38.3377C30.5991 38.3377 29.5951 38.7979 28.8631 39.5299L21.9611 35.556C22.0447 35.2423 22.1075 34.9076 22.1075 34.5521C22.1075 32.6278 20.8316 31.0383 19.0957 30.5363V28.0683C21.1035 26.7925 27.5036 22.0865 27.5036 14.578C27.5036 5.98177 18.9074 0.585627 18.5519 0.355559L17.9662 0L17.3179 0.355559C16.9623 0.585627 8.40795 5.98177 8.40795 14.6198C8.40795 22.1075 14.808 26.7716 16.8159 28.1101V30.5363C15.0799 31.0383 13.8041 32.6488 13.8041 34.5521C13.8041 34.9076 13.8459 35.2423 13.9505 35.556L7.04845 39.5299C6.31642 38.7979 5.27065 38.3377 4.16214 38.3377C1.88238 38.3377 0 40.2201 0 42.4999C0 44.3822 1.27583 46.0136 3.0118 46.5156V54.7981C1.27583 55.3 0 56.9105 0 58.8138C0 61.0936 1.88238 62.9759 4.16214 62.9759C5.39614 62.9759 6.48374 62.474 7.21578 61.5955L13.9296 65.4858C13.8459 65.7995 13.7832 66.1341 13.7832 66.4897C13.7832 68.7695 15.6656 70.6518 17.9453 70.6518C20.2251 70.6518 22.1075 68.7695 22.1075 66.4897C22.1075 66.1341 22.0656 65.7995 21.9611 65.4858L28.6749 61.5955C29.4487 62.4112 30.5572 62.9759 31.7285 62.9759C34.0083 62.9759 35.8906 61.0936 35.8906 58.8138C35.8906 56.9314 34.6148 55.3 32.8788 54.7981V46.5156C34.6148 46.0136 35.8906 44.4032 35.8906 42.4999C35.8906 42.1861 35.8488 41.8097 35.807 41.5378L37.3129 40.6593C38.1913 41.0776 39.9273 41.7469 41.8933 41.7469C43.0855 41.7469 44.3613 41.475 45.6372 40.7848C49.7156 38.4632 49.9248 32.9625 49.9248 32.7743V32.0631L49.2973 31.7494ZM32.9207 43.9849C32.6069 44.2567 32.1886 44.4032 31.7703 44.4032C31.5403 44.4032 31.3102 44.3613 31.122 44.2567C30.9337 44.2149 30.7664 44.1103 30.62 43.9849C30.2644 43.713 29.9716 43.2528 29.9298 42.7927C29.9298 42.709 29.9298 42.6044 29.9298 42.5208C29.9298 42.4371 29.9298 42.3744 29.9298 42.2907C30.0134 41.6005 30.4736 41.0567 31.0801 40.7848C31.3102 40.7012 31.5403 40.6384 31.7703 40.6384C32.0422 40.6384 32.2723 40.6802 32.5024 40.7848C33.1926 41.0567 33.6527 41.7469 33.6527 42.5208C33.6527 42.6044 33.6527 42.709 33.6109 42.8345C33.5272 43.3156 33.2553 43.713 32.9207 43.9849ZM33.6109 58.7929C33.6109 59.7968 32.7952 60.6752 31.7285 60.6752C31.3729 60.6752 31.0383 60.5916 30.7664 60.4033C30.2226 60.0896 29.8879 59.4831 29.8879 58.7929V58.751C29.8879 58.5628 29.9298 58.3327 29.9716 58.2072C30.118 57.8935 30.2853 57.5589 30.5572 57.3916C30.7873 57.2033 31.0592 57.0778 31.3729 57.036C31.4566 57.036 31.603 56.9942 31.6867 56.9942C32.1468 56.9942 32.5024 57.1406 32.837 57.4125C33.339 57.7053 33.6109 58.2072 33.6109 58.7929ZM30.5991 54.819C30.0553 55.0072 29.5115 55.2791 29.0932 55.6347L22.0029 51.5144C22.0447 51.2425 22.0865 50.9706 22.0865 50.6987C22.0865 50.2804 22.0447 49.9248 21.8983 49.5483L28.8422 45.5326C29.3023 45.9927 29.8879 46.3483 30.5782 46.5365V54.819H30.5991ZM17.9453 68.3512C17.025 68.3512 16.2512 67.6609 16.1257 66.7407C16.1257 66.657 16.1257 66.5524 16.1257 66.4688C16.1257 65.6949 16.6277 65.0047 17.276 64.7328C17.5061 64.6492 17.7362 64.5864 17.9662 64.5864C18.1963 64.5864 18.4682 64.6282 18.6564 64.7328C19.3466 65.0047 19.8068 65.6949 19.8068 66.4688C19.8068 66.5524 19.8068 66.657 19.8068 66.7407C19.6185 67.6819 18.8447 68.3512 17.9453 68.3512ZM13.825 51.5353L6.73472 55.6138C6.27459 55.2582 5.77262 54.9654 5.22882 54.7981V46.5156C5.91903 46.3274 6.46282 45.9718 6.96479 45.5117L13.9087 49.5274C13.825 49.883 13.7204 50.3013 13.7204 50.7196C13.7204 50.9915 13.7832 51.2634 13.825 51.5353ZM5.96086 58.7929C5.96086 59.4831 5.6053 60.0687 5.08242 60.4033C4.81052 60.5916 4.49679 60.6752 4.12031 60.6752C3.11638 60.6752 2.23794 59.8595 2.23794 58.7929C2.23794 58.2072 2.50983 57.6425 2.92814 57.3288C3.24187 57.0569 3.66018 56.9105 4.07848 56.9105C4.16214 56.9105 4.30855 56.9105 4.39221 56.9523C4.70594 56.9942 4.97784 57.1406 5.20791 57.3079C5.47981 57.538 5.70987 57.8099 5.79354 58.1236C5.83537 58.3118 5.8772 58.4791 5.8772 58.7092C5.96086 58.751 5.96086 58.7929 5.96086 58.7929ZM2.21702 42.5208C2.21702 41.5168 3.03272 40.6384 4.0994 40.6384C4.32947 40.6384 4.55953 40.6802 4.7896 40.7848C5.37523 41.0149 5.83537 41.5587 5.93994 42.2489C5.93994 42.3325 5.93994 42.4371 5.93994 42.5208C5.93994 42.6044 5.93994 42.709 5.93994 42.7927C5.89811 43.2946 5.62621 43.713 5.24974 43.9849C5.10333 44.0685 4.97784 44.1731 4.7896 44.2567C4.55953 44.3404 4.32947 44.4032 4.0994 44.4032C3.63926 44.4032 3.2837 44.2567 2.94906 43.9849C2.48892 43.6293 2.21702 43.1273 2.21702 42.5208ZM16.7531 33.0671C17.0669 32.837 17.4852 32.6488 17.9035 32.6488C18.3218 32.6488 18.7192 32.7952 19.0538 33.0671C19.4094 33.339 19.6395 33.7991 19.744 34.2592C19.744 34.3429 19.744 34.4475 19.744 34.5311C19.744 35.1168 19.4721 35.6815 19.012 35.9952C18.8656 36.0789 18.6983 36.1834 18.5519 36.2671C18.3218 36.3508 18.0917 36.4135 17.8617 36.4135C17.6316 36.4135 17.4015 36.3717 17.1715 36.2671C16.9832 36.2253 16.8577 36.1207 16.7113 35.9952C16.293 35.6815 15.9793 35.1168 15.9793 34.5311C15.9793 34.4475 15.9793 34.3429 15.9793 34.2592C16.1466 33.7573 16.3767 33.339 16.7531 33.0671ZM19.7649 50.8032C19.7649 51.347 19.493 51.849 19.0747 52.1836C18.9911 52.2255 18.8865 52.3301 18.8028 52.3719C18.5309 52.5183 18.259 52.602 17.9244 52.602C17.6107 52.602 17.3388 52.5183 17.046 52.3719C16.9623 52.3301 16.8577 52.2882 16.7741 52.1836C16.3558 51.8699 16.0839 51.3679 16.0839 50.7614V50.7196C16.0839 50.5313 16.0839 50.4058 16.1257 50.2176C16.2094 49.7993 16.4394 49.4856 16.7741 49.2555C16.9623 49.1091 17.2342 48.9836 17.4643 48.9418C17.6107 48.8999 17.778 48.8999 17.9244 48.8999C18.1126 48.8999 18.2381 48.8999 18.4264 48.9418C18.6564 48.9836 18.8865 49.13 19.1166 49.2555C19.4303 49.4856 19.6604 49.8411 19.7649 50.2176C19.8068 50.364 19.8486 50.5313 19.8486 50.7196C19.7649 50.7614 19.7649 50.7614 19.7649 50.8032ZM27.7128 41.5168C27.6291 41.8306 27.5664 42.1652 27.5664 42.5208C27.5664 42.8763 27.6082 43.211 27.7128 43.5665L20.6643 47.645C20.2042 47.2267 19.6604 46.913 19.0538 46.7248V38.5469C19.744 38.3586 20.2878 38.0031 20.7898 37.5429L27.7128 41.5168ZM10.6668 14.5989C10.6668 8.47069 16.0629 4.03665 17.9453 2.71899C19.7649 4.03665 25.2238 8.47069 25.2238 14.5989C25.2238 19.7231 21.4382 23.467 19.1375 25.2029V15.561C19.1375 14.9126 18.6355 14.4106 17.9871 14.4106C17.3388 14.4106 16.8368 14.9126 16.8368 15.561V25.2448C14.4525 23.467 10.6668 19.7649 10.6668 14.5989ZM15.0172 37.5429C15.5191 38.0031 16.0629 38.3586 16.7531 38.5469V46.7248C16.1675 46.913 15.6028 47.1849 15.1427 47.6032L8.09422 43.5247C8.17788 43.211 8.24062 42.8763 8.24062 42.5208C8.24062 42.1652 8.19879 41.8306 8.09422 41.5168L15.0172 37.5429ZM8.19879 59.5249C8.24062 59.2948 8.24062 59.0229 8.24062 58.7929C8.24062 58.3327 8.15696 57.9144 8.05239 57.517L14.9126 53.585C15.4146 54.0869 16.0629 54.5052 16.795 54.7353V62.5158C16.1048 62.704 15.5191 63.0596 15.059 63.5197L8.19879 59.5249ZM20.8107 63.5197C20.3087 63.0596 19.7231 62.704 19.0747 62.5158V54.7353C19.8068 54.5471 20.4552 54.1497 20.9571 53.585L27.8173 57.517C27.6709 57.9353 27.6291 58.3327 27.6291 58.7929C27.6291 59.0229 27.6291 59.2948 27.6709 59.5249L20.8107 63.5197ZM44.4868 38.8188C42.9391 39.6972 41.2449 39.5508 39.9064 39.1743L42.1861 37.8567C42.7299 37.5429 42.9182 36.8527 42.6044 36.3089C42.2907 35.7651 41.6005 35.5769 40.994 35.8906L38.7142 37.2083C39.0698 35.9325 39.8018 34.322 41.3286 33.4645C43.5247 32.1886 46.2646 33.0043 47.4986 33.5063C47.3313 34.803 46.6829 37.5429 44.4868 38.8188Z" fill="#4D4D5D"/>
<path d="M49.2973 31.7494C49.1091 31.6657 44.2777 29.0932 40.1992 31.4357C36.9573 33.3181 36.2671 37.1037 36.1834 38.6515L34.6776 39.5299C33.9455 38.7979 32.8997 38.3377 31.7494 38.3377C30.5991 38.3377 29.5951 38.7979 28.8631 39.5299L21.9611 35.556C22.0447 35.2423 22.1075 34.9076 22.1075 34.5521C22.1075 32.6278 20.8316 31.0383 19.0957 30.5363V28.0683C21.1035 26.7925 27.5036 22.0865 27.5036 14.578C27.5036 5.98177 18.9074 0.585627 18.5519 0.355559L17.9662 0L17.3179 0.355559C16.9623 0.585627 8.40795 5.98177 8.40795 14.6198C8.40795 22.1075 14.808 26.7716 16.8159 28.1101V30.5363C15.0799 31.0383 13.8041 32.6488 13.8041 34.5521C13.8041 34.9076 13.8459 35.2423 13.9505 35.556L7.04845 39.5299C6.31642 38.7979 5.27065 38.3377 4.16214 38.3377C1.88238 38.3377 0 40.2201 0 42.4999C0 44.3822 1.27583 46.0136 3.0118 46.5156V54.7981C1.27583 55.3 0 56.9105 0 58.8138C0 61.0936 1.88238 62.9759 4.16214 62.9759C5.39614 62.9759 6.48374 62.474 7.21578 61.5955L13.9296 65.4858C13.8459 65.7995 13.7832 66.1341 13.7832 66.4897C13.7832 68.7695 15.6656 70.6518 17.9453 70.6518C20.2251 70.6518 22.1075 68.7695 22.1075 66.4897C22.1075 66.1341 22.0656 65.7995 21.9611 65.4858L28.6749 61.5955C29.4487 62.4112 30.5572 62.9759 31.7285 62.9759C34.0083 62.9759 35.8906 61.0936 35.8906 58.8138C35.8906 56.9314 34.6148 55.3 32.8788 54.7981V46.5156C34.6148 46.0136 35.8906 44.4032 35.8906 42.4999C35.8906 42.1861 35.8488 41.8097 35.807 41.5378L37.3129 40.6593C38.1913 41.0776 39.9273 41.7469 41.8933 41.7469C43.0855 41.7469 44.3613 41.475 45.6372 40.7848C49.7156 38.4632 49.9248 32.9625 49.9248 32.7743V32.0631L49.2973 31.7494ZM32.9207 43.9849C32.6069 44.2567 32.1886 44.4032 31.7703 44.4032C31.5403 44.4032 31.3102 44.3613 31.122 44.2567C30.9337 44.2149 30.7664 44.1103 30.62 43.9849C30.2644 43.713 29.9716 43.2528 29.9298 42.7927C29.9298 42.709 29.9298 42.6044 29.9298 42.5208C29.9298 42.4371 29.9298 42.3744 29.9298 42.2907C30.0134 41.6005 30.4736 41.0567 31.0801 40.7848C31.3102 40.7012 31.5403 40.6384 31.7703 40.6384C32.0422 40.6384 32.2723 40.6802 32.5024 40.7848C33.1926 41.0567 33.6527 41.7469 33.6527 42.5208C33.6527 42.6044 33.6527 42.709 33.6109 42.8345C33.5272 43.3156 33.2553 43.713 32.9207 43.9849ZM33.6109 58.7929C33.6109 59.7968 32.7952 60.6752 31.7285 60.6752C31.3729 60.6752 31.0383 60.5916 30.7664 60.4033C30.2226 60.0896 29.8879 59.4831 29.8879 58.7929V58.751C29.8879 58.5628 29.9298 58.3327 29.9716 58.2072C30.118 57.8935 30.2853 57.5589 30.5572 57.3916C30.7873 57.2033 31.0592 57.0778 31.3729 57.036C31.4566 57.036 31.603 56.9942 31.6867 56.9942C32.1468 56.9942 32.5024 57.1406 32.837 57.4125C33.339 57.7053 33.6109 58.2072 33.6109 58.7929ZM30.5991 54.819C30.0553 55.0072 29.5115 55.2791 29.0932 55.6347L22.0029 51.5144C22.0447 51.2425 22.0865 50.9706 22.0865 50.6987C22.0865 50.2804 22.0447 49.9248 21.8983 49.5483L28.8422 45.5326C29.3023 45.9927 29.8879 46.3483 30.5782 46.5365V54.819H30.5991ZM17.9453 68.3512C17.025 68.3512 16.2512 67.6609 16.1257 66.7407C16.1257 66.657 16.1257 66.5524 16.1257 66.4688C16.1257 65.6949 16.6277 65.0047 17.276 64.7328C17.5061 64.6492 17.7362 64.5864 17.9662 64.5864C18.1963 64.5864 18.4682 64.6282 18.6564 64.7328C19.3466 65.0047 19.8068 65.6949 19.8068 66.4688C19.8068 66.5524 19.8068 66.657 19.8068 66.7407C19.6185 67.6819 18.8447 68.3512 17.9453 68.3512ZM13.825 51.5353L6.73472 55.6138C6.27459 55.2582 5.77262 54.9654 5.22882 54.7981V46.5156C5.91903 46.3274 6.46282 45.9718 6.96479 45.5117L13.9087 49.5274C13.825 49.883 13.7204 50.3013 13.7204 50.7196C13.7204 50.9915 13.7832 51.2634 13.825 51.5353ZM5.96086 58.7929C5.96086 59.4831 5.6053 60.0687 5.08242 60.4033C4.81052 60.5916 4.49679 60.6752 4.12031 60.6752C3.11638 60.6752 2.23794 59.8595 2.23794 58.7929C2.23794 58.2072 2.50983 57.6425 2.92814 57.3288C3.24187 57.0569 3.66018 56.9105 4.07848 56.9105C4.16214 56.9105 4.30855 56.9105 4.39221 56.9523C4.70594 56.9942 4.97784 57.1406 5.20791 57.3079C5.47981 57.538 5.70987 57.8099 5.79354 58.1236C5.83537 58.3118 5.8772 58.4791 5.8772 58.7092C5.96086 58.751 5.96086 58.7929 5.96086 58.7929ZM2.21702 42.5208C2.21702 41.5168 3.03272 40.6384 4.0994 40.6384C4.32947 40.6384 4.55953 40.6802 4.7896 40.7848C5.37523 41.0149 5.83537 41.5587 5.93994 42.2489C5.93994 42.3325 5.93994 42.4371 5.93994 42.5208C5.93994 42.6044 5.93994 42.709 5.93994 42.7927C5.89811 43.2946 5.62621 43.713 5.24974 43.9849C5.10333 44.0685 4.97784 44.1731 4.7896 44.2567C4.55953 44.3404 4.32947 44.4032 4.0994 44.4032C3.63926 44.4032 3.2837 44.2567 2.94906 43.9849C2.48892 43.6293 2.21702 43.1273 2.21702 42.5208ZM16.7531 33.0671C17.0669 32.837 17.4852 32.6488 17.9035 32.6488C18.3218 32.6488 18.7192 32.7952 19.0538 33.0671C19.4094 33.339 19.6395 33.7991 19.744 34.2592C19.744 34.3429 19.744 34.4475 19.744 34.5311C19.744 35.1168 19.4721 35.6815 19.012 35.9952C18.8656 36.0789 18.6983 36.1834 18.5519 36.2671C18.3218 36.3508 18.0917 36.4135 17.8617 36.4135C17.6316 36.4135 17.4015 36.3717 17.1715 36.2671C16.9832 36.2253 16.8577 36.1207 16.7113 35.9952C16.293 35.6815 15.9793 35.1168 15.9793 34.5311C15.9793 34.4475 15.9793 34.3429 15.9793 34.2592C16.1466 33.7573 16.3767 33.339 16.7531 33.0671ZM19.7649 50.8032C19.7649 51.347 19.493 51.849 19.0747 52.1836C18.9911 52.2255 18.8865 52.3301 18.8028 52.3719C18.5309 52.5183 18.259 52.602 17.9244 52.602C17.6107 52.602 17.3388 52.5183 17.046 52.3719C16.9623 52.3301 16.8577 52.2882 16.7741 52.1836C16.3558 51.8699 16.0839 51.3679 16.0839 50.7614V50.7196C16.0839 50.5313 16.0839 50.4058 16.1257 50.2176C16.2094 49.7993 16.4394 49.4856 16.7741 49.2555C16.9623 49.1091 17.2342 48.9836 17.4643 48.9418C17.6107 48.8999 17.778 48.8999 17.9244 48.8999C18.1126 48.8999 18.2381 48.8999 18.4264 48.9418C18.6564 48.9836 18.8865 49.13 19.1166 49.2555C19.4303 49.4856 19.6604 49.8411 19.7649 50.2176C19.8068 50.364 19.8486 50.5313 19.8486 50.7196C19.7649 50.7614 19.7649 50.7614 19.7649 50.8032ZM27.7128 41.5168C27.6291 41.8306 27.5664 42.1652 27.5664 42.5208C27.5664 42.8763 27.6082 43.211 27.7128 43.5665L20.6643 47.645C20.2042 47.2267 19.6604 46.913 19.0538 46.7248V38.5469C19.744 38.3586 20.2878 38.0031 20.7898 37.5429L27.7128 41.5168ZM10.6668 14.5989C10.6668 8.47069 16.0629 4.03665 17.9453 2.71899C19.7649 4.03665 25.2238 8.47069 25.2238 14.5989C25.2238 19.7231 21.4382 23.467 19.1375 25.2029V15.561C19.1375 14.9126 18.6355 14.4106 17.9871 14.4106C17.3388 14.4106 16.8368 14.9126 16.8368 15.561V25.2448C14.4525 23.467 10.6668 19.7649 10.6668 14.5989ZM15.0172 37.5429C15.5191 38.0031 16.0629 38.3586 16.7531 38.5469V46.7248C16.1675 46.913 15.6028 47.1849 15.1427 47.6032L8.09422 43.5247C8.17788 43.211 8.24062 42.8763 8.24062 42.5208C8.24062 42.1652 8.19879 41.8306 8.09422 41.5168L15.0172 37.5429ZM8.19879 59.5249C8.24062 59.2948 8.24062 59.0229 8.24062 58.7929C8.24062 58.3327 8.15696 57.9144 8.05239 57.517L14.9126 53.585C15.4146 54.0869 16.0629 54.5052 16.795 54.7353V62.5158C16.1048 62.704 15.5191 63.0596 15.059 63.5197L8.19879 59.5249ZM20.8107 63.5197C20.3087 63.0596 19.7231 62.704 19.0747 62.5158V54.7353C19.8068 54.5471 20.4552 54.1497 20.9571 53.585L27.8173 57.517C27.6709 57.9353 27.6291 58.3327 27.6291 58.7929C27.6291 59.0229 27.6291 59.2948 27.6709 59.5249L20.8107 63.5197ZM44.4868 38.8188C42.9391 39.6972 41.2449 39.5508 39.9064 39.1743L42.1861 37.8567C42.7299 37.5429 42.9182 36.8527 42.6044 36.3089C42.2907 35.7651 41.6005 35.5769 40.994 35.8906L38.7142 37.2083C39.0698 35.9325 39.8018 34.322 41.3286 33.4645C43.5247 32.1886 46.2646 33.0043 47.4986 33.5063C47.3313 34.803 46.6829 37.5429 44.4868 38.8188Z" fill="url(#paint3_linear)" fill-opacity="0.4"/>
<defs>
<linearGradient id="paint0_linear" x1="63.5929" y1="31.0383" x2="63.5929" y2="58.8557" gradientUnits="userSpaceOnUse">
<stop stop-color="white"/>
<stop offset="1" stop-color="white" stop-opacity="0"/>
</linearGradient>
<linearGradient id="paint1_linear" x1="84.7487" y1="30.4946" x2="84.7487" y2="59.3577" gradientUnits="userSpaceOnUse">
<stop stop-color="white"/>
<stop offset="1" stop-color="white" stop-opacity="0"/>
</linearGradient>
<linearGradient id="paint2_linear" x1="112.231" y1="22.0865" x2="112.231" y2="58.8556" gradientUnits="userSpaceOnUse">
<stop stop-color="white"/>
<stop offset="1" stop-color="white" stop-opacity="0"/>
</linearGradient>
<linearGradient id="paint3_linear" x1="24.9624" y1="0" x2="24.9624" y2="70.6518" gradientUnits="userSpaceOnUse">
<stop stop-color="white"/>
<stop offset="1" stop-color="white" stop-opacity="0"/>
</linearGradient>
</defs>
</svg>
