<svg xmlns="http://www.w3.org/2000/svg" width="214" height="46" fill="none"><path fill="#4D4D5D" d="M15.52 32.3c.42-.56.7-.98 1.12-1.54.28-.28.42-.56.7-.84.28-.42.55-.84.83-1.26.28-.42.56-.7.84-1.12.42-.56.84-1.26 1.4-1.82.28-.42.56-.7.84-1.11.14-.28.42-.56.56-.84.28-.28.42-.7.42-1.12 0-.42 0-.98-.28-1.4-.28-.42-.56-.84-.84-1.26-.42-.56-.7-.98-1.12-1.54-.28-.28-.42-.56-.7-.83-.28-.42-.56-.84-.84-1.26-.14-.28-.42-.56-.56-.84-.27-.42-.55-.84-.83-1.26-.28-.42-.56-.7-.84-1.12-.56-.14-.84-.56-1.12-.98-.28-.28-.42-.56-.7-.84-.7-.28-1.4-.14-1.82.42-.28.42-.56.84-.84 1.4-.28.42-.56.98-.84 1.4-.28.56-.7 1.12-.97 1.82-.14.14-.28.42-.28.56-.14.28-.42.7-.56.97-.14.28-.28.42-.42.7-.28.56-.56.98-.84 1.54-.28.42-.42.7-.7 1.12-.28.42-.56.98-.42 1.54 0 .56.14.98.42 1.4.14.14.14.28.28.56.14.41.42.7.56 1.11.14.28.42.7.7 1.12.14.14.28.42.28.56.28.42.42.7.7 1.12.14.28.14.42.28.7.28.56.56.98.83 1.54.14.28.28.42.42.7.28.55.56.97.84 1.53.14.28.42.7.7.84.28.14.7.28 1.12.14.42-.14.56-.42.84-.7.28-.28.56-.7.84-1.12z"/><path fill="url(#paint0_linear)" fill-opacity=".4" d="M15.52 32.3c.42-.56.7-.98 1.12-1.54.28-.28.42-.56.7-.84.28-.42.55-.84.83-1.26.28-.42.56-.7.84-1.12.42-.56.84-1.26 1.4-1.82.28-.42.56-.7.84-1.11.14-.28.42-.56.56-.84.28-.28.42-.7.42-1.12 0-.42 0-.98-.28-1.4-.28-.42-.56-.84-.84-1.26-.42-.56-.7-.98-1.12-1.54-.28-.28-.42-.56-.7-.83-.28-.42-.56-.84-.84-1.26-.14-.28-.42-.56-.56-.84-.27-.42-.55-.84-.83-1.26-.28-.42-.56-.7-.84-1.12-.56-.14-.84-.56-1.12-.98-.28-.28-.42-.56-.7-.84-.7-.28-1.4-.14-1.82.42-.28.42-.56.84-.84 1.4-.28.42-.56.98-.84 1.4-.28.56-.7 1.12-.97 1.82-.14.14-.28.42-.28.56-.14.28-.42.7-.56.97-.14.28-.28.42-.42.7-.28.56-.56.98-.84 1.54-.28.42-.42.7-.7 1.12-.28.42-.56.98-.42 1.54 0 .56.14.98.42 1.4.14.14.14.28.28.56.14.41.42.7.56 1.11.14.28.42.7.7 1.12.14.14.28.42.28.56.28.42.42.7.7 1.12.14.28.14.42.28.7.28.56.56.98.83 1.54.14.28.28.42.42.7.28.55.56.97.84 1.53.14.28.42.7.7.84.28.14.7.28 1.12.14.42-.14.56-.42.84-.7.28-.28.56-.7.84-1.12z"/><path fill="#4D4D5D" d="M42.64 28.38c.14-.28.42-.7.56-.98.14-.28.28-.42.42-.7.28-.56.56-.98.84-1.54.14-.27.42-.7.56-.97.28-.42.42-.98.42-1.4 0-.14 0-.28 0-.42 0-.14 0-.42-.14-.56-.28-.56-.56-.98-.84-1.54-.28-.42-.42-.7-.7-1.12-.14-.42-.42-.7-.56-1.12-.14-.41-.42-.7-.7-1.11-.28-.42-.42-.7-.7-1.12-.42-.7-.7-1.26-1.12-1.82-.28-.56-.56-1.12-.98-1.68-.14-.28-.28-.56-.55-.7-.28-.28-.56-.42-.84-.42-.28 0-.56.14-.84.28-.42.42-.7.98-1.12 1.4 0 .56-.14.84-.28 1.12-.28.28-.42.7-.7.98-.14.28-.42.56-.56.84-.28.28-.42.7-.7.98-.14.28-.42.56-.56.84-.28.27-.42.7-.7.97-.14.28-.42.56-.56.84-.27.28-.41.7-.7.98-.27.28-.41.56-.55.84-.28.42-.56.84-.42 1.4 0 .42.14.7.28 1.12.28.42.56.84.98 1.25.27.42.55.84.83 1.26.14.28.42.56.56.84.28.42.56.84.84 1.26.28.42.7.98.98 1.4.42.56.98 1.26 1.4 1.82.28.28.56.7.7.97.28.28.42.7.7.98.42.28.7.56 1.26.42.27-.14.55-.28.7-.56.13-.28.27-.56.41-.7.28-.42.42-.83.7-1.11.14-.28.28-.42.42-.7.28-.56.56-.98.84-1.54.14-.42.28-.7.42-.98z"/><path fill="url(#paint1_linear)" fill-opacity=".4" d="M42.64 28.38c.14-.28.42-.7.56-.98.14-.28.28-.42.42-.7.28-.56.56-.98.84-1.54.14-.27.42-.7.56-.97.28-.42.42-.98.42-1.4 0-.14 0-.28 0-.42 0-.14 0-.42-.14-.56-.28-.56-.56-.98-.84-1.54-.28-.42-.42-.7-.7-1.12-.14-.42-.42-.7-.56-1.12-.14-.41-.42-.7-.7-1.11-.28-.42-.42-.7-.7-1.12-.42-.7-.7-1.26-1.12-1.82-.28-.56-.56-1.12-.98-1.68-.14-.28-.28-.56-.55-.7-.28-.28-.56-.42-.84-.42-.28 0-.56.14-.84.28-.42.42-.7.98-1.12 1.4 0 .56-.14.84-.28 1.12-.28.28-.42.7-.7.98-.14.28-.42.56-.56.84-.28.28-.42.7-.7.98-.14.28-.42.56-.56.84-.28.27-.42.7-.7.97-.14.28-.42.56-.56.84-.27.28-.41.7-.7.98-.27.28-.41.56-.55.84-.28.42-.56.84-.42 1.4 0 .42.14.7.28 1.12.28.42.56.84.98 1.25.27.42.55.84.83 1.26.14.28.42.56.56.84.28.42.56.84.84 1.26.28.42.7.98.98 1.4.42.56.98 1.26 1.4 1.82.28.28.56.7.7.97.28.28.42.7.7.98.42.28.7.56 1.26.42.27-.14.55-.28.7-.56.13-.28.27-.56.41-.7.28-.42.42-.83.7-1.11.14-.28.28-.42.42-.7.28-.56.56-.98.84-1.54.14-.42.28-.7.42-.98z"/><path fill="#4D4D5D" d="M27.54 29.08c-.14-.14-.14-.28-.28-.42-.28-.28-.42-.56-.7-.84-.14-.14-.14-.14-.28-.28s-.28-.14-.28 0l-.14.14c-.14.28-.28.42-.56.7-.42.56-.83 1.12-1.25 1.68-.28.42-.56.7-.84 1.12-.14.28-.28.42-.56.7-.28.41-.56.83-.84 1.25-.28.42-.56.7-.84 1.12-.56.7-.98 1.4-1.54 2.1-.42.56-.84 1.12-1.26 1.82 0 .14 0 .28 0 .42 0 .14.14.42.14.56.28.41.56.7 1.12.7 2.24 0 4.48 0 6.85 0 2.24 0 4.62 0 6.85 0 .28 0 .56-.15.7-.29.28-.14.42-.41.56-.7.14-.27.14-.41-.14-.7-.14-.13-.28-.41-.42-.55-.28-.42-.56-.84-.84-1.26-.42-.56-.84-1.26-1.4-1.82-.55-.7-.97-1.4-1.53-2.1-.42-.55-.7-.97-1.12-1.53-.42-.56-.98-1.12-1.4-1.82z"/><path fill="url(#paint2_linear)" fill-opacity=".4" d="M27.54 29.08c-.14-.14-.14-.28-.28-.42-.28-.28-.42-.56-.7-.84-.14-.14-.14-.14-.28-.28s-.28-.14-.28 0l-.14.14c-.14.28-.28.42-.56.7-.42.56-.83 1.12-1.25 1.68-.28.42-.56.7-.84 1.12-.14.28-.28.42-.56.7-.28.41-.56.83-.84 1.25-.28.42-.56.7-.84 1.12-.56.7-.98 1.4-1.54 2.1-.42.56-.84 1.12-1.26 1.82 0 .14 0 .28 0 .42 0 .14.14.42.14.56.28.41.56.7 1.12.7 2.24 0 4.48 0 6.85 0 2.24 0 4.62 0 6.85 0 .28 0 .56-.15.7-.29.28-.14.42-.41.56-.7.14-.27.14-.41-.14-.7-.14-.13-.28-.41-.42-.55-.28-.42-.56-.84-.84-1.26-.42-.56-.84-1.26-1.4-1.82-.55-.7-.97-1.4-1.53-2.1-.42-.55-.7-.97-1.12-1.53-.42-.56-.98-1.12-1.4-1.82z"/><path fill="#4D4D5D" d="M31.88 10.35c.28-.42.7-.98 1.11-1.4.28-.42.7-.98.98-1.4.14-.28.28-.56.14-.84 0-.14-.14-.28-.28-.42 0-.14-.14-.14-.14-.28-.28-.28-.56-.28-.98-.28-2.1 0-4.19 0-6.43 0-2.23 0-4.2 0-6.43 0-.14 0-.28 0-.42 0-.42 0-.7.28-.98.7-.14.28-.28.56 0 .84.14.14.28.42.42.56.28.42.56.84.84 1.26.28.42.7.98.98 1.4.28.41.7.97 1.12 1.4.28.41.56.7.84 1.11.28.42.7.98.98 1.4.14.28.42.56.56.7.42.56.7.98 1.11 1.54.28.28.56.7.7.98.14.13.28.13.28 0 .28-.28.42-.42.7-.7.42-.42.7-.98 1.12-1.4.42-.56.84-1.12 1.12-1.68.28-.28.42-.7.7-.98.42-.56.7-.98 1.12-1.54.28-.28.56-.7.84-.97z"/><path fill="url(#paint3_linear)" fill-opacity=".4" d="M31.88 10.35c.28-.42.7-.98 1.11-1.4.28-.42.7-.98.98-1.4.14-.28.28-.56.14-.84 0-.14-.14-.28-.28-.42 0-.14-.14-.14-.14-.28-.28-.28-.56-.28-.98-.28-2.1 0-4.19 0-6.43 0-2.23 0-4.2 0-6.43 0-.14 0-.28 0-.42 0-.42 0-.7.28-.98.7-.14.28-.28.56 0 .84.14.14.28.42.42.56.28.42.56.84.84 1.26.28.42.7.98.98 1.4.28.41.7.97 1.12 1.4.28.41.56.7.84 1.11.28.42.7.98.98 1.4.14.28.42.56.56.7.42.56.7.98 1.11 1.54.28.28.56.7.7.98.14.13.28.13.28 0 .28-.28.42-.42.7-.7.42-.42.7-.98 1.12-1.4.42-.56.84-1.12 1.12-1.68.28-.28.42-.7.7-.98.42-.56.7-.98 1.12-1.54.28-.28.56-.7.84-.97z"/><path fill="#4D4D5D" d="M41.8 6.85c0 .14 0 .28.14.28 2.38 5.03 4.75 10.2 7.13 15.24.14.14.14.28 0 .56-.98 1.96-1.82 3.91-2.8 5.87-1.53 3.21-2.93 6.43-4.47 9.5 0 .15-.14.15-.14.29 3.5-5.32 6.85-10.63 10.35-15.94-3.36-5.31-6.85-10.63-10.2-15.8z"/><path fill="url(#paint4_linear)" fill-opacity=".4" d="M41.8 6.85c0 .14 0 .28.14.28 2.38 5.03 4.75 10.2 7.13 15.24.14.14.14.28 0 .56-.98 1.96-1.82 3.91-2.8 5.87-1.53 3.21-2.93 6.43-4.47 9.5 0 .15-.14.15-.14.29 3.5-5.32 6.85-10.63 10.35-15.94-3.36-5.31-6.85-10.63-10.2-15.8z"/><path fill="#4D4D5D" d="M3.08 23.07c-.14-.14-.14-.28 0-.42 2.37-5.31 4.89-10.49 7.27-15.66 0-.14 0-.14.14-.28C6.85 12.16 3.49 17.48 0 22.8c3.5 5.31 6.85 10.48 10.35 15.8 0-.14 0-.14 0-.28-2.52-5.04-4.9-10.21-7.27-15.24z"/><path fill="url(#paint5_linear)" fill-opacity=".4" d="M3.08 23.07c-.14-.14-.14-.28 0-.42 2.37-5.31 4.89-10.49 7.27-15.66 0-.14 0-.14.14-.28C6.85 12.16 3.49 17.48 0 22.8c3.5 5.31 6.85 10.48 10.35 15.8 0-.14 0-.14 0-.28-2.52-5.04-4.9-10.21-7.27-15.24z"/><path fill="#4D4D5D" d="M36.2 43.76c-1.39-.14-2.93-.42-4.32-.56-1.68-.14-3.36-.42-5.04-.56-.14 0-.28 0-.42 0-.56 0-1.26.14-1.81.28-1.54.14-3.08.42-4.62.56-1.68.14-3.35.42-5.03.56h-.14.14c.7.14 1.4.14 1.96.28 1.53.14 3.07.42 4.61.56 1.4.14 2.66.28 4.05.42.42 0 .84.14 1.26.14 1.82-.28 3.5-.42 5.32-.7 1.95-.28 3.77-.42 5.73-.7h.14c-.14 0-.14-.14-.28-.14-.56 0-.98 0-1.54-.14z"/><path fill="url(#paint6_linear)" fill-opacity=".4" d="M36.2 43.76c-1.39-.14-2.93-.42-4.32-.56-1.68-.14-3.36-.42-5.04-.56-.14 0-.28 0-.42 0-.56 0-1.26.14-1.81.28-1.54.14-3.08.42-4.62.56-1.68.14-3.35.42-5.03.56h-.14.14c.7.14 1.4.14 1.96.28 1.53.14 3.07.42 4.61.56 1.4.14 2.66.28 4.05.42.42 0 .84.14 1.26.14 1.82-.28 3.5-.42 5.32-.7 1.95-.28 3.77-.42 5.73-.7h.14c-.14 0-.14-.14-.28-.14-.56 0-.98 0-1.54-.14z"/><path fill="#4D4D5D" d="M14.82 1.54c1.68.14 3.21.42 4.9.56 1.81.28 3.77.42 5.58.7.42 0 .7 0 1.12 0 .98-.14 1.96-.28 2.94-.28 1.26-.14 2.66-.28 3.91-.42 1.54-.14 2.94-.28 4.48-.56.14 0 .14 0 .28 0-.28-.14-.42-.14-.56-.28-1.68-.14-3.36-.42-5.04-.56C30.62.42 28.8.28 26.98 0c-.42 0-.84 0-1.26 0-1.67.28-3.35.42-5.03.56-1.96.28-4.05.56-5.87.98-.14-.14-.14-.14-.28-.14.14 0 .14.14.28.14z"/><path fill="url(#paint7_linear)" fill-opacity=".4" d="M14.82 1.54c1.68.14 3.21.42 4.9.56 1.81.28 3.77.42 5.58.7.42 0 .7 0 1.12 0 .98-.14 1.96-.28 2.94-.28 1.26-.14 2.66-.28 3.91-.42 1.54-.14 2.94-.28 4.48-.56.14 0 .14 0 .28 0-.28-.14-.42-.14-.56-.28-1.68-.14-3.36-.42-5.04-.56C30.62.42 28.8.28 26.98 0c-.42 0-.84 0-1.26 0-1.67.28-3.35.42-5.03.56-1.96.28-4.05.56-5.87.98-.14-.14-.14-.14-.28-.14.14 0 .14.14.28.14z"/><path fill="#4D4D5D" d="M70.74 30.34v-3.36h3.22l-3.22-8.39-4.61 11.75h-3.78l6.71-16.78h3.36l6.7 16.78h-8.38z"/><path fill="url(#paint8_linear)" fill-opacity=".4" d="M70.74 30.34v-3.36h3.22l-3.22-8.39-4.61 11.75h-3.78l6.71-16.78h3.36l6.7 16.78h-8.38z"/><path fill="#4D4D5D" d="M102.2 21.95l-6.3-8.39h4.2l4.2 5.6 4.19-5.6h4.2l-6.3 8.39 6.3 8.39h-4.2l-4.2-5.6-4.19 5.6h-4.2l6.3-8.4z"/><path fill="url(#paint9_linear)" fill-opacity=".4" d="M102.2 21.95l-6.3-8.39h4.2l4.2 5.6 4.19-5.6h4.2l-6.3 8.39 6.3 8.39h-4.2l-4.2-5.6-4.19 5.6h-4.2l6.3-8.4z"/><path fill="#4D4D5D" d="M139.38 13.56v16.78h-3.35V13.56h3.35z"/><path fill="url(#paint10_linear)" fill-opacity=".4" d="M139.38 13.56v16.78h-3.35V13.56h3.35z"/><path fill="#4D4D5D" d="M162.87 30.34V13.56h16.78v16.78h-16.78zm13.42-3.36V16.92h-10.06v10.06h10.06z"/><path fill="url(#paint11_linear)" fill-opacity=".4" d="M162.87 30.34V13.56h16.78v16.78h-16.78zm13.42-3.36V16.92h-10.06v10.06h10.06z"/><path fill="#4D4D5D" d="M196.42 30.34V13.56h3.36l10.06 11.88V13.56h3.36v16.78h-3.35l-10.07-11.47v11.47h-3.36z"/><path fill="url(#paint12_linear)" fill-opacity=".4" d="M196.42 30.34V13.56h3.36l10.06 11.88V13.56h3.36v16.78h-3.35l-10.07-11.47v11.47h-3.36z"/><defs><linearGradient id="paint6_linear" x1="26.423" x2="26.423" y1="42.64" y2="45.436" gradientUnits="userSpaceOnUse"><stop stop-color="#fff"/><stop offset="1" stop-color="#fff" stop-opacity="0"/></linearGradient><linearGradient id="paint0_linear" x1="14.451" x2="14.451" y1="11.184" y2="34.17" gradientUnits="userSpaceOnUse"><stop stop-color="#fff"/><stop offset="1" stop-color="#fff" stop-opacity="0"/></linearGradient><linearGradient id="paint2_linear" x1="26.329" x2="26.329" y1="27.436" y2="39.844" gradientUnits="userSpaceOnUse"><stop stop-color="#fff"/><stop offset="1" stop-color="#fff" stop-opacity="0"/></linearGradient><linearGradient id="paint3_linear" x1="26.232" x2="26.232" y1="5.732" y2="17.72" gradientUnits="userSpaceOnUse"><stop stop-color="#fff"/><stop offset="1" stop-color="#fff" stop-opacity="0"/></linearGradient><linearGradient id="paint4_linear" x1="46.834" x2="46.834" y1="6.85" y2="38.586" gradientUnits="userSpaceOnUse"><stop stop-color="#fff"/><stop offset="1" stop-color="#fff" stop-opacity="0"/></linearGradient><linearGradient id="paint5_linear" x1="5.243" x2="5.243" y1="6.711" y2="38.586" gradientUnits="userSpaceOnUse"><stop stop-color="#fff"/><stop offset="1" stop-color="#fff" stop-opacity="0"/></linearGradient><linearGradient id="paint1_linear" x1="38.008" x2="38.008" y1="11.184" y2="34.01" gradientUnits="userSpaceOnUse"><stop stop-color="#fff"/><stop offset="1" stop-color="#fff" stop-opacity="0"/></linearGradient><linearGradient id="paint7_linear" x1="26.283" x2="26.283" y1="0" y2="2.796" gradientUnits="userSpaceOnUse"><stop stop-color="#fff"/><stop offset="1" stop-color="#fff" stop-opacity="0"/></linearGradient><linearGradient id="paint8_linear" x1="70.741" x2="70.741" y1="13.561" y2="30.337" gradientUnits="userSpaceOnUse"><stop stop-color="#fff"/><stop offset="1" stop-color="#fff" stop-opacity="0"/></linearGradient><linearGradient id="paint9_linear" x1="104.294" x2="104.294" y1="13.561" y2="30.337" gradientUnits="userSpaceOnUse"><stop stop-color="#fff"/><stop offset="1" stop-color="#fff" stop-opacity="0"/></linearGradient><linearGradient id="paint10_linear" x1="137.707" x2="137.707" y1="13.561" y2="30.337" gradientUnits="userSpaceOnUse"><stop stop-color="#fff"/><stop offset="1" stop-color="#fff" stop-opacity="0"/></linearGradient><linearGradient id="paint11_linear" x1="171.26" x2="171.26" y1="13.561" y2="30.337" gradientUnits="userSpaceOnUse"><stop stop-color="#fff"/><stop offset="1" stop-color="#fff" stop-opacity="0"/></linearGradient><linearGradient id="paint12_linear" x1="204.812" x2="204.812" y1="13.561" y2="30.337" gradientUnits="userSpaceOnUse"><stop stop-color="#fff"/><stop offset="1" stop-color="#fff" stop-opacity="0"/></linearGradient></defs></svg>