<svg xmlns="http://www.w3.org/2000/svg" width="196" height="46" fill="none"><path fill="#4D4D5D" d="M70.03 28.29c-1.5 1.62-3.04 2.4-4.73 2.4-3.23 0-5.75-2.66-5.75-6.08 0-3.46 2.44-6.13 5.6-6.13a6.45 6.45 0 014.84 2.33l.2.23 1.94-2.07-.18-.19a8.71 8.71 0 00-6.77-3 8.8 8.8 0 00-8.71 8.87 8.7 8.7 0 008.71 8.86c3.54 0 5.56-1.76 6.92-3.27l.18-.22-2.02-1.88-.23.15z"/><path fill="url(#paint0_linear)" fill-opacity=".4" d="M70.03 28.29c-1.5 1.62-3.04 2.4-4.73 2.4-3.23 0-5.75-2.66-5.75-6.08 0-3.46 2.44-6.13 5.6-6.13a6.45 6.45 0 014.84 2.33l.2.23 1.94-2.07-.18-.19a8.71 8.71 0 00-6.77-3 8.8 8.8 0 00-8.71 8.87 8.7 8.7 0 008.71 8.86c3.54 0 5.56-1.76 6.92-3.27l.18-.22-2.02-1.88-.23.15z"/><path fill="#4D4D5D" d="M82.65 15.74c-2.21 0-4.02.87-5.33 2.6V9.12l-3 1.47v22.42h3v-9.65c0-2.86 1.91-4.85 4.66-4.85 2.66 0 4.24 1.77 4.24 4.66v9.88h3V22.58c0-4.17-2.55-6.84-6.57-6.84z"/><path fill="url(#paint1_linear)" fill-opacity=".4" d="M82.65 15.74c-2.21 0-4.02.87-5.33 2.6V9.12l-3 1.47v22.42h3v-9.65c0-2.86 1.91-4.85 4.66-4.85 2.66 0 4.24 1.77 4.24 4.66v9.88h3V22.58c0-4.17-2.55-6.84-6.57-6.84z"/><path fill="#4D4D5D" d="M99.26 15.82c-2.6 0-4.47.68-6.09 1.43l-.22.1.94 2.53.26-.12a11.46 11.46 0 014.88-1.16c3 0 4.59 1.43 4.59 4.17v.15a17.1 17.1 0 00-4.74-.6c-4.58 0-7.29 2.1-7.29 5.63 0 3.57 3.24 5.45 6.43 5.45 2.74 0 4.5-1.16 5.63-2.33v1.96h2.97v-10.3c0-2.18-.6-3.83-1.8-5.03-1.28-1.2-3.2-1.88-5.56-1.88zm4.36 9.62v1.31c0 2.37-2.22 4.13-5.19 4.13-1.84 0-3.83-.93-3.83-3 0-1.92 1.7-3.08 4.5-3.08 1.96 0 3.5.34 4.52.64z"/><path fill="url(#paint2_linear)" fill-opacity=".4" d="M99.26 15.82c-2.6 0-4.47.68-6.09 1.43l-.22.1.94 2.53.26-.12a11.46 11.46 0 014.88-1.16c3 0 4.59 1.43 4.59 4.17v.15a17.1 17.1 0 00-4.74-.6c-4.58 0-7.29 2.1-7.29 5.63 0 3.57 3.24 5.45 6.43 5.45 2.74 0 4.5-1.16 5.63-2.33v1.96h2.97v-10.3c0-2.18-.6-3.83-1.8-5.03-1.28-1.2-3.2-1.88-5.56-1.88zm4.36 9.62v1.31c0 2.37-2.22 4.13-5.19 4.13-1.84 0-3.83-.93-3.83-3 0-1.92 1.7-3.08 4.5-3.08 1.96 0 3.5.34 4.52.64z"/><path fill="#4D4D5D" d="M118.5 15.74c-2.22 0-4.03.87-5.34 2.6v-2.22h-3V33.1h3v-9.73c0-2.86 1.92-4.85 4.66-4.85 2.67 0 4.24 1.77 4.24 4.66v9.88h3V22.58c0-4.17-2.58-6.84-6.56-6.84z"/><path fill="url(#paint3_linear)" fill-opacity=".4" d="M118.5 15.74c-2.22 0-4.03.87-5.34 2.6v-2.22h-3V33.1h3v-9.73c0-2.86 1.92-4.85 4.66-4.85 2.67 0 4.24 1.77 4.24 4.66v9.88h3V22.58c0-4.17-2.58-6.84-6.56-6.84z"/><path fill="#4D4D5D" d="M141.68 18.52a7.85 7.85 0 00-6.12-2.78c-2.03 0-4.06.8-5.53 2.14a7.88 7.88 0 00-2.48 5.9c0 2.3.87 4.4 2.48 5.9a8.26 8.26 0 005.53 2.14c2.44 0 4.47-.98 6.16-2.93v1.13c0 3.53-2.07 5.56-5.68 5.56-2.21 0-4.28-.68-6.16-2.03l-.26-.19-1.39 2.4.23.16a13.17 13.17 0 007.62 2.33c2.74 0 4.96-.8 6.46-2.3 1.43-1.46 2.18-3.45 2.18-6V16.07h-3v2.44h-.04zm.11 5.22c0 3.35-2.93 5.34-5.75 5.34a5.3 5.3 0 01-5.4-5.3c0-3.08 2.25-5.3 5.4-5.3 2.82-.03 5.75 1.96 5.75 5.26z"/><path fill="url(#paint4_linear)" fill-opacity=".4" d="M141.68 18.52a7.85 7.85 0 00-6.12-2.78c-2.03 0-4.06.8-5.53 2.14a7.88 7.88 0 00-2.48 5.9c0 2.3.87 4.4 2.48 5.9a8.26 8.26 0 005.53 2.14c2.44 0 4.47-.98 6.16-2.93v1.13c0 3.53-2.07 5.56-5.68 5.56-2.21 0-4.28-.68-6.16-2.03l-.26-.19-1.39 2.4.23.16a13.17 13.17 0 007.62 2.33c2.74 0 4.96-.8 6.46-2.3 1.43-1.46 2.18-3.45 2.18-6V16.07h-3v2.44h-.04zm.11 5.22c0 3.35-2.93 5.34-5.75 5.34a5.3 5.3 0 01-5.4-5.3c0-3.08 2.25-5.3 5.4-5.3 2.82-.03 5.75 1.96 5.75 5.26z"/><path fill="#4D4D5D" d="M155.65 15.74c-4.66 0-8.15 3.8-8.15 8.87 0 5.07 3.64 8.86 8.49 8.86 2.85 0 5-.97 6.98-3.19l.2-.22-1.96-1.73-.19.18a6.48 6.48 0 01-4.96 2.22c-2.9 0-5.03-1.95-5.45-4.88h12.96l.04-.27c.04-.37.04-.63.04-.86-.04-5.37-3.23-8.98-8-8.98zm4.88 7.59h-9.95c.45-2.93 2.48-4.96 5.03-4.96 3.12 0 4.58 2.48 4.92 4.96z"/><path fill="url(#paint5_linear)" fill-opacity=".4" d="M155.65 15.74c-4.66 0-8.15 3.8-8.15 8.87 0 5.07 3.64 8.86 8.49 8.86 2.85 0 5-.97 6.98-3.19l.2-.22-1.96-1.73-.19.18a6.48 6.48 0 01-4.96 2.22c-2.9 0-5.03-1.95-5.45-4.88h12.96l.04-.27c.04-.37.04-.63.04-.86-.04-5.37-3.23-8.98-8-8.98zm4.88 7.59h-9.95c.45-2.93 2.48-4.96 5.03-4.96 3.12 0 4.58 2.48 4.92 4.96z"/><path fill="#4D4D5D" d="M166.44 33.06h3V10.18l-3 1.5v21.38z"/><path fill="url(#paint6_linear)" fill-opacity=".4" d="M166.44 33.06h3V10.18l-3 1.5v21.38z"/><path fill="#4D4D5D" d="M173.38 33.06h3V9.13l-3 1.5v22.43z"/><path fill="url(#paint7_linear)" fill-opacity=".4" d="M173.38 33.06h3V9.13l-3 1.5v22.43z"/><path fill="#4D4D5D" d="M192.4 16.08l-5.11 13.23-5.79-13.23h-3.3l7.58 16.64c-1.01 2.33-1.88 2.78-3.04 2.78-.98 0-1.65-.15-2.44-.56l-.26-.15-1.06 2.48.23.11c1.24.6 2.3.87 3.6.87 2.67 0 4.33-1.4 5.72-4.81l7.06-17.36h-3.2z"/><path fill="url(#paint8_linear)" fill-opacity=".4" d="M192.4 16.08l-5.11 13.23-5.79-13.23h-3.3l7.58 16.64c-1.01 2.33-1.88 2.78-3.04 2.78-.98 0-1.65-.15-2.44-.56l-.26-.15-1.06 2.48.23.11c1.24.6 2.3.87 3.6.87 2.67 0 4.33-1.4 5.72-4.81l7.06-17.36h-3.2z"/><path fill="#4D4D5D" d="M48.14.08c-.18 0-4.35.18-9.54 1.42-7.02 1.66-12.28 4.4-15.52 8.12-.7.82-1.39 1.61-1.99 2.36-1.27.34-4.8 1.32-6.42 1.62-.94.19-1.73.71-2.3 1.5-1.16 1.7-3.19 5.15-3.26 5.3l-2.33 3.98 4.25-1.84c1.84-.82 4.43-1.39 5.18-.94.04.04.07.04.11.27 0 1.2.3 2.36.87 3.53a4.51 4.51 0 00-1.73 3.8v5.18h5.18c1.47.07 2.86-.6 3.8-1.73 1.16.56 2.33.82 3.53.86.19.04.22.08.22.11.46.76-.1 3.35-.93 5.19L25.4 43l3.99-2.32c.15-.08 3.6-2.1 5.3-3.27a3.57 3.57 0 001.5-2.3c.33-1.6 1.27-5.14 1.61-6.42.75-.6 1.54-1.27 2.37-1.99 8.72-7.7 9.5-24.38 9.54-25.1L49.8 0l-1.66.08zm-31.22 18.6c-.97-.3-2.1-.27-3.19-.08.41-.68.83-1.32 1.16-1.8.08-.16.23-.23.42-.27.75-.15 1.91-.45 3.08-.71a13.77 13.77 0 00-1.47 2.85zm5.11 12.05c-.3.42-.82.64-1.31.6h-.49l3.12-4.88-4.89 3.16v-.53c-.03-.53.2-1.02.6-1.32l5.98-4.73c.3-.26.71-.45 1.09-.53l1.58-.37-.38 1.58c-.11.41-.26.79-.53 1.09l-4.77 5.93zm11.2 3.8a.71.71 0 01-.26.41c-.5.34-1.13.75-1.8 1.16a7.02 7.02 0 00-.08-3.19c.9-.34 1.84-.79 2.85-1.43-.26 1.13-.56 2.26-.71 3.05zm4.96-10.07c-5.19 4.58-8.04 5.93-10.1 6H28c-.64 0-1.17-.1-1.7-.3l2.79-3.52c.52-.68.9-1.43 1.12-2.26l1.5-6.3-6.3 1.5c-.83.18-1.62.56-2.26 1.08l-3.53 2.78a4.83 4.83 0 01-.3-1.69v-.07c.04-2.03 1.43-4.92 6-10.1C30.87 5.3 42.29 3.6 46.58 3.18c-.42 4.32-2.1 15.74-8.38 21.27z"/><path fill="url(#paint9_linear)" fill-opacity=".4" d="M48.14.08c-.18 0-4.35.18-9.54 1.42-7.02 1.66-12.28 4.4-15.52 8.12-.7.82-1.39 1.61-1.99 2.36-1.27.34-4.8 1.32-6.42 1.62-.94.19-1.73.71-2.3 1.5-1.16 1.7-3.19 5.15-3.26 5.3l-2.33 3.98 4.25-1.84c1.84-.82 4.43-1.39 5.18-.94.04.04.07.04.11.27 0 1.2.3 2.36.87 3.53a4.51 4.51 0 00-1.73 3.8v5.18h5.18c1.47.07 2.86-.6 3.8-1.73 1.16.56 2.33.82 3.53.86.19.04.22.08.22.11.46.76-.1 3.35-.93 5.19L25.4 43l3.99-2.32c.15-.08 3.6-2.1 5.3-3.27a3.57 3.57 0 001.5-2.3c.33-1.6 1.27-5.14 1.61-6.42.75-.6 1.54-1.27 2.37-1.99 8.72-7.7 9.5-24.38 9.54-25.1L49.8 0l-1.66.08zm-31.22 18.6c-.97-.3-2.1-.27-3.19-.08.41-.68.83-1.32 1.16-1.8.08-.16.23-.23.42-.27.75-.15 1.91-.45 3.08-.71a13.77 13.77 0 00-1.47 2.85zm5.11 12.05c-.3.42-.82.64-1.31.6h-.49l3.12-4.88-4.89 3.16v-.53c-.03-.53.2-1.02.6-1.32l5.98-4.73c.3-.26.71-.45 1.09-.53l1.58-.37-.38 1.58c-.11.41-.26.79-.53 1.09l-4.77 5.93zm11.2 3.8a.71.71 0 01-.26.41c-.5.34-1.13.75-1.8 1.16a7.02 7.02 0 00-.08-3.19c.9-.34 1.84-.79 2.85-1.43-.26 1.13-.56 2.26-.71 3.05zm4.96-10.07c-5.19 4.58-8.04 5.93-10.1 6H28c-.64 0-1.17-.1-1.7-.3l2.79-3.52c.52-.68.9-1.43 1.12-2.26l1.5-6.3-6.3 1.5c-.83.18-1.62.56-2.26 1.08l-3.53 2.78a4.83 4.83 0 01-.3-1.69v-.07c.04-2.03 1.43-4.92 6-10.1C30.87 5.3 42.29 3.6 46.58 3.18c-.42 4.32-2.1 15.74-8.38 21.27z"/><path fill="#4D4D5D" d="M14.84 41.8a33.58 33.58 0 01-9.24.37c.45-.75.86-1.5 1.24-2.29A29.92 29.92 0 008.49 35c.38-1.58.83-3.12 1.4-4.66a58.65 58.65 0 011.8-4.62c-.6.6-1.13 1.24-1.62 1.92-.49.67-.98 1.39-1.43 2.1a34.1 34.1 0 00-2.25 4.54c-.6 1.5-1.24 3.01-2 4.36a21.65 21.65 0 01-2.66 3.8L0 44.47l2.67.37c2.1.3 4.24.45 6.38.38 1.1-.04 2.15-.12 3.24-.3 1.05-.15 2.14-.42 3.15-.72a19.9 19.9 0 005.82-2.81 13.04 13.04 0 004.1-4.85A16.95 16.95 0 0120.44 40c-1.8.86-3.68 1.42-5.6 1.8z"/><path fill="url(#paint10_linear)" fill-opacity=".4" d="M14.84 41.8a33.58 33.58 0 01-9.24.37c.45-.75.86-1.5 1.24-2.29A29.92 29.92 0 008.49 35c.38-1.58.83-3.12 1.4-4.66a58.65 58.65 0 011.8-4.62c-.6.6-1.13 1.24-1.62 1.92-.49.67-.98 1.39-1.43 2.1a34.1 34.1 0 00-2.25 4.54c-.6 1.5-1.24 3.01-2 4.36a21.65 21.65 0 01-2.66 3.8L0 44.47l2.67.37c2.1.3 4.24.45 6.38.38 1.1-.04 2.15-.12 3.24-.3 1.05-.15 2.14-.42 3.15-.72a19.9 19.9 0 005.82-2.81 13.04 13.04 0 004.1-4.85A16.95 16.95 0 0120.44 40c-1.8.86-3.68 1.42-5.6 1.8z"/><path fill="#4D4D5D" d="M37.1 17.96a5.28 5.28 0 100-10.56 5.28 5.28 0 100 10.56zm-1.65-6.91a2.25 2.25 0 011.61-.68c.6 0 1.2.23 1.62.68.9.9.9 2.33 0 3.23-.9.9-2.33.9-3.23 0a2.34 2.34 0 010-3.23z"/><path fill="url(#paint11_linear)" fill-opacity=".4" d="M37.1 17.96a5.28 5.28 0 100-10.56 5.28 5.28 0 100 10.56zm-1.65-6.91a2.25 2.25 0 011.61-.68c.6 0 1.2.23 1.62.68.9.9.9 2.33 0 3.23-.9.9-2.33.9-3.23 0a2.34 2.34 0 010-3.23z"/><defs><linearGradient id="paint6_linear" x1="167.941" x2="167.941" y1="10.183" y2="33.063" gradientUnits="userSpaceOnUse"><stop stop-color="#fff"/><stop offset="1" stop-color="#fff" stop-opacity="0"/></linearGradient><linearGradient id="paint0_linear" x1="64.376" x2="64.376" y1="15.779" y2="33.512" gradientUnits="userSpaceOnUse"><stop stop-color="#fff"/><stop offset="1" stop-color="#fff" stop-opacity="0"/></linearGradient><linearGradient id="paint2_linear" x1="99.109" x2="99.109" y1="15.819" y2="33.402" gradientUnits="userSpaceOnUse"><stop stop-color="#fff"/><stop offset="1" stop-color="#fff" stop-opacity="0"/></linearGradient><linearGradient id="paint3_linear" x1="117.612" x2="117.612" y1="15.741" y2="33.098" gradientUnits="userSpaceOnUse"><stop stop-color="#fff"/><stop offset="1" stop-color="#fff" stop-opacity="0"/></linearGradient><linearGradient id="paint4_linear" x1="136.139" x2="136.139" y1="15.742" y2="38.246" gradientUnits="userSpaceOnUse"><stop stop-color="#fff"/><stop offset="1" stop-color="#fff" stop-opacity="0"/></linearGradient><linearGradient id="paint5_linear" x1="155.573" x2="155.573" y1="15.741" y2="33.474" gradientUnits="userSpaceOnUse"><stop stop-color="#fff"/><stop offset="1" stop-color="#fff" stop-opacity="0"/></linearGradient><linearGradient id="paint1_linear" x1="81.771" x2="81.771" y1="9.13" y2="33.062" gradientUnits="userSpaceOnUse"><stop stop-color="#fff"/><stop offset="1" stop-color="#fff" stop-opacity="0"/></linearGradient><linearGradient id="paint7_linear" x1="174.887" x2="174.887" y1="9.129" y2="33.061" gradientUnits="userSpaceOnUse"><stop stop-color="#fff"/><stop offset="1" stop-color="#fff" stop-opacity="0"/></linearGradient><linearGradient id="paint8_linear" x1="186.892" x2="186.892" y1="16.081" y2="38.247" gradientUnits="userSpaceOnUse"><stop stop-color="#fff"/><stop offset="1" stop-color="#fff" stop-opacity="0"/></linearGradient><linearGradient id="paint9_linear" x1="28.288" x2="28.288" y1="0" y2="43.017" gradientUnits="userSpaceOnUse"><stop stop-color="#fff"/><stop offset="1" stop-color="#fff" stop-opacity="0"/></linearGradient><linearGradient id="paint10_linear" x1="12.68" x2="12.68" y1="25.719" y2="45.237" gradientUnits="userSpaceOnUse"><stop stop-color="#fff"/><stop offset="1" stop-color="#fff" stop-opacity="0"/></linearGradient><linearGradient id="paint11_linear" x1="37.099" x2="37.099" y1="7.402" y2="17.959" gradientUnits="userSpaceOnUse"><stop stop-color="#fff"/><stop offset="1" stop-color="#fff" stop-opacity="0"/></linearGradient></defs></svg>