<svg width="176" height="55" viewBox="0 0 176 55" fill="none" xmlns="http://www.w3.org/2000/svg">
<path d="M54.6984 27.0444C54.5723 41.72 42.7405 54 27.325 54.0178C11.9275 54 -0.300524 41.862 0.00562552 26.4233C0.311775 11.8364 11.6573 0.017765 27.397 1.93766e-05C42.7225 -0.0177263 54.6083 12.1558 54.6984 27.0444ZM45.3158 22.324C45.3158 21.419 45.2978 20.4962 45.3158 19.5912C45.3158 19.1831 45.1537 19.0234 44.7395 19.0234C42.9386 19.0411 41.1377 19.0411 39.3369 19.0234C38.8326 19.0234 38.6165 19.2186 38.6705 19.6977C38.6885 19.9284 38.6705 20.1768 38.6705 20.4075C38.6705 21.6497 38.6705 21.6497 37.4099 21.6497C35.465 21.6497 35.447 21.6497 35.3929 19.7687C35.3749 19.2718 35.3029 19.0056 34.7086 19.0234C33.0338 19.0588 31.359 19.0411 29.6661 19.0234C29.1619 19.0234 28.9638 19.1831 28.9638 19.6799C28.9818 21.419 28.9818 23.1581 28.9638 24.8972C28.9638 25.4473 29.1799 25.5892 29.7021 25.5892C31.5571 25.6247 31.5571 25.6425 31.5571 27.5058C31.5571 27.559 31.5571 27.63 31.5571 27.6832C31.5571 28.8544 31.3049 29.0496 30.1163 28.8722C29.7562 28.819 29.5401 28.5705 29.324 28.3398C28.2254 27.2751 27.1449 26.1571 26.0283 25.1101C25.6682 24.7729 25.5241 24.4003 25.5421 23.9389C25.5601 22.6435 25.5241 21.348 25.5601 20.0526C25.5781 19.325 25.362 18.9879 24.5336 19.0056C22.9669 19.0411 22.9669 19.0056 22.9669 17.4617C22.9669 17.4085 22.9669 17.3375 22.9669 17.2843C22.9669 15.8824 22.9669 15.8824 24.3895 15.8824C25.5061 15.8824 25.5421 15.8469 25.5421 14.7289C25.5421 14.5515 25.5601 14.374 25.5421 14.1965C25.4701 13.5222 25.7942 13.2915 26.4426 13.3447C26.6587 13.3625 26.8568 13.3447 27.0729 13.3447C28.8918 13.3447 28.9098 13.3447 28.9458 15.0838C28.9638 15.6517 29.1259 15.8824 29.7202 15.8646C31.3049 15.8469 32.8897 15.8291 34.4925 15.8646C35.1408 15.8824 35.3209 15.6339 35.3209 15.0306C35.2849 13.4157 35.2849 11.7831 35.3209 10.1683C35.3389 9.52943 35.0868 9.35198 34.4745 9.36972C33.2139 9.40521 31.9532 9.38747 30.6926 9.38747C28.9998 9.38747 28.9818 9.38747 28.9638 11.0556C28.9638 11.7121 28.6756 11.9606 28.0633 11.9606C27.8292 11.9606 27.5771 11.9606 27.343 11.9606C25.5781 11.9606 25.5601 11.9606 25.5601 10.257C25.5601 9.61816 25.344 9.35198 24.6777 9.36972C23.0929 9.40521 21.5081 9.38747 19.9054 9.36972C19.2931 9.36972 19.0589 9.60042 19.0589 10.2038C19.077 11.8009 19.077 13.3802 19.0589 14.9773C19.0409 15.6339 19.3651 15.8469 19.9954 15.8469C21.6702 15.8824 21.6702 15.9001 21.6702 17.4972C21.6702 17.5505 21.6702 17.6214 21.6702 17.6747C21.6522 19.0766 21.8503 18.9524 20.3736 18.9701C18.8428 18.9879 19.0409 18.8282 19.0229 20.2833C19.0049 21.7917 19.113 21.5787 17.7443 21.5787C15.9254 21.5965 15.8894 21.5787 15.8894 19.8042C15.8894 19.2008 15.7093 18.9524 15.079 18.9701C13.4042 19.0056 11.7294 19.0056 10.0365 18.9701C9.3702 18.9524 9.22613 19.2186 9.24414 19.8042C9.28016 21.3125 9.24414 22.8032 9.26215 24.3116C9.26215 25.7135 9.1541 25.5183 10.5228 25.536C11.8194 25.5538 11.8914 25.607 11.8914 26.9024C11.8914 28.6592 12.1256 28.9787 9.96449 28.8367C9.38821 28.8012 9.26215 29.0319 9.26215 29.5465C9.29817 31.2324 9.28016 32.9005 9.26215 34.5863C9.26215 35.1541 9.44224 35.3671 10.0365 35.3671C11.6573 35.3316 13.2781 35.3316 14.8989 35.3671C15.5472 35.3848 15.7273 35.1187 15.7273 34.5331C15.7093 32.9182 15.6913 31.2856 15.7273 29.6707C15.7453 28.9787 15.5112 28.8367 14.8629 28.8367C13.1881 28.8544 13.1881 28.819 13.1881 27.1686C13.1881 27.0799 13.1881 26.9912 13.1881 26.9024C13.1881 25.5538 13.1881 25.5005 14.5928 25.5715C15.4932 25.6247 15.8354 25.3586 15.7453 24.4535C15.6013 23.0516 15.9614 22.9097 17.222 22.9451C19.0049 22.9984 19.185 22.6257 19.113 24.7375C19.077 25.4295 19.3831 25.5892 20.0134 25.5715C21.3641 25.536 22.7147 25.5715 24.0654 25.5538C24.4796 25.5538 24.8218 25.6425 25.1099 25.9442C26.2625 27.0976 27.397 28.2511 28.5676 29.3868C29.0898 29.9014 29.1259 30.5048 28.9098 31.1081C28.6937 31.6937 28.0814 31.4808 27.6311 31.4808C25.5421 31.4631 25.5601 31.8357 25.5961 29.5998C25.6141 29.0851 25.4521 28.8544 24.8938 28.8544C23.219 28.8722 21.5442 28.8899 19.8513 28.8544C19.239 28.8367 19.095 29.0851 19.095 29.6353C19.131 31.0726 19.113 32.5278 19.113 33.9652C19.113 35.3139 19.113 35.3139 20.4816 35.3671C21.7062 35.4026 21.7062 35.4026 21.7062 36.5915C21.7062 36.6803 21.7062 36.769 21.7062 36.8577C21.7062 38.5081 21.7062 38.5436 19.9954 38.5791C19.3471 38.5968 19.095 38.8275 19.113 39.4841C19.149 41.0457 19.149 42.6073 19.113 44.1689C19.095 44.8255 19.3651 45.0562 20.0134 45.0562C21.5442 45.0207 23.0749 45.0207 24.6057 45.0562C25.344 45.074 25.6322 44.8255 25.6141 44.098C25.5781 42.6606 25.5961 41.2054 25.5961 39.768C25.5961 38.6146 25.5961 38.6146 24.3715 38.5968C23.0209 38.5968 23.0209 38.5968 23.0209 37.2481C23.0209 35.4913 23.0209 35.4736 24.7677 35.4026C25.326 35.3848 25.5781 35.1719 25.6141 34.6218C25.7402 32.8295 25.7582 32.8295 27.6131 32.8295C27.7032 32.8295 27.7932 32.8472 27.8833 32.8295C28.7477 32.7052 29.0538 33.0602 29.0358 33.912C28.9998 35.3316 29.0358 35.3316 30.4225 35.4203C31.6291 35.4736 31.6291 35.4736 31.6291 36.6803C31.6291 38.5436 31.6291 38.5613 29.7562 38.6146C29.2339 38.6323 28.9998 38.792 29.0178 39.3421C29.0358 41.028 29.0358 42.696 29.0178 44.3819C29.0178 44.932 29.2519 45.0917 29.7742 45.074C31.395 45.0562 33.0158 45.0562 34.6366 45.074C35.1768 45.074 35.3929 44.8965 35.3749 44.3641C35.3569 42.6783 35.3569 41.0102 35.3749 39.3244C35.3749 38.8452 35.2128 38.65 34.7086 38.6146C32.8537 38.5081 32.8537 38.4903 32.8537 36.6448C32.8537 36.5206 32.8537 36.4141 32.8537 36.2899C32.8177 35.651 33.1238 35.3671 33.7721 35.4203C34.0062 35.4381 34.2584 35.4026 34.4925 35.4203C35.1588 35.4913 35.3929 35.2251 35.3929 34.5685C35.3569 32.9537 35.3569 31.3211 35.3929 29.7062C35.4109 29.1029 35.2309 28.8899 34.6005 28.8899C32.8717 28.8899 32.8717 28.8722 32.8717 27.1686C32.8717 26.9912 32.8897 26.8137 32.8717 26.6362C32.8177 25.9087 33.0518 25.5715 33.8802 25.5892C35.3569 25.6425 35.3569 25.5892 35.3749 24.1696C35.3749 24.1341 35.3749 24.1164 35.3749 24.0809C35.3209 23.3355 35.6811 22.9806 36.4374 23.0161C36.7436 23.0339 37.0317 23.0161 37.3379 23.0161C38.7786 23.0161 38.7786 23.0161 38.7786 24.418C38.7966 25.5892 38.8146 25.607 39.9852 25.607C41.3538 25.607 41.3538 25.607 41.3538 26.9557C41.3538 28.8012 41.3538 28.819 39.4629 28.9077C38.9767 28.9254 38.7606 29.0674 38.7606 29.582C38.7786 31.2679 38.7786 32.9359 38.7606 34.6218C38.7606 35.2251 39.0487 35.4558 39.661 35.4381C41.3178 35.4203 42.9566 35.4026 44.6134 35.4381C45.2437 35.4558 45.3698 35.1719 45.3518 34.6395C45.3338 33.2199 45.3518 31.818 45.3518 30.3983C45.3518 28.9254 45.3518 28.8722 43.8571 28.9254C42.9566 28.9609 42.6505 28.677 42.6865 27.772C42.7405 25.7312 42.7045 25.7135 44.7575 25.6247C45.2257 25.607 45.3878 25.465 45.3698 25.0036C45.2978 24.0986 45.3158 23.2113 45.3158 22.324Z" fill="#4D4D5D"/>
<path d="M54.6984 27.0444C54.5723 41.72 42.7405 54 27.325 54.0178C11.9275 54 -0.300524 41.862 0.00562552 26.4233C0.311775 11.8364 11.6573 0.017765 27.397 1.93766e-05C42.7225 -0.0177263 54.6083 12.1558 54.6984 27.0444ZM45.3158 22.324C45.3158 21.419 45.2978 20.4962 45.3158 19.5912C45.3158 19.1831 45.1537 19.0234 44.7395 19.0234C42.9386 19.0411 41.1377 19.0411 39.3369 19.0234C38.8326 19.0234 38.6165 19.2186 38.6705 19.6977C38.6885 19.9284 38.6705 20.1768 38.6705 20.4075C38.6705 21.6497 38.6705 21.6497 37.4099 21.6497C35.465 21.6497 35.447 21.6497 35.3929 19.7687C35.3749 19.2718 35.3029 19.0056 34.7086 19.0234C33.0338 19.0588 31.359 19.0411 29.6661 19.0234C29.1619 19.0234 28.9638 19.1831 28.9638 19.6799C28.9818 21.419 28.9818 23.1581 28.9638 24.8972C28.9638 25.4473 29.1799 25.5892 29.7021 25.5892C31.5571 25.6247 31.5571 25.6425 31.5571 27.5058C31.5571 27.559 31.5571 27.63 31.5571 27.6832C31.5571 28.8544 31.3049 29.0496 30.1163 28.8722C29.7562 28.819 29.5401 28.5705 29.324 28.3398C28.2254 27.2751 27.1449 26.1571 26.0283 25.1101C25.6682 24.7729 25.5241 24.4003 25.5421 23.9389C25.5601 22.6435 25.5241 21.348 25.5601 20.0526C25.5781 19.325 25.362 18.9879 24.5336 19.0056C22.9669 19.0411 22.9669 19.0056 22.9669 17.4617C22.9669 17.4085 22.9669 17.3375 22.9669 17.2843C22.9669 15.8824 22.9669 15.8824 24.3895 15.8824C25.5061 15.8824 25.5421 15.8469 25.5421 14.7289C25.5421 14.5515 25.5601 14.374 25.5421 14.1965C25.4701 13.5222 25.7942 13.2915 26.4426 13.3447C26.6587 13.3625 26.8568 13.3447 27.0729 13.3447C28.8918 13.3447 28.9098 13.3447 28.9458 15.0838C28.9638 15.6517 29.1259 15.8824 29.7202 15.8646C31.3049 15.8469 32.8897 15.8291 34.4925 15.8646C35.1408 15.8824 35.3209 15.6339 35.3209 15.0306C35.2849 13.4157 35.2849 11.7831 35.3209 10.1683C35.3389 9.52943 35.0868 9.35198 34.4745 9.36972C33.2139 9.40521 31.9532 9.38747 30.6926 9.38747C28.9998 9.38747 28.9818 9.38747 28.9638 11.0556C28.9638 11.7121 28.6756 11.9606 28.0633 11.9606C27.8292 11.9606 27.5771 11.9606 27.343 11.9606C25.5781 11.9606 25.5601 11.9606 25.5601 10.257C25.5601 9.61816 25.344 9.35198 24.6777 9.36972C23.0929 9.40521 21.5081 9.38747 19.9054 9.36972C19.2931 9.36972 19.0589 9.60042 19.0589 10.2038C19.077 11.8009 19.077 13.3802 19.0589 14.9773C19.0409 15.6339 19.3651 15.8469 19.9954 15.8469C21.6702 15.8824 21.6702 15.9001 21.6702 17.4972C21.6702 17.5505 21.6702 17.6214 21.6702 17.6747C21.6522 19.0766 21.8503 18.9524 20.3736 18.9701C18.8428 18.9879 19.0409 18.8282 19.0229 20.2833C19.0049 21.7917 19.113 21.5787 17.7443 21.5787C15.9254 21.5965 15.8894 21.5787 15.8894 19.8042C15.8894 19.2008 15.7093 18.9524 15.079 18.9701C13.4042 19.0056 11.7294 19.0056 10.0365 18.9701C9.3702 18.9524 9.22613 19.2186 9.24414 19.8042C9.28016 21.3125 9.24414 22.8032 9.26215 24.3116C9.26215 25.7135 9.1541 25.5183 10.5228 25.536C11.8194 25.5538 11.8914 25.607 11.8914 26.9024C11.8914 28.6592 12.1256 28.9787 9.96449 28.8367C9.38821 28.8012 9.26215 29.0319 9.26215 29.5465C9.29817 31.2324 9.28016 32.9005 9.26215 34.5863C9.26215 35.1541 9.44224 35.3671 10.0365 35.3671C11.6573 35.3316 13.2781 35.3316 14.8989 35.3671C15.5472 35.3848 15.7273 35.1187 15.7273 34.5331C15.7093 32.9182 15.6913 31.2856 15.7273 29.6707C15.7453 28.9787 15.5112 28.8367 14.8629 28.8367C13.1881 28.8544 13.1881 28.819 13.1881 27.1686C13.1881 27.0799 13.1881 26.9912 13.1881 26.9024C13.1881 25.5538 13.1881 25.5005 14.5928 25.5715C15.4932 25.6247 15.8354 25.3586 15.7453 24.4535C15.6013 23.0516 15.9614 22.9097 17.222 22.9451C19.0049 22.9984 19.185 22.6257 19.113 24.7375C19.077 25.4295 19.3831 25.5892 20.0134 25.5715C21.3641 25.536 22.7147 25.5715 24.0654 25.5538C24.4796 25.5538 24.8218 25.6425 25.1099 25.9442C26.2625 27.0976 27.397 28.2511 28.5676 29.3868C29.0898 29.9014 29.1259 30.5048 28.9098 31.1081C28.6937 31.6937 28.0814 31.4808 27.6311 31.4808C25.5421 31.4631 25.5601 31.8357 25.5961 29.5998C25.6141 29.0851 25.4521 28.8544 24.8938 28.8544C23.219 28.8722 21.5442 28.8899 19.8513 28.8544C19.239 28.8367 19.095 29.0851 19.095 29.6353C19.131 31.0726 19.113 32.5278 19.113 33.9652C19.113 35.3139 19.113 35.3139 20.4816 35.3671C21.7062 35.4026 21.7062 35.4026 21.7062 36.5915C21.7062 36.6803 21.7062 36.769 21.7062 36.8577C21.7062 38.5081 21.7062 38.5436 19.9954 38.5791C19.3471 38.5968 19.095 38.8275 19.113 39.4841C19.149 41.0457 19.149 42.6073 19.113 44.1689C19.095 44.8255 19.3651 45.0562 20.0134 45.0562C21.5442 45.0207 23.0749 45.0207 24.6057 45.0562C25.344 45.074 25.6322 44.8255 25.6141 44.098C25.5781 42.6606 25.5961 41.2054 25.5961 39.768C25.5961 38.6146 25.5961 38.6146 24.3715 38.5968C23.0209 38.5968 23.0209 38.5968 23.0209 37.2481C23.0209 35.4913 23.0209 35.4736 24.7677 35.4026C25.326 35.3848 25.5781 35.1719 25.6141 34.6218C25.7402 32.8295 25.7582 32.8295 27.6131 32.8295C27.7032 32.8295 27.7932 32.8472 27.8833 32.8295C28.7477 32.7052 29.0538 33.0602 29.0358 33.912C28.9998 35.3316 29.0358 35.3316 30.4225 35.4203C31.6291 35.4736 31.6291 35.4736 31.6291 36.6803C31.6291 38.5436 31.6291 38.5613 29.7562 38.6146C29.2339 38.6323 28.9998 38.792 29.0178 39.3421C29.0358 41.028 29.0358 42.696 29.0178 44.3819C29.0178 44.932 29.2519 45.0917 29.7742 45.074C31.395 45.0562 33.0158 45.0562 34.6366 45.074C35.1768 45.074 35.3929 44.8965 35.3749 44.3641C35.3569 42.6783 35.3569 41.0102 35.3749 39.3244C35.3749 38.8452 35.2128 38.65 34.7086 38.6146C32.8537 38.5081 32.8537 38.4903 32.8537 36.6448C32.8537 36.5206 32.8537 36.4141 32.8537 36.2899C32.8177 35.651 33.1238 35.3671 33.7721 35.4203C34.0062 35.4381 34.2584 35.4026 34.4925 35.4203C35.1588 35.4913 35.3929 35.2251 35.3929 34.5685C35.3569 32.9537 35.3569 31.3211 35.3929 29.7062C35.4109 29.1029 35.2309 28.8899 34.6005 28.8899C32.8717 28.8899 32.8717 28.8722 32.8717 27.1686C32.8717 26.9912 32.8897 26.8137 32.8717 26.6362C32.8177 25.9087 33.0518 25.5715 33.8802 25.5892C35.3569 25.6425 35.3569 25.5892 35.3749 24.1696C35.3749 24.1341 35.3749 24.1164 35.3749 24.0809C35.3209 23.3355 35.6811 22.9806 36.4374 23.0161C36.7436 23.0339 37.0317 23.0161 37.3379 23.0161C38.7786 23.0161 38.7786 23.0161 38.7786 24.418C38.7966 25.5892 38.8146 25.607 39.9852 25.607C41.3538 25.607 41.3538 25.607 41.3538 26.9557C41.3538 28.8012 41.3538 28.819 39.4629 28.9077C38.9767 28.9254 38.7606 29.0674 38.7606 29.582C38.7786 31.2679 38.7786 32.9359 38.7606 34.6218C38.7606 35.2251 39.0487 35.4558 39.661 35.4381C41.3178 35.4203 42.9566 35.4026 44.6134 35.4381C45.2437 35.4558 45.3698 35.1719 45.3518 34.6395C45.3338 33.2199 45.3518 31.818 45.3518 30.3983C45.3518 28.9254 45.3518 28.8722 43.8571 28.9254C42.9566 28.9609 42.6505 28.677 42.6865 27.772C42.7405 25.7312 42.7045 25.7135 44.7575 25.6247C45.2257 25.607 45.3878 25.465 45.3698 25.0036C45.2978 24.0986 45.3158 23.2113 45.3158 22.324Z" fill="url(#paint0_linear)" fill-opacity="0.4"/>
<path d="M112.345 30.8419C112.345 33.5215 112.309 36.1124 112.363 38.7032C112.381 39.5018 112.183 39.7502 111.336 39.7325C109.229 39.6792 109.229 39.7147 109.229 37.6562C109.229 33.9651 109.247 30.2918 109.211 26.6007C109.211 25.8376 109.374 25.6069 110.22 25.5182C111.913 25.3408 112.885 25.9086 113.696 27.3992C115.01 29.8127 116.595 32.0664 118.09 34.4088C118.414 34.0894 118.288 33.7344 118.288 33.4328C118.306 31.0726 118.306 28.7124 118.288 26.3523C118.288 25.7667 118.432 25.536 119.08 25.5182C121.511 25.5005 121.511 25.465 121.511 27.8429C121.511 31.4985 121.493 35.1541 121.529 38.8097C121.529 39.5195 121.313 39.7857 120.629 39.6792C120.485 39.6615 120.323 39.6615 120.179 39.6792C118.72 39.9277 117.82 39.4308 117.081 38.0821C115.839 35.7929 114.326 33.628 112.939 31.4098C112.813 31.1968 112.633 31.0549 112.345 30.8419Z" fill="#4D4D5D"/>
<path d="M112.345 30.8419C112.345 33.5215 112.309 36.1124 112.363 38.7032C112.381 39.5018 112.183 39.7502 111.336 39.7325C109.229 39.6792 109.229 39.7147 109.229 37.6562C109.229 33.9651 109.247 30.2918 109.211 26.6007C109.211 25.8376 109.374 25.6069 110.22 25.5182C111.913 25.3408 112.885 25.9086 113.696 27.3992C115.01 29.8127 116.595 32.0664 118.09 34.4088C118.414 34.0894 118.288 33.7344 118.288 33.4328C118.306 31.0726 118.306 28.7124 118.288 26.3523C118.288 25.7667 118.432 25.536 119.08 25.5182C121.511 25.5005 121.511 25.465 121.511 27.8429C121.511 31.4985 121.493 35.1541 121.529 38.8097C121.529 39.5195 121.313 39.7857 120.629 39.6792C120.485 39.6615 120.323 39.6615 120.179 39.6792C118.72 39.9277 117.82 39.4308 117.081 38.0821C115.839 35.7929 114.326 33.628 112.939 31.4098C112.813 31.1968 112.633 31.0549 112.345 30.8419Z" fill="url(#paint1_linear)" fill-opacity="0.4"/>
<path d="M89.6899 11.3573C89.6899 12.9721 89.6899 14.516 89.6899 16.0599C89.6899 17.2666 89.6719 18.4733 89.7079 19.68C89.7259 20.2124 89.5458 20.3898 88.9875 20.4076C86.6284 20.4608 86.6284 20.4785 86.6284 18.2248C86.6284 14.516 86.6464 10.8072 86.6104 7.09833C86.6104 6.40625 86.8085 6.17555 87.5108 6.17555C89.7799 6.14006 89.7979 6.10457 91.2566 8.37601C92.6613 10.5765 94.03 12.8302 95.4347 15.1016C95.7588 14.7822 95.6688 14.4273 95.6688 14.0901C95.6688 11.7299 95.6868 9.36977 95.6688 7.02734C95.6688 6.44174 95.8129 6.17555 96.4612 6.1933C99.4326 6.26428 98.8383 5.78515 98.8744 8.447C98.9104 12.1203 98.8563 15.8114 98.8924 19.4848C98.8924 20.2124 98.6582 20.3366 97.9379 20.4608C96.083 20.7447 95.0565 19.9817 94.2101 18.42C92.9134 16.0599 91.3647 13.8239 89.924 11.5347C89.888 11.4638 89.8159 11.446 89.6899 11.3573Z" fill="#4D4D5D"/>
<path d="M89.6899 11.3573C89.6899 12.9721 89.6899 14.516 89.6899 16.0599C89.6899 17.2666 89.6719 18.4733 89.7079 19.68C89.7259 20.2124 89.5458 20.3898 88.9875 20.4076C86.6284 20.4608 86.6284 20.4785 86.6284 18.2248C86.6284 14.516 86.6464 10.8072 86.6104 7.09833C86.6104 6.40625 86.8085 6.17555 87.5108 6.17555C89.7799 6.14006 89.7979 6.10457 91.2566 8.37601C92.6613 10.5765 94.03 12.8302 95.4347 15.1016C95.7588 14.7822 95.6688 14.4273 95.6688 14.0901C95.6688 11.7299 95.6868 9.36977 95.6688 7.02734C95.6688 6.44174 95.8129 6.17555 96.4612 6.1933C99.4326 6.26428 98.8383 5.78515 98.8744 8.447C98.9104 12.1203 98.8563 15.8114 98.8924 19.4848C98.8924 20.2124 98.6582 20.3366 97.9379 20.4608C96.083 20.7447 95.0565 19.9817 94.2101 18.42C92.9134 16.0599 91.3647 13.8239 89.924 11.5347C89.888 11.4638 89.8159 11.446 89.6899 11.3573Z" fill="url(#paint2_linear)" fill-opacity="0.4"/>
<path d="M133.884 13.2384C133.884 11.1444 133.902 9.05042 133.865 6.95644C133.865 6.33534 134.046 6.14014 134.676 6.14014C137.161 6.17563 139.646 6.14014 142.132 6.17563C143.608 6.19337 145.337 7.45332 145.823 9.21013C146.183 10.5233 145.715 12.5818 144.275 13.3804C144.058 13.5046 143.77 13.5933 144.13 13.824C145.517 14.6758 145.643 16.0777 145.805 17.4619C145.895 18.2782 145.805 19.1122 146.165 19.893C146.292 20.1769 146.147 20.3544 145.841 20.3544C145.517 20.3544 145.175 20.3721 144.851 20.3721C142.744 20.3721 142.744 20.3721 142.6 18.2427C142.564 17.5861 142.564 16.9295 142.312 16.2729C142.005 15.4921 141.591 15.0485 140.709 15.0485C139.808 15.0485 138.908 15.0485 138.008 14.9952C137.431 14.9597 137.215 15.1727 137.233 15.7583C137.269 17.0537 137.233 18.3491 137.251 19.6446C137.269 20.1769 137.089 20.4076 136.531 20.3721C135.864 20.3367 135.216 20.3189 134.55 20.3721C133.902 20.4254 133.829 20.106 133.829 19.5736C133.902 17.4796 133.884 15.3679 133.884 13.2384ZM139.502 12.4753C140.006 12.4753 140.511 12.4931 141.015 12.4753C141.987 12.4398 142.546 11.9075 142.6 10.9847C142.672 9.60054 142.312 9.01493 141.177 8.89071C140.385 8.80198 139.574 8.81973 138.764 8.80198C137.233 8.78424 137.233 8.80198 137.233 10.2571C137.233 12.4931 137.233 12.4931 139.502 12.4753Z" fill="#4D4D5D"/>
<path d="M133.884 13.2384C133.884 11.1444 133.902 9.05042 133.865 6.95644C133.865 6.33534 134.046 6.14014 134.676 6.14014C137.161 6.17563 139.646 6.14014 142.132 6.17563C143.608 6.19337 145.337 7.45332 145.823 9.21013C146.183 10.5233 145.715 12.5818 144.275 13.3804C144.058 13.5046 143.77 13.5933 144.13 13.824C145.517 14.6758 145.643 16.0777 145.805 17.4619C145.895 18.2782 145.805 19.1122 146.165 19.893C146.292 20.1769 146.147 20.3544 145.841 20.3544C145.517 20.3544 145.175 20.3721 144.851 20.3721C142.744 20.3721 142.744 20.3721 142.6 18.2427C142.564 17.5861 142.564 16.9295 142.312 16.2729C142.005 15.4921 141.591 15.0485 140.709 15.0485C139.808 15.0485 138.908 15.0485 138.008 14.9952C137.431 14.9597 137.215 15.1727 137.233 15.7583C137.269 17.0537 137.233 18.3491 137.251 19.6446C137.269 20.1769 137.089 20.4076 136.531 20.3721C135.864 20.3367 135.216 20.3189 134.55 20.3721C133.902 20.4254 133.829 20.106 133.829 19.5736C133.902 17.4796 133.884 15.3679 133.884 13.2384ZM139.502 12.4753C140.006 12.4753 140.511 12.4931 141.015 12.4753C141.987 12.4398 142.546 11.9075 142.6 10.9847C142.672 9.60054 142.312 9.01493 141.177 8.89071C140.385 8.80198 139.574 8.81973 138.764 8.80198C137.233 8.78424 137.233 8.80198 137.233 10.2571C137.233 12.4931 137.233 12.4931 139.502 12.4753Z" fill="url(#paint3_linear)" fill-opacity="0.4"/>
<path d="M123.997 20.7092C119.963 20.7979 116.883 17.586 116.937 13.2915C116.991 9.08579 119.819 5.76736 124.123 5.87383C129.273 5.99805 131.182 9.63591 131.182 13.4335C131.182 17.586 128.373 20.7802 123.997 20.7092ZM120.323 13.2915C120.197 14.0901 120.413 14.8176 120.665 15.5452C121.205 17.0713 122.376 17.9409 123.907 17.9941C125.221 18.0473 126.77 17.3198 127.346 15.7227C127.995 13.8949 127.923 12.1735 127.112 10.4345C126.518 9.13903 125.365 8.67764 124.087 8.64215C122.808 8.60666 121.656 9.13903 121.043 10.2925C120.575 11.1975 120.143 12.1913 120.323 13.2915Z" fill="#4D4D5D"/>
<path d="M123.997 20.7092C119.963 20.7979 116.883 17.586 116.937 13.2915C116.991 9.08579 119.819 5.76736 124.123 5.87383C129.273 5.99805 131.182 9.63591 131.182 13.4335C131.182 17.586 128.373 20.7802 123.997 20.7092ZM120.323 13.2915C120.197 14.0901 120.413 14.8176 120.665 15.5452C121.205 17.0713 122.376 17.9409 123.907 17.9941C125.221 18.0473 126.77 17.3198 127.346 15.7227C127.995 13.8949 127.923 12.1735 127.112 10.4345C126.518 9.13903 125.365 8.67764 124.087 8.64215C122.808 8.60666 121.656 9.13903 121.043 10.2925C120.575 11.1975 120.143 12.1913 120.323 13.2915Z" fill="url(#paint4_linear)" fill-opacity="0.4"/>
<path d="M65.324 40.0697C62.5686 40.0519 60.5156 39.5195 59.237 37.3546C58.9308 36.8399 58.9308 36.2543 58.6967 35.7042C58.4986 35.2428 58.8408 34.9944 59.309 34.9767C59.9934 34.9589 60.6957 34.9589 61.38 34.9767C61.7042 34.9944 61.9563 35.0831 62.0464 35.5268C62.2985 36.7335 63.1449 37.3901 64.4415 37.4078C65.342 37.4256 66.2604 37.5853 67.1068 36.9997C67.8272 36.5028 67.8812 35.1896 66.9808 34.746C65.7202 34.1071 64.3155 33.9474 63.0188 33.486C62.0464 33.1489 61.0559 32.8294 60.3355 32.1019C58.4626 30.1853 58.9849 27.5945 61.3981 26.1571C63.9553 24.6487 66.4045 24.9504 68.7817 26.4232C69.8442 27.0798 70.3664 28.1268 70.3304 29.4045C70.3304 29.7949 70.1863 29.9369 69.8082 29.9191C69.394 29.9014 68.9617 29.8837 68.5475 29.9191C67.6831 29.9901 67.0168 29.9014 66.8907 28.8367C66.8367 28.464 66.4405 28.2688 66.0623 28.1091C65.0718 27.7187 64.0994 27.6654 63.1449 28.1623C62.6407 28.4285 62.4065 28.9076 62.4606 29.4045C62.5146 29.9546 62.9108 30.345 63.4871 30.487C64.7477 30.8064 66.0263 31.0726 67.2509 31.463C69.3399 32.1196 70.6005 33.0779 70.9607 35.2783C71.1228 36.2721 70.4385 38.2773 69.0158 39.0582C67.7191 39.768 66.3685 40.1761 65.324 40.0697Z" fill="#4D4D5D"/>
<path d="M65.324 40.0697C62.5686 40.0519 60.5156 39.5195 59.237 37.3546C58.9308 36.8399 58.9308 36.2543 58.6967 35.7042C58.4986 35.2428 58.8408 34.9944 59.309 34.9767C59.9934 34.9589 60.6957 34.9589 61.38 34.9767C61.7042 34.9944 61.9563 35.0831 62.0464 35.5268C62.2985 36.7335 63.1449 37.3901 64.4415 37.4078C65.342 37.4256 66.2604 37.5853 67.1068 36.9997C67.8272 36.5028 67.8812 35.1896 66.9808 34.746C65.7202 34.1071 64.3155 33.9474 63.0188 33.486C62.0464 33.1489 61.0559 32.8294 60.3355 32.1019C58.4626 30.1853 58.9849 27.5945 61.3981 26.1571C63.9553 24.6487 66.4045 24.9504 68.7817 26.4232C69.8442 27.0798 70.3664 28.1268 70.3304 29.4045C70.3304 29.7949 70.1863 29.9369 69.8082 29.9191C69.394 29.9014 68.9617 29.8837 68.5475 29.9191C67.6831 29.9901 67.0168 29.9014 66.8907 28.8367C66.8367 28.464 66.4405 28.2688 66.0623 28.1091C65.0718 27.7187 64.0994 27.6654 63.1449 28.1623C62.6407 28.4285 62.4065 28.9076 62.4606 29.4045C62.5146 29.9546 62.9108 30.345 63.4871 30.487C64.7477 30.8064 66.0263 31.0726 67.2509 31.463C69.3399 32.1196 70.6005 33.0779 70.9607 35.2783C71.1228 36.2721 70.4385 38.2773 69.0158 39.0582C67.7191 39.768 66.3685 40.1761 65.324 40.0697Z" fill="url(#paint5_linear)" fill-opacity="0.4"/>
<path d="M95.6148 32.6164C95.6148 30.5224 95.6328 28.4284 95.5968 26.3344C95.5788 25.7133 95.7949 25.5359 96.4072 25.5359C99.4687 25.5714 102.512 25.5714 105.574 25.5359C106.186 25.5359 106.33 25.7311 106.33 26.299C106.348 28.2155 106.366 28.2155 104.439 28.2155C102.854 28.2155 101.27 28.2332 99.6848 28.1977C99.0905 28.18 98.9104 28.3929 98.9104 28.9608C98.8564 31.1613 98.8383 31.1613 101.089 31.1613C102.404 31.1613 103.719 31.179 105.051 31.1435C105.664 31.1258 105.898 31.3032 105.898 31.9421C105.916 33.7876 105.952 33.7876 104.079 33.7876C102.602 33.7876 101.143 33.8231 99.6848 33.7699C99.0725 33.7521 98.8924 33.9651 98.9284 34.5329C99.0004 35.3137 98.6042 36.3252 99.0725 36.8399C99.5587 37.3722 100.603 36.9996 101.396 37.0173C102.89 37.0528 104.385 37.0528 105.88 37.0173C106.474 36.9996 106.636 37.2125 106.636 37.7804C106.636 39.6792 106.672 39.6792 104.727 39.6792C101.936 39.6792 99.1625 39.6614 96.3711 39.6969C95.7949 39.6969 95.5968 39.5549 95.5968 38.9693C95.6328 36.8576 95.6148 34.7459 95.6148 32.6164Z" fill="#4D4D5D"/>
<path d="M95.6148 32.6164C95.6148 30.5224 95.6328 28.4284 95.5968 26.3344C95.5788 25.7133 95.7949 25.5359 96.4072 25.5359C99.4687 25.5714 102.512 25.5714 105.574 25.5359C106.186 25.5359 106.33 25.7311 106.33 26.299C106.348 28.2155 106.366 28.2155 104.439 28.2155C102.854 28.2155 101.27 28.2332 99.6848 28.1977C99.0905 28.18 98.9104 28.3929 98.9104 28.9608C98.8564 31.1613 98.8383 31.1613 101.089 31.1613C102.404 31.1613 103.719 31.179 105.051 31.1435C105.664 31.1258 105.898 31.3032 105.898 31.9421C105.916 33.7876 105.952 33.7876 104.079 33.7876C102.602 33.7876 101.143 33.8231 99.6848 33.7699C99.0725 33.7521 98.8924 33.9651 98.9284 34.5329C99.0004 35.3137 98.6042 36.3252 99.0725 36.8399C99.5587 37.3722 100.603 36.9996 101.396 37.0173C102.89 37.0528 104.385 37.0528 105.88 37.0173C106.474 36.9996 106.636 37.2125 106.636 37.7804C106.636 39.6792 106.672 39.6792 104.727 39.6792C101.936 39.6792 99.1625 39.6614 96.3711 39.6969C95.7949 39.6969 95.5968 39.5549 95.5968 38.9693C95.6328 36.8576 95.6148 34.7459 95.6148 32.6164Z" fill="url(#paint6_linear)" fill-opacity="0.4"/>
<path d="M108.779 5.89143C111.751 5.69623 114.254 7.8612 114.794 10.0617C115.028 11.0377 114.992 11.1441 114.002 11.1619C113.696 11.1619 113.407 11.1441 113.101 11.1619C112.291 11.2329 111.751 11.1264 111.408 10.2036C110.976 9.03241 109.752 8.65975 108.617 8.642C107.393 8.62426 106.276 9.17437 105.7 10.3456C104.745 12.2444 104.691 14.1786 105.628 16.1307C106.186 17.3019 107.519 18.0827 108.815 17.994C110.256 17.8875 111.246 17.1244 111.625 15.7225C111.805 15.0659 112.075 14.6755 112.849 14.7997C113.137 14.853 113.443 14.7997 113.75 14.7997C114.992 14.7997 115.208 15.0659 114.866 16.2371C113.804 19.8927 110.436 21.3834 106.87 20.5316C104.583 19.9815 102.98 18.5796 102.17 16.4146C101.576 14.8175 101.378 13.2026 101.846 11.4813C102.224 10.0794 102.746 8.8727 103.791 7.8257C105.177 6.4238 106.798 5.87368 108.779 5.89143Z" fill="#4D4D5D"/>
<path d="M108.779 5.89143C111.751 5.69623 114.254 7.8612 114.794 10.0617C115.028 11.0377 114.992 11.1441 114.002 11.1619C113.696 11.1619 113.407 11.1441 113.101 11.1619C112.291 11.2329 111.751 11.1264 111.408 10.2036C110.976 9.03241 109.752 8.65975 108.617 8.642C107.393 8.62426 106.276 9.17437 105.7 10.3456C104.745 12.2444 104.691 14.1786 105.628 16.1307C106.186 17.3019 107.519 18.0827 108.815 17.994C110.256 17.8875 111.246 17.1244 111.625 15.7225C111.805 15.0659 112.075 14.6755 112.849 14.7997C113.137 14.853 113.443 14.7997 113.75 14.7997C114.992 14.7997 115.208 15.0659 114.866 16.2371C113.804 19.8927 110.436 21.3834 106.87 20.5316C104.583 19.9815 102.98 18.5796 102.17 16.4146C101.576 14.8175 101.378 13.2026 101.846 11.4813C102.224 10.0794 102.746 8.8727 103.791 7.8257C105.177 6.4238 106.798 5.87368 108.779 5.89143Z" fill="url(#paint7_linear)" fill-opacity="0.4"/>
<path d="M79.695 40.0521C76.2553 40.2827 73.464 37.5677 72.9057 34.7993C72.2574 31.6229 72.7616 28.8191 75.3369 26.7073C78.6325 23.9922 84.3413 24.9328 85.8 29.3159C86.1241 30.292 85.9981 30.4872 84.9536 30.5049C84.6294 30.5049 84.2873 30.4872 83.9631 30.5049C83.2427 30.5404 82.7565 30.4872 82.4143 29.6176C81.9641 28.4819 80.8296 28.0028 79.605 28.0383C78.3263 28.0737 77.2278 28.6061 76.6695 29.8128C75.7871 31.7293 75.7871 33.6636 76.6695 35.6156C77.2098 36.8046 78.9386 37.4967 79.8751 37.4257C81.2077 37.3192 82.2703 36.5029 82.6304 35.2252C82.8465 34.4444 83.2067 33.9653 84.1252 34.1428C84.3233 34.1782 84.5394 34.1428 84.7555 34.1428C86.0161 34.1428 86.3042 34.5864 85.89 35.8108C85.0076 38.2952 82.8285 40.2118 79.695 40.0521Z" fill="#4D4D5D"/>
<path d="M79.695 40.0521C76.2553 40.2827 73.464 37.5677 72.9057 34.7993C72.2574 31.6229 72.7616 28.8191 75.3369 26.7073C78.6325 23.9922 84.3413 24.9328 85.8 29.3159C86.1241 30.292 85.9981 30.4872 84.9536 30.5049C84.6294 30.5049 84.2873 30.4872 83.9631 30.5049C83.2427 30.5404 82.7565 30.4872 82.4143 29.6176C81.9641 28.4819 80.8296 28.0028 79.605 28.0383C78.3263 28.0737 77.2278 28.6061 76.6695 29.8128C75.7871 31.7293 75.7871 33.6636 76.6695 35.6156C77.2098 36.8046 78.9386 37.4967 79.8751 37.4257C81.2077 37.3192 82.2703 36.5029 82.6304 35.2252C82.8465 34.4444 83.2067 33.9653 84.1252 34.1428C84.3233 34.1782 84.5394 34.1428 84.7555 34.1428C86.0161 34.1428 86.3042 34.5864 85.89 35.8108C85.0076 38.2952 82.8285 40.2118 79.695 40.0521Z" fill="url(#paint8_linear)" fill-opacity="0.4"/>
<path d="M169.379 40.0697C166.551 40.0342 164.354 38.6323 163.184 35.8108C161.941 32.8473 162.59 28.8013 165.255 26.6895C168.604 24.0454 174.295 24.915 175.736 29.2626C176.06 30.2741 175.97 30.4693 174.926 30.4693C174.619 30.4693 174.331 30.4516 174.025 30.4693C173.251 30.5226 172.728 30.4339 172.314 29.5466C171.342 27.4703 167.992 27.5946 166.84 29.3869C165.651 31.2147 165.615 34.3379 166.93 36.0592C167.668 37.0175 168.749 37.5321 169.955 37.3369C171.18 37.124 172.242 36.5384 172.548 35.1897C172.728 34.4089 173.107 33.912 174.025 34.0895C174.259 34.1427 174.511 34.0895 174.745 34.0895C175.934 34.0895 176.222 34.4089 175.844 35.5623C175.196 37.5676 174.025 39.0937 171.828 39.7326C171.108 39.981 170.405 39.9988 169.379 40.0697Z" fill="#4D4D5D"/>
<path d="M169.379 40.0697C166.551 40.0342 164.354 38.6323 163.184 35.8108C161.941 32.8473 162.59 28.8013 165.255 26.6895C168.604 24.0454 174.295 24.915 175.736 29.2626C176.06 30.2741 175.97 30.4693 174.926 30.4693C174.619 30.4693 174.331 30.4516 174.025 30.4693C173.251 30.5226 172.728 30.4339 172.314 29.5466C171.342 27.4703 167.992 27.5946 166.84 29.3869C165.651 31.2147 165.615 34.3379 166.93 36.0592C167.668 37.0175 168.749 37.5321 169.955 37.3369C171.18 37.124 172.242 36.5384 172.548 35.1897C172.728 34.4089 173.107 33.912 174.025 34.0895C174.259 34.1427 174.511 34.0895 174.745 34.0895C175.934 34.0895 176.222 34.4089 175.844 35.5623C175.196 37.5676 174.025 39.0937 171.828 39.7326C171.108 39.981 170.405 39.9988 169.379 40.0697Z" fill="url(#paint9_linear)" fill-opacity="0.4"/>
<path d="M83.1347 20.3897C83.0987 20.3897 83.0807 20.3897 83.0446 20.3897C81.3518 20.3897 81.3518 20.3897 80.9376 18.8103C80.8296 18.4199 80.5774 18.0827 80.5234 17.6569C80.4694 17.2664 80.0552 17.3729 79.785 17.3729C78.6685 17.3552 77.57 17.3729 76.4534 17.3729C75.0487 17.3729 75.0487 17.3729 74.6345 18.6506C74.0763 20.3897 74.0763 20.3897 72.2934 20.3897C72.0773 20.3897 71.8792 20.3897 71.6631 20.3897C70.8167 20.3719 70.7086 20.23 70.9968 19.4669C72.6356 15.2257 74.2744 10.9845 75.8952 6.74328C76.0392 6.33513 76.2913 6.17542 76.6875 6.15767C77.2818 6.15767 77.8941 6.22866 78.4884 6.13993C79.3708 5.99796 79.713 6.51259 79.9471 7.16918C81.1897 10.6651 82.5224 14.1077 83.873 17.5681C84.1252 18.207 84.3233 18.8636 84.6114 19.5024C84.8275 20.017 84.8635 20.4962 84.0171 20.3897C83.729 20.3542 83.4228 20.3897 83.1347 20.3897ZM77.8041 9.99073C77.2638 11.4814 76.8316 12.7768 76.3274 14.0545C76.0752 14.6933 76.3094 14.8175 76.8856 14.7821C77.4799 14.7466 78.0922 14.7288 78.6865 14.7821C79.4789 14.8708 79.4429 14.4094 79.2808 13.948C78.8306 12.6881 78.3443 11.4459 77.8041 9.99073Z" fill="#4D4D5D"/>
<path d="M83.1347 20.3897C83.0987 20.3897 83.0807 20.3897 83.0446 20.3897C81.3518 20.3897 81.3518 20.3897 80.9376 18.8103C80.8296 18.4199 80.5774 18.0827 80.5234 17.6569C80.4694 17.2664 80.0552 17.3729 79.785 17.3729C78.6685 17.3552 77.57 17.3729 76.4534 17.3729C75.0487 17.3729 75.0487 17.3729 74.6345 18.6506C74.0763 20.3897 74.0763 20.3897 72.2934 20.3897C72.0773 20.3897 71.8792 20.3897 71.6631 20.3897C70.8167 20.3719 70.7086 20.23 70.9968 19.4669C72.6356 15.2257 74.2744 10.9845 75.8952 6.74328C76.0392 6.33513 76.2913 6.17542 76.6875 6.15767C77.2818 6.15767 77.8941 6.22866 78.4884 6.13993C79.3708 5.99796 79.713 6.51259 79.9471 7.16918C81.1897 10.6651 82.5224 14.1077 83.873 17.5681C84.1252 18.207 84.3233 18.8636 84.6114 19.5024C84.8275 20.017 84.8635 20.4962 84.0171 20.3897C83.729 20.3542 83.4228 20.3897 83.1347 20.3897ZM77.8041 9.99073C77.2638 11.4814 76.8316 12.7768 76.3274 14.0545C76.0752 14.6933 76.3094 14.8175 76.8856 14.7821C77.4799 14.7466 78.0922 14.7288 78.6865 14.7821C79.4789 14.8708 79.4429 14.4094 79.2808 13.948C78.8306 12.6881 78.3443 11.4459 77.8041 9.99073Z" fill="url(#paint10_linear)" fill-opacity="0.4"/>
<path d="M144.257 32.652C144.257 30.5402 144.275 28.4108 144.239 26.299C144.239 25.7134 144.419 25.5537 144.995 25.5537C147.876 25.5715 150.74 25.5715 153.621 25.5537C154.143 25.5537 154.36 25.6779 154.396 26.228C154.486 28.2333 154.504 28.2333 152.487 28.2333C151.1 28.2333 149.731 28.251 148.363 28.2156C147.84 28.1978 147.588 28.3398 147.624 28.8899C147.66 29.511 147.66 30.1321 147.624 30.7354C147.588 31.3033 147.84 31.4275 148.363 31.4098C149.803 31.392 151.244 31.4275 152.667 31.392C153.315 31.3743 153.639 31.4985 153.603 32.2616C153.513 34.1426 153.927 33.9829 151.802 33.9829C150.668 33.9829 149.533 34.0006 148.381 33.9651C147.804 33.9474 147.588 34.1426 147.606 34.7282C147.642 36.1479 147.588 37.5498 147.624 38.9694C147.642 39.5018 147.462 39.7147 146.922 39.6792C146.274 39.6438 145.607 39.6438 144.941 39.6792C144.383 39.7147 144.239 39.5195 144.239 38.9694C144.275 36.8932 144.257 34.7814 144.257 32.652Z" fill="#4D4D5D"/>
<path d="M144.257 32.652C144.257 30.5402 144.275 28.4108 144.239 26.299C144.239 25.7134 144.419 25.5537 144.995 25.5537C147.876 25.5715 150.74 25.5715 153.621 25.5537C154.143 25.5537 154.36 25.6779 154.396 26.228C154.486 28.2333 154.504 28.2333 152.487 28.2333C151.1 28.2333 149.731 28.251 148.363 28.2156C147.84 28.1978 147.588 28.3398 147.624 28.8899C147.66 29.511 147.66 30.1321 147.624 30.7354C147.588 31.3033 147.84 31.4275 148.363 31.4098C149.803 31.392 151.244 31.4275 152.667 31.392C153.315 31.3743 153.639 31.4985 153.603 32.2616C153.513 34.1426 153.927 33.9829 151.802 33.9829C150.668 33.9829 149.533 34.0006 148.381 33.9651C147.804 33.9474 147.588 34.1426 147.606 34.7282C147.642 36.1479 147.588 37.5498 147.624 38.9694C147.642 39.5018 147.462 39.7147 146.922 39.6792C146.274 39.6438 145.607 39.6438 144.941 39.6792C144.383 39.7147 144.239 39.5195 144.239 38.9694C144.275 36.8932 144.257 34.7814 144.257 32.652Z" fill="url(#paint11_linear)" fill-opacity="0.4"/>
<path d="M59.5972 13.2916C59.5972 11.1622 59.6152 9.05043 59.5792 6.92096C59.5792 6.3531 59.7593 6.1224 60.3536 6.15789C60.8938 6.19339 61.4341 6.21113 61.9744 6.15789C62.7847 6.06917 63.0008 6.42408 63.0008 7.1694C62.9648 10.3281 63.0189 13.4691 62.9648 16.6278C62.9468 17.4264 63.1449 17.7103 64.0093 17.6748C65.6481 17.6038 67.305 17.6748 68.9618 17.6393C69.6641 17.6216 69.9703 17.799 69.9522 18.5621C69.9162 20.3899 69.9522 20.3899 68.0973 20.3899C65.5581 20.3899 63.0009 20.3722 60.4616 20.4076C59.7953 20.4254 59.5792 20.2302 59.5972 19.5736C59.6152 17.4796 59.5972 15.3856 59.5972 13.2916Z" fill="#4D4D5D"/>
<path d="M59.5972 13.2916C59.5972 11.1622 59.6152 9.05043 59.5792 6.92096C59.5792 6.3531 59.7593 6.1224 60.3536 6.15789C60.8938 6.19339 61.4341 6.21113 61.9744 6.15789C62.7847 6.06917 63.0008 6.42408 63.0008 7.1694C62.9648 10.3281 63.0189 13.4691 62.9648 16.6278C62.9468 17.4264 63.1449 17.7103 64.0093 17.6748C65.6481 17.6038 67.305 17.6748 68.9618 17.6393C69.6641 17.6216 69.9703 17.799 69.9522 18.5621C69.9162 20.3899 69.9522 20.3899 68.0973 20.3899C65.5581 20.3899 63.0009 20.3722 60.4616 20.4076C59.7953 20.4254 59.5792 20.2302 59.5972 19.5736C59.6152 17.4796 59.5972 15.3856 59.5972 13.2916Z" fill="url(#paint12_linear)" fill-opacity="0.4"/>
<path d="M129.381 25.5715C131.11 25.5715 132.857 25.5893 134.586 25.5715C135.072 25.5715 135.252 25.7135 135.27 26.2104C135.342 28.2511 135.36 28.2511 133.325 28.2511C130.948 28.2511 130.948 28.2511 130.948 30.5581C130.948 33.3619 130.93 36.1479 130.966 38.9518C130.966 39.5729 130.786 39.7326 130.156 39.7326C127.688 39.7326 127.688 39.7503 127.688 37.3014C127.688 34.5863 127.67 31.889 127.706 29.1739C127.724 28.4463 127.49 28.1801 126.734 28.2334C125.87 28.2866 125.005 28.2334 124.123 28.2511C123.654 28.2689 123.51 28.1092 123.492 27.6478C123.384 25.5715 123.366 25.5715 125.437 25.5715C126.752 25.5715 128.067 25.5715 129.381 25.5715Z" fill="#4D4D5D"/>
<path d="M129.381 25.5715C131.11 25.5715 132.857 25.5893 134.586 25.5715C135.072 25.5715 135.252 25.7135 135.27 26.2104C135.342 28.2511 135.36 28.2511 133.325 28.2511C130.948 28.2511 130.948 28.2511 130.948 30.5581C130.948 33.3619 130.93 36.1479 130.966 38.9518C130.966 39.5729 130.786 39.7326 130.156 39.7326C127.688 39.7326 127.688 39.7503 127.688 37.3014C127.688 34.5863 127.67 31.889 127.706 29.1739C127.724 28.4463 127.49 28.1801 126.734 28.2334C125.87 28.2866 125.005 28.2334 124.123 28.2511C123.654 28.2689 123.51 28.1092 123.492 27.6478C123.384 25.5715 123.366 25.5715 125.437 25.5715C126.752 25.5715 128.067 25.5715 129.381 25.5715Z" fill="url(#paint13_linear)" fill-opacity="0.4"/>
<path d="M137.593 32.652C137.593 30.5226 137.611 28.4108 137.575 26.2813C137.575 25.6957 137.755 25.5005 138.35 25.536C138.98 25.5715 139.61 25.5715 140.241 25.536C140.781 25.5005 140.961 25.6957 140.961 26.2458C140.943 30.5225 140.943 34.7815 140.961 39.0582C140.961 39.5906 140.727 39.6971 140.259 39.6793C139.592 39.6616 138.944 39.6438 138.278 39.6793C137.719 39.7148 137.557 39.5196 137.575 38.9872C137.611 36.8932 137.593 34.7815 137.593 32.652Z" fill="#4D4D5D"/>
<path d="M137.593 32.652C137.593 30.5226 137.611 28.4108 137.575 26.2813C137.575 25.6957 137.755 25.5005 138.35 25.536C138.98 25.5715 139.61 25.5715 140.241 25.536C140.781 25.5005 140.961 25.6957 140.961 26.2458C140.943 30.5225 140.943 34.7815 140.961 39.0582C140.961 39.5906 140.727 39.6971 140.259 39.6793C139.592 39.6616 138.944 39.6438 138.278 39.6793C137.719 39.7148 137.557 39.5196 137.575 38.9872C137.611 36.8932 137.593 34.7815 137.593 32.652Z" fill="url(#paint14_linear)" fill-opacity="0.4"/>
<path d="M156.881 32.6166C156.881 30.5226 156.899 28.4287 156.863 26.3347C156.845 25.7136 157.043 25.4829 157.673 25.5539C158.502 25.6426 159.564 25.199 160.086 25.7491C160.573 26.2459 160.23 27.2752 160.23 28.056C160.248 31.6584 160.23 35.243 160.248 38.8454C160.248 39.4665 160.158 39.8036 159.438 39.7149C158.61 39.6084 157.547 40.0698 157.025 39.5197C156.539 39.0228 156.899 38.0113 156.881 37.2128C156.863 35.6866 156.881 34.1605 156.881 32.6166Z" fill="#4D4D5D"/>
<path d="M156.881 32.6166C156.881 30.5226 156.899 28.4287 156.863 26.3347C156.845 25.7136 157.043 25.4829 157.673 25.5539C158.502 25.6426 159.564 25.199 160.086 25.7491C160.573 26.2459 160.23 27.2752 160.23 28.056C160.248 31.6584 160.23 35.243 160.248 38.8454C160.248 39.4665 160.158 39.8036 159.438 39.7149C158.61 39.6084 157.547 40.0698 157.025 39.5197C156.539 39.0228 156.899 38.0113 156.881 37.2128C156.863 35.6866 156.881 34.1605 156.881 32.6166Z" fill="url(#paint15_linear)" fill-opacity="0.4"/>
<path d="M88.9515 32.6166C88.9515 30.5226 88.9695 28.4286 88.9335 26.3523C88.9155 25.7312 89.1136 25.5006 89.7439 25.5538C90.3742 25.607 91.0045 25.5893 91.6348 25.5538C92.1031 25.536 92.2652 25.7312 92.2652 26.1749C92.2472 30.5048 92.2472 34.8348 92.2652 39.147C92.2652 39.5906 92.0851 39.7326 91.6709 39.6971C91.6349 39.6971 91.6168 39.6971 91.5808 39.6971C88.9515 39.8213 88.9515 39.8213 88.9515 37.1949C88.9515 35.6866 88.9515 34.1604 88.9515 32.6166Z" fill="#4D4D5D"/>
<path d="M88.9515 32.6166C88.9515 30.5226 88.9695 28.4286 88.9335 26.3523C88.9155 25.7312 89.1136 25.5006 89.7439 25.5538C90.3742 25.607 91.0045 25.5893 91.6348 25.5538C92.1031 25.536 92.2652 25.7312 92.2652 26.1749C92.2472 30.5048 92.2472 34.8348 92.2652 39.147C92.2652 39.5906 92.0851 39.7326 91.6709 39.6971C91.6349 39.6971 91.6168 39.6971 91.5808 39.6971C88.9515 39.8213 88.9515 39.8213 88.9515 37.1949C88.9515 35.6866 88.9515 34.1604 88.9515 32.6166Z" fill="url(#paint16_linear)" fill-opacity="0.4"/>
<path d="M110.274 47.097C110.274 45.979 110.274 45.0917 110.274 44.2222C110.274 43.7253 110.166 43.2285 110.994 43.2285C111.895 43.2285 111.643 43.8141 111.643 44.2577C111.661 45.6951 111.661 47.1325 111.643 48.5876C111.643 48.9248 111.913 49.4217 111.372 49.5636C110.85 49.6879 110.328 49.6169 109.968 49.1023C109.175 48.002 108.347 46.9018 107.339 45.8548C107.339 46.8308 107.321 47.8068 107.339 48.7651C107.339 49.2442 107.375 49.5991 106.672 49.5991C105.952 49.5991 105.934 49.2442 105.952 48.7296C105.97 47.2035 105.952 45.6774 105.97 44.1335C105.97 43.8495 105.772 43.4059 106.222 43.2994C106.672 43.193 107.176 43.1042 107.519 43.5834C108.131 44.3997 108.743 45.216 109.374 46.0145C109.59 46.3517 109.86 46.6356 110.274 47.097Z" fill="#4D4D5D"/>
<path d="M110.274 47.097C110.274 45.979 110.274 45.0917 110.274 44.2222C110.274 43.7253 110.166 43.2285 110.994 43.2285C111.895 43.2285 111.643 43.8141 111.643 44.2577C111.661 45.6951 111.661 47.1325 111.643 48.5876C111.643 48.9248 111.913 49.4217 111.372 49.5636C110.85 49.6879 110.328 49.6169 109.968 49.1023C109.175 48.002 108.347 46.9018 107.339 45.8548C107.339 46.8308 107.321 47.8068 107.339 48.7651C107.339 49.2442 107.375 49.5991 106.672 49.5991C105.952 49.5991 105.934 49.2442 105.952 48.7296C105.97 47.2035 105.952 45.6774 105.97 44.1335C105.97 43.8495 105.772 43.4059 106.222 43.2994C106.672 43.193 107.176 43.1042 107.519 43.5834C108.131 44.3997 108.743 45.216 109.374 46.0145C109.59 46.3517 109.86 46.6356 110.274 47.097Z" fill="url(#paint17_linear)" fill-opacity="0.4"/>
<path d="M73.9502 46.8309C73.9502 45.8549 73.9862 44.8966 73.9322 43.9206C73.9142 43.2995 74.2564 43.2817 74.7246 43.264C75.2288 43.2462 75.3369 43.4592 75.3189 43.8851C75.3009 45.4999 75.3189 47.1325 75.3009 48.7474C75.3009 49.0313 75.517 49.4927 75.0307 49.5459C74.6345 49.5992 74.1663 49.7589 73.8061 49.2798C72.9957 48.1795 72.1313 47.1148 71.2849 46.0323C71.2309 45.9613 71.1769 45.9081 70.9608 45.6774C70.9608 46.8486 70.9427 47.8601 70.9788 48.8716C70.9968 49.3862 70.8887 49.6169 70.2944 49.5992C69.7542 49.5814 69.5561 49.4395 69.5741 48.8894C69.6101 47.3277 69.5741 45.7661 69.5921 44.2045C69.5921 43.8851 69.358 43.4237 69.8622 43.2995C70.3485 43.1753 70.8707 43.1753 71.2309 43.6721C71.8072 44.4529 72.3834 45.2338 72.9777 45.9968C73.2118 46.3162 73.482 46.6002 73.7341 46.9018C73.8421 46.8841 73.8962 46.8486 73.9502 46.8309Z" fill="#4D4D5D"/>
<path d="M73.9502 46.8309C73.9502 45.8549 73.9862 44.8966 73.9322 43.9206C73.9142 43.2995 74.2564 43.2817 74.7246 43.264C75.2288 43.2462 75.3369 43.4592 75.3189 43.8851C75.3009 45.4999 75.3189 47.1325 75.3009 48.7474C75.3009 49.0313 75.517 49.4927 75.0307 49.5459C74.6345 49.5992 74.1663 49.7589 73.8061 49.2798C72.9957 48.1795 72.1313 47.1148 71.2849 46.0323C71.2309 45.9613 71.1769 45.9081 70.9608 45.6774C70.9608 46.8486 70.9427 47.8601 70.9788 48.8716C70.9968 49.3862 70.8887 49.6169 70.2944 49.5992C69.7542 49.5814 69.5561 49.4395 69.5741 48.8894C69.6101 47.3277 69.5741 45.7661 69.5921 44.2045C69.5921 43.8851 69.358 43.4237 69.8622 43.2995C70.3485 43.1753 70.8707 43.1753 71.2309 43.6721C71.8072 44.4529 72.3834 45.2338 72.9777 45.9968C73.2118 46.3162 73.482 46.6002 73.7341 46.9018C73.8421 46.8841 73.8962 46.8486 73.9502 46.8309Z" fill="url(#paint18_linear)" fill-opacity="0.4"/>
<path d="M156.557 46.4049C156.557 45.5886 156.557 44.7545 156.557 43.9382C156.557 43.6898 156.521 43.2994 156.881 43.3171C158.159 43.3704 159.456 43.0687 160.753 43.5656C161.923 44.027 162.427 46.0677 161.473 46.9195C160.735 47.5761 161.005 48.002 161.455 48.5876C161.671 48.8538 162.103 49.12 161.833 49.5459C161.653 49.812 160.536 49.5636 160.32 49.2264C160.158 48.9957 160.014 48.7296 159.906 48.4811C159.546 47.7181 158.862 47.8955 158.267 47.9665C157.673 48.0375 157.943 48.5876 157.943 48.907C157.943 49.4216 157.835 49.6523 157.259 49.6346C156.701 49.6168 156.539 49.4039 156.557 48.8893C156.575 48.0552 156.557 47.2212 156.557 46.4049ZM158.952 46.6001C159.114 46.6001 159.24 46.6001 159.348 46.6001C160.014 46.6178 160.536 46.4581 160.591 45.6773C160.663 44.932 160.284 44.6126 159.564 44.5593C159.204 44.5416 158.862 44.4883 158.501 44.4706C158.285 44.4529 157.997 44.5061 157.979 44.7013C157.925 45.2869 157.853 45.8903 157.997 46.4404C158.105 46.7775 158.664 46.5291 158.952 46.6001Z" fill="#4D4D5D"/>
<path d="M156.557 46.4049C156.557 45.5886 156.557 44.7545 156.557 43.9382C156.557 43.6898 156.521 43.2994 156.881 43.3171C158.159 43.3704 159.456 43.0687 160.753 43.5656C161.923 44.027 162.427 46.0677 161.473 46.9195C160.735 47.5761 161.005 48.002 161.455 48.5876C161.671 48.8538 162.103 49.12 161.833 49.5459C161.653 49.812 160.536 49.5636 160.32 49.2264C160.158 48.9957 160.014 48.7296 159.906 48.4811C159.546 47.7181 158.862 47.8955 158.267 47.9665C157.673 48.0375 157.943 48.5876 157.943 48.907C157.943 49.4216 157.835 49.6523 157.259 49.6346C156.701 49.6168 156.539 49.4039 156.557 48.8893C156.575 48.0552 156.557 47.2212 156.557 46.4049ZM158.952 46.6001C159.114 46.6001 159.24 46.6001 159.348 46.6001C160.014 46.6178 160.536 46.4581 160.591 45.6773C160.663 44.932 160.284 44.6126 159.564 44.5593C159.204 44.5416 158.862 44.4883 158.501 44.4706C158.285 44.4529 157.997 44.5061 157.979 44.7013C157.925 45.2869 157.853 45.8903 157.997 46.4404C158.105 46.7775 158.664 46.5291 158.952 46.6001Z" fill="url(#paint19_linear)" fill-opacity="0.4"/>
<path d="M78.1823 46.476C78.1823 45.6597 78.2003 44.8256 78.1823 44.0093C78.1642 43.5125 78.2903 43.2285 78.8846 43.2818C80.2533 43.3882 81.6399 43.0333 82.9366 43.9383C84.5213 45.0563 84.6294 47.7891 82.9005 48.9958C81.4779 49.9896 79.9831 49.475 78.5064 49.5814C78.1282 49.6169 78.2183 49.2088 78.2183 48.9604C78.1822 48.1086 78.1823 47.2923 78.1823 46.476ZM79.6049 46.4227C79.6049 46.7244 79.6049 47.0083 79.6049 47.31C79.6049 48.6232 79.8391 48.7829 81.1177 48.3748C81.2257 48.3393 81.3338 48.3038 81.4598 48.2683C82.3603 48.0198 82.9186 47.1503 82.7745 46.263C82.5584 44.9853 81.6219 44.311 80.1632 44.5417C79.0647 44.7014 79.8391 45.6419 79.6049 46.1743C79.5869 46.2275 79.6049 46.334 79.6049 46.4227Z" fill="#4D4D5D"/>
<path d="M78.1823 46.476C78.1823 45.6597 78.2003 44.8256 78.1823 44.0093C78.1642 43.5125 78.2903 43.2285 78.8846 43.2818C80.2533 43.3882 81.6399 43.0333 82.9366 43.9383C84.5213 45.0563 84.6294 47.7891 82.9005 48.9958C81.4779 49.9896 79.9831 49.475 78.5064 49.5814C78.1282 49.6169 78.2183 49.2088 78.2183 48.9604C78.1822 48.1086 78.1823 47.2923 78.1823 46.476ZM79.6049 46.4227C79.6049 46.7244 79.6049 47.0083 79.6049 47.31C79.6049 48.6232 79.8391 48.7829 81.1177 48.3748C81.2257 48.3393 81.3338 48.3038 81.4598 48.2683C82.3603 48.0198 82.9186 47.1503 82.7745 46.263C82.5584 44.9853 81.6219 44.311 80.1632 44.5417C79.0647 44.7014 79.8391 45.6419 79.6049 46.1743C79.5869 46.2275 79.6049 46.334 79.6049 46.4227Z" fill="url(#paint20_linear)" fill-opacity="0.4"/>
<path d="M129.291 46.4048C129.291 45.5707 129.291 44.7544 129.291 43.9204C129.291 43.6719 129.201 43.2815 129.579 43.2993C130.84 43.3348 132.101 43.0686 133.361 43.53C134.748 44.0446 135.072 46.0498 134.136 46.8839C133.397 47.5227 133.649 47.9664 134.1 48.552C134.316 48.8359 134.874 49.2263 134.442 49.5102C134.064 49.7587 133.397 49.7587 133.019 49.2086C132.875 48.9956 132.677 48.7827 132.605 48.552C132.317 47.7357 131.632 47.8776 131.02 47.9309C130.354 47.9841 130.642 48.5697 130.624 48.9069C130.606 49.3683 130.534 49.599 129.976 49.599C129.417 49.599 129.237 49.4038 129.273 48.8714C129.309 48.0728 129.291 47.2388 129.291 46.4048ZM131.56 46.5822C131.939 46.5822 132.209 46.6355 132.461 46.5645C132.875 46.4757 133.235 46.2805 133.253 45.7837C133.271 45.3755 133.343 44.8786 132.857 44.7189C132.335 44.5592 131.794 44.3285 131.218 44.364C131.038 44.3818 130.84 44.3463 130.75 44.5415C130.444 45.1271 130.534 45.7659 130.642 46.3515C130.768 46.8484 131.326 46.4935 131.56 46.5822Z" fill="#4D4D5D"/>
<path d="M129.291 46.4048C129.291 45.5707 129.291 44.7544 129.291 43.9204C129.291 43.6719 129.201 43.2815 129.579 43.2993C130.84 43.3348 132.101 43.0686 133.361 43.53C134.748 44.0446 135.072 46.0498 134.136 46.8839C133.397 47.5227 133.649 47.9664 134.1 48.552C134.316 48.8359 134.874 49.2263 134.442 49.5102C134.064 49.7587 133.397 49.7587 133.019 49.2086C132.875 48.9956 132.677 48.7827 132.605 48.552C132.317 47.7357 131.632 47.8776 131.02 47.9309C130.354 47.9841 130.642 48.5697 130.624 48.9069C130.606 49.3683 130.534 49.599 129.976 49.599C129.417 49.599 129.237 49.4038 129.273 48.8714C129.309 48.0728 129.291 47.2388 129.291 46.4048ZM131.56 46.5822C131.939 46.5822 132.209 46.6355 132.461 46.5645C132.875 46.4757 133.235 46.2805 133.253 45.7837C133.271 45.3755 133.343 44.8786 132.857 44.7189C132.335 44.5592 131.794 44.3285 131.218 44.364C131.038 44.3818 130.84 44.3463 130.75 44.5415C130.444 45.1271 130.534 45.7659 130.642 46.3515C130.768 46.8484 131.326 46.4935 131.56 46.5822Z" fill="url(#paint21_linear)" fill-opacity="0.4"/>
<path d="M124.465 49.599C123.871 49.599 123.258 49.5813 122.664 49.599C122.214 49.6168 122.034 49.4216 122.034 48.9602C122.052 47.3098 122.052 45.6595 122.034 44.0091C122.034 43.4945 122.196 43.2461 122.754 43.2638C123.943 43.2816 125.149 43.2816 126.338 43.2638C126.734 43.2638 126.95 43.3526 126.932 43.8139C126.914 44.2398 126.878 44.577 126.32 44.577C125.599 44.577 124.879 44.5948 124.159 44.577C123.654 44.5593 123.582 44.8432 123.582 45.2513C123.582 45.6772 123.691 45.9257 124.195 45.9079C124.825 45.8902 125.455 45.9079 126.086 45.9079C126.464 45.9079 126.59 46.0676 126.59 46.4403C126.59 46.813 126.464 46.9904 126.086 46.9727C125.455 46.9549 124.825 46.9904 124.195 46.9727C123.636 46.9372 123.546 47.2566 123.546 47.6825C123.546 48.1084 123.546 48.5343 124.177 48.5165C124.933 48.4988 125.671 48.5343 126.428 48.5165C126.878 48.4988 126.968 48.7118 126.968 49.1022C126.968 49.4926 126.806 49.6168 126.428 49.599C125.78 49.5813 125.113 49.599 124.465 49.599Z" fill="#4D4D5D"/>
<path d="M124.465 49.599C123.871 49.599 123.258 49.5813 122.664 49.599C122.214 49.6168 122.034 49.4216 122.034 48.9602C122.052 47.3098 122.052 45.6595 122.034 44.0091C122.034 43.4945 122.196 43.2461 122.754 43.2638C123.943 43.2816 125.149 43.2816 126.338 43.2638C126.734 43.2638 126.95 43.3526 126.932 43.8139C126.914 44.2398 126.878 44.577 126.32 44.577C125.599 44.577 124.879 44.5948 124.159 44.577C123.654 44.5593 123.582 44.8432 123.582 45.2513C123.582 45.6772 123.691 45.9257 124.195 45.9079C124.825 45.8902 125.455 45.9079 126.086 45.9079C126.464 45.9079 126.59 46.0676 126.59 46.4403C126.59 46.813 126.464 46.9904 126.086 46.9727C125.455 46.9549 124.825 46.9904 124.195 46.9727C123.636 46.9372 123.546 47.2566 123.546 47.6825C123.546 48.1084 123.546 48.5343 124.177 48.5165C124.933 48.4988 125.671 48.5343 126.428 48.5165C126.878 48.4988 126.968 48.7118 126.968 49.1022C126.968 49.4926 126.806 49.6168 126.428 49.599C125.78 49.5813 125.113 49.599 124.465 49.599Z" fill="url(#paint22_linear)" fill-opacity="0.4"/>
<path d="M143.338 49.5991C142.726 49.5459 141.753 49.9185 141.285 49.4749C140.763 48.9957 141.123 48.0197 141.105 47.2744C141.069 46.2097 141.123 45.1627 141.087 44.0979C141.069 43.4946 141.249 43.2461 141.897 43.2816C142.996 43.3171 144.112 43.2994 145.211 43.2994C145.625 43.2994 146.003 43.2994 145.967 43.885C145.931 44.3996 145.715 44.6303 145.193 44.6126C144.509 44.5948 143.824 44.6303 143.122 44.6126C142.582 44.5948 142.582 44.8965 142.564 45.2869C142.564 45.695 142.636 45.979 143.14 45.9257C143.5 45.8902 143.878 45.8548 144.221 45.9435C144.707 46.0677 145.607 45.4643 145.589 46.4936C145.571 47.4164 144.743 46.884 144.275 46.9905C143.896 47.0792 143.5 47.026 143.104 47.0082C142.456 46.9727 142.582 47.4341 142.582 47.789C142.582 48.1617 142.51 48.5876 143.14 48.5521C143.824 48.5166 144.509 48.5344 145.211 48.5521C145.589 48.5521 146.003 48.4456 146.021 49.0667C146.039 49.7588 145.571 49.6168 145.175 49.6346C144.599 49.5991 144.022 49.5991 143.338 49.5991Z" fill="#4D4D5D"/>
<path d="M143.338 49.5991C142.726 49.5459 141.753 49.9185 141.285 49.4749C140.763 48.9957 141.123 48.0197 141.105 47.2744C141.069 46.2097 141.123 45.1627 141.087 44.0979C141.069 43.4946 141.249 43.2461 141.897 43.2816C142.996 43.3171 144.112 43.2994 145.211 43.2994C145.625 43.2994 146.003 43.2994 145.967 43.885C145.931 44.3996 145.715 44.6303 145.193 44.6126C144.509 44.5948 143.824 44.6303 143.122 44.6126C142.582 44.5948 142.582 44.8965 142.564 45.2869C142.564 45.695 142.636 45.979 143.14 45.9257C143.5 45.8902 143.878 45.8548 144.221 45.9435C144.707 46.0677 145.607 45.4643 145.589 46.4936C145.571 47.4164 144.743 46.884 144.275 46.9905C143.896 47.0792 143.5 47.026 143.104 47.0082C142.456 46.9727 142.582 47.4341 142.582 47.789C142.582 48.1617 142.51 48.5876 143.14 48.5521C143.824 48.5166 144.509 48.5344 145.211 48.5521C145.589 48.5521 146.003 48.4456 146.021 49.0667C146.039 49.7588 145.571 49.6168 145.175 49.6346C144.599 49.5991 144.022 49.5991 143.338 49.5991Z" fill="url(#paint23_linear)" fill-opacity="0.4"/>
<path d="M103.196 49.5814C102.728 49.6879 102.458 49.4217 102.368 49.0136C102.224 48.3747 101.81 48.2505 101.252 48.3037C100.855 48.3392 100.477 48.3392 100.081 48.3037C99.4867 48.2682 99.0365 48.3747 98.8564 49.049C98.6763 49.7589 98.064 49.6347 97.5417 49.5814C97.1635 49.5459 97.2716 49.2443 97.3616 49.049C98.136 47.2922 98.9104 45.5532 99.6848 43.8141C99.9009 43.3349 100.297 43.264 100.783 43.2817C101.234 43.2994 101.432 43.4769 101.612 43.9028C102.278 45.5709 102.998 47.2035 103.773 48.8361C104.133 49.5282 103.863 49.6347 103.196 49.5814ZM100.531 47.2035C100.855 47.0083 101.342 47.4519 101.522 46.9018C101.594 46.6534 100.711 45.1627 100.603 45.2337C100.063 45.6419 99.9009 46.2985 99.7568 46.8663C99.6127 47.4342 100.297 46.9906 100.531 47.2035Z" fill="#4D4D5D"/>
<path d="M103.196 49.5814C102.728 49.6879 102.458 49.4217 102.368 49.0136C102.224 48.3747 101.81 48.2505 101.252 48.3037C100.855 48.3392 100.477 48.3392 100.081 48.3037C99.4867 48.2682 99.0365 48.3747 98.8564 49.049C98.6763 49.7589 98.064 49.6347 97.5417 49.5814C97.1635 49.5459 97.2716 49.2443 97.3616 49.049C98.136 47.2922 98.9104 45.5532 99.6848 43.8141C99.9009 43.3349 100.297 43.264 100.783 43.2817C101.234 43.2994 101.432 43.4769 101.612 43.9028C102.278 45.5709 102.998 47.2035 103.773 48.8361C104.133 49.5282 103.863 49.6347 103.196 49.5814ZM100.531 47.2035C100.855 47.0083 101.342 47.4519 101.522 46.9018C101.594 46.6534 100.711 45.1627 100.603 45.2337C100.063 45.6419 99.9009 46.2985 99.7568 46.8663C99.6127 47.4342 100.297 46.9906 100.531 47.2035Z" fill="url(#paint24_linear)" fill-opacity="0.4"/>
<path d="M154.54 49.5103C153.837 49.5458 153.081 49.9717 152.775 48.8715C152.667 48.4633 152.325 48.2326 151.82 48.3036C151.406 48.3569 150.974 48.3569 150.56 48.3036C149.839 48.1972 149.479 48.5521 149.263 49.1732C149.011 49.954 148.327 49.6346 147.93 49.5281C147.552 49.4216 147.894 48.978 148.002 48.7295C148.705 47.1147 149.479 45.5176 150.145 43.885C150.344 43.4058 150.596 43.2461 151.064 43.2816C151.478 43.2994 151.784 43.2461 152.018 43.7962C152.757 45.4643 153.567 47.0969 154.089 48.8537C154.197 49.1199 154.522 49.1554 154.54 49.5103ZM151.118 44.861C150.812 45.5531 150.578 46.0677 150.362 46.6C150.29 46.7952 150.235 47.0614 150.47 47.1324C150.884 47.2744 151.352 47.2921 151.766 47.1324C152.054 47.0259 151.928 46.742 151.838 46.5291C151.622 46.0322 151.406 45.5353 151.118 44.861Z" fill="#4D4D5D"/>
<path d="M154.54 49.5103C153.837 49.5458 153.081 49.9717 152.775 48.8715C152.667 48.4633 152.325 48.2326 151.82 48.3036C151.406 48.3569 150.974 48.3569 150.56 48.3036C149.839 48.1972 149.479 48.5521 149.263 49.1732C149.011 49.954 148.327 49.6346 147.93 49.5281C147.552 49.4216 147.894 48.978 148.002 48.7295C148.705 47.1147 149.479 45.5176 150.145 43.885C150.344 43.4058 150.596 43.2461 151.064 43.2816C151.478 43.2994 151.784 43.2461 152.018 43.7962C152.757 45.4643 153.567 47.0969 154.089 48.8537C154.197 49.1199 154.522 49.1554 154.54 49.5103ZM151.118 44.861C150.812 45.5531 150.578 46.0677 150.362 46.6C150.29 46.7952 150.235 47.0614 150.47 47.1324C150.884 47.2744 151.352 47.2921 151.766 47.1324C152.054 47.0259 151.928 46.742 151.838 46.5291C151.622 46.0322 151.406 45.5353 151.118 44.861Z" fill="url(#paint25_linear)" fill-opacity="0.4"/>
<path d="M117.225 49.5992C115.821 49.6879 114.92 48.9249 114.272 47.8069C113.606 46.6179 113.876 45.429 114.704 44.453C115.821 43.122 118 42.7671 119.404 43.9561C119.693 44.2045 119.909 44.3997 119.584 44.7901C119.296 45.1628 119.062 45.2338 118.648 44.9676C117.189 44.0803 115.641 44.7369 115.352 46.3163C115.226 47.0083 116.073 48.1441 116.829 48.215C117.477 48.286 118.126 48.3747 118.72 47.9134C119.116 47.6117 119.44 47.8601 119.693 48.215C119.981 48.6409 119.584 48.7297 119.368 48.9249C118.774 49.5105 118.054 49.6702 117.225 49.5992Z" fill="#4D4D5D"/>
<path d="M117.225 49.5992C115.821 49.6879 114.92 48.9249 114.272 47.8069C113.606 46.6179 113.876 45.429 114.704 44.453C115.821 43.122 118 42.7671 119.404 43.9561C119.693 44.2045 119.909 44.3997 119.584 44.7901C119.296 45.1628 119.062 45.2338 118.648 44.9676C117.189 44.0803 115.641 44.7369 115.352 46.3163C115.226 47.0083 116.073 48.1441 116.829 48.215C117.477 48.286 118.126 48.3747 118.72 47.9134C119.116 47.6117 119.44 47.8601 119.693 48.215C119.981 48.6409 119.584 48.7297 119.368 48.9249C118.774 49.5105 118.054 49.6702 117.225 49.5992Z" fill="url(#paint26_linear)" fill-opacity="0.4"/>
<path d="M93.3637 49.6169C91.3287 49.5637 89.7799 48.0198 89.978 46.2098C90.1221 44.8256 90.9865 43.8496 92.3012 43.4237C93.3997 43.0688 94.5163 43.1753 95.4887 43.9738C95.8489 44.2755 95.8309 44.5594 95.5788 44.8788C95.3447 45.1628 95.1286 45.2515 94.7144 45.0031C93.2196 44.1513 91.905 44.5949 91.4908 46.0856C91.2567 46.9196 91.959 48.1263 92.8234 48.2328C93.4898 48.3038 94.1741 48.4102 94.7864 47.9134C95.1286 47.6472 95.3987 47.8601 95.6148 48.1263C95.8849 48.4457 95.7589 48.6587 95.4707 48.9249C94.8044 49.4572 94.0841 49.6879 93.3637 49.6169Z" fill="#4D4D5D"/>
<path d="M93.3637 49.6169C91.3287 49.5637 89.7799 48.0198 89.978 46.2098C90.1221 44.8256 90.9865 43.8496 92.3012 43.4237C93.3997 43.0688 94.5163 43.1753 95.4887 43.9738C95.8489 44.2755 95.8309 44.5594 95.5788 44.8788C95.3447 45.1628 95.1286 45.2515 94.7144 45.0031C93.2196 44.1513 91.905 44.5949 91.4908 46.0856C91.2567 46.9196 91.959 48.1263 92.8234 48.2328C93.4898 48.3038 94.1741 48.4102 94.7864 47.9134C95.1286 47.6472 95.3987 47.8601 95.6148 48.1263C95.8849 48.4457 95.7589 48.6587 95.4707 48.9249C94.8044 49.4572 94.0841 49.6879 93.3637 49.6169Z" fill="url(#paint27_linear)" fill-opacity="0.4"/>
<path d="M61.29 43.2639C61.7943 43.2639 62.3165 43.2639 62.8208 43.2639C63.217 43.2639 63.6312 43.2284 63.5952 43.8318C63.5771 44.3641 63.235 44.5416 62.7848 44.5593C62.1905 44.5948 61.5782 44.5948 60.9839 44.5593C60.4436 44.5238 60.3536 44.79 60.3356 45.2514C60.3356 45.7305 60.4436 45.979 60.9839 45.9257C61.4521 45.8903 61.9383 45.9257 62.4246 45.908C62.9288 45.8903 63.289 45.9435 63.271 46.6001C63.253 47.2744 62.8568 47.2744 62.3706 47.2567C62.3165 47.2567 62.2445 47.2567 62.1905 47.2567C60.4256 47.2567 60.4076 47.2567 60.3536 48.9425C60.3356 49.4394 60.1915 49.5991 59.6872 49.5991C59.183 49.5991 58.9309 49.4926 58.9489 48.9248C58.9849 47.2389 58.9669 45.5708 58.9489 43.885C58.9489 43.4236 59.0929 43.2462 59.5612 43.2639C60.1555 43.2816 60.7137 43.2639 61.29 43.2639Z" fill="#4D4D5D"/>
<path d="M61.29 43.2639C61.7943 43.2639 62.3165 43.2639 62.8208 43.2639C63.217 43.2639 63.6312 43.2284 63.5952 43.8318C63.5771 44.3641 63.235 44.5416 62.7848 44.5593C62.1905 44.5948 61.5782 44.5948 60.9839 44.5593C60.4436 44.5238 60.3536 44.79 60.3356 45.2514C60.3356 45.7305 60.4436 45.979 60.9839 45.9257C61.4521 45.8903 61.9383 45.9257 62.4246 45.908C62.9288 45.8903 63.289 45.9435 63.271 46.6001C63.253 47.2744 62.8568 47.2744 62.3706 47.2567C62.3165 47.2567 62.2445 47.2567 62.1905 47.2567C60.4256 47.2567 60.4076 47.2567 60.3536 48.9425C60.3356 49.4394 60.1915 49.5991 59.6872 49.5991C59.183 49.5991 58.9309 49.4926 58.9489 48.9248C58.9849 47.2389 58.9669 45.5708 58.9489 43.885C58.9489 43.4236 59.0929 43.2462 59.5612 43.2639C60.1555 43.2816 60.7137 43.2639 61.29 43.2639Z" fill="url(#paint28_linear)" fill-opacity="0.4"/>
<path d="M164.336 46.4226C164.336 45.6241 164.354 44.8255 164.336 44.0447C164.318 43.4769 164.57 43.2639 165.147 43.2639C165.723 43.2639 165.939 43.4769 165.921 44.0447C165.885 45.2159 165.939 46.4049 165.903 47.5761C165.885 48.1085 166.065 48.3392 166.623 48.2859C167.038 48.2504 167.47 48.2859 167.884 48.2859C168.442 48.2682 168.586 48.5876 168.604 49.0667C168.622 49.6169 168.262 49.5814 167.884 49.5814C166.948 49.5814 166.029 49.5636 165.093 49.5814C164.48 49.5991 164.3 49.3329 164.318 48.7828C164.354 48.0198 164.336 47.2212 164.336 46.4226Z" fill="#4D4D5D"/>
<path d="M164.336 46.4226C164.336 45.6241 164.354 44.8255 164.336 44.0447C164.318 43.4769 164.57 43.2639 165.147 43.2639C165.723 43.2639 165.939 43.4769 165.921 44.0447C165.885 45.2159 165.939 46.4049 165.903 47.5761C165.885 48.1085 166.065 48.3392 166.623 48.2859C167.038 48.2504 167.47 48.2859 167.884 48.2859C168.442 48.2682 168.586 48.5876 168.604 49.0667C168.622 49.6169 168.262 49.5814 167.884 49.5814C166.948 49.5814 166.029 49.5636 165.093 49.5814C164.48 49.5991 164.3 49.3329 164.318 48.7828C164.354 48.0198 164.336 47.2212 164.336 46.4226Z" fill="url(#paint29_linear)" fill-opacity="0.4"/>
<path d="M172.891 49.599C172.584 49.5813 172.134 49.6878 172.206 49.1732C172.476 47.2211 171.054 45.908 170.351 44.3109C170.207 44.0092 169.703 43.7252 170.117 43.3348C170.441 43.0332 171.324 43.3348 171.54 43.8317C171.81 44.4528 172.296 44.9319 172.566 45.5353C172.801 46.0322 172.999 45.837 173.161 45.5708C173.557 44.9674 173.917 44.3463 174.259 43.6898C174.583 43.0509 175.106 43.2461 175.592 43.3348C175.952 43.4058 175.7 43.6543 175.628 43.7962C175.07 44.8432 174.547 45.908 173.917 46.9195C173.503 47.576 173.629 48.2681 173.593 48.9602C173.539 49.5813 173.539 49.5813 172.891 49.599Z" fill="#4D4D5D"/>
<path d="M172.891 49.599C172.584 49.5813 172.134 49.6878 172.206 49.1732C172.476 47.2211 171.054 45.908 170.351 44.3109C170.207 44.0092 169.703 43.7252 170.117 43.3348C170.441 43.0332 171.324 43.3348 171.54 43.8317C171.81 44.4528 172.296 44.9319 172.566 45.5353C172.801 46.0322 172.999 45.837 173.161 45.5708C173.557 44.9674 173.917 44.3463 174.259 43.6898C174.583 43.0509 175.106 43.2461 175.592 43.3348C175.952 43.4058 175.7 43.6543 175.628 43.7962C175.07 44.8432 174.547 45.908 173.917 46.9195C173.503 47.576 173.629 48.2681 173.593 48.9602C173.539 49.5813 173.539 49.5813 172.891 49.599Z" fill="url(#paint30_linear)" fill-opacity="0.4"/>
<path d="M67.0168 46.4227C67.0168 47.2745 66.9988 48.1263 67.0348 48.9781C67.0528 49.5105 66.8367 49.6347 66.3505 49.617C65.9183 49.5992 65.6121 49.5992 65.6301 49.0136C65.6661 47.31 65.6661 45.6064 65.6301 43.9206C65.6121 43.3882 65.8462 43.2817 66.3145 43.2817C66.7647 43.2817 67.0528 43.335 67.0348 43.8851C66.9988 44.7191 67.0168 45.5709 67.0168 46.4227Z" fill="#4D4D5D"/>
<path d="M67.0168 46.4227C67.0168 47.2745 66.9988 48.1263 67.0348 48.9781C67.0528 49.5105 66.8367 49.6347 66.3505 49.617C65.9183 49.5992 65.6121 49.5992 65.6301 49.0136C65.6661 47.31 65.6661 45.6064 65.6301 43.9206C65.6121 43.3882 65.8462 43.2817 66.3145 43.2817C66.7647 43.2817 67.0528 43.335 67.0348 43.8851C66.9988 44.7191 67.0168 45.5709 67.0168 46.4227Z" fill="url(#paint31_linear)" fill-opacity="0.4"/>
<defs>
<linearGradient id="paint0_linear" x1="27.3492" y1="0" x2="27.3492" y2="54.0178" gradientUnits="userSpaceOnUse">
<stop stop-color="white"/>
<stop offset="1" stop-color="white" stop-opacity="0"/>
</linearGradient>
<linearGradient id="paint1_linear" x1="115.37" y1="25.4868" x2="115.37" y2="39.7409" gradientUnits="userSpaceOnUse">
<stop stop-color="white"/>
<stop offset="1" stop-color="white" stop-opacity="0"/>
</linearGradient>
<linearGradient id="paint2_linear" x1="92.7554" y1="6.16675" x2="92.7554" y2="20.5192" gradientUnits="userSpaceOnUse">
<stop stop-color="white"/>
<stop offset="1" stop-color="white" stop-opacity="0"/>
</linearGradient>
<linearGradient id="paint3_linear" x1="140.02" y1="6.14014" x2="140.02" y2="20.3779" gradientUnits="userSpaceOnUse">
<stop stop-color="white"/>
<stop offset="1" stop-color="white" stop-opacity="0"/>
</linearGradient>
<linearGradient id="paint4_linear" x1="124.059" y1="5.87134" x2="124.059" y2="20.711" gradientUnits="userSpaceOnUse">
<stop stop-color="white"/>
<stop offset="1" stop-color="white" stop-opacity="0"/>
</linearGradient>
<linearGradient id="paint5_linear" x1="64.8117" y1="25.1621" x2="64.8117" y2="40.0864" gradientUnits="userSpaceOnUse">
<stop stop-color="white"/>
<stop offset="1" stop-color="white" stop-opacity="0"/>
</linearGradient>
<linearGradient id="paint6_linear" x1="101.116" y1="25.5359" x2="101.116" y2="39.6969" gradientUnits="userSpaceOnUse">
<stop stop-color="white"/>
<stop offset="1" stop-color="white" stop-opacity="0"/>
</linearGradient>
<linearGradient id="paint7_linear" x1="108.299" y1="5.87915" x2="108.299" y2="20.765" gradientUnits="userSpaceOnUse">
<stop stop-color="white"/>
<stop offset="1" stop-color="white" stop-opacity="0"/>
</linearGradient>
<linearGradient id="paint8_linear" x1="79.3583" y1="25.1838" x2="79.3583" y2="40.0658" gradientUnits="userSpaceOnUse">
<stop stop-color="white"/>
<stop offset="1" stop-color="white" stop-opacity="0"/>
</linearGradient>
<linearGradient id="paint9_linear" x1="169.288" y1="25.1953" x2="169.288" y2="40.0697" gradientUnits="userSpaceOnUse">
<stop stop-color="white"/>
<stop offset="1" stop-color="white" stop-opacity="0"/>
</linearGradient>
<linearGradient id="paint10_linear" x1="77.7976" y1="6.11621" x2="77.7976" y2="20.4046" gradientUnits="userSpaceOnUse">
<stop stop-color="white"/>
<stop offset="1" stop-color="white" stop-opacity="0"/>
</linearGradient>
<linearGradient id="paint11_linear" x1="149.332" y1="25.5537" x2="149.332" y2="39.6833" gradientUnits="userSpaceOnUse">
<stop stop-color="white"/>
<stop offset="1" stop-color="white" stop-opacity="0"/>
</linearGradient>
<linearGradient id="paint12_linear" x1="64.7661" y1="6.14453" x2="64.7661" y2="20.4087" gradientUnits="userSpaceOnUse">
<stop stop-color="white"/>
<stop offset="1" stop-color="white" stop-opacity="0"/>
</linearGradient>
<linearGradient id="paint13_linear" x1="129.373" y1="25.5715" x2="129.373" y2="39.7326" gradientUnits="userSpaceOnUse">
<stop stop-color="white"/>
<stop offset="1" stop-color="white" stop-opacity="0"/>
</linearGradient>
<linearGradient id="paint14_linear" x1="139.267" y1="25.532" x2="139.267" y2="39.6834" gradientUnits="userSpaceOnUse">
<stop stop-color="white"/>
<stop offset="1" stop-color="white" stop-opacity="0"/>
</linearGradient>
<linearGradient id="paint15_linear" x1="158.558" y1="25.4683" x2="158.558" y2="39.7955" gradientUnits="userSpaceOnUse">
<stop stop-color="white"/>
<stop offset="1" stop-color="white" stop-opacity="0"/>
</linearGradient>
<linearGradient id="paint16_linear" x1="90.5988" y1="25.5464" x2="90.5988" y2="39.7375" gradientUnits="userSpaceOnUse">
<stop stop-color="white"/>
<stop offset="1" stop-color="white" stop-opacity="0"/>
</linearGradient>
<linearGradient id="paint17_linear" x1="108.818" y1="43.2153" x2="108.818" y2="49.6167" gradientUnits="userSpaceOnUse">
<stop stop-color="white"/>
<stop offset="1" stop-color="white" stop-opacity="0"/>
</linearGradient>
<linearGradient id="paint18_linear" x1="72.4433" y1="43.2305" x2="72.4433" y2="49.6146" gradientUnits="userSpaceOnUse">
<stop stop-color="white"/>
<stop offset="1" stop-color="white" stop-opacity="0"/>
</linearGradient>
<linearGradient id="paint19_linear" x1="159.264" y1="43.2744" x2="159.264" y2="49.658" gradientUnits="userSpaceOnUse">
<stop stop-color="white"/>
<stop offset="1" stop-color="white" stop-opacity="0"/>
</linearGradient>
<linearGradient id="paint20_linear" x1="81.171" y1="43.2754" x2="81.171" y2="49.6219" gradientUnits="userSpaceOnUse">
<stop stop-color="white"/>
<stop offset="1" stop-color="white" stop-opacity="0"/>
</linearGradient>
<linearGradient id="paint21_linear" x1="131.968" y1="43.2546" x2="131.968" y2="49.6698" gradientUnits="userSpaceOnUse">
<stop stop-color="white"/>
<stop offset="1" stop-color="white" stop-opacity="0"/>
</linearGradient>
<linearGradient id="paint22_linear" x1="124.501" y1="43.2629" x2="124.501" y2="49.6007" gradientUnits="userSpaceOnUse">
<stop stop-color="white"/>
<stop offset="1" stop-color="white" stop-opacity="0"/>
</linearGradient>
<linearGradient id="paint23_linear" x1="143.511" y1="43.2783" x2="143.511" y2="49.6952" gradientUnits="userSpaceOnUse">
<stop stop-color="white"/>
<stop offset="1" stop-color="white" stop-opacity="0"/>
</linearGradient>
<linearGradient id="paint24_linear" x1="100.604" y1="43.2793" x2="100.604" y2="49.6248" gradientUnits="userSpaceOnUse">
<stop stop-color="white"/>
<stop offset="1" stop-color="white" stop-opacity="0"/>
</linearGradient>
<linearGradient id="paint25_linear" x1="151.148" y1="43.2769" x2="151.148" y2="49.6835" gradientUnits="userSpaceOnUse">
<stop stop-color="white"/>
<stop offset="1" stop-color="white" stop-opacity="0"/>
</linearGradient>
<linearGradient id="paint26_linear" x1="116.845" y1="43.2329" x2="116.845" y2="49.6149" gradientUnits="userSpaceOnUse">
<stop stop-color="white"/>
<stop offset="1" stop-color="white" stop-opacity="0"/>
</linearGradient>
<linearGradient id="paint27_linear" x1="92.8626" y1="43.2305" x2="92.8626" y2="49.6295" gradientUnits="userSpaceOnUse">
<stop stop-color="white"/>
<stop offset="1" stop-color="white" stop-opacity="0"/>
</linearGradient>
<linearGradient id="paint28_linear" x1="61.2727" y1="43.2627" x2="61.2727" y2="49.5991" gradientUnits="userSpaceOnUse">
<stop stop-color="white"/>
<stop offset="1" stop-color="white" stop-opacity="0"/>
</linearGradient>
<linearGradient id="paint29_linear" x1="166.461" y1="43.2639" x2="166.461" y2="49.5822" gradientUnits="userSpaceOnUse">
<stop stop-color="white"/>
<stop offset="1" stop-color="white" stop-opacity="0"/>
</linearGradient>
<linearGradient id="paint30_linear" x1="172.869" y1="43.2144" x2="172.869" y2="49.599" gradientUnits="userSpaceOnUse">
<stop stop-color="white"/>
<stop offset="1" stop-color="white" stop-opacity="0"/>
</linearGradient>
<linearGradient id="paint31_linear" x1="66.3325" y1="43.2817" x2="66.3325" y2="49.6186" gradientUnits="userSpaceOnUse">
<stop stop-color="white"/>
<stop offset="1" stop-color="white" stop-opacity="0"/>
</linearGradient>
</defs>
</svg>
