<svg xmlns="http://www.w3.org/2000/svg" width="220" height="44" fill="none"><path fill="#4D4D5D" d="M13.4 18.43l8.52-8.52 8.52 8.52 4.96-4.95L21.92 0 8.45 13.47l4.96 4.96zm-8.45-1.46l4.96 4.95-4.96 4.96L0 21.92l4.95-4.95zm8.46 8.45l8.51 8.52 8.52-8.52 4.96 4.95-13.48 13.48L8.45 30.38l4.96-4.96zm30.44-3.5l-4.96 4.96-4.95-4.95 4.95-4.96 4.96 4.96z"/><path fill="url(#paint0_linear)" fill-opacity=".4" d="M13.4 18.43l8.52-8.52 8.52 8.52 4.96-4.95L21.92 0 8.45 13.47l4.96 4.96zm-8.45-1.46l4.96 4.95-4.96 4.96L0 21.92l4.95-4.95zm8.46 8.45l8.51 8.52 8.52-8.52 4.96 4.95-13.48 13.48L8.45 30.38l4.96-4.96zm30.44-3.5l-4.96 4.96-4.95-4.95 4.95-4.96 4.96 4.96z"/><path fill="#4D4D5D" d="M26.95 21.92l-5.02-5.03-3.72 3.72-.43.43-.88.88v.01l5.03 5.02 5.02-5.02zm24.62-11.3h10.78c2.68 0 4.7.7 6.07 2.06A5.37 5.37 0 0170 16.64v.06a5.7 5.7 0 01-.9 3.14c-.28.4-.6.77-.96 1.08-.36.31-.76.58-1.18.8 1.35.5 2.4 1.2 3.18 2.08a5.31 5.31 0 011.16 3.63v.07c0 1.06-.2 2-.62 2.79-.4.8-1 1.46-1.76 2-.76.52-1.68.92-2.75 1.19-1.07.26-2.26.4-3.56.4H51.57V10.62zm9.7 9.4c1.13 0 2.03-.19 2.7-.58.66-.38.99-1 .99-1.87v-.07c0-.77-.29-1.37-.86-1.78a4.27 4.27 0 00-2.5-.61h-5.04v4.92h4.71zm1.37 9.37c1.12 0 2.01-.2 2.65-.61.64-.41.97-1.05.97-1.91v-.07c0-.77-.3-1.39-.9-1.84-.6-.46-1.56-.68-2.9-.68h-5.9v5.11h6.08zm15.08-18.77h5.12v23.26h-5.12V10.62zm12.87 0h4.71l10.9 14.32V10.62h5.05v23.26h-4.35L95.64 19.1v14.78h-5.05V10.62zm36.15-.16h4.71l9.97 23.42h-5.35l-2.13-5.22h-9.83L122 33.88h-5.22l9.97-23.42zm5.38 13.68l-3.1-7.54-3.08 7.54h6.18zm14.82-13.52h4.72l10.9 14.32V10.62h5.04v23.26h-4.35L152 19.1v14.78h-5.05V10.62zm39.07 23.66a12.05 12.05 0 01-8.53-3.48 11.55 11.55 0 01-2.5-3.8c-.6-1.46-.9-3.02-.9-4.68v-.07a12.14 12.14 0 013.4-8.49 11.53 11.53 0 013.82-2.59c1.48-.63 3.12-.94 4.91-.94 1.09 0 2.08.09 2.97.26.9.18 1.72.42 2.45.73.71.3 1.39.68 2.02 1.13.62.44 1.2.93 1.73 1.46l-3.26 3.76a12.3 12.3 0 00-2.77-1.93 7.08 7.08 0 00-5.88-.13c-.81.36-1.54.9-2.14 1.56a7.31 7.31 0 00-1.4 2.3c-.33.88-.5 1.82-.5 2.81v.07c0 1 .17 1.94.5 2.82.34.89.8 1.66 1.38 2.33a6.42 6.42 0 004.87 2.16c1.33 0 2.45-.25 3.37-.73.92-.49 1.83-1.15 2.74-2l3.26 3.3c-.58.61-1.2 1.2-1.87 1.72a11.05 11.05 0 01-4.61 2.14c-.91.2-1.93.29-3.06.29zm15.56-23.66h17.5v4.56h-12.45v4.71h10.96v4.55h-10.96v4.89h12.62v4.55h-17.67V10.62z"/><path fill="url(#paint1_linear)" fill-opacity=".4" d="M26.95 21.92l-5.02-5.03-3.72 3.72-.43.43-.88.88v.01l5.03 5.02 5.02-5.02zm24.62-11.3h10.78c2.68 0 4.7.7 6.07 2.06A5.37 5.37 0 0170 16.64v.06a5.7 5.7 0 01-.9 3.14c-.28.4-.6.77-.96 1.08-.36.31-.76.58-1.18.8 1.35.5 2.4 1.2 3.18 2.08a5.31 5.31 0 011.16 3.63v.07c0 1.06-.2 2-.62 2.79-.4.8-1 1.46-1.76 2-.76.52-1.68.92-2.75 1.19-1.07.26-2.26.4-3.56.4H51.57V10.62zm9.7 9.4c1.13 0 2.03-.19 2.7-.58.66-.38.99-1 .99-1.87v-.07c0-.77-.29-1.37-.86-1.78a4.27 4.27 0 00-2.5-.61h-5.04v4.92h4.71zm1.37 9.37c1.12 0 2.01-.2 2.65-.61.64-.41.97-1.05.97-1.91v-.07c0-.77-.3-1.39-.9-1.84-.6-.46-1.56-.68-2.9-.68h-5.9v5.11h6.08zm15.08-18.77h5.12v23.26h-5.12V10.62zm12.87 0h4.71l10.9 14.32V10.62h5.05v23.26h-4.35L95.64 19.1v14.78h-5.05V10.62zm36.15-.16h4.71l9.97 23.42h-5.35l-2.13-5.22h-9.83L122 33.88h-5.22l9.97-23.42zm5.38 13.68l-3.1-7.54-3.08 7.54h6.18zm14.82-13.52h4.72l10.9 14.32V10.62h5.04v23.26h-4.35L152 19.1v14.78h-5.05V10.62zm39.07 23.66a12.05 12.05 0 01-8.53-3.48 11.55 11.55 0 01-2.5-3.8c-.6-1.46-.9-3.02-.9-4.68v-.07a12.14 12.14 0 013.4-8.49 11.53 11.53 0 013.82-2.59c1.48-.63 3.12-.94 4.91-.94 1.09 0 2.08.09 2.97.26.9.18 1.72.42 2.45.73.71.3 1.39.68 2.02 1.13.62.44 1.2.93 1.73 1.46l-3.26 3.76a12.3 12.3 0 00-2.77-1.93 7.08 7.08 0 00-5.88-.13c-.81.36-1.54.9-2.14 1.56a7.31 7.31 0 00-1.4 2.3c-.33.88-.5 1.82-.5 2.81v.07c0 1 .17 1.94.5 2.82.34.89.8 1.66 1.38 2.33a6.42 6.42 0 004.87 2.16c1.33 0 2.45-.25 3.37-.73.92-.49 1.83-1.15 2.74-2l3.26 3.3c-.58.61-1.2 1.2-1.87 1.72a11.05 11.05 0 01-4.61 2.14c-.91.2-1.93.29-3.06.29zm15.56-23.66h17.5v4.56h-12.45v4.71h10.96v4.55h-10.96v4.89h12.62v4.55h-17.67V10.62z"/><defs><linearGradient id="paint0_linear" x1="21.924" x2="21.924" y1="0" y2="43.848" gradientUnits="userSpaceOnUse"><stop stop-color="#fff"/><stop offset="1" stop-color="#fff" stop-opacity="0"/></linearGradient><linearGradient id="paint1_linear" x1="118.067" x2="118.067" y1="10.226" y2="34.276" gradientUnits="userSpaceOnUse"><stop stop-color="#fff"/><stop offset="1" stop-color="#fff" stop-opacity="0"/></linearGradient></defs></svg>