<svg xmlns="http://www.w3.org/2000/svg" width="126" height="71" fill="none"><path fill="#4D4D5D" d="M55.55 58.86V31.83l5.52-.69.88 4.25a8.7 8.7 0 017.9-4.35c.74 0 1.32.04 1.78.08l-.08 5.52c-.69-.08-1.38-.14-2.11-.14-2.43 0-4.25.65-5.44 1.92-1.2 1.28-1.78 3.12-1.78 5.4v15h-6.67v.04z"/><path fill="url(#paint0_linear)" fill-opacity=".4" d="M55.55 58.86V31.83l5.52-.69.88 4.25a8.7 8.7 0 017.9-4.35c.74 0 1.32.04 1.78.08l-.08 5.52c-.69-.08-1.38-.14-2.11-.14-2.43 0-4.25.65-5.44 1.92-1.2 1.28-1.78 3.12-1.78 5.4v15h-6.67v.04z"/><path fill="#4D4D5D" d="M84.27 59.36c-4.08 0-7.36-.7-9.8-2.11l.7-4.98a21.96 21.96 0 008.95 2.38c1.47 0 2.62-.27 3.43-.81a2.7 2.7 0 001.24-2.43c0-.96-.36-1.7-1.15-2.28-.78-.59-2.24-1.23-4.4-2.05-.73-.27-1.23-.46-1.42-.54-2.55-1-4.4-2.12-5.52-3.29-1.15-1.23-1.7-2.88-1.7-4.93 0-2.51.93-4.44 2.74-5.82 1.82-1.32 4.36-2 7.64-2 3.51 0 6.63.68 9.29 2l-1.66 4.58a17.86 17.86 0 00-7.55-1.82c-1.32 0-2.38.23-3.11.7a2.3 2.3 0 00-1.15 2c0 .88.35 1.5 1.08 2a27.94 27.94 0 004.9 2.12c.35.15.65.23.88.32 2.5.92 4.39 2 5.58 3.28a7.08 7.08 0 011.78 5.02c0 2.78-.96 4.9-2.85 6.44-1.82 1.44-4.47 2.22-7.9 2.22z"/><path fill="url(#paint1_linear)" fill-opacity=".4" d="M84.27 59.36c-4.08 0-7.36-.7-9.8-2.11l.7-4.98a21.96 21.96 0 008.95 2.38c1.47 0 2.62-.27 3.43-.81a2.7 2.7 0 001.24-2.43c0-.96-.36-1.7-1.15-2.28-.78-.59-2.24-1.23-4.4-2.05-.73-.27-1.23-.46-1.42-.54-2.55-1-4.4-2.12-5.52-3.29-1.15-1.23-1.7-2.88-1.7-4.93 0-2.51.93-4.44 2.74-5.82 1.82-1.32 4.36-2 7.64-2 3.51 0 6.63.68 9.29 2l-1.66 4.58a17.86 17.86 0 00-7.55-1.82c-1.32 0-2.38.23-3.11.7a2.3 2.3 0 00-1.15 2c0 .88.35 1.5 1.08 2a27.94 27.94 0 004.9 2.12c.35.15.65.23.88.32 2.5.92 4.39 2 5.58 3.28a7.08 7.08 0 011.78 5.02c0 2.78-.96 4.9-2.85 6.44-1.82 1.44-4.47 2.22-7.9 2.22z"/><path fill="#4D4D5D" d="M113.44 43.09l11.3-11.95h-7.86l-11.3 11.61V22.1l-6.59 1.23v35.54h6.59v-7.51l3.66-3.9 8.22 11.4h8.01L113.44 43.1z"/><path fill="url(#paint2_linear)" fill-opacity=".4" d="M113.44 43.09l11.3-11.95h-7.86l-11.3 11.61V22.1l-6.59 1.23v35.54h6.59v-7.51l3.66-3.9 8.22 11.4h8.01L113.44 43.1z"/><path fill="#4D4D5D" d="M49.3 31.75c-.2-.08-5.02-2.66-9.1-.31-3.24 1.88-3.93 5.66-4.02 7.21l-1.5.88a4.14 4.14 0 00-5.82 0l-6.9-3.97c.08-.32.15-.65.15-1a4.17 4.17 0 00-3.01-4.02v-2.47c2-1.28 8.4-5.98 8.4-13.5C27.5 5.99 18.9.6 18.55.37L17.97 0l-.65.36C16.96.59 8.4 5.98 8.4 14.62c0 7.49 6.4 12.15 8.4 13.49v2.43a4.18 4.18 0 00-3 4.01c0 .36.04.7.14 1l-6.9 3.98a4.12 4.12 0 00-2.89-1.2A4.19 4.19 0 000 42.5a4.2 4.2 0 003.01 4.02v8.28A4.18 4.18 0 000 58.8a4.19 4.19 0 004.16 4.17 3.9 3.9 0 003.06-1.38l6.71 3.89c-.08.3-.15.64-.15 1a4.19 4.19 0 004.17 4.16 4.19 4.19 0 004.16-4.16c0-.36-.04-.7-.15-1l6.71-3.9a4.3 4.3 0 003.06 1.39 4.19 4.19 0 004.16-4.17 4.2 4.2 0 00-3.01-4.01v-8.28a4.18 4.18 0 003.01-4.02c0-.31-.04-.69-.08-.96l1.5-.88c.88.42 2.62 1.09 4.58 1.09a7.8 7.8 0 003.75-.97c4.08-2.32 4.28-7.82 4.28-8v-.72l-.62-.31zM32.92 43.98c-.31.28-.73.42-1.15.42-.23 0-.46-.04-.65-.14a1.18 1.18 0 01-.5-.28 1.8 1.8 0 01-.69-1.19c0-.08 0-.19 0-.27 0-.08 0-.15 0-.23a1.91 1.91 0 011.84-1.65 1.86 1.86 0 011.88 1.88c0 .08 0 .19-.04.31-.08.49-.35.88-.69 1.15zm.7 14.81c0 1-.82 1.89-1.9 1.89-.35 0-.68-.09-.95-.28a1.83 1.83 0 01-.88-1.6v-.05c0-.19.04-.42.08-.54.15-.32.32-.65.59-.82.23-.19.5-.31.81-.35.09 0 .23-.05.32-.05.46 0 .81.15 1.15.42.5.3.77.8.77 1.38zm-3.02-3.97c-.54.19-1.09.46-1.5.81L22 51.51c.04-.27.09-.54.09-.81 0-.42-.05-.78-.2-1.15l6.95-4.02c.46.46 1.05.82 1.74 1v8.29h.02zM17.95 68.35c-.93 0-1.7-.69-1.82-1.6 0-.1 0-.2 0-.28 0-.78.5-1.47 1.15-1.74.23-.08.46-.14.69-.14a1.86 1.86 0 011.84 1.88c0 .08 0 .19 0 .27a1.94 1.94 0 01-1.86 1.61zm-4.13-16.81L6.73 55.6a4.8 4.8 0 00-1.5-.81v-8.28a4.13 4.13 0 001.73-1l6.95 4c-.09.36-.19.78-.19 1.2 0 .27.06.54.1.82zm-7.86 7.25a1.9 1.9 0 01-.88 1.61c-.27.2-.58.28-.96.28a1.89 1.89 0 01-1.2-3.35c.32-.27.74-.42 1.16-.42.08 0 .23 0 .31.04a1.8 1.8 0 011.4 1.17c.05.2.09.36.09.59.08.04.08.08.08.08zM2.22 42.52c0-1 .81-1.88 1.88-1.88a1.87 1.87 0 011.84 1.61c0 .08 0 .19 0 .27 0 .08 0 .19 0 .27-.04.5-.31.92-.69 1.2-.15.08-.27.18-.46.27-.23.08-.46.14-.7.14-.45 0-.8-.14-1.14-.42a1.8 1.8 0 01-.73-1.46zm14.53-9.45c.32-.23.74-.42 1.15-.42.42 0 .82.15 1.15.42.36.27.59.73.7 1.19 0 .08 0 .19 0 .27 0 .59-.28 1.15-.74 1.47-.14.08-.31.18-.46.27-.23.08-.46.14-.69.14-.23 0-.46-.04-.69-.14a1.04 1.04 0 01-.46-.27 1.9 1.9 0 01-.73-1.47c0-.08 0-.19 0-.27.17-.5.4-.92.77-1.2zm3.01 17.73c0 .55-.27 1.05-.69 1.38-.08.05-.18.15-.27.2a1.77 1.77 0 01-1.75 0c-.09-.05-.2-.1-.28-.2a1.74 1.74 0 01-.69-1.42v-.04c0-.19 0-.31.05-.5.08-.42.3-.73.64-.96.2-.15.46-.28.7-.32.14-.04.3-.04.45-.04.2 0 .32 0 .5.04.24.04.47.19.7.32.31.23.54.58.64.96.05.14.09.31.09.5-.09.04-.09.04-.09.08zm7.95-9.28a3.88 3.88 0 000 2.05l-7.05 4.08c-.46-.42-1-.74-1.6-.93v-8.17a4.13 4.13 0 001.73-1l6.92 3.97zM10.67 14.6c0-6.13 5.4-10.56 7.28-11.88 1.81 1.32 7.27 5.75 7.27 11.88 0 5.12-3.78 8.87-6.08 10.6v-9.64c0-.65-.5-1.15-1.15-1.15-.65 0-1.15.5-1.15 1.15v9.68c-2.39-1.77-6.17-5.48-6.17-10.64zm4.35 22.94c.5.46 1.04.82 1.73 1v8.18c-.58.2-1.15.46-1.6.88l-7.06-4.08c.09-.3.15-.64.15-1 0-.35-.04-.69-.15-1l6.93-3.98zM8.2 59.52c.04-.23.04-.5.04-.73 0-.46-.08-.88-.19-1.27l6.86-3.94c.5.5 1.15.93 1.89 1.16v7.78c-.7.18-1.28.54-1.74 1l-6.86-4zm12.61 4a4.4 4.4 0 00-1.74-1v-7.78a3.76 3.76 0 001.89-1.16l6.86 3.94a3.7 3.7 0 00-.2 1.27c0 .23 0 .5.05.73l-6.86 4zm23.68-24.7a5.92 5.92 0 01-4.58.35l2.28-1.31c.54-.32.73-1 .41-1.55-.3-.54-1-.73-1.6-.42l-2.29 1.32c.36-1.28 1.1-2.89 2.62-3.75 2.2-1.27 4.93-.46 6.17.05-.17 1.3-.82 4.03-3.01 5.3z"/><path fill="url(#paint3_linear)" fill-opacity=".4" d="M49.3 31.75c-.2-.08-5.02-2.66-9.1-.31-3.24 1.88-3.93 5.66-4.02 7.21l-1.5.88a4.14 4.14 0 00-5.82 0l-6.9-3.97c.08-.32.15-.65.15-1a4.17 4.17 0 00-3.01-4.02v-2.47c2-1.28 8.4-5.98 8.4-13.5C27.5 5.99 18.9.6 18.55.37L17.97 0l-.65.36C16.96.59 8.4 5.98 8.4 14.62c0 7.49 6.4 12.15 8.4 13.49v2.43a4.18 4.18 0 00-3 4.01c0 .36.04.7.14 1l-6.9 3.98a4.12 4.12 0 00-2.89-1.2A4.19 4.19 0 000 42.5a4.2 4.2 0 003.01 4.02v8.28A4.18 4.18 0 000 58.8a4.19 4.19 0 004.16 4.17 3.9 3.9 0 003.06-1.38l6.71 3.89c-.08.3-.15.64-.15 1a4.19 4.19 0 004.17 4.16 4.19 4.19 0 004.16-4.16c0-.36-.04-.7-.15-1l6.71-3.9a4.3 4.3 0 003.06 1.39 4.19 4.19 0 004.16-4.17 4.2 4.2 0 00-3.01-4.01v-8.28a4.18 4.18 0 003.01-4.02c0-.31-.04-.69-.08-.96l1.5-.88c.88.42 2.62 1.09 4.58 1.09a7.8 7.8 0 003.75-.97c4.08-2.32 4.28-7.82 4.28-8v-.72l-.62-.31zM32.92 43.98c-.31.28-.73.42-1.15.42-.23 0-.46-.04-.65-.14a1.18 1.18 0 01-.5-.28 1.8 1.8 0 01-.69-1.19c0-.08 0-.19 0-.27 0-.08 0-.15 0-.23a1.91 1.91 0 011.84-1.65 1.86 1.86 0 011.88 1.88c0 .08 0 .19-.04.31-.08.49-.35.88-.69 1.15zm.7 14.81c0 1-.82 1.89-1.9 1.89-.35 0-.68-.09-.95-.28a1.83 1.83 0 01-.88-1.6v-.05c0-.19.04-.42.08-.54.15-.32.32-.65.59-.82.23-.19.5-.31.81-.35.09 0 .23-.05.32-.05.46 0 .81.15 1.15.42.5.3.77.8.77 1.38zm-3.02-3.97c-.54.19-1.09.46-1.5.81L22 51.51c.04-.27.09-.54.09-.81 0-.42-.05-.78-.2-1.15l6.95-4.02c.46.46 1.05.82 1.74 1v8.29h.02zM17.95 68.35c-.93 0-1.7-.69-1.82-1.6 0-.1 0-.2 0-.28 0-.78.5-1.47 1.15-1.74.23-.08.46-.14.69-.14a1.86 1.86 0 011.84 1.88c0 .08 0 .19 0 .27a1.94 1.94 0 01-1.86 1.61zm-4.13-16.81L6.73 55.6a4.8 4.8 0 00-1.5-.81v-8.28a4.13 4.13 0 001.73-1l6.95 4c-.09.36-.19.78-.19 1.2 0 .27.06.54.1.82zm-7.86 7.25a1.9 1.9 0 01-.88 1.61c-.27.2-.58.28-.96.28a1.89 1.89 0 01-1.2-3.35c.32-.27.74-.42 1.16-.42.08 0 .23 0 .31.04a1.8 1.8 0 011.4 1.17c.05.2.09.36.09.59.08.04.08.08.08.08zM2.22 42.52c0-1 .81-1.88 1.88-1.88a1.87 1.87 0 011.84 1.61c0 .08 0 .19 0 .27 0 .08 0 .19 0 .27-.04.5-.31.92-.69 1.2-.15.08-.27.18-.46.27-.23.08-.46.14-.7.14-.45 0-.8-.14-1.14-.42a1.8 1.8 0 01-.73-1.46zm14.53-9.45c.32-.23.74-.42 1.15-.42.42 0 .82.15 1.15.42.36.27.59.73.7 1.19 0 .08 0 .19 0 .27 0 .59-.28 1.15-.74 1.47-.14.08-.31.18-.46.27-.23.08-.46.14-.69.14-.23 0-.46-.04-.69-.14a1.04 1.04 0 01-.46-.27 1.9 1.9 0 01-.73-1.47c0-.08 0-.19 0-.27.17-.5.4-.92.77-1.2zm3.01 17.73c0 .55-.27 1.05-.69 1.38-.08.05-.18.15-.27.2a1.77 1.77 0 01-1.75 0c-.09-.05-.2-.1-.28-.2a1.74 1.74 0 01-.69-1.42v-.04c0-.19 0-.31.05-.5.08-.42.3-.73.64-.96.2-.15.46-.28.7-.32.14-.04.3-.04.45-.04.2 0 .32 0 .5.04.24.04.47.19.7.32.31.23.54.58.64.96.05.14.09.31.09.5-.09.04-.09.04-.09.08zm7.95-9.28a3.88 3.88 0 000 2.05l-7.05 4.08c-.46-.42-1-.74-1.6-.93v-8.17a4.13 4.13 0 001.73-1l6.92 3.97zM10.67 14.6c0-6.13 5.4-10.56 7.28-11.88 1.81 1.32 7.27 5.75 7.27 11.88 0 5.12-3.78 8.87-6.08 10.6v-9.64c0-.65-.5-1.15-1.15-1.15-.65 0-1.15.5-1.15 1.15v9.68c-2.39-1.77-6.17-5.48-6.17-10.64zm4.35 22.94c.5.46 1.04.82 1.73 1v8.18c-.58.2-1.15.46-1.6.88l-7.06-4.08c.09-.3.15-.64.15-1 0-.35-.04-.69-.15-1l6.93-3.98zM8.2 59.52c.04-.23.04-.5.04-.73 0-.46-.08-.88-.19-1.27l6.86-3.94c.5.5 1.15.93 1.89 1.16v7.78c-.7.18-1.28.54-1.74 1l-6.86-4zm12.61 4a4.4 4.4 0 00-1.74-1v-7.78a3.76 3.76 0 001.89-1.16l6.86 3.94a3.7 3.7 0 00-.2 1.27c0 .23 0 .5.05.73l-6.86 4zm23.68-24.7a5.92 5.92 0 01-4.58.35l2.28-1.31c.54-.32.73-1 .41-1.55-.3-.54-1-.73-1.6-.42l-2.29 1.32c.36-1.28 1.1-2.89 2.62-3.75 2.2-1.27 4.93-.46 6.17.05-.17 1.3-.82 4.03-3.01 5.3z"/><defs><linearGradient id="paint0_linear" x1="63.593" x2="63.593" y1="31.038" y2="58.856" gradientUnits="userSpaceOnUse"><stop stop-color="#fff"/><stop offset="1" stop-color="#fff" stop-opacity="0"/></linearGradient><linearGradient id="paint1_linear" x1="84.749" x2="84.749" y1="30.495" y2="59.358" gradientUnits="userSpaceOnUse"><stop stop-color="#fff"/><stop offset="1" stop-color="#fff" stop-opacity="0"/></linearGradient><linearGradient id="paint2_linear" x1="112.231" x2="112.231" y1="22.087" y2="58.856" gradientUnits="userSpaceOnUse"><stop stop-color="#fff"/><stop offset="1" stop-color="#fff" stop-opacity="0"/></linearGradient><linearGradient id="paint3_linear" x1="24.962" x2="24.962" y1="0" y2="70.652" gradientUnits="userSpaceOnUse"><stop stop-color="#fff"/><stop offset="1" stop-color="#fff" stop-opacity="0"/></linearGradient></defs></svg>