<svg xmlns="http://www.w3.org/2000/svg" width="158" height="49" fill="none"><path fill="#4D4D5D" d="M9.13 24.42C3.89 11.29-.21.3 0 .02.3-.19 8.84 1.1 18.96 2.88L37.5 6.23l4.8 4.78 4.75 4.85-13.36 16.2c-7.4 8.9-13.78 16.18-14.21 16.18-.43.08-5.03-10.7-10.34-23.82zm11.2 4.78c.64-5.2 1.08-9.56.93-9.7-.14-.07-3.01-2.43-6.39-5.14C5.32 6.6 5.97 6.94 7.12 9.8c.57 1.35 3.44 8.48 6.39 15.83 2.94 7.28 5.38 13.2 5.45 13.13.08-.07.72-4.35 1.37-9.56zm11.27-.5c4.6-5.5 8.19-10.06 8.11-10.2-.21-.22-14.21 2.14-14.64 2.42-.36.22-2.23 14.34-2.3 16.62 0 .93.14 1.57.29 1.43.14-.14 4.02-4.78 8.54-10.27zm4.3-13.2l4.96-.92-2.15-2.14c-2.44-2.43-2.66-2.36-8.04 2.35-1.87 1.64-2.16 2.14-1.08 1.85.79-.14 3.66-.71 6.32-1.14zm-8.03-3c2.44-2.06 4.16-3.77 3.8-3.92-2.37-.57-21.4-3.78-21.83-3.63-.57.2 12.14 11.12 13.07 11.2.22.07 2.44-1.57 4.96-3.64z"/><path fill="url(#paint0_linear)" fill-opacity=".4" d="M9.13 24.42C3.89 11.29-.21.3 0 .02.3-.19 8.84 1.1 18.96 2.88L37.5 6.23l4.8 4.78 4.75 4.85-13.36 16.2c-7.4 8.9-13.78 16.18-14.21 16.18-.43.08-5.03-10.7-10.34-23.82zm11.2 4.78c.64-5.2 1.08-9.56.93-9.7-.14-.07-3.01-2.43-6.39-5.14C5.32 6.6 5.97 6.94 7.12 9.8c.57 1.35 3.44 8.48 6.39 15.83 2.94 7.28 5.38 13.2 5.45 13.13.08-.07.72-4.35 1.37-9.56zm11.27-.5c4.6-5.5 8.19-10.06 8.11-10.2-.21-.22-14.21 2.14-14.64 2.42-.36.22-2.23 14.34-2.3 16.62 0 .93.14 1.57.29 1.43.14-.14 4.02-4.78 8.54-10.27zm4.3-13.2l4.96-.92-2.15-2.14c-2.44-2.43-2.66-2.36-8.04 2.35-1.87 1.64-2.16 2.14-1.08 1.85.79-.14 3.66-.71 6.32-1.14zm-8.03-3c2.44-2.06 4.16-3.77 3.8-3.92-2.37-.57-21.4-3.78-21.83-3.63-.57.2 12.14 11.12 13.07 11.2.22.07 2.44-1.57 4.96-3.64z"/><path fill="#4D4D5D" d="M149.1 28.46l-8.42-10.13-.21 9.05c-.15 8.47-.29 9.04-1.56 9.04-1.34 0-1.41-.57-1.41-13.38 0-7.38.14-13.4.28-13.4.21 0 4.1 4.42 8.7 9.85l8.34 9.84.21-8.75c.14-8.18.28-8.76 1.56-8.76 1.34 0 1.41.58 1.41 13.39 0 7.38-.07 13.39-.21 13.39-.14 0-4.03-4.56-8.7-10.14z"/><path fill="url(#paint1_linear)" fill-opacity=".4" d="M149.1 28.46l-8.42-10.13-.21 9.05c-.15 8.47-.29 9.04-1.56 9.04-1.34 0-1.41-.57-1.41-13.38 0-7.38.14-13.4.28-13.4.21 0 4.1 4.42 8.7 9.85l8.34 9.84.21-8.75c.14-8.18.28-8.76 1.56-8.76 1.34 0 1.41.58 1.41 13.39 0 7.38-.07 13.39-.21 13.39-.14 0-4.03-4.56-8.7-10.14z"/><path fill="#4D4D5D" d="M61.51 27.74c0-7.95.1-8.44 1.81-8.44 1.72 0 1.81.49 1.81 8.44 0 7.95-.1 8.44-1.8 8.44-1.73 0-1.82-.49-1.82-8.44z"/><path fill="url(#paint2_linear)" fill-opacity=".4" d="M61.51 27.74c0-7.95.1-8.44 1.81-8.44 1.72 0 1.81.49 1.81 8.44 0 7.95-.1 8.44-1.8 8.44-1.73 0-1.82-.49-1.82-8.44z"/><path fill="#4D4D5D" d="M66.34 27.74c0-7.95.06-8.44 1.2-8.44 1.15 0 1.2.49 1.2 8.44 0 7.95-.05 8.44-1.2 8.44-1.14 0-1.2-.49-1.2-8.44z"/><path fill="url(#paint3_linear)" fill-opacity=".4" d="M66.34 27.74c0-7.95.06-8.44 1.2-8.44 1.15 0 1.2.49 1.2 8.44 0 7.95-.05 8.44-1.2 8.44-1.14 0-1.2-.49-1.2-8.44z"/><path fill="#4D4D5D" d="M80.8 24.12V12.06h8.4c4.56 0 8.98.36 9.77.71.73.43 1.89 1.7 2.46 2.84 1.74 3.26 1.38 6.03-1.08 8.8l-2.25 2.48 2.25 4.26a50.15 50.15 0 012.17 4.68c0 .21-.72.35-1.6.35-1.3 0-2.24-1.06-4.19-4.6-2.39-4.4-2.68-4.62-5.21-4.62h-2.75v4.61c0 4.12-.15 4.61-1.45 4.61s-1.45-.5-1.45-5.96v-5.88l5.5-.36c5.65-.35 6.95-1.06 7.9-3.9.28-1.2-.08-2.06-1.38-3.4-1.67-1.64-2.4-1.78-8.04-1.78H83.7v10.64c0 10.15-.07 10.64-1.44 10.64-1.38 0-1.45-.5-1.45-12.06z"/><path fill="url(#paint4_linear)" fill-opacity=".4" d="M80.8 24.12V12.06h8.4c4.56 0 8.98.36 9.77.71.73.43 1.89 1.7 2.46 2.84 1.74 3.26 1.38 6.03-1.08 8.8l-2.25 2.48 2.25 4.26a50.15 50.15 0 012.17 4.68c0 .21-.72.35-1.6.35-1.3 0-2.24-1.06-4.19-4.6-2.39-4.4-2.68-4.62-5.21-4.62h-2.75v4.61c0 4.12-.15 4.61-1.45 4.61s-1.45-.5-1.45-5.96v-5.88l5.5-.36c5.65-.35 6.95-1.06 7.9-3.9.28-1.2-.08-2.06-1.38-3.4-1.67-1.64-2.4-1.78-8.04-1.78H83.7v10.64c0 10.15-.07 10.64-1.44 10.64-1.38 0-1.45-.5-1.45-12.06z"/><path fill="#4D4D5D" d="M115.33 35.5c-7.42-2.66-10.35-11.83-5.85-18.39 2.14-3.25 5.78-5.05 10.2-5.05 8.86 0 14.43 9.45 10.5 17.82-2.28 4.98-9.28 7.64-14.85 5.62zm10-4.68c3.93-3.75 4.07-9.45.29-13.06-5.72-5.41-15-1.59-14.93 6.06.07 3.68 1.22 5.91 4 7.79 2.78 1.95 8.21 1.51 10.64-.8z"/><path fill="url(#paint5_linear)" fill-opacity=".4" d="M115.33 35.5c-7.42-2.66-10.35-11.83-5.85-18.39 2.14-3.25 5.78-5.05 10.2-5.05 8.86 0 14.43 9.45 10.5 17.82-2.28 4.98-9.28 7.64-14.85 5.62zm10-4.68c3.93-3.75 4.07-9.45.29-13.06-5.72-5.41-15-1.59-14.93 6.06.07 3.68 1.22 5.91 4 7.79 2.78 1.95 8.21 1.51 10.64-.8z"/><path fill="#4D4D5D" d="M118.2 23.63c0-1.55.37-1.92 1.92-1.92 1.56 0 1.85.3 1.63 1.7a2.05 2.05 0 01-1.85 1.85c-1.4.22-1.7-.07-1.7-1.63z"/><path fill="url(#paint6_linear)" fill-opacity=".4" d="M118.2 23.63c0-1.55.37-1.92 1.92-1.92 1.56 0 1.85.3 1.63 1.7a2.05 2.05 0 01-1.85 1.85c-1.4.22-1.7-.07-1.7-1.63z"/><path fill="#4D4D5D" d="M141.12 31.36c0-4.34.17-4.83 1.8-4.83 1.63 0 1.81.49 1.81 4.83s-.18 4.82-1.8 4.82c-1.64 0-1.81-.48-1.81-4.82z"/><path fill="url(#paint7_linear)" fill-opacity=".4" d="M141.12 31.36c0-4.34.17-4.83 1.8-4.83 1.63 0 1.81.49 1.81 4.83s-.18 4.82-1.8 4.82c-1.64 0-1.81-.48-1.81-4.82z"/><path fill="#4D4D5D" d="M54.27 13.27c0-1.15.51-1.2 10.86-1.2s10.85.05 10.85 1.2c0 1.14-.5 1.2-10.85 1.2s-10.86-.06-10.86-1.2z"/><path fill="url(#paint8_linear)" fill-opacity=".4" d="M54.27 13.27c0-1.15.51-1.2 10.86-1.2s10.85.05 10.85 1.2c0 1.14-.5 1.2-10.85 1.2s-10.86-.06-10.86-1.2z"/><defs><linearGradient id="paint0_linear" x1="23.519" x2="23.519" y1="0" y2="48.244" gradientUnits="userSpaceOnUse"><stop stop-color="#fff"/><stop offset="1" stop-color="#fff" stop-opacity="0"/></linearGradient><linearGradient id="paint1_linear" x1="147.748" x2="147.748" y1="9.649" y2="38.595" gradientUnits="userSpaceOnUse"><stop stop-color="#fff"/><stop offset="1" stop-color="#fff" stop-opacity="0"/></linearGradient><linearGradient id="paint2_linear" x1="63.321" x2="63.321" y1="19.298" y2="36.183" gradientUnits="userSpaceOnUse"><stop stop-color="#fff"/><stop offset="1" stop-color="#fff" stop-opacity="0"/></linearGradient><linearGradient id="paint3_linear" x1="67.542" x2="67.542" y1="19.298" y2="36.183" gradientUnits="userSpaceOnUse"><stop stop-color="#fff"/><stop offset="1" stop-color="#fff" stop-opacity="0"/></linearGradient><linearGradient id="paint4_linear" x1="91.664" x2="91.664" y1="12.061" y2="36.183" gradientUnits="userSpaceOnUse"><stop stop-color="#fff"/><stop offset="1" stop-color="#fff" stop-opacity="0"/></linearGradient><linearGradient id="paint5_linear" x1="119.405" x2="119.405" y1="12.061" y2="36.183" gradientUnits="userSpaceOnUse"><stop stop-color="#fff"/><stop offset="1" stop-color="#fff" stop-opacity="0"/></linearGradient><linearGradient id="paint6_linear" x1="120.008" x2="120.008" y1="21.71" y2="25.328" gradientUnits="userSpaceOnUse"><stop stop-color="#fff"/><stop offset="1" stop-color="#fff" stop-opacity="0"/></linearGradient><linearGradient id="paint7_linear" x1="142.924" x2="142.924" y1="26.534" y2="36.183" gradientUnits="userSpaceOnUse"><stop stop-color="#fff"/><stop offset="1" stop-color="#fff" stop-opacity="0"/></linearGradient><linearGradient id="paint8_linear" x1="65.13" x2="65.13" y1="12.061" y2="14.473" gradientUnits="userSpaceOnUse"><stop stop-color="#fff"/><stop offset="1" stop-color="#fff" stop-opacity="0"/></linearGradient></defs></svg>