<svg xmlns="http://www.w3.org/2000/svg" width="153" height="54" fill="none"><path fill="#4D4D5D" d="M85.89 26.9c0 1.81-.28 3.52-.87 5.1a11.9 11.9 0 01-6.53 7.02c-1.6.7-3.42 1.03-5.46 1.03s-3.85-.35-5.46-1.04A11.9 11.9 0 0161.04 32a15.2 15.2 0 01-.84-5.08c0-1.78.28-3.49.84-5.09.56-1.6 1.4-3 2.5-4.2 1.1-1.2 2.45-2.13 4.03-2.84 1.61-.72 3.42-1.05 5.46-1.05s3.85.36 5.46 1.05a11.9 11.9 0 016.53 7.04c.59 1.6.87 3.3.87 5.09zm-12.83 8.98a6.8 6.8 0 005.61-2.57 8.05 8.05 0 001.4-2.84c.3-1.1.46-2.3.46-3.56 0-1.28-.15-2.47-.46-3.56a8.05 8.05 0 00-1.4-2.85 6.52 6.52 0 00-2.35-1.88 7.34 7.34 0 00-3.26-.7 6.8 6.8 0 00-5.61 2.57 8.06 8.06 0 00-1.4 2.86c-.31 1.09-.47 2.28-.47 3.56 0 1.27.16 2.46.46 3.56.3 1.09.77 2.03 1.4 2.84.64.82 1.4 1.43 2.35 1.89.92.45 2.02.68 3.27.68zm16.2 3.74V14.2h5.35v12.2l8.86-12.2h6.2l-9.4 12.56 10.03 12.87h-6.63l-9.08-12.48v12.48h-5.33zm23.18-25.43h15.34v4.25h-9.95v6.15h9.49v4.22h-9.5v6.57h10.08v4.24h-15.43V14.2h-.03zm34.44 0h5.82l-8.4 12.64 8.55 12.8h-5.87l-5.5-8.68-5.52 8.67h-5.86l8.54-12.79-8.39-12.64h5.82l5.4 8.6 5.41-8.6z"/><path fill="url(#paint0_linear)" fill-opacity=".4" d="M85.89 26.9c0 1.81-.28 3.52-.87 5.1a11.9 11.9 0 01-6.53 7.02c-1.6.7-3.42 1.03-5.46 1.03s-3.85-.35-5.46-1.04A11.9 11.9 0 0161.04 32a15.2 15.2 0 01-.84-5.08c0-1.78.28-3.49.84-5.09.56-1.6 1.4-3 2.5-4.2 1.1-1.2 2.45-2.13 4.03-2.84 1.61-.72 3.42-1.05 5.46-1.05s3.85.36 5.46 1.05a11.9 11.9 0 016.53 7.04c.59 1.6.87 3.3.87 5.09zm-12.83 8.98a6.8 6.8 0 005.61-2.57 8.05 8.05 0 001.4-2.84c.3-1.1.46-2.3.46-3.56 0-1.28-.15-2.47-.46-3.56a8.05 8.05 0 00-1.4-2.85 6.52 6.52 0 00-2.35-1.88 7.34 7.34 0 00-3.26-.7 6.8 6.8 0 00-5.61 2.57 8.06 8.06 0 00-1.4 2.86c-.31 1.09-.47 2.28-.47 3.56 0 1.27.16 2.46.46 3.56.3 1.09.77 2.03 1.4 2.84.64.82 1.4 1.43 2.35 1.89.92.45 2.02.68 3.27.68zm16.2 3.74V14.2h5.35v12.2l8.86-12.2h6.2l-9.4 12.56 10.03 12.87h-6.63l-9.08-12.48v12.48h-5.33zm23.18-25.43h15.34v4.25h-9.95v6.15h9.49v4.22h-9.5v6.57h10.08v4.24h-15.43V14.2h-.03zm34.44 0h5.82l-8.4 12.64 8.55 12.8h-5.87l-5.5-8.68-5.52 8.67h-5.86l8.54-12.79-8.39-12.64h5.82l5.4 8.6 5.41-8.6z"/><g opacity=".9"><path fill="#4D4D5D" d="M27.04 24.41c6.76 0 12.24-5.46 12.24-12.2C39.28 5.47 33.8 0 27.04 0A12.23 12.23 0 0014.8 12.2c0 6.75 5.48 12.21 12.24 12.21z"/><path fill="url(#paint1_linear)" fill-opacity=".4" d="M27.04 24.41c6.76 0 12.24-5.46 12.24-12.2C39.28 5.47 33.8 0 27.04 0A12.23 12.23 0 0014.8 12.2c0 6.75 5.48 12.21 12.24 12.21z"/></g><g opacity=".9"><path fill="#4D4D5D" d="M27.04 53.91c6.76 0 12.24-5.46 12.24-12.2 0-6.74-5.48-12.21-12.24-12.21A12.23 12.23 0 0014.8 41.7c0 6.75 5.48 12.21 12.24 12.21z"/><path fill="url(#paint2_linear)" fill-opacity=".4" d="M27.04 53.91c6.76 0 12.24-5.46 12.24-12.2 0-6.74-5.48-12.21-12.24-12.21A12.23 12.23 0 0014.8 41.7c0 6.75 5.48 12.21 12.24 12.21z"/></g><g opacity=".9"><path fill="#4D4D5D" d="M41.83 39.16c6.77 0 12.25-5.46 12.25-12.2 0-6.74-5.48-12.21-12.25-12.21a12.23 12.23 0 00-12.24 12.2c0 6.75 5.48 12.21 12.24 12.21z"/><path fill="url(#paint3_linear)" fill-opacity=".4" d="M41.83 39.16c6.77 0 12.25-5.46 12.25-12.2 0-6.74-5.48-12.21-12.25-12.21a12.23 12.23 0 00-12.24 12.2c0 6.75 5.48 12.21 12.24 12.21z"/></g><g opacity=".9"><path fill="#4D4D5D" d="M12.24 39.16c6.77 0 12.25-5.46 12.25-12.2 0-6.74-5.48-12.21-12.25-12.21A12.23 12.23 0 000 26.95c0 6.75 5.48 12.21 12.24 12.21z"/><path fill="url(#paint4_linear)" fill-opacity=".4" d="M12.24 39.16c6.77 0 12.25-5.46 12.25-12.2 0-6.74-5.48-12.21-12.25-12.21A12.23 12.23 0 000 26.95c0 6.75 5.48 12.21 12.24 12.21z"/></g><path fill="#4D4D5D" fill-rule="evenodd" d="M24.14 24.07a12.25 12.25 0 01-9-8.98 12.25 12.25 0 019 8.98z" clip-rule="evenodd"/><path fill="url(#paint5_linear)" fill-opacity=".4" fill-rule="evenodd" d="M24.14 24.07a12.25 12.25 0 01-9-8.98 12.25 12.25 0 019 8.98z" clip-rule="evenodd"/><path fill="#4D4D5D" fill-rule="evenodd" d="M15.14 38.82a12.24 12.24 0 019-8.98 12.25 12.25 0 01-9 8.98z" clip-rule="evenodd"/><path fill="url(#paint6_linear)" fill-opacity=".4" fill-rule="evenodd" d="M15.14 38.82a12.24 12.24 0 019-8.98 12.25 12.25 0 01-9 8.98z" clip-rule="evenodd"/><path fill="#4D4D5D" fill-rule="evenodd" d="M29.94 29.84a12.24 12.24 0 019 8.98 12.25 12.25 0 01-9-8.98z" clip-rule="evenodd"/><path fill="url(#paint7_linear)" fill-opacity=".4" fill-rule="evenodd" d="M29.94 29.84a12.24 12.24 0 019 8.98 12.25 12.25 0 01-9-8.98z" clip-rule="evenodd"/><path fill="#4D4D5D" fill-rule="evenodd" d="M38.94 15.1a12.25 12.25 0 01-9 8.97 12.25 12.25 0 019-8.98z" clip-rule="evenodd"/><path fill="url(#paint8_linear)" fill-opacity=".4" fill-rule="evenodd" d="M38.94 15.1a12.25 12.25 0 01-9 8.97 12.25 12.25 0 019-8.98z" clip-rule="evenodd"/><defs><linearGradient id="paint0_linear" x1="106.526" x2="106.526" y1="13.733" y2="40.054" gradientUnits="userSpaceOnUse"><stop stop-color="#fff"/><stop offset="1" stop-color="#fff" stop-opacity="0"/></linearGradient><linearGradient id="paint1_linear" x1="27.04" x2="27.04" y1="0" y2="24.414" gradientUnits="userSpaceOnUse"><stop stop-color="#fff"/><stop offset="1" stop-color="#fff" stop-opacity="0"/></linearGradient><linearGradient id="paint2_linear" x1="27.04" x2="27.04" y1="29.5" y2="53.915" gradientUnits="userSpaceOnUse"><stop stop-color="#fff"/><stop offset="1" stop-color="#fff" stop-opacity="0"/></linearGradient><linearGradient id="paint3_linear" x1="41.835" x2="41.835" y1="14.75" y2="39.164" gradientUnits="userSpaceOnUse"><stop stop-color="#fff"/><stop offset="1" stop-color="#fff" stop-opacity="0"/></linearGradient><linearGradient id="paint4_linear" x1="12.244" x2="12.244" y1="14.75" y2="39.164" gradientUnits="userSpaceOnUse"><stop stop-color="#fff"/><stop offset="1" stop-color="#fff" stop-opacity="0"/></linearGradient><linearGradient id="paint5_linear" x1="19.642" x2="19.642" y1="15.093" y2="24.071" gradientUnits="userSpaceOnUse"><stop stop-color="#fff"/><stop offset="1" stop-color="#fff" stop-opacity="0"/></linearGradient><linearGradient id="paint6_linear" x1="19.642" x2="19.642" y1="29.844" y2="38.821" gradientUnits="userSpaceOnUse"><stop stop-color="#fff"/><stop offset="1" stop-color="#fff" stop-opacity="0"/></linearGradient><linearGradient id="paint7_linear" x1="34.438" x2="34.438" y1="29.844" y2="38.821" gradientUnits="userSpaceOnUse"><stop stop-color="#fff"/><stop offset="1" stop-color="#fff" stop-opacity="0"/></linearGradient><linearGradient id="paint8_linear" x1="34.438" x2="34.438" y1="15.093" y2="24.071" gradientUnits="userSpaceOnUse"><stop stop-color="#fff"/><stop offset="1" stop-color="#fff" stop-opacity="0"/></linearGradient></defs></svg>