<svg width="131" height="54" viewBox="0 0 131 54" fill="none" xmlns="http://www.w3.org/2000/svg">
<path fill-rule="evenodd" clip-rule="evenodd" d="M48.0716 40.9689C47.7196 40.9689 47.3677 40.877 47.0408 40.6932C46.0519 40.125 45.7166 38.8633 46.2865 37.8773C49.3037 32.6716 50.0999 26.6052 48.541 20.7894C46.9821 14.9821 43.2441 10.1273 38.0228 7.11922C31.0582 3.10839 22.409 3.10839 15.4444 7.11922C14.4553 7.68742 13.1899 7.35318 12.6199 6.36719C12.05 5.38119 12.3853 4.11946 13.3742 3.55126C17.4893 1.18654 22.1073 0 26.7252 0C31.3431 0 35.9611 1.18654 40.0845 3.5596C46.2613 7.11086 50.6865 12.8597 52.5303 19.7283C54.3742 26.5968 53.4271 33.7745 49.8652 39.9412C49.4796 40.6013 48.7841 40.9689 48.0716 40.9689Z" fill="#4D4D5D"/>
<path fill-rule="evenodd" clip-rule="evenodd" d="M48.0716 40.9689C47.7196 40.9689 47.3677 40.877 47.0408 40.6932C46.0519 40.125 45.7166 38.8633 46.2865 37.8773C49.3037 32.6716 50.0999 26.6052 48.541 20.7894C46.9821 14.9821 43.2441 10.1273 38.0228 7.11922C31.0582 3.10839 22.409 3.10839 15.4444 7.11922C14.4553 7.68742 13.1899 7.35318 12.6199 6.36719C12.05 5.38119 12.3853 4.11946 13.3742 3.55126C17.4893 1.18654 22.1073 0 26.7252 0C31.3431 0 35.9611 1.18654 40.0845 3.5596C46.2613 7.11086 50.6865 12.8597 52.5303 19.7283C54.3742 26.5968 53.4271 33.7745 49.8652 39.9412C49.4796 40.6013 48.7841 40.9689 48.0716 40.9689Z" fill="url(#paint0_linear)" fill-opacity="0.4"/>
<path fill-rule="evenodd" clip-rule="evenodd" d="M35.5756 28.6856H17.8749C16.7351 28.6856 15.8048 27.7665 15.8048 26.6217C15.8048 25.4853 16.7267 24.5577 17.8749 24.5577H35.5756C36.7155 24.5577 37.6458 25.4769 37.6458 26.6217C37.6458 27.7581 36.7155 28.6856 35.5756 28.6856Z" fill="#4D4D5D"/>
<path fill-rule="evenodd" clip-rule="evenodd" d="M35.5756 28.6856H17.8749C16.7351 28.6856 15.8048 27.7665 15.8048 26.6217C15.8048 25.4853 16.7267 24.5577 17.8749 24.5577H35.5756C36.7155 24.5577 37.6458 25.4769 37.6458 26.6217C37.6458 27.7581 36.7155 28.6856 35.5756 28.6856Z" fill="url(#paint1_linear)" fill-opacity="0.4"/>
<path fill-rule="evenodd" clip-rule="evenodd" d="M39.0453 21.7171H22.694C21.5541 21.7171 20.6238 20.798 20.6238 19.6532C20.6238 18.5169 21.5457 17.5894 22.694 17.5894H39.0537C40.1935 17.5894 41.1238 18.5085 41.1238 19.6532C41.1154 20.798 40.1935 21.7171 39.0453 21.7171Z" fill="#4D4D5D"/>
<path fill-rule="evenodd" clip-rule="evenodd" d="M39.0453 21.7171H22.694C21.5541 21.7171 20.6238 20.798 20.6238 19.6532C20.6238 18.5169 21.5457 17.5894 22.694 17.5894H39.0537C40.1935 17.5894 41.1238 18.5085 41.1238 19.6532C41.1154 20.798 40.1935 21.7171 39.0453 21.7171Z" fill="url(#paint2_linear)" fill-opacity="0.4"/>
<path fill-rule="evenodd" clip-rule="evenodd" d="M22.694 21.7172C21.9816 21.7172 21.2859 21.3495 20.9004 20.6894L12.6116 6.36742C12.0417 5.38142 12.3769 4.11969 13.3658 3.55148C14.3549 2.98328 15.6204 3.31751 16.1903 4.30351L24.4791 18.6255C25.0491 19.6115 24.7138 20.8732 23.7249 21.4414C23.398 21.6337 23.046 21.7172 22.694 21.7172Z" fill="#4D4D5D"/>
<path fill-rule="evenodd" clip-rule="evenodd" d="M22.694 21.7172C21.9816 21.7172 21.2859 21.3495 20.9004 20.6894L12.6116 6.36742C12.0417 5.38142 12.3769 4.11969 13.3658 3.55148C14.3549 2.98328 15.6204 3.31751 16.1903 4.30351L24.4791 18.6255C25.0491 19.6115 24.7138 20.8732 23.7249 21.4414C23.398 21.6337 23.046 21.7172 22.694 21.7172Z" fill="url(#paint3_linear)" fill-opacity="0.4"/>
<path fill-rule="evenodd" clip-rule="evenodd" d="M30.7565 35.6461H14.3968C13.2569 35.6461 12.3266 34.727 12.3266 33.5821C12.3266 32.4457 13.2485 31.5183 14.3968 31.5183H30.7565C31.8962 31.5183 32.8265 32.4375 32.8265 33.5821C32.8265 34.727 31.8962 35.6461 30.7565 35.6461Z" fill="#4D4D5D"/>
<path fill-rule="evenodd" clip-rule="evenodd" d="M30.7565 35.6461H14.3968C13.2569 35.6461 12.3266 34.727 12.3266 33.5821C12.3266 32.4457 13.2485 31.5183 14.3968 31.5183H30.7565C31.8962 31.5183 32.8265 32.4375 32.8265 33.5821C32.8265 34.727 31.8962 35.6461 30.7565 35.6461Z" fill="url(#paint4_linear)" fill-opacity="0.4"/>
<path fill-rule="evenodd" clip-rule="evenodd" d="M39.0537 49.9681C38.3413 49.9681 37.6457 49.6004 37.2601 48.9403L28.9713 34.6182C28.4015 33.6323 28.7366 32.3705 29.7257 31.8023C30.7146 31.2341 31.9802 31.5684 32.55 32.5544L40.8388 46.8763C41.4087 47.8624 41.0735 49.1242 40.0845 49.6924C39.7577 49.8845 39.4057 49.9681 39.0537 49.9681Z" fill="#4D4D5D"/>
<path fill-rule="evenodd" clip-rule="evenodd" d="M39.0537 49.9681C38.3413 49.9681 37.6457 49.6004 37.2601 48.9403L28.9713 34.6182C28.4015 33.6323 28.7366 32.3705 29.7257 31.8023C30.7146 31.2341 31.9802 31.5684 32.55 32.5544L40.8388 46.8763C41.4087 47.8624 41.0735 49.1242 40.0845 49.6924C39.7577 49.8845 39.4057 49.9681 39.0537 49.9681Z" fill="url(#paint5_linear)" fill-opacity="0.4"/>
<path fill-rule="evenodd" clip-rule="evenodd" d="M26.7252 53.2437C22.1073 53.2437 17.4893 52.0572 13.3658 49.6841C7.18905 46.1328 2.76388 40.3923 0.920051 33.5154C-0.923772 26.6469 0.023283 19.4692 3.58521 13.3025C4.15513 12.3165 5.42066 11.9823 6.40962 12.5505C7.39858 13.1187 7.73382 14.3804 7.16391 15.3664C4.14675 20.5721 3.35055 26.6386 4.90942 32.4459C6.47666 38.2616 10.2146 43.1163 15.436 46.1245C22.4006 50.1353 31.0499 50.1353 38.0144 46.1245C39.0034 45.5563 40.2689 45.8906 40.8388 46.8765C41.4088 47.8625 41.0735 49.1243 40.0846 49.6925C35.9612 52.0572 31.3431 53.2437 26.7252 53.2437Z" fill="#4D4D5D"/>
<path fill-rule="evenodd" clip-rule="evenodd" d="M26.7252 53.2437C22.1073 53.2437 17.4893 52.0572 13.3658 49.6841C7.18905 46.1328 2.76388 40.3923 0.920051 33.5154C-0.923772 26.6469 0.023283 19.4692 3.58521 13.3025C4.15513 12.3165 5.42066 11.9823 6.40962 12.5505C7.39858 13.1187 7.73382 14.3804 7.16391 15.3664C4.14675 20.5721 3.35055 26.6386 4.90942 32.4459C6.47666 38.2616 10.2146 43.1163 15.436 46.1245C22.4006 50.1353 31.0499 50.1353 38.0144 46.1245C39.0034 45.5563 40.2689 45.8906 40.8388 46.8765C41.4088 47.8625 41.0735 49.1243 40.0846 49.6925C35.9612 52.0572 31.3431 53.2437 26.7252 53.2437Z" fill="url(#paint6_linear)" fill-opacity="0.4"/>
<path d="M70.9938 18.6H85.1241C85.6773 18.6 85.9539 18.9259 85.9539 19.5776C85.9539 20.2127 85.6773 20.5302 85.1241 20.5302H70.9938V23.555C70.9938 24.9338 72.2927 25.619 74.8909 25.619H85.1241C85.7108 25.619 86.0041 25.9281 86.0041 26.5381C86.0041 27.1815 85.7108 27.499 85.1241 27.499H74.8155C70.6585 27.499 68.58 26.2123 68.58 23.6386V15.4415C68.58 12.8178 70.7339 11.5059 75.0417 11.5059H77.8327C78.3858 11.5059 78.6624 11.8233 78.6624 12.4584C78.6624 13.0767 78.3858 13.386 77.8327 13.386H75.947C72.6448 13.386 70.9938 14.0712 70.9938 15.4415V18.6Z" fill="#4D4D5D"/>
<path d="M70.9938 18.6H85.1241C85.6773 18.6 85.9539 18.9259 85.9539 19.5776C85.9539 20.2127 85.6773 20.5302 85.1241 20.5302H70.9938V23.555C70.9938 24.9338 72.2927 25.619 74.8909 25.619H85.1241C85.7108 25.619 86.0041 25.9281 86.0041 26.5381C86.0041 27.1815 85.7108 27.499 85.1241 27.499H74.8155C70.6585 27.499 68.58 26.2123 68.58 23.6386V15.4415C68.58 12.8178 70.7339 11.5059 75.0417 11.5059H77.8327C78.3858 11.5059 78.6624 11.8233 78.6624 12.4584C78.6624 13.0767 78.3858 13.386 77.8327 13.386H75.947C72.6448 13.386 70.9938 14.0712 70.9938 15.4415V18.6Z" fill="url(#paint7_linear)" fill-opacity="0.4"/>
<path d="M107.979 26.02C107.979 26.5548 107.828 26.9559 107.535 27.2233C107.242 27.4906 106.898 27.6244 106.512 27.6244C106.345 27.6244 106.16 27.5909 105.968 27.5241C105.775 27.4572 105.582 27.3319 105.398 27.1481L91.2171 14.514V26.5966C91.2171 27.2817 90.8232 27.6244 90.0353 27.6244C89.2643 27.6244 88.8788 27.2817 88.8788 26.5966V12.8845C88.8788 12.3832 89.0296 12.0156 89.3314 11.7899C89.633 11.5644 89.9683 11.4557 90.3371 11.4557C90.5718 11.4557 90.7896 11.4891 90.9907 11.5393C91.1919 11.5978 91.3847 11.7231 91.5691 11.9069L105.624 24.2904V12.3581C105.624 11.7063 106.026 11.3805 106.831 11.3805C107.585 11.3805 107.962 11.7063 107.962 12.3581V26.02H107.979Z" fill="#4D4D5D"/>
<path d="M107.979 26.02C107.979 26.5548 107.828 26.9559 107.535 27.2233C107.242 27.4906 106.898 27.6244 106.512 27.6244C106.345 27.6244 106.16 27.5909 105.968 27.5241C105.775 27.4572 105.582 27.3319 105.398 27.1481L91.2171 14.514V26.5966C91.2171 27.2817 90.8232 27.6244 90.0353 27.6244C89.2643 27.6244 88.8788 27.2817 88.8788 26.5966V12.8845C88.8788 12.3832 89.0296 12.0156 89.3314 11.7899C89.633 11.5644 89.9683 11.4557 90.3371 11.4557C90.5718 11.4557 90.7896 11.4891 90.9907 11.5393C91.1919 11.5978 91.3847 11.7231 91.5691 11.9069L105.624 24.2904V12.3581C105.624 11.7063 106.026 11.3805 106.831 11.3805C107.585 11.3805 107.962 11.7063 107.962 12.3581V26.02H107.979Z" fill="url(#paint8_linear)" fill-opacity="0.4"/>
<path d="M130.105 23.3462C130.105 25.151 129.141 26.3877 127.214 27.0562L128.421 27.733C128.554 27.8166 128.664 27.9419 128.756 28.1173C128.848 28.2928 128.89 28.4433 128.89 28.577C128.89 28.861 128.781 29.095 128.563 29.2788C128.345 29.4627 128.094 29.5546 127.809 29.5546C127.641 29.5546 127.448 29.4961 127.23 29.3791L123.887 27.4239H117.148C113.041 27.4239 110.988 26.0618 110.988 23.3377V15.5418C110.988 12.8512 113.033 11.5059 117.131 11.5059H123.828C128.01 11.5059 130.097 12.8428 130.097 15.5167V23.3462H130.105ZM127.692 15.5C127.692 14.0961 126.182 13.386 123.166 13.386H117.835C114.885 13.386 113.41 14.0879 113.41 15.5V23.4131C113.41 24.8837 114.885 25.6274 117.835 25.6274H124.222C126.535 25.6274 127.692 24.9004 127.692 23.438V15.5Z" fill="#4D4D5D"/>
<path d="M130.105 23.3462C130.105 25.151 129.141 26.3877 127.214 27.0562L128.421 27.733C128.554 27.8166 128.664 27.9419 128.756 28.1173C128.848 28.2928 128.89 28.4433 128.89 28.577C128.89 28.861 128.781 29.095 128.563 29.2788C128.345 29.4627 128.094 29.5546 127.809 29.5546C127.641 29.5546 127.448 29.4961 127.23 29.3791L123.887 27.4239H117.148C113.041 27.4239 110.988 26.0618 110.988 23.3377V15.5418C110.988 12.8512 113.033 11.5059 117.131 11.5059H123.828C128.01 11.5059 130.097 12.8428 130.097 15.5167V23.3462H130.105ZM127.692 15.5C127.692 14.0961 126.182 13.386 123.166 13.386H117.835C114.885 13.386 113.41 14.0879 113.41 15.5V23.4131C113.41 24.8837 114.885 25.6274 117.835 25.6274H124.222C126.535 25.6274 127.692 24.9004 127.692 23.438V15.5Z" fill="url(#paint9_linear)" fill-opacity="0.4"/>
<path d="M69.5689 38.5362H75.268C75.4943 38.5362 75.6032 38.6698 75.6032 38.9289C75.6032 39.1878 75.4943 39.3132 75.268 39.3132H69.5689V40.5332C69.5689 41.0847 70.0969 41.3688 71.1445 41.3688H75.268C75.5027 41.3688 75.62 41.4942 75.62 41.7364C75.62 41.9955 75.5027 42.1291 75.268 42.1291H71.111C69.4348 42.1291 68.5967 41.6111 68.5967 40.575V37.2661C68.5967 36.2049 69.4684 35.6785 71.2032 35.6785H72.3263C72.5526 35.6785 72.6615 35.8037 72.6615 36.0628C72.6615 36.3134 72.5526 36.4388 72.3263 36.4388H71.5719C70.2393 36.4388 69.5773 36.7146 69.5773 37.2661V38.5362H69.5689Z" fill="#4D4D5D"/>
<path d="M69.5689 38.5362H75.268C75.4943 38.5362 75.6032 38.6698 75.6032 38.9289C75.6032 39.1878 75.4943 39.3132 75.268 39.3132H69.5689V40.5332C69.5689 41.0847 70.0969 41.3688 71.1445 41.3688H75.268C75.5027 41.3688 75.62 41.4942 75.62 41.7364C75.62 41.9955 75.5027 42.1291 75.268 42.1291H71.111C69.4348 42.1291 68.5967 41.6111 68.5967 40.575V37.2661C68.5967 36.2049 69.4684 35.6785 71.2032 35.6785H72.3263C72.5526 35.6785 72.6615 35.8037 72.6615 36.0628C72.6615 36.3134 72.5526 36.4388 72.3263 36.4388H71.5719C70.2393 36.4388 69.5773 36.7146 69.5773 37.2661V38.5362H69.5689Z" fill="url(#paint10_linear)" fill-opacity="0.4"/>
<path d="M84.4873 41.5287C84.4873 41.7459 84.4285 41.9047 84.3112 42.0133C84.1939 42.122 84.0598 42.1721 83.9005 42.1721C83.8335 42.1721 83.7581 42.1554 83.6827 42.1303C83.6073 42.1053 83.5317 42.0551 83.4563 41.9799L77.7405 36.8828V41.7542C77.7405 42.03 77.5812 42.1721 77.2627 42.1721C76.9527 42.1721 76.7935 42.03 76.7935 41.7542V36.2227C76.7935 36.0221 76.8522 35.8717 76.9778 35.7798C77.1035 35.6879 77.2377 35.6461 77.3801 35.6461C77.4723 35.6461 77.5645 35.6545 77.6399 35.6796C77.7238 35.7046 77.7992 35.7548 77.8746 35.83L83.5401 40.8268V36.0138C83.5401 35.7548 83.6994 35.6211 84.0263 35.6211C84.328 35.6211 84.4789 35.7548 84.4789 36.0138V41.5287H84.4873Z" fill="#4D4D5D"/>
<path d="M84.4873 41.5287C84.4873 41.7459 84.4285 41.9047 84.3112 42.0133C84.1939 42.122 84.0598 42.1721 83.9005 42.1721C83.8335 42.1721 83.7581 42.1554 83.6827 42.1303C83.6073 42.1053 83.5317 42.0551 83.4563 41.9799L77.7405 36.8828V41.7542C77.7405 42.03 77.5812 42.1721 77.2627 42.1721C76.9527 42.1721 76.7935 42.03 76.7935 41.7542V36.2227C76.7935 36.0221 76.8522 35.8717 76.9778 35.7798C77.1035 35.6879 77.2377 35.6461 77.3801 35.6461C77.4723 35.6461 77.5645 35.6545 77.6399 35.6796C77.7238 35.7046 77.7992 35.7548 77.8746 35.83L83.5401 40.8268V36.0138C83.5401 35.7548 83.6994 35.6211 84.0263 35.6211C84.328 35.6211 84.4789 35.7548 84.4789 36.0138V41.5287H84.4873Z" fill="url(#paint11_linear)" fill-opacity="0.4"/>
<path d="M86.683 38.5374H92.3821C92.6085 38.5374 92.7174 38.6711 92.7174 38.9301C92.7174 39.1891 92.6085 39.3145 92.3821 39.3145H86.683V40.5344C86.683 41.086 87.2111 41.37 88.2587 41.37H92.3821C92.6168 41.37 92.7341 41.4954 92.7341 41.7376C92.7341 41.9967 92.6168 42.1304 92.3821 42.1304H88.2251C86.5489 42.1304 85.7108 41.6124 85.7108 40.5762V37.2673C85.7108 36.2061 86.5824 35.6797 88.3173 35.6797H89.4403C89.6667 35.6797 89.7756 35.805 89.7756 36.064C89.7756 36.3147 89.6667 36.4401 89.4403 36.4401H88.6777C87.3451 36.4401 86.683 36.7158 86.683 37.2673V38.5374Z" fill="#4D4D5D"/>
<path d="M86.683 38.5374H92.3821C92.6085 38.5374 92.7174 38.6711 92.7174 38.9301C92.7174 39.1891 92.6085 39.3145 92.3821 39.3145H86.683V40.5344C86.683 41.086 87.2111 41.37 88.2587 41.37H92.3821C92.6168 41.37 92.7341 41.4954 92.7341 41.7376C92.7341 41.9967 92.6168 42.1304 92.3821 42.1304H88.2251C86.5489 42.1304 85.7108 41.6124 85.7108 40.5762V37.2673C85.7108 36.2061 86.5824 35.6797 88.3173 35.6797H89.4403C89.6667 35.6797 89.7756 35.805 89.7756 36.064C89.7756 36.3147 89.6667 36.4401 89.4403 36.4401H88.6777C87.3451 36.4401 86.683 36.7158 86.683 37.2673V38.5374Z" fill="url(#paint12_linear)" fill-opacity="0.4"/>
<path d="M96.3883 36.432C95.307 36.432 94.7623 36.6826 94.7623 37.1924V40.4846C94.7623 41.0695 95.3573 41.3619 96.5475 41.3619H100.093C100.327 41.3619 100.445 41.4873 100.445 41.7297C100.445 41.9886 100.327 42.1224 100.093 42.1224H96.4134C94.6785 42.1224 93.8069 41.5792 93.8069 40.5013V37.1841C93.8069 36.1729 94.6534 35.6633 96.3546 35.6633H100.093C100.327 35.6633 100.445 35.7886 100.445 36.0393C100.445 36.2983 100.327 36.4237 100.093 36.4237H96.3883V36.432Z" fill="#4D4D5D"/>
<path d="M96.3883 36.432C95.307 36.432 94.7623 36.6826 94.7623 37.1924V40.4846C94.7623 41.0695 95.3573 41.3619 96.5475 41.3619H100.093C100.327 41.3619 100.445 41.4873 100.445 41.7297C100.445 41.9886 100.327 42.1224 100.093 42.1224H96.4134C94.6785 42.1224 93.8069 41.5792 93.8069 40.5013V37.1841C93.8069 36.1729 94.6534 35.6633 96.3546 35.6633H100.093C100.327 35.6633 100.445 35.7886 100.445 36.0393C100.445 36.2983 100.327 36.4237 100.093 36.4237H96.3883V36.432Z" fill="url(#paint13_linear)" fill-opacity="0.4"/>
<path d="M109.211 40.3422C109.211 41.5287 108.147 42.122 106.018 42.122H104.568C102.557 42.122 101.559 41.5287 101.559 40.3422V36.0138C101.559 35.7548 101.719 35.6211 102.029 35.6211C102.364 35.6211 102.531 35.7548 102.531 36.0138V40.2753C102.531 40.9939 103.168 41.3615 104.434 41.3615H106.186C107.569 41.3615 108.264 41.0023 108.264 40.2753V36.0138C108.264 35.7548 108.423 35.6211 108.742 35.6211C109.06 35.6211 109.22 35.7548 109.22 36.0138V40.3422H109.211Z" fill="#4D4D5D"/>
<path d="M109.211 40.3422C109.211 41.5287 108.147 42.122 106.018 42.122H104.568C102.557 42.122 101.559 41.5287 101.559 40.3422V36.0138C101.559 35.7548 101.719 35.6211 102.029 35.6211C102.364 35.6211 102.531 35.7548 102.531 36.0138V40.2753C102.531 40.9939 103.168 41.3615 104.434 41.3615H106.186C107.569 41.3615 108.264 41.0023 108.264 40.2753V36.0138C108.264 35.7548 108.423 35.6211 108.742 35.6211C109.06 35.6211 109.22 35.7548 109.22 36.0138V40.3422H109.211Z" fill="url(#paint14_linear)" fill-opacity="0.4"/>
<path d="M118.087 40.3422C118.087 41.5287 117.022 42.122 114.893 42.122H113.444C111.432 42.122 110.435 41.5287 110.435 40.3422V36.0138C110.435 35.7548 110.594 35.6211 110.904 35.6211C111.239 35.6211 111.407 35.7548 111.407 36.0138V40.2753C111.407 40.9939 112.044 41.3615 113.309 41.3615H115.061C116.444 41.3615 117.139 41.0023 117.139 40.2753V36.0138C117.139 35.7548 117.298 35.6211 117.617 35.6211C117.936 35.6211 118.095 35.7548 118.095 36.0138V40.3422H118.087Z" fill="#4D4D5D"/>
<path d="M118.087 40.3422C118.087 41.5287 117.022 42.122 114.893 42.122H113.444C111.432 42.122 110.435 41.5287 110.435 40.3422V36.0138C110.435 35.7548 110.594 35.6211 110.904 35.6211C111.239 35.6211 111.407 35.7548 111.407 36.0138V40.2753C111.407 40.9939 112.044 41.3615 113.309 41.3615H115.061C116.444 41.3615 117.139 41.0023 117.139 40.2753V36.0138C117.139 35.7548 117.298 35.6211 117.617 35.6211C117.936 35.6211 118.095 35.7548 118.095 36.0138V40.3422H118.087Z" fill="url(#paint15_linear)" fill-opacity="0.4"/>
<path d="M129.87 41.7626C129.87 42.0384 129.703 42.1805 129.376 42.1805C129.075 42.1805 128.924 42.0384 128.924 41.7626V37.0582L125.303 41.8295C125.135 42.0551 124.917 42.1721 124.658 42.1721C124.372 42.1721 124.147 42.0551 123.979 41.8295L120.299 37.0666V41.7542C120.299 42.03 120.14 42.1721 119.83 42.1721C119.511 42.1721 119.352 42.03 119.352 41.7542V36.1642C119.352 35.7966 119.529 35.6211 119.889 35.6211C120.14 35.6211 120.35 35.7297 120.526 35.9553L124.666 41.2195L128.722 35.9051C128.873 35.713 129.065 35.6211 129.308 35.6211C129.686 35.6211 129.878 35.8133 129.878 36.1893V41.7626H129.87Z" fill="#4D4D5D"/>
<path d="M129.87 41.7626C129.87 42.0384 129.703 42.1805 129.376 42.1805C129.075 42.1805 128.924 42.0384 128.924 41.7626V37.0582L125.303 41.8295C125.135 42.0551 124.917 42.1721 124.658 42.1721C124.372 42.1721 124.147 42.0551 123.979 41.8295L120.299 37.0666V41.7542C120.299 42.03 120.14 42.1721 119.83 42.1721C119.511 42.1721 119.352 42.03 119.352 41.7542V36.1642C119.352 35.7966 119.529 35.6211 119.889 35.6211C120.14 35.6211 120.35 35.7297 120.526 35.9553L124.666 41.2195L128.722 35.9051C128.873 35.713 129.065 35.6211 129.308 35.6211C129.686 35.6211 129.878 35.8133 129.878 36.1893V41.7626H129.87Z" fill="url(#paint16_linear)" fill-opacity="0.4"/>
<defs>
<linearGradient id="paint0_linear" x1="32.8964" y1="0" x2="32.8964" y2="40.9689" gradientUnits="userSpaceOnUse">
<stop stop-color="white"/>
<stop offset="1" stop-color="white" stop-opacity="0"/>
</linearGradient>
<linearGradient id="paint1_linear" x1="26.7253" y1="24.5577" x2="26.7253" y2="28.6856" gradientUnits="userSpaceOnUse">
<stop stop-color="white"/>
<stop offset="1" stop-color="white" stop-opacity="0"/>
</linearGradient>
<linearGradient id="paint2_linear" x1="30.8738" y1="17.5894" x2="30.8738" y2="21.7171" gradientUnits="userSpaceOnUse">
<stop stop-color="white"/>
<stop offset="1" stop-color="white" stop-opacity="0"/>
</linearGradient>
<linearGradient id="paint3_linear" x1="18.5454" y1="3.27478" x2="18.5454" y2="21.7172" gradientUnits="userSpaceOnUse">
<stop stop-color="white"/>
<stop offset="1" stop-color="white" stop-opacity="0"/>
</linearGradient>
<linearGradient id="paint4_linear" x1="22.5766" y1="31.5183" x2="22.5766" y2="35.6461" gradientUnits="userSpaceOnUse">
<stop stop-color="white"/>
<stop offset="1" stop-color="white" stop-opacity="0"/>
</linearGradient>
<linearGradient id="paint5_linear" x1="34.9051" y1="31.5256" x2="34.9051" y2="49.9681" gradientUnits="userSpaceOnUse">
<stop stop-color="white"/>
<stop offset="1" stop-color="white" stop-opacity="0"/>
</linearGradient>
<linearGradient id="paint6_linear" x1="20.5582" y1="12.2738" x2="20.5582" y2="53.2437" gradientUnits="userSpaceOnUse">
<stop stop-color="white"/>
<stop offset="1" stop-color="white" stop-opacity="0"/>
</linearGradient>
<linearGradient id="paint7_linear" x1="77.292" y1="11.5059" x2="77.292" y2="27.499" gradientUnits="userSpaceOnUse">
<stop stop-color="white"/>
<stop offset="1" stop-color="white" stop-opacity="0"/>
</linearGradient>
<linearGradient id="paint8_linear" x1="98.429" y1="11.3805" x2="98.429" y2="27.6244" gradientUnits="userSpaceOnUse">
<stop stop-color="white"/>
<stop offset="1" stop-color="white" stop-opacity="0"/>
</linearGradient>
<linearGradient id="paint9_linear" x1="120.546" y1="11.5059" x2="120.546" y2="29.5546" gradientUnits="userSpaceOnUse">
<stop stop-color="white"/>
<stop offset="1" stop-color="white" stop-opacity="0"/>
</linearGradient>
<linearGradient id="paint10_linear" x1="72.1084" y1="35.6785" x2="72.1084" y2="42.1291" gradientUnits="userSpaceOnUse">
<stop stop-color="white"/>
<stop offset="1" stop-color="white" stop-opacity="0"/>
</linearGradient>
<linearGradient id="paint11_linear" x1="80.6404" y1="35.6211" x2="80.6404" y2="42.1721" gradientUnits="userSpaceOnUse">
<stop stop-color="white"/>
<stop offset="1" stop-color="white" stop-opacity="0"/>
</linearGradient>
<linearGradient id="paint12_linear" x1="89.2224" y1="35.6797" x2="89.2224" y2="42.1304" gradientUnits="userSpaceOnUse">
<stop stop-color="white"/>
<stop offset="1" stop-color="white" stop-opacity="0"/>
</linearGradient>
<linearGradient id="paint13_linear" x1="97.1258" y1="35.6633" x2="97.1258" y2="42.1224" gradientUnits="userSpaceOnUse">
<stop stop-color="white"/>
<stop offset="1" stop-color="white" stop-opacity="0"/>
</linearGradient>
<linearGradient id="paint14_linear" x1="105.389" y1="35.6211" x2="105.389" y2="42.122" gradientUnits="userSpaceOnUse">
<stop stop-color="white"/>
<stop offset="1" stop-color="white" stop-opacity="0"/>
</linearGradient>
<linearGradient id="paint15_linear" x1="114.265" y1="35.6211" x2="114.265" y2="42.122" gradientUnits="userSpaceOnUse">
<stop stop-color="white"/>
<stop offset="1" stop-color="white" stop-opacity="0"/>
</linearGradient>
<linearGradient id="paint16_linear" x1="124.615" y1="35.6211" x2="124.615" y2="42.1805" gradientUnits="userSpaceOnUse">
<stop stop-color="white"/>
<stop offset="1" stop-color="white" stop-opacity="0"/>
</linearGradient>
</defs>
</svg>
