<svg xmlns="http://www.w3.org/2000/svg" width="130" height="55" fill="none"><path fill="#4D4D5D" d="M0 23.1c.35-1.05.79-2.1 1.13-3.15A27.56 27.56 0 0130.03.1c12.39.97 23.12 11.2 24.52 23.35 1.57 13.9-6.1 26.23-18.85 30.25-1.22.35-2.45.8-3.67 1.23-3.14 0-6.37 0-9.51 0-.79-.35-1.49-.7-2.27-.96-9.95-3.06-16.32-9.62-19.2-19.5-.26-.96-.7-1.84-.96-2.8C0 28.78 0 25.99 0 23.1zM27.32 51a23.6 23.6 0 0023.83-23.35 23.71 23.71 0 00-23.4-23.79A23.36 23.36 0 004.02 27.21a23.36 23.36 0 0023.3 23.78z"/><path fill="url(#paint0_linear)" fill-opacity=".4" d="M0 23.1c.35-1.05.79-2.1 1.13-3.15A27.56 27.56 0 0130.03.1c12.39.97 23.12 11.2 24.52 23.35 1.57 13.9-6.1 26.23-18.85 30.25-1.22.35-2.45.8-3.67 1.23-3.14 0-6.37 0-9.51 0-.79-.35-1.49-.7-2.27-.96-9.95-3.06-16.32-9.62-19.2-19.5-.26-.96-.7-1.84-.96-2.8C0 28.78 0 25.99 0 23.1zM27.32 51a23.6 23.6 0 0023.83-23.35 23.71 23.71 0 00-23.4-23.79A23.36 23.36 0 004.02 27.21a23.36 23.36 0 0023.3 23.78z"/><path fill="#4D4D5D" d="M57.43 42.95c2.8-2.54 4.98-4.46 7.5-6.65.53.44 1.75 1.4 3.15 2.63 1.3-1.58 2.44-2.98 4.1-4.9-1.4-.87-3.05-2.01-4.97-3.23-.44.35-1.49 1.3-2.88 2.44-1.58-2.1-3.23-4.28-4.9-6.47 1.14-1.05 3.15-2.8 5.42-4.8.7.6 1.83 1.57 3.23 2.8 1.4-1.5 2.62-2.8 4.1-4.38-1.57-1.31-3.14-2.54-4.8-3.85-.52.44-1.66 1.4-3.14 2.63-1.83-2.45-3.75-4.81-5.41-7 5.76 0 12.22-.52 18.59.18 5.15.6 7.24 6.82 4.36 11.1-.52.79-1.3 1.49-1.92 2.19.18.35.26.7.44.78 4.54 2.8 6.1 5.86 4.97 9.8-1.13 4.02-4.27 6.47-9.07 6.64-6.03.26-12.05.09-18.77.09z"/><path fill="url(#paint1_linear)" fill-opacity=".4" d="M57.43 42.95c2.8-2.54 4.98-4.46 7.5-6.65.53.44 1.75 1.4 3.15 2.63 1.3-1.58 2.44-2.98 4.1-4.9-1.4-.87-3.05-2.01-4.97-3.23-.44.35-1.49 1.3-2.88 2.44-1.58-2.1-3.23-4.28-4.9-6.47 1.14-1.05 3.15-2.8 5.42-4.8.7.6 1.83 1.57 3.23 2.8 1.4-1.5 2.62-2.8 4.1-4.38-1.57-1.31-3.14-2.54-4.8-3.85-.52.44-1.66 1.4-3.14 2.63-1.83-2.45-3.75-4.81-5.41-7 5.76 0 12.22-.52 18.59.18 5.15.6 7.24 6.82 4.36 11.1-.52.79-1.3 1.49-1.92 2.19.18.35.26.7.44.78 4.54 2.8 6.1 5.86 4.97 9.8-1.13 4.02-4.27 6.47-9.07 6.64-6.03.26-12.05.09-18.77.09z"/><path fill="#4D4D5D" d="M113.29 28.7c1.83-6.04 3.4-11.2 5.06-16.44 1.92 0 3.58 0 5.85 0-2 6.64-3.93 13.03-5.94 19.5-3.23 0-6.2 0-9.25 0-1.3-2.71-2.62-5.34-4.1-8.31-3.5 6.56-4.71 13.55-9.43 19.15-4.01-9.88-6.8-19.94-9.86-30.25 2.36 0 4.2 0 6.46 0 1.57 4.98 3.14 10.14 4.71 15.21.27.09.53.17.79.17 1.83-5.07 3.67-10.23 5.5-15.12 2.8-1.14 3.58.52 4.36 2.27 1.75 4.37 3.58 8.75 5.85 13.82z"/><path fill="url(#paint2_linear)" fill-opacity=".4" d="M113.29 28.7c1.83-6.04 3.4-11.2 5.06-16.44 1.92 0 3.58 0 5.85 0-2 6.64-3.93 13.03-5.94 19.5-3.23 0-6.2 0-9.25 0-1.3-2.71-2.62-5.34-4.1-8.31-3.5 6.56-4.71 13.55-9.43 19.15-4.01-9.88-6.8-19.94-9.86-30.25 2.36 0 4.2 0 6.46 0 1.57 4.98 3.14 10.14 4.71 15.21.27.09.53.17.79.17 1.83-5.07 3.67-10.23 5.5-15.12 2.8-1.14 3.58.52 4.36 2.27 1.75 4.37 3.58 8.75 5.85 13.82z"/><path fill="#4D4D5D" d="M103.43 42.16c0-1.92-.09-3.23 0-4.46.26-2.62 1.65-4.2 4.45-4.2 5.58 0 11.17-.08 16.84 0 2.88.1 4.2 1.58 4.28 4.3.09 2.44-.87 4.36-3.58 4.36-7.16.09-14.31 0-22 0zm3.92-3.4c.88 2.7 2.45 2.27 4.63 1.3-1.66-.7-2.97-1.13-4.19-1.66 1.22-.87 2.44-1.75 3.5-2.53-2.89-1.4-4.11-.7-3.94 2.88zm6.29-2.54l.17-.18c-.26.96-1.04 2.19-.78 2.97 1.48 3.68 4.45-.17 6.28.97.79-1.58 1.66-3.06 2.8-5.34-1.75.79-2.89 1.31-4.1 1.84-1.14-1.23-2.63-2.36-4.37-.26zm12.48 3.67c.44-2.01 1.22-4.29-1.83-4.81.7 1.84 1.3 3.32 1.83 4.8z"/><path fill="url(#paint3_linear)" fill-opacity=".4" d="M103.43 42.16c0-1.92-.09-3.23 0-4.46.26-2.62 1.65-4.2 4.45-4.2 5.58 0 11.17-.08 16.84 0 2.88.1 4.2 1.58 4.28 4.3.09 2.44-.87 4.36-3.58 4.36-7.16.09-14.31 0-22 0zm3.92-3.4c.88 2.7 2.45 2.27 4.63 1.3-1.66-.7-2.97-1.13-4.19-1.66 1.22-.87 2.44-1.75 3.5-2.53-2.89-1.4-4.11-.7-3.94 2.88zm6.29-2.54l.17-.18c-.26.96-1.04 2.19-.78 2.97 1.48 3.68 4.45-.17 6.28.97.79-1.58 1.66-3.06 2.8-5.34-1.75.79-2.89 1.31-4.1 1.84-1.14-1.23-2.63-2.36-4.37-.26zm12.48 3.67c.44-2.01 1.22-4.29-1.83-4.81.7 1.84 1.3 3.32 1.83 4.8z"/><path fill="#4D4D5D" d="M113.64 36.22c.26 0 .61-.1.87.08.87.53 1.66 1.14 2.44 1.75-.43.44-.95.88-1.4 1.31a42.6 42.6 0 01-1.74-2.44c-.17-.18-.08-.53-.08-.88l-.1.18z"/><path fill="url(#paint4_linear)" fill-opacity=".4" d="M113.64 36.22c.26 0 .61-.1.87.08.87.53 1.66 1.14 2.44 1.75-.43.44-.95.88-1.4 1.31a42.6 42.6 0 01-1.74-2.44c-.17-.18-.08-.53-.08-.88l-.1.18z"/><path fill="#4D4D5D" d="M23.13 44.09c1.83-2.01 3.05-3.33 4.36-4.73 1.49 1.23 2.62 2.19 4.28 3.5 1.13-1.48 2.18-2.8 3.67-4.63-1.23-.79-2.8-1.84-4.72-3.06-.43.35-1.66 1.3-2.88 2.27-1.48-1.49-2.88-3.06-4.54-4.72 1.31-1.05 2.88-2.45 4.72-4.02.7.6 1.92 1.57 3.4 2.88 1.31-1.4 2.53-2.8 3.67-4.02-1.23-1.4-2.36-2.8-3.67-4.28-1.57 1.3-2.7 2.27-4.19 3.5-1.4-1.58-2.8-3.07-4.1-4.64 1.57-1.4 3.23-2.89 5.06-4.46.79.61 1.92 1.57 3.5 2.88 1.3-1.4 2.61-2.7 3.66-3.84-1.4-1.58-2.62-2.89-4.02-4.37-1.22 1.04-2.27 1.92-3.75 3.23-1.4-1.31-2.8-2.62-4.71-4.46 4.71-.7 8.9-.96 12.83.26 6.28 2.01 8.11 8.83 4.01 13.9-.52.62-1.13 1.23-1.83 2.02.79.87 1.66 1.66 2.36 2.45C44.6 35.08 41.8 43.04 34.9 44c-3.66.52-7.42.09-11.78.09z"/><path fill="url(#paint5_linear)" fill-opacity=".4" d="M23.13 44.09c1.83-2.01 3.05-3.33 4.36-4.73 1.49 1.23 2.62 2.19 4.28 3.5 1.13-1.48 2.18-2.8 3.67-4.63-1.23-.79-2.8-1.84-4.72-3.06-.43.35-1.66 1.3-2.88 2.27-1.48-1.49-2.88-3.06-4.54-4.72 1.31-1.05 2.88-2.45 4.72-4.02.7.6 1.92 1.57 3.4 2.88 1.31-1.4 2.53-2.8 3.67-4.02-1.23-1.4-2.36-2.8-3.67-4.28-1.57 1.3-2.7 2.27-4.19 3.5-1.4-1.58-2.8-3.07-4.1-4.64 1.57-1.4 3.23-2.89 5.06-4.46.79.61 1.92 1.57 3.5 2.88 1.3-1.4 2.61-2.7 3.66-3.84-1.4-1.58-2.62-2.89-4.02-4.37-1.22 1.04-2.27 1.92-3.75 3.23-1.4-1.31-2.8-2.62-4.71-4.46 4.71-.7 8.9-.96 12.83.26 6.28 2.01 8.11 8.83 4.01 13.9-.52.62-1.13 1.23-1.83 2.02.79.87 1.66 1.66 2.36 2.45C44.6 35.08 41.8 43.04 34.9 44c-3.66.52-7.42.09-11.78.09z"/><path fill="#4D4D5D" d="M15.19 21.79c1.22-1.05 2.1-1.75 3.14-2.62.96.78 1.83 1.57 2.97 2.53a95.97 95.97 0 00-2.7 3.06c-1.06-.87-1.93-1.66-3.41-2.97z"/><path fill="url(#paint6_linear)" fill-opacity=".4" d="M15.19 21.79c1.22-1.05 2.1-1.75 3.14-2.62.96.78 1.83 1.57 2.97 2.53a95.97 95.97 0 00-2.7 3.06c-1.06-.87-1.93-1.66-3.41-2.97z"/><path fill="#4D4D5D" d="M18.33 36.22c-1.05-1.32-1.75-2.19-2.62-3.33.79-.78 1.57-1.75 2.62-2.8 1.05.97 1.92 1.84 3.05 2.8-.96 1.05-1.83 2.01-3.05 3.33z"/><path fill="url(#paint7_linear)" fill-opacity=".4" d="M18.33 36.22c-1.05-1.32-1.75-2.19-2.62-3.33.79-.78 1.57-1.75 2.62-2.8 1.05.97 1.92 1.84 3.05 2.8-.96 1.05-1.83 2.01-3.05 3.33z"/><path fill="#4D4D5D" d="M21.56 44.09c-2.45 0-3.84 0-5.76 0 .87-1.05 1.48-1.93 2.35-2.98 1.05.88 1.84 1.58 3.4 2.98z"/><path fill="url(#paint8_linear)" fill-opacity=".4" d="M21.56 44.09c-2.45 0-3.84 0-5.76 0 .87-1.05 1.48-1.93 2.35-2.98 1.05.88 1.84 1.58 3.4 2.98z"/><path fill="#4D4D5D" d="M21.03 11.03c-.87.97-1.57 1.75-2.44 2.63-.96-.79-1.74-1.49-3.14-2.63 2.1 0 3.66 0 5.58 0z"/><path fill="url(#paint9_linear)" fill-opacity=".4" d="M21.03 11.03c-.87.97-1.57 1.75-2.44 2.63-.96-.79-1.74-1.49-3.14-2.63 2.1 0 3.66 0 5.58 0z"/><defs><linearGradient id="paint0_linear" x1="27.376" x2="27.376" y1="0" y2="54.929" gradientUnits="userSpaceOnUse"><stop stop-color="#fff"/><stop offset="1" stop-color="#fff" stop-opacity="0"/></linearGradient><linearGradient id="paint1_linear" x1="71.529" x2="71.529" y1="11.982" y2="43.007" gradientUnits="userSpaceOnUse"><stop stop-color="#fff"/><stop offset="1" stop-color="#fff" stop-opacity="0"/></linearGradient><linearGradient id="paint2_linear" x1="104.911" x2="104.911" y1="12.234" y2="42.6" gradientUnits="userSpaceOnUse"><stop stop-color="#fff"/><stop offset="1" stop-color="#fff" stop-opacity="0"/></linearGradient><linearGradient id="paint3_linear" x1="116.197" x2="116.197" y1="33.467" y2="42.201" gradientUnits="userSpaceOnUse"><stop stop-color="#fff"/><stop offset="1" stop-color="#fff" stop-opacity="0"/></linearGradient><linearGradient id="paint4_linear" x1="115.297" x2="115.297" y1="36.042" y2="39.364" gradientUnits="userSpaceOnUse"><stop stop-color="#fff"/><stop offset="1" stop-color="#fff" stop-opacity="0"/></linearGradient><linearGradient id="paint5_linear" x1="32.598" x2="32.598" y1="10.531" y2="44.257" gradientUnits="userSpaceOnUse"><stop stop-color="#fff"/><stop offset="1" stop-color="#fff" stop-opacity="0"/></linearGradient><linearGradient id="paint6_linear" x1="18.241" x2="18.241" y1="19.166" y2="24.762" gradientUnits="userSpaceOnUse"><stop stop-color="#fff"/><stop offset="1" stop-color="#fff" stop-opacity="0"/></linearGradient><linearGradient id="paint7_linear" x1="18.547" x2="18.547" y1="30.096" y2="36.217" gradientUnits="userSpaceOnUse"><stop stop-color="#fff"/><stop offset="1" stop-color="#fff" stop-opacity="0"/></linearGradient><linearGradient id="paint8_linear" x1="18.678" x2="18.678" y1="41.113" y2="44.086" gradientUnits="userSpaceOnUse"><stop stop-color="#fff"/><stop offset="1" stop-color="#fff" stop-opacity="0"/></linearGradient><linearGradient id="paint9_linear" x1="18.241" x2="18.241" y1="11.034" y2="13.657" gradientUnits="userSpaceOnUse"><stop stop-color="#fff"/><stop offset="1" stop-color="#fff" stop-opacity="0"/></linearGradient></defs></svg>