<svg width="182" height="38" viewBox="0 0 182 38" fill="none" xmlns="http://www.w3.org/2000/svg">
<path d="M0.43098 5.33173C-0.270875 4.04584 -0.139277 3.51375 1.00124 3.60243C5.78263 4.0015 10.2131 2.36088 14.7752 1.56274C15.6963 1.38537 16.4859 1.07499 17.3194 0.454211C18.767 -0.654316 20.9164 0.542893 21.5305 1.11933C23.2413 2.75995 25.1714 2.44956 27.0138 2.62692C28.3736 2.75995 29.0316 3.20336 29.2071 4.48925C29.6896 7.4601 31.181 9.49979 34.1639 10.2093C34.6026 10.2979 35.0412 10.5196 35.0851 11.0517C35.3922 13.8896 36.1379 16.6387 36.6643 19.4322C36.8397 20.4964 36.8836 21.6493 35.9186 22.4917C35.5238 22.8465 35.3044 23.4229 35.436 23.9106C36.0063 26.172 35.0851 27.724 33.3743 29.0099C33.0234 29.2759 32.6725 29.675 32.6286 30.0741C32.19 32.9562 29.558 33.1336 27.7156 34.4195C23.4606 37.3903 18.8547 37.479 13.9856 36.9469C9.99376 36.5035 5.9581 36.5035 1.96629 36.3705C1.3083 36.3261 0.562578 36.4148 0.474846 35.4837C0.387114 34.7299 0.957372 34.4195 1.52763 34.3308C4.42279 33.843 4.72985 32.0251 4.68598 29.4089C4.51052 23.1568 4.51052 16.9048 4.77371 10.6527C4.90531 7.9922 3.94026 6.7063 1.65923 5.95251C1.22057 5.81948 0.562578 5.95251 0.387114 5.28739C2.09789 4.62227 3.41387 6.04119 4.94918 6.12987C5.08078 6.97235 5.30011 7.81483 5.30011 8.65731C5.34397 16.417 5.30011 24.1324 5.34397 31.892C5.34397 32.8232 5.30011 33.6213 4.37892 34.1091C3.72093 34.3751 2.97521 34.4195 2.62428 35.1733C4.72985 36.1488 7.01088 35.7054 9.24804 35.8384C9.99377 35.8827 9.73057 35.3506 9.64284 34.9072C10.2131 34.8629 10.7834 34.8186 11.3536 34.7299C10.8711 33.7987 9.73057 32.9119 11.0904 31.8477C11.3097 31.892 11.5291 31.9364 11.7484 31.9364C12.6257 33.1779 13.854 33.9761 14.9506 34.9072C14.2488 35.9271 12.9767 35.661 12.0116 36.0601C15.6086 36.0158 19.1618 37.3017 22.7588 35.9714C24.0309 35.4837 24.7766 35.1733 23.7238 33.7987C26.268 34.1978 28.5052 33.2223 30.7424 32.2468C31.1372 32.0694 31.3126 31.759 31.0494 31.4043C30.874 31.1382 30.523 31.2269 30.3037 31.4043C30.3476 30.6948 29.0316 30.2071 29.9528 29.3203C30.874 28.3891 31.1372 27.1032 31.7513 26.039C32.1022 25.5069 31.8829 24.5314 32.8918 24.5314C36.4011 21.871 36.9713 19.3879 34.6465 16.7717C34.6026 15.1311 34.3394 13.6235 32.6286 12.8254C30.6108 11.6282 30.4792 9.27809 29.4264 7.4601C28.5052 4.17886 26.4435 3.11468 23.4606 4.26754C22.6272 3.95716 22.1446 3.33638 21.7937 2.53824C21.0041 0.986304 18.3283 0.498552 17.1001 1.65142C16.4859 2.13917 15.8279 2.53824 14.9945 2.53824C13.4153 2.75995 11.8361 2.98165 9.90603 3.2477C11.6607 4.17886 13.1083 3.42506 14.512 3.60243C14.2049 4.84398 13.1082 5.24305 12.1871 5.77514C10.2131 6.97235 9.37964 8.43561 10.564 10.6083C10.6518 11.0961 10.7834 11.6282 10.8272 12.1159C10.915 12.8697 11.3975 13.6679 10.1254 13.9782C9.07258 14.2443 8.15139 14.9537 7.66887 13.0027C7.27407 14.2443 6.52835 14.8207 5.65103 15.8406C5.65103 13.0027 5.65103 10.5196 5.65103 8.03654C5.65103 7.32708 6.00196 6.52894 5.08078 6.08553C4.77371 4.62227 7.01088 5.28739 6.83541 3.91282C4.99304 3.95716 3.15067 4.57793 1.26443 4.2232C0.474846 4.2232 0.562578 4.88832 0.43098 5.33173Z" fill="#4D4D5D"/>
<path d="M0.43098 5.33173C-0.270875 4.04584 -0.139277 3.51375 1.00124 3.60243C5.78263 4.0015 10.2131 2.36088 14.7752 1.56274C15.6963 1.38537 16.4859 1.07499 17.3194 0.454211C18.767 -0.654316 20.9164 0.542893 21.5305 1.11933C23.2413 2.75995 25.1714 2.44956 27.0138 2.62692C28.3736 2.75995 29.0316 3.20336 29.2071 4.48925C29.6896 7.4601 31.181 9.49979 34.1639 10.2093C34.6026 10.2979 35.0412 10.5196 35.0851 11.0517C35.3922 13.8896 36.1379 16.6387 36.6643 19.4322C36.8397 20.4964 36.8836 21.6493 35.9186 22.4917C35.5238 22.8465 35.3044 23.4229 35.436 23.9106C36.0063 26.172 35.0851 27.724 33.3743 29.0099C33.0234 29.2759 32.6725 29.675 32.6286 30.0741C32.19 32.9562 29.558 33.1336 27.7156 34.4195C23.4606 37.3903 18.8547 37.479 13.9856 36.9469C9.99376 36.5035 5.9581 36.5035 1.96629 36.3705C1.3083 36.3261 0.562578 36.4148 0.474846 35.4837C0.387114 34.7299 0.957372 34.4195 1.52763 34.3308C4.42279 33.843 4.72985 32.0251 4.68598 29.4089C4.51052 23.1568 4.51052 16.9048 4.77371 10.6527C4.90531 7.9922 3.94026 6.7063 1.65923 5.95251C1.22057 5.81948 0.562578 5.95251 0.387114 5.28739C2.09789 4.62227 3.41387 6.04119 4.94918 6.12987C5.08078 6.97235 5.30011 7.81483 5.30011 8.65731C5.34397 16.417 5.30011 24.1324 5.34397 31.892C5.34397 32.8232 5.30011 33.6213 4.37892 34.1091C3.72093 34.3751 2.97521 34.4195 2.62428 35.1733C4.72985 36.1488 7.01088 35.7054 9.24804 35.8384C9.99377 35.8827 9.73057 35.3506 9.64284 34.9072C10.2131 34.8629 10.7834 34.8186 11.3536 34.7299C10.8711 33.7987 9.73057 32.9119 11.0904 31.8477C11.3097 31.892 11.5291 31.9364 11.7484 31.9364C12.6257 33.1779 13.854 33.9761 14.9506 34.9072C14.2488 35.9271 12.9767 35.661 12.0116 36.0601C15.6086 36.0158 19.1618 37.3017 22.7588 35.9714C24.0309 35.4837 24.7766 35.1733 23.7238 33.7987C26.268 34.1978 28.5052 33.2223 30.7424 32.2468C31.1372 32.0694 31.3126 31.759 31.0494 31.4043C30.874 31.1382 30.523 31.2269 30.3037 31.4043C30.3476 30.6948 29.0316 30.2071 29.9528 29.3203C30.874 28.3891 31.1372 27.1032 31.7513 26.039C32.1022 25.5069 31.8829 24.5314 32.8918 24.5314C36.4011 21.871 36.9713 19.3879 34.6465 16.7717C34.6026 15.1311 34.3394 13.6235 32.6286 12.8254C30.6108 11.6282 30.4792 9.27809 29.4264 7.4601C28.5052 4.17886 26.4435 3.11468 23.4606 4.26754C22.6272 3.95716 22.1446 3.33638 21.7937 2.53824C21.0041 0.986304 18.3283 0.498552 17.1001 1.65142C16.4859 2.13917 15.8279 2.53824 14.9945 2.53824C13.4153 2.75995 11.8361 2.98165 9.90603 3.2477C11.6607 4.17886 13.1083 3.42506 14.512 3.60243C14.2049 4.84398 13.1082 5.24305 12.1871 5.77514C10.2131 6.97235 9.37964 8.43561 10.564 10.6083C10.6518 11.0961 10.7834 11.6282 10.8272 12.1159C10.915 12.8697 11.3975 13.6679 10.1254 13.9782C9.07258 14.2443 8.15139 14.9537 7.66887 13.0027C7.27407 14.2443 6.52835 14.8207 5.65103 15.8406C5.65103 13.0027 5.65103 10.5196 5.65103 8.03654C5.65103 7.32708 6.00196 6.52894 5.08078 6.08553C4.77371 4.62227 7.01088 5.28739 6.83541 3.91282C4.99304 3.95716 3.15067 4.57793 1.26443 4.2232C0.474846 4.2232 0.562578 4.88832 0.43098 5.33173Z" fill="url(#paint0_linear)" fill-opacity="0.4"/>
<path d="M24.0746 9.58772C22.9779 10.8293 21.4865 11.3614 20.0828 12.0708C19.688 12.2925 19.03 12.6473 18.8545 11.8491C18.372 10.0755 18.5475 11.7161 18.5036 11.8935C18.2404 12.5586 17.7579 12.5586 17.2753 12.2925C16.398 11.8048 15.3452 11.4057 14.7311 10.6519C13.9854 9.72074 13.0203 9.27733 12.143 9.54338C11.1341 9.85377 11.9675 11.0953 11.5289 11.9378C11.178 11.45 10.827 11.0066 10.52 10.5632C9.33559 8.34617 10.169 6.88291 12.143 5.73004C13.0642 5.19795 14.1608 4.79888 14.4679 3.55733C14.6434 3.2026 14.775 2.84787 14.9504 2.49314C15.7839 2.49314 16.398 2.09408 17.056 1.60632C17.5385 2.67051 18.8106 1.51764 19.337 2.49314C21.0917 4.79888 22.6709 7.14896 24.0746 9.58772Z" fill="#4D4D5D"/>
<path d="M24.0746 9.58772C22.9779 10.8293 21.4865 11.3614 20.0828 12.0708C19.688 12.2925 19.03 12.6473 18.8545 11.8491C18.372 10.0755 18.5475 11.7161 18.5036 11.8935C18.2404 12.5586 17.7579 12.5586 17.2753 12.2925C16.398 11.8048 15.3452 11.4057 14.7311 10.6519C13.9854 9.72074 13.0203 9.27733 12.143 9.54338C11.1341 9.85377 11.9675 11.0953 11.5289 11.9378C11.178 11.45 10.827 11.0066 10.52 10.5632C9.33559 8.34617 10.169 6.88291 12.143 5.73004C13.0642 5.19795 14.1608 4.79888 14.4679 3.55733C14.6434 3.2026 14.775 2.84787 14.9504 2.49314C15.7839 2.49314 16.398 2.09408 17.056 1.60632C17.5385 2.67051 18.8106 1.51764 19.337 2.49314C21.0917 4.79888 22.6709 7.14896 24.0746 9.58772Z" fill="url(#paint1_linear)" fill-opacity="0.4"/>
<path d="M25.3028 25.3288C24.8642 23.8212 25.6099 22.2693 24.8642 20.673C24.5132 19.9192 26.224 19.7862 26.7065 18.988C29.2946 19.7862 32.0582 19.3428 34.7779 19.8305C34.2515 21.4711 33.1548 22.8901 32.8478 24.6194C31.8389 24.6194 32.0582 25.5949 31.7073 26.1269C30.172 26.26 30.3036 28.1223 28.9876 28.6987C28.8998 28.1223 28.856 27.5902 28.6805 26.526C28.5051 27.6345 28.5489 28.4327 27.5839 28.344C27.6716 26.6147 26.6188 25.8609 25.3028 25.3288Z" fill="#4D4D5D"/>
<path d="M25.3028 25.3288C24.8642 23.8212 25.6099 22.2693 24.8642 20.673C24.5132 19.9192 26.224 19.7862 26.7065 18.988C29.2946 19.7862 32.0582 19.3428 34.7779 19.8305C34.2515 21.4711 33.1548 22.8901 32.8478 24.6194C31.8389 24.6194 32.0582 25.5949 31.7073 26.1269C30.172 26.26 30.3036 28.1223 28.9876 28.6987C28.8998 28.1223 28.856 27.5902 28.6805 26.526C28.5051 27.6345 28.5489 28.4327 27.5839 28.344C27.6716 26.6147 26.6188 25.8609 25.3028 25.3288Z" fill="url(#paint2_linear)" fill-opacity="0.4"/>
<path d="M6.70363 26.7478C6.08951 25.9496 5.73858 25.2402 6.96683 24.5751C7.62482 24.2203 8.15121 23.5996 8.72147 23.0675C8.89693 23.0231 9.0724 23.0231 9.24786 22.9788C10.7393 22.2693 11.2657 22.7571 10.8709 24.3534C10.827 24.4864 10.7832 24.6194 10.7832 24.7968C10.6954 25.4176 10.0374 26.127 10.6516 26.6148C10.9148 26.8365 11.5289 25.9053 12.2746 26.0383C12.143 26.5261 12.0553 27.0138 11.9237 27.5459C11.6605 28.7431 11.6605 28.7431 12.801 29.5856C13.0203 29.763 12.9765 30.2507 13.0203 30.6498C12.5817 31.0932 12.143 31.5366 11.7482 32.0244C11.5289 31.98 11.3096 31.9357 11.0902 31.9357C10.169 30.7385 8.98466 29.7186 8.6776 28.211C8.50214 27.2799 7.80028 27.6789 7.36162 27.4572C7.14229 27.1912 6.92296 26.9695 6.70363 26.7478Z" fill="#4D4D5D"/>
<path d="M6.70363 26.7478C6.08951 25.9496 5.73858 25.2402 6.96683 24.5751C7.62482 24.2203 8.15121 23.5996 8.72147 23.0675C8.89693 23.0231 9.0724 23.0231 9.24786 22.9788C10.7393 22.2693 11.2657 22.7571 10.8709 24.3534C10.827 24.4864 10.7832 24.6194 10.7832 24.7968C10.6954 25.4176 10.0374 26.127 10.6516 26.6148C10.9148 26.8365 11.5289 25.9053 12.2746 26.0383C12.143 26.5261 12.0553 27.0138 11.9237 27.5459C11.6605 28.7431 11.6605 28.7431 12.801 29.5856C13.0203 29.763 12.9765 30.2507 13.0203 30.6498C12.5817 31.0932 12.143 31.5366 11.7482 32.0244C11.5289 31.98 11.3096 31.9357 11.0902 31.9357C10.169 30.7385 8.98466 29.7186 8.6776 28.211C8.50214 27.2799 7.80028 27.6789 7.36162 27.4572C7.14229 27.1912 6.92296 26.9695 6.70363 26.7478Z" fill="url(#paint3_linear)" fill-opacity="0.4"/>
<path d="M24.0746 9.58776C22.6709 7.149 21.0917 4.79892 19.2932 2.62621C20.1267 1.87241 20.9163 2.89226 21.7497 2.62621C22.1006 3.42435 22.627 4.04513 23.4166 4.35551C24.8203 5.4197 25.6976 6.9273 26.6627 8.34621C26.7066 9.01133 27.0136 9.36606 27.7593 9.27737C28.4173 9.23303 28.3296 9.72079 28.198 10.1642C27.4962 10.7406 26.7066 10.9623 25.8292 11.0067C25.0397 10.8293 24.601 10.1642 24.0746 9.58776Z" fill="#4D4D5D"/>
<path d="M24.0746 9.58776C22.6709 7.149 21.0917 4.79892 19.2932 2.62621C20.1267 1.87241 20.9163 2.89226 21.7497 2.62621C22.1006 3.42435 22.627 4.04513 23.4166 4.35551C24.8203 5.4197 25.6976 6.9273 26.6627 8.34621C26.7066 9.01133 27.0136 9.36606 27.7593 9.27737C28.4173 9.23303 28.3296 9.72079 28.198 10.1642C27.4962 10.7406 26.7066 10.9623 25.8292 11.0067C25.0397 10.8293 24.601 10.1642 24.0746 9.58776Z" fill="url(#paint4_linear)" fill-opacity="0.4"/>
<path d="M26.6626 8.34616C25.6976 6.92724 24.8203 5.41965 23.4166 4.35546C26.3995 3.15825 28.4612 4.22244 29.3823 7.50368C29.163 10.1198 27.5838 8.21314 26.6626 8.34616Z" fill="#4D4D5D"/>
<path d="M26.6626 8.34616C25.6976 6.92724 24.8203 5.41965 23.4166 4.35546C26.3995 3.15825 28.4612 4.22244 29.3823 7.50368C29.163 10.1198 27.5838 8.21314 26.6626 8.34616Z" fill="url(#paint5_linear)" fill-opacity="0.4"/>
<path d="M30.7423 14.2435C30.6107 13.5341 30.0843 12.6916 30.83 12.2482C31.4441 11.8491 31.9266 12.8246 32.5846 12.9133C34.2954 13.7114 34.5586 15.219 34.6025 16.8596C34.4709 16.9927 34.3393 17.1257 34.2077 17.2587C32.5846 16.8153 32.0144 15.1303 30.7423 14.2435Z" fill="#4D4D5D"/>
<path d="M30.7423 14.2435C30.6107 13.5341 30.0843 12.6916 30.83 12.2482C31.4441 11.8491 31.9266 12.8246 32.5846 12.9133C34.2954 13.7114 34.5586 15.219 34.6025 16.8596C34.4709 16.9927 34.3393 17.1257 34.2077 17.2587C32.5846 16.8153 32.0144 15.1303 30.7423 14.2435Z" fill="url(#paint6_linear)" fill-opacity="0.4"/>
<path d="M16.2226 34.0196C15.8278 34.3743 15.8717 35.3498 14.9066 34.9951C13.7661 34.0639 12.5379 33.2215 11.7044 32.0242C12.1431 31.5808 12.5817 31.1374 12.9765 30.6497C14.5118 30.561 14.2048 32.512 15.3453 32.8224C15.6523 33.2214 15.9155 33.6205 16.2226 34.0196Z" fill="#4D4D5D"/>
<path d="M16.2226 34.0196C15.8278 34.3743 15.8717 35.3498 14.9066 34.9951C13.7661 34.0639 12.5379 33.2215 11.7044 32.0242C12.1431 31.5808 12.5817 31.1374 12.9765 30.6497C14.5118 30.561 14.2048 32.512 15.3453 32.8224C15.6523 33.2214 15.9155 33.6205 16.2226 34.0196Z" fill="url(#paint7_linear)" fill-opacity="0.4"/>
<path d="M4.33492 34.1526C5.08064 33.9752 5.82636 33.9309 6.44049 34.596C6.79141 34.729 7.09848 34.8621 7.4494 34.9951C5.87023 35.9262 4.24719 35.6602 2.62415 35.2168C2.93121 34.4186 3.7208 34.3743 4.33492 34.1526Z" fill="#4D4D5D"/>
<path d="M4.33492 34.1526C5.08064 33.9752 5.82636 33.9309 6.44049 34.596C6.79141 34.729 7.09848 34.8621 7.4494 34.9951C5.87023 35.9262 4.24719 35.6602 2.62415 35.2168C2.93121 34.4186 3.7208 34.3743 4.33492 34.1526Z" fill="url(#paint8_linear)" fill-opacity="0.4"/>
<path d="M26.7504 28.2997C27.9348 29.3195 29.1191 30.3837 30.3035 31.4035C27.9348 32.2904 25.5221 32.6451 22.5831 32.246C23.592 32.7338 24.3816 32.2904 24.9519 32.9555C24.8641 33.7093 24.0746 33.5319 23.6798 33.8423C22.7586 33.1772 21.1794 34.6848 20.5653 32.9111C21.5303 32.113 22.2322 31.0045 23.5482 30.6497C24.1623 30.4724 23.7675 30.295 23.7236 29.896C23.592 28.7874 23.4166 27.5459 24.0746 26.4817C24.9957 27.1468 25.8731 27.7232 26.7504 28.2997Z" fill="#4D4D5D"/>
<path d="M26.7504 28.2997C27.9348 29.3195 29.1191 30.3837 30.3035 31.4035C27.9348 32.2904 25.5221 32.6451 22.5831 32.246C23.592 32.7338 24.3816 32.2904 24.9519 32.9555C24.8641 33.7093 24.0746 33.5319 23.6798 33.8423C22.7586 33.1772 21.1794 34.6848 20.5653 32.9111C21.5303 32.113 22.2322 31.0045 23.5482 30.6497C24.1623 30.4724 23.7675 30.295 23.7236 29.896C23.592 28.7874 23.4166 27.5459 24.0746 26.4817C24.9957 27.1468 25.8731 27.7232 26.7504 28.2997Z" fill="url(#paint9_linear)" fill-opacity="0.4"/>
<path d="M9.64269 34.9952C8.89697 34.9952 8.15125 34.9952 7.40553 34.9509C7.0546 34.8179 6.74754 34.6849 6.39661 34.5518C5.12449 32.2461 5.25609 28.1667 6.6598 26.7478C6.87913 26.9695 7.09846 27.1912 7.3178 27.3686C8.37058 29.2752 9.5111 31.1376 9.90589 33.3103C10.0375 33.9754 10.0375 34.5075 9.64269 34.9952Z" fill="#4D4D5D"/>
<path d="M9.64269 34.9952C8.89697 34.9952 8.15125 34.9952 7.40553 34.9509C7.0546 34.8179 6.74754 34.6849 6.39661 34.5518C5.12449 32.2461 5.25609 28.1667 6.6598 26.7478C6.87913 26.9695 7.09846 27.1912 7.3178 27.3686C8.37058 29.2752 9.5111 31.1376 9.90589 33.3103C10.0375 33.9754 10.0375 34.5075 9.64269 34.9952Z" fill="url(#paint10_linear)" fill-opacity="0.4"/>
<path d="M30.7422 14.2436C32.0143 15.1304 32.5846 16.8153 34.2076 17.2588C34.5586 17.8352 35.0411 18.6333 33.8128 18.589C31.4002 18.456 29.1192 19.6532 26.6627 19.0767C27.3207 18.0126 28.3735 18.8107 29.3385 18.3673C26.9698 18.1012 28.3296 16.3719 27.9787 15.2634C29.2947 15.9285 29.6017 13.8888 30.7422 14.2436Z" fill="#4D4D5D"/>
<path d="M30.7422 14.2436C32.0143 15.1304 32.5846 16.8153 34.2076 17.2588C34.5586 17.8352 35.0411 18.6333 33.8128 18.589C31.4002 18.456 29.1192 19.6532 26.6627 19.0767C27.3207 18.0126 28.3735 18.8107 29.3385 18.3673C26.9698 18.1012 28.3296 16.3719 27.9787 15.2634C29.2947 15.9285 29.6017 13.8888 30.7422 14.2436Z" fill="url(#paint11_linear)" fill-opacity="0.4"/>
<path d="M16.2226 34.0196C15.9155 33.6206 15.6523 33.2215 15.3453 32.7781C16.4858 31.0488 17.9772 32.113 19.3371 32.2903C19.7319 33.4432 20.3021 34.5074 21.5304 35.6159C19.1616 36.2367 17.5386 35.6603 16.2226 34.0196Z" fill="#4D4D5D"/>
<path d="M16.2226 34.0196C15.9155 33.6206 15.6523 33.2215 15.3453 32.7781C16.4858 31.0488 17.9772 32.113 19.3371 32.2903C19.7319 33.4432 20.3021 34.5074 21.5304 35.6159C19.1616 36.2367 17.5386 35.6603 16.2226 34.0196Z" fill="url(#paint12_linear)" fill-opacity="0.4"/>
<path d="M28.198 10.1642C28.8559 9.67641 29.4262 9.233 29.7333 10.4746C30.2158 12.5142 29.2507 13.9332 27.189 14.1992C26.7942 13.0907 25.7415 12.2925 25.8731 11.0066C26.7065 11.0066 27.4961 10.7406 28.198 10.1642Z" fill="#4D4D5D"/>
<path d="M28.198 10.1642C28.8559 9.67641 29.4262 9.233 29.7333 10.4746C30.2158 12.5142 29.2507 13.9332 27.189 14.1992C26.7942 13.0907 25.7415 12.2925 25.8731 11.0066C26.7065 11.0066 27.4961 10.7406 28.198 10.1642Z" fill="url(#paint13_linear)" fill-opacity="0.4"/>
<path d="M16.9683 24.6637C20.1705 22.624 17.4947 22.1363 16.2226 20.9834C17.8895 20.9834 19.3371 20.9834 20.9163 20.9834C20.2144 22.0476 17.0122 22.5353 20.2583 24.6637C19.03 24.6637 18.1966 24.6637 16.9683 24.6637Z" fill="#4D4D5D"/>
<path d="M16.9683 24.6637C20.1705 22.624 17.4947 22.1363 16.2226 20.9834C17.8895 20.9834 19.3371 20.9834 20.9163 20.9834C20.2144 22.0476 17.0122 22.5353 20.2583 24.6637C19.03 24.6637 18.1966 24.6637 16.9683 24.6637Z" fill="url(#paint14_linear)" fill-opacity="0.4"/>
<path d="M26.7505 28.2997C25.8731 27.7233 24.9958 27.1025 24.1185 26.5261C24.0746 25.6393 24.2501 25.0185 25.3467 25.2846C26.6627 25.8166 27.7155 26.5704 27.6716 28.2111C27.3207 28.2997 27.0137 28.2997 26.7505 28.2997Z" fill="#4D4D5D"/>
<path d="M26.7505 28.2997C25.8731 27.7233 24.9958 27.1025 24.1185 26.5261C24.0746 25.6393 24.2501 25.0185 25.3467 25.2846C26.6627 25.8166 27.7155 26.5704 27.6716 28.2111C27.3207 28.2997 27.0137 28.2997 26.7505 28.2997Z" fill="url(#paint15_linear)" fill-opacity="0.4"/>
<path d="M24.6887 15.4851C23.943 17.1258 22.0567 16.5493 20.7846 18.1456C21.4865 15.4851 22.6708 14.82 24.6887 15.4851Z" fill="#4D4D5D"/>
<path d="M24.6887 15.4851C23.943 17.1258 22.0567 16.5493 20.7846 18.1456C21.4865 15.4851 22.6708 14.82 24.6887 15.4851Z" fill="url(#paint16_linear)" fill-opacity="0.4"/>
<path d="M12.1431 15.3077C13.7661 15.2634 15.2137 14.7756 15.784 16.8153C14.2925 17.17 13.2836 16.5493 12.1431 15.3077Z" fill="#4D4D5D"/>
<path d="M12.1431 15.3077C13.7661 15.2634 15.2137 14.7756 15.784 16.8153C14.2925 17.17 13.2836 16.5493 12.1431 15.3077Z" fill="url(#paint17_linear)" fill-opacity="0.4"/>
<path d="M9.204 22.9787C9.02854 23.0231 8.85307 23.0231 8.67761 23.0674C8.32668 23.1118 7.97575 23.1561 7.93188 22.6683C7.93188 22.5353 8.01962 22.358 8.10735 22.3136C8.72147 22.1363 8.98467 22.5353 9.204 22.9787Z" fill="#4D4D5D"/>
<path d="M9.204 22.9787C9.02854 23.0231 8.85307 23.0231 8.67761 23.0674C8.32668 23.1118 7.97575 23.1561 7.93188 22.6683C7.93188 22.5353 8.01962 22.358 8.10735 22.3136C8.72147 22.1363 8.98467 22.5353 9.204 22.9787Z" fill="url(#paint18_linear)" fill-opacity="0.4"/>
<path d="M50.4381 8.83419C52.8507 8.87853 55.5704 8.5238 58.2024 9.36628C62.1503 10.6522 64.3875 13.224 65.6158 17.3033C66.6685 20.8063 65.1332 23.3781 63.6856 25.9942C62.1942 28.699 59.4306 29.7188 56.5355 30.1623C52.5437 30.783 48.508 30.2509 44.5162 30.5613C44.0337 30.6057 43.595 30.517 43.4634 29.9849C43.3318 29.4528 43.6389 29.1867 44.1214 29.0537C46.3586 28.2999 46.7095 26.5263 46.6656 24.4423C46.5779 21.028 46.534 17.6581 46.6218 14.2438C46.6656 12.4258 46.1393 11.0956 44.5601 10.2088C44.1214 9.94272 43.288 9.72101 43.595 8.96721C43.9021 8.21341 44.6039 8.78985 45.1742 8.78985C46.7972 8.83419 48.4641 8.83419 50.4381 8.83419ZM47.7623 19.9638C47.4991 17.0816 48.7712 14.2438 47.9816 11.3173C47.2359 14.1995 46.7534 17.0373 47.7623 19.9638C47.6746 21.6044 47.6307 23.245 47.4552 24.8857C47.3675 25.9942 47.4114 27.0584 48.201 27.9009C47.3675 27.9895 46.4902 27.9009 45.9199 29.0537C49.1221 29.0537 52.1489 29.0537 55.1318 29.0537C53.9474 28.832 52.7191 28.8764 51.5348 28.7877C50.3504 28.699 48.9905 29.2311 48.1571 27.9009C49.3853 24.5753 48.4203 21.161 48.5519 17.7911C48.1132 18.4562 48.4641 19.3874 47.7623 19.9638ZM63.1593 21.6931C63.0715 22.6243 63.0277 23.5998 62.9399 24.5309C64.2559 22.0478 64.4752 19.343 64.0804 16.7269C63.7734 14.6872 63.1593 12.5145 60.5712 12.0711C59.9132 11.8494 59.3868 11.0069 58.2463 11.539C60.1325 13.0909 61.5362 14.7759 61.8433 17.0816C62.1503 19.21 61.931 21.3384 61.7117 23.5998C62.6767 23.112 62.589 22.1365 63.1593 21.6931ZM51.3154 19.077C51.3154 20.9836 51.3154 22.9347 51.3154 24.8413C51.3154 25.6838 51.3593 26.4819 52.3244 26.881C55.7898 28.2999 60.1325 26.0829 61.0537 22.4469C61.5801 20.3185 61.4923 18.1902 60.7905 16.1061C60.2202 14.4212 59.2113 12.8692 57.4567 12.5588C56.1846 12.3371 55.0002 12.0711 53.7719 11.7164C52.3244 11.3173 51.1838 11.805 51.3154 13.7561C51.4032 15.5297 51.3154 17.3033 51.3154 19.077ZM49.6924 26.8367C49.6924 21.8261 49.6924 16.7712 49.6924 11.7607C49.0344 16.7712 49.0783 21.7818 49.6924 26.8367ZM61.0098 25.2847C58.0708 28.3886 54.2983 27.9452 50.6136 27.8122C55.1318 29.0981 59.7816 27.9895 61.0098 25.2847ZM50.8329 9.2776C49.2976 9.2776 48.2887 9.23326 47.2798 9.2776C46.8411 9.2776 46.0515 9.05589 46.0515 9.72101C46.0515 10.4748 46.8411 10.7852 47.4991 10.6078C48.4641 10.3861 49.3853 9.89838 50.8329 9.2776Z" fill="#4D4D5D"/>
<path d="M50.4381 8.83419C52.8507 8.87853 55.5704 8.5238 58.2024 9.36628C62.1503 10.6522 64.3875 13.224 65.6158 17.3033C66.6685 20.8063 65.1332 23.3781 63.6856 25.9942C62.1942 28.699 59.4306 29.7188 56.5355 30.1623C52.5437 30.783 48.508 30.2509 44.5162 30.5613C44.0337 30.6057 43.595 30.517 43.4634 29.9849C43.3318 29.4528 43.6389 29.1867 44.1214 29.0537C46.3586 28.2999 46.7095 26.5263 46.6656 24.4423C46.5779 21.028 46.534 17.6581 46.6218 14.2438C46.6656 12.4258 46.1393 11.0956 44.5601 10.2088C44.1214 9.94272 43.288 9.72101 43.595 8.96721C43.9021 8.21341 44.6039 8.78985 45.1742 8.78985C46.7972 8.83419 48.4641 8.83419 50.4381 8.83419ZM47.7623 19.9638C47.4991 17.0816 48.7712 14.2438 47.9816 11.3173C47.2359 14.1995 46.7534 17.0373 47.7623 19.9638C47.6746 21.6044 47.6307 23.245 47.4552 24.8857C47.3675 25.9942 47.4114 27.0584 48.201 27.9009C47.3675 27.9895 46.4902 27.9009 45.9199 29.0537C49.1221 29.0537 52.1489 29.0537 55.1318 29.0537C53.9474 28.832 52.7191 28.8764 51.5348 28.7877C50.3504 28.699 48.9905 29.2311 48.1571 27.9009C49.3853 24.5753 48.4203 21.161 48.5519 17.7911C48.1132 18.4562 48.4641 19.3874 47.7623 19.9638ZM63.1593 21.6931C63.0715 22.6243 63.0277 23.5998 62.9399 24.5309C64.2559 22.0478 64.4752 19.343 64.0804 16.7269C63.7734 14.6872 63.1593 12.5145 60.5712 12.0711C59.9132 11.8494 59.3868 11.0069 58.2463 11.539C60.1325 13.0909 61.5362 14.7759 61.8433 17.0816C62.1503 19.21 61.931 21.3384 61.7117 23.5998C62.6767 23.112 62.589 22.1365 63.1593 21.6931ZM51.3154 19.077C51.3154 20.9836 51.3154 22.9347 51.3154 24.8413C51.3154 25.6838 51.3593 26.4819 52.3244 26.881C55.7898 28.2999 60.1325 26.0829 61.0537 22.4469C61.5801 20.3185 61.4923 18.1902 60.7905 16.1061C60.2202 14.4212 59.2113 12.8692 57.4567 12.5588C56.1846 12.3371 55.0002 12.0711 53.7719 11.7164C52.3244 11.3173 51.1838 11.805 51.3154 13.7561C51.4032 15.5297 51.3154 17.3033 51.3154 19.077ZM49.6924 26.8367C49.6924 21.8261 49.6924 16.7712 49.6924 11.7607C49.0344 16.7712 49.0783 21.7818 49.6924 26.8367ZM61.0098 25.2847C58.0708 28.3886 54.2983 27.9452 50.6136 27.8122C55.1318 29.0981 59.7816 27.9895 61.0098 25.2847ZM50.8329 9.2776C49.2976 9.2776 48.2887 9.23326 47.2798 9.2776C46.8411 9.2776 46.0515 9.05589 46.0515 9.72101C46.0515 10.4748 46.8411 10.7852 47.4991 10.6078C48.4641 10.3861 49.3853 9.89838 50.8329 9.2776Z" fill="url(#paint19_linear)" fill-opacity="0.4"/>
<path d="M67.6336 18.3232C67.6336 16.7712 67.5897 15.2193 67.6336 13.6673C67.7213 12.0267 67.2826 10.7408 65.7473 10.0314C65.3525 9.85401 64.8261 9.72099 65.0016 9.14456C65.1771 8.56812 65.7035 8.74549 66.0982 8.74549C68.6425 8.74549 71.2306 8.74549 73.7748 8.70115C74.1257 8.70115 74.5644 8.61246 74.7398 9.01153C75.003 9.58797 74.5644 9.80967 74.1696 10.0314C72.8536 10.8295 72.722 12.0711 72.6343 13.4456C72.415 16.4608 72.415 19.476 72.6781 22.4912C72.9413 25.4621 74.4328 26.7923 77.3279 26.881C79.1264 26.9253 79.8283 25.9498 80.1792 24.4866C80.7934 21.8704 80.574 19.21 80.574 16.5495C80.574 15.8401 80.4863 15.0863 80.574 14.3768C80.7495 12.6475 80.4863 11.1399 78.8194 10.2087C78.4685 10.0314 77.9421 9.76533 78.0737 9.23324C78.2491 8.52378 78.8632 8.83417 79.3458 8.83417C81.4513 8.83417 83.6008 8.83417 85.7063 8.78983C86.145 8.78983 86.5837 8.56812 86.8469 9.14456C87.0223 9.58797 86.7153 9.89835 86.4082 10.0757C84.6536 11.0956 84.7413 12.7805 84.6974 14.5542C84.6097 18.5892 85.1361 22.6686 83.8201 26.6593C83.2937 28.2999 82.3725 29.2311 80.9688 29.9405C75.7926 32.5567 68.9934 29.8075 67.7652 24.3535C67.3265 22.4025 67.6774 20.3185 67.6336 18.3232C67.6774 18.3232 67.6774 18.3232 67.6336 18.3232ZM70.5726 11.4946C70.8796 10.8739 71.8008 10.6965 71.8008 9.72099C70.3094 9.54363 68.9057 9.4106 67.3265 9.80967C68.1161 10.4748 68.6863 11.0069 69.3005 11.4946C68.9057 11.672 68.5109 11.938 68.5109 12.4258C68.5547 16.5939 67.9845 20.8063 68.9057 24.93C69.7391 28.6103 76.67 31.0047 79.916 28.9207C80.1354 28.7877 80.7056 28.566 80.1354 28.1669C80.0038 28.0782 79.7406 28.1669 79.5212 28.1669C84.0394 24.1762 81.9777 18.9439 82.2848 14.1108C80.6179 18.7222 82.9428 24.3536 78.6439 28.2999C75.4417 29.3198 72.3711 28.2556 71.0112 25.6838C71.8447 26.0385 72.2834 27.147 73.38 27.014C70.9235 23.2894 70.5287 19.21 71.2744 14.8646C71.4499 13.8004 72.1079 12.3371 70.5726 11.4946ZM80.3108 9.76533C82.6796 11.7607 82.6796 11.7607 84.0833 9.80967C82.8989 9.54363 81.7584 9.63231 80.3108 9.76533Z" fill="#4D4D5D"/>
<path d="M67.6336 18.3232C67.6336 16.7712 67.5897 15.2193 67.6336 13.6673C67.7213 12.0267 67.2826 10.7408 65.7473 10.0314C65.3525 9.85401 64.8261 9.72099 65.0016 9.14456C65.1771 8.56812 65.7035 8.74549 66.0982 8.74549C68.6425 8.74549 71.2306 8.74549 73.7748 8.70115C74.1257 8.70115 74.5644 8.61246 74.7398 9.01153C75.003 9.58797 74.5644 9.80967 74.1696 10.0314C72.8536 10.8295 72.722 12.0711 72.6343 13.4456C72.415 16.4608 72.415 19.476 72.6781 22.4912C72.9413 25.4621 74.4328 26.7923 77.3279 26.881C79.1264 26.9253 79.8283 25.9498 80.1792 24.4866C80.7934 21.8704 80.574 19.21 80.574 16.5495C80.574 15.8401 80.4863 15.0863 80.574 14.3768C80.7495 12.6475 80.4863 11.1399 78.8194 10.2087C78.4685 10.0314 77.9421 9.76533 78.0737 9.23324C78.2491 8.52378 78.8632 8.83417 79.3458 8.83417C81.4513 8.83417 83.6008 8.83417 85.7063 8.78983C86.145 8.78983 86.5837 8.56812 86.8469 9.14456C87.0223 9.58797 86.7153 9.89835 86.4082 10.0757C84.6536 11.0956 84.7413 12.7805 84.6974 14.5542C84.6097 18.5892 85.1361 22.6686 83.8201 26.6593C83.2937 28.2999 82.3725 29.2311 80.9688 29.9405C75.7926 32.5567 68.9934 29.8075 67.7652 24.3535C67.3265 22.4025 67.6774 20.3185 67.6336 18.3232C67.6774 18.3232 67.6774 18.3232 67.6336 18.3232ZM70.5726 11.4946C70.8796 10.8739 71.8008 10.6965 71.8008 9.72099C70.3094 9.54363 68.9057 9.4106 67.3265 9.80967C68.1161 10.4748 68.6863 11.0069 69.3005 11.4946C68.9057 11.672 68.5109 11.938 68.5109 12.4258C68.5547 16.5939 67.9845 20.8063 68.9057 24.93C69.7391 28.6103 76.67 31.0047 79.916 28.9207C80.1354 28.7877 80.7056 28.566 80.1354 28.1669C80.0038 28.0782 79.7406 28.1669 79.5212 28.1669C84.0394 24.1762 81.9777 18.9439 82.2848 14.1108C80.6179 18.7222 82.9428 24.3536 78.6439 28.2999C75.4417 29.3198 72.3711 28.2556 71.0112 25.6838C71.8447 26.0385 72.2834 27.147 73.38 27.014C70.9235 23.2894 70.5287 19.21 71.2744 14.8646C71.4499 13.8004 72.1079 12.3371 70.5726 11.4946ZM80.3108 9.76533C82.6796 11.7607 82.6796 11.7607 84.0833 9.80967C82.8989 9.54363 81.7584 9.63231 80.3108 9.76533Z" fill="url(#paint20_linear)" fill-opacity="0.4"/>
<path d="M148.961 20.0968C148.566 17.5251 149.531 15.2637 147.821 13.4457C147.645 13.2683 147.733 12.6475 147.952 12.4258C148.961 11.3173 148.172 10.7409 147.382 10.1644C147.075 9.89838 146.461 9.8097 146.592 9.23327C146.768 8.52381 147.426 8.78986 147.864 8.78986C150.146 8.78986 152.383 8.78986 154.664 8.78986C155.146 8.78986 155.76 8.52381 155.98 9.18893C156.155 9.72102 155.629 9.94273 155.278 10.1644C154.181 10.8739 153.874 11.9381 153.874 13.224C153.874 15.7514 153.743 18.2345 153.743 20.762C153.743 22.0035 153.874 23.2894 154.357 24.4423C155.146 26.3046 156.901 27.1471 159.27 26.9254C161.2 26.7037 161.595 25.1074 161.682 23.6885C161.902 20.0082 161.858 16.3278 161.902 12.6919C161.902 11.3616 160.937 10.7852 160.059 10.1644C159.708 9.89838 159.226 9.72102 159.445 9.14459C159.621 8.65683 160.015 8.78986 160.366 8.78986C162.691 8.78986 165.016 8.74552 167.385 8.78986C167.648 8.78986 167.999 8.87854 168.131 9.0559C168.394 9.41063 168.174 9.8097 167.867 9.98707C165.806 11.1843 166.069 13.1353 166.069 15.0863C166.069 17.8354 166.157 20.5846 165.893 23.2894C165.455 27.8565 163.13 30.4283 159.445 30.6944C153.874 31.1378 150.189 29.0094 149.093 24.3536C148.654 22.8016 148.961 21.1167 148.961 20.0968ZM150.409 11.4503C150.847 11.4503 151.286 11.4947 151.769 11.4947C151.242 16.0618 150.847 20.5846 152.032 25.1074C150.014 22.9347 151.374 20.1412 150.76 17.6137C150.058 19.1657 149.926 20.7176 149.882 22.2252C149.795 24.7083 150.365 27.1471 152.909 28.3886C155.059 29.4528 157.383 29.8075 159.752 29.4085C161.902 29.0537 163.349 27.7678 164.051 25.7281C165.499 21.3827 164.665 16.9486 164.665 12.5588C164.139 14.9533 164.051 17.3477 164.314 19.7864C164.534 21.7375 164.226 23.5554 163.261 25.2404C163.349 23.6441 164.139 22.0035 163.305 20.4072C164.534 17.4364 163.174 14.4655 163.261 11.4947C164.27 11.406 165.016 10.9626 165.499 9.72102C164.226 9.72102 163.086 9.41063 161.858 9.98707C162.34 10.6522 163.086 10.8295 163.305 11.539C162.603 14.5099 162.998 17.4807 163.349 20.4516C162.253 22.3582 162.911 24.664 161.463 26.8367C162.691 26.4376 162.779 25.6395 163.305 25.2404C163.305 26.6593 162.384 27.6792 161.287 28.1669C159.05 29.1868 156.769 28.965 154.62 27.8122C155.059 27.8565 155.541 28.0339 156.067 27.6792C153.435 26.2602 152.777 23.8658 152.69 21.294C152.602 18.7223 152.69 16.1505 152.69 13.5787C152.69 12.8249 152.953 11.8937 151.812 11.5833C152.251 11.0513 153.041 10.7852 153.172 9.72102C151.812 9.72102 150.54 9.41063 149.093 9.94273C149.575 10.5635 150.014 11.0069 150.409 11.4503C149.707 13.49 149.575 15.574 149.795 17.7024C150.189 15.6627 151.154 13.6674 150.409 11.4503Z" fill="#4D4D5D"/>
<path d="M148.961 20.0968C148.566 17.5251 149.531 15.2637 147.821 13.4457C147.645 13.2683 147.733 12.6475 147.952 12.4258C148.961 11.3173 148.172 10.7409 147.382 10.1644C147.075 9.89838 146.461 9.8097 146.592 9.23327C146.768 8.52381 147.426 8.78986 147.864 8.78986C150.146 8.78986 152.383 8.78986 154.664 8.78986C155.146 8.78986 155.76 8.52381 155.98 9.18893C156.155 9.72102 155.629 9.94273 155.278 10.1644C154.181 10.8739 153.874 11.9381 153.874 13.224C153.874 15.7514 153.743 18.2345 153.743 20.762C153.743 22.0035 153.874 23.2894 154.357 24.4423C155.146 26.3046 156.901 27.1471 159.27 26.9254C161.2 26.7037 161.595 25.1074 161.682 23.6885C161.902 20.0082 161.858 16.3278 161.902 12.6919C161.902 11.3616 160.937 10.7852 160.059 10.1644C159.708 9.89838 159.226 9.72102 159.445 9.14459C159.621 8.65683 160.015 8.78986 160.366 8.78986C162.691 8.78986 165.016 8.74552 167.385 8.78986C167.648 8.78986 167.999 8.87854 168.131 9.0559C168.394 9.41063 168.174 9.8097 167.867 9.98707C165.806 11.1843 166.069 13.1353 166.069 15.0863C166.069 17.8354 166.157 20.5846 165.893 23.2894C165.455 27.8565 163.13 30.4283 159.445 30.6944C153.874 31.1378 150.189 29.0094 149.093 24.3536C148.654 22.8016 148.961 21.1167 148.961 20.0968ZM150.409 11.4503C150.847 11.4503 151.286 11.4947 151.769 11.4947C151.242 16.0618 150.847 20.5846 152.032 25.1074C150.014 22.9347 151.374 20.1412 150.76 17.6137C150.058 19.1657 149.926 20.7176 149.882 22.2252C149.795 24.7083 150.365 27.1471 152.909 28.3886C155.059 29.4528 157.383 29.8075 159.752 29.4085C161.902 29.0537 163.349 27.7678 164.051 25.7281C165.499 21.3827 164.665 16.9486 164.665 12.5588C164.139 14.9533 164.051 17.3477 164.314 19.7864C164.534 21.7375 164.226 23.5554 163.261 25.2404C163.349 23.6441 164.139 22.0035 163.305 20.4072C164.534 17.4364 163.174 14.4655 163.261 11.4947C164.27 11.406 165.016 10.9626 165.499 9.72102C164.226 9.72102 163.086 9.41063 161.858 9.98707C162.34 10.6522 163.086 10.8295 163.305 11.539C162.603 14.5099 162.998 17.4807 163.349 20.4516C162.253 22.3582 162.911 24.664 161.463 26.8367C162.691 26.4376 162.779 25.6395 163.305 25.2404C163.305 26.6593 162.384 27.6792 161.287 28.1669C159.05 29.1868 156.769 28.965 154.62 27.8122C155.059 27.8565 155.541 28.0339 156.067 27.6792C153.435 26.2602 152.777 23.8658 152.69 21.294C152.602 18.7223 152.69 16.1505 152.69 13.5787C152.69 12.8249 152.953 11.8937 151.812 11.5833C152.251 11.0513 153.041 10.7852 153.172 9.72102C151.812 9.72102 150.54 9.41063 149.093 9.94273C149.575 10.5635 150.014 11.0069 150.409 11.4503C149.707 13.49 149.575 15.574 149.795 17.7024C150.189 15.6627 151.154 13.6674 150.409 11.4503Z" fill="url(#paint21_linear)" fill-opacity="0.4"/>
<path d="M97.2432 8.70113C98.1643 8.74547 98.8662 8.65679 99.4803 8.83416C101.717 9.54361 103.297 8.8785 104.481 6.88315C104.7 6.48408 104.964 6.04067 105.49 6.26237C106.104 6.48408 106.06 7.01617 105.929 7.59261C105.446 10.12 104.92 12.6475 104.437 15.1749C104.349 15.6627 104.174 16.0618 103.691 16.1061C103.165 16.1504 102.99 15.7514 102.902 15.2636C102.288 12.2041 99.8751 12.2928 97.5941 12.2484C94.6112 12.2041 92.8566 13.2239 91.9792 15.574C90.9264 18.5005 90.8387 21.427 92.9882 23.9545C95.1814 26.5262 98.1643 26.8366 101.235 26.3932C102.639 26.1715 103.56 24.9743 104.481 23.8658C104.788 23.4667 105.051 22.8903 105.665 23.245C106.28 23.5554 106.06 24.0431 105.885 24.5752C105.358 26.3045 105.358 28.6103 104.218 29.7188C102.858 31.049 100.358 30.5613 98.3837 30.916C94.7867 31.5368 88.9525 27.1027 87.6365 23.4224C85.9257 18.6335 87.3733 13.2239 91.1019 10.3861C93.032 8.96718 95.1814 8.47943 97.2432 8.70113ZM93.032 12.0267C96.2342 10.4304 99.4365 10.7408 103.209 12.1597C100.226 10.12 98.2959 9.98702 93.3829 11.1399C93.8216 10.6521 94.2164 10.2087 94.8744 9.49927C89.9175 10.8295 87.0662 15.574 88.0752 20.5402C89.1718 18.9883 88.6454 16.9929 89.6982 15.5297C89.5227 16.6825 89.3473 17.8797 89.8298 19.0769C90.1369 16.3721 90.8826 13.889 93.032 12.0267ZM89.9175 21.7818C89.435 21.8704 89.1279 20.9393 88.6016 21.4714C88.1629 21.9148 88.2068 22.5356 88.4261 23.112C89.4789 25.5507 91.1458 27.3244 93.9971 28.3886C93.4707 27.7235 93.2075 27.3244 92.9443 26.9697C95.5762 28.0782 98.2521 28.8763 101.147 27.8121C97.7257 28.1669 94.6112 27.5904 92.1547 24.93C91.3212 23.9988 90.6633 22.8459 89.9175 21.7818Z" fill="#4D4D5D"/>
<path d="M97.2432 8.70113C98.1643 8.74547 98.8662 8.65679 99.4803 8.83416C101.717 9.54361 103.297 8.8785 104.481 6.88315C104.7 6.48408 104.964 6.04067 105.49 6.26237C106.104 6.48408 106.06 7.01617 105.929 7.59261C105.446 10.12 104.92 12.6475 104.437 15.1749C104.349 15.6627 104.174 16.0618 103.691 16.1061C103.165 16.1504 102.99 15.7514 102.902 15.2636C102.288 12.2041 99.8751 12.2928 97.5941 12.2484C94.6112 12.2041 92.8566 13.2239 91.9792 15.574C90.9264 18.5005 90.8387 21.427 92.9882 23.9545C95.1814 26.5262 98.1643 26.8366 101.235 26.3932C102.639 26.1715 103.56 24.9743 104.481 23.8658C104.788 23.4667 105.051 22.8903 105.665 23.245C106.28 23.5554 106.06 24.0431 105.885 24.5752C105.358 26.3045 105.358 28.6103 104.218 29.7188C102.858 31.049 100.358 30.5613 98.3837 30.916C94.7867 31.5368 88.9525 27.1027 87.6365 23.4224C85.9257 18.6335 87.3733 13.2239 91.1019 10.3861C93.032 8.96718 95.1814 8.47943 97.2432 8.70113ZM93.032 12.0267C96.2342 10.4304 99.4365 10.7408 103.209 12.1597C100.226 10.12 98.2959 9.98702 93.3829 11.1399C93.8216 10.6521 94.2164 10.2087 94.8744 9.49927C89.9175 10.8295 87.0662 15.574 88.0752 20.5402C89.1718 18.9883 88.6454 16.9929 89.6982 15.5297C89.5227 16.6825 89.3473 17.8797 89.8298 19.0769C90.1369 16.3721 90.8826 13.889 93.032 12.0267ZM89.9175 21.7818C89.435 21.8704 89.1279 20.9393 88.6016 21.4714C88.1629 21.9148 88.2068 22.5356 88.4261 23.112C89.4789 25.5507 91.1458 27.3244 93.9971 28.3886C93.4707 27.7235 93.2075 27.3244 92.9443 26.9697C95.5762 28.0782 98.2521 28.8763 101.147 27.8121C97.7257 28.1669 94.6112 27.5904 92.1547 24.93C91.3212 23.9988 90.6633 22.8459 89.9175 21.7818Z" fill="url(#paint22_linear)" fill-opacity="0.4"/>
<path d="M124.791 30.1179C124.001 30.1179 123.168 30.1179 122.378 30.1179C121.282 30.1179 119.308 31.0047 121.15 28.4773C121.94 27.3688 120.448 26.0829 119.966 24.93C119.527 23.9101 115.623 23.2894 114.307 24.0875C112.903 24.9743 112.859 26.6593 112.508 28.1669C112.465 28.2999 112.728 28.566 112.859 28.6546C113.298 28.965 114.219 28.965 113.956 29.7632C113.693 30.65 112.816 30.1622 112.245 30.1622C110.403 30.2066 108.604 30.2066 106.762 30.2066C106.279 30.2066 105.622 30.4283 105.446 29.7632C105.271 29.0094 105.885 28.965 106.411 28.8764C107.99 28.6103 108.692 27.4574 109.262 26.0829C111.543 20.3629 114.351 14.8202 116.325 8.9672C116.456 8.61248 116.588 8.16907 116.939 8.16907C117.685 8.08038 117.816 8.78984 118.079 9.32193C119.922 13.1796 121.852 16.9929 123.563 20.895C124.484 23.0233 126.326 24.6196 126.677 27.0584C126.809 27.9008 127.73 28.4329 128.563 28.7877C129.002 28.965 129.485 29.1867 129.353 29.6745C129.221 30.3839 128.607 30.2066 128.125 30.2066C126.984 30.1622 125.888 30.1622 124.791 30.1179C124.791 30.1622 124.791 30.1179 124.791 30.1179ZM122.378 24.4866C121.501 24.6196 121.501 23.1564 120.404 23.3781C120.711 25.1074 121.369 26.5263 122.729 27.9895C122.729 27.147 122.729 26.615 122.729 26.1272C123.387 26.9697 123.738 28.2999 125.317 27.7678C125.01 26.5706 123.87 26.0829 123.475 25.063C123.738 24.93 123.958 24.6639 123.826 24.3536C121.72 19.9195 119.615 15.5297 117.334 10.7408C116.983 12.1598 117.597 12.9136 117.597 13.8004C117.378 13.8447 117.027 13.8891 117.027 13.8891C117.334 16.4608 118.299 18.8553 119.308 21.161C119.571 21.7818 120.185 21.9591 120.536 21.0723C121.457 22.0922 122.422 23.112 122.905 24.4866C122.773 24.5753 122.554 24.5309 122.378 24.4866ZM116.544 16.9929C116.193 17.9684 115.842 18.7222 115.623 19.476C115.448 20.0525 114.746 20.7619 115.404 21.2497C116.105 21.7818 117.158 21.6931 117.904 21.294C118.694 20.8506 117.992 20.0968 117.816 19.5204C117.597 18.7666 117.509 17.8354 116.544 16.9929ZM115.36 13.4013C113.912 16.8156 112.465 20.2298 111.017 23.6441C113.517 20.7176 114.263 17.0373 115.36 13.4013Z" fill="#4D4D5D"/>
<path d="M124.791 30.1179C124.001 30.1179 123.168 30.1179 122.378 30.1179C121.282 30.1179 119.308 31.0047 121.15 28.4773C121.94 27.3688 120.448 26.0829 119.966 24.93C119.527 23.9101 115.623 23.2894 114.307 24.0875C112.903 24.9743 112.859 26.6593 112.508 28.1669C112.465 28.2999 112.728 28.566 112.859 28.6546C113.298 28.965 114.219 28.965 113.956 29.7632C113.693 30.65 112.816 30.1622 112.245 30.1622C110.403 30.2066 108.604 30.2066 106.762 30.2066C106.279 30.2066 105.622 30.4283 105.446 29.7632C105.271 29.0094 105.885 28.965 106.411 28.8764C107.99 28.6103 108.692 27.4574 109.262 26.0829C111.543 20.3629 114.351 14.8202 116.325 8.9672C116.456 8.61248 116.588 8.16907 116.939 8.16907C117.685 8.08038 117.816 8.78984 118.079 9.32193C119.922 13.1796 121.852 16.9929 123.563 20.895C124.484 23.0233 126.326 24.6196 126.677 27.0584C126.809 27.9008 127.73 28.4329 128.563 28.7877C129.002 28.965 129.485 29.1867 129.353 29.6745C129.221 30.3839 128.607 30.2066 128.125 30.2066C126.984 30.1622 125.888 30.1622 124.791 30.1179C124.791 30.1622 124.791 30.1179 124.791 30.1179ZM122.378 24.4866C121.501 24.6196 121.501 23.1564 120.404 23.3781C120.711 25.1074 121.369 26.5263 122.729 27.9895C122.729 27.147 122.729 26.615 122.729 26.1272C123.387 26.9697 123.738 28.2999 125.317 27.7678C125.01 26.5706 123.87 26.0829 123.475 25.063C123.738 24.93 123.958 24.6639 123.826 24.3536C121.72 19.9195 119.615 15.5297 117.334 10.7408C116.983 12.1598 117.597 12.9136 117.597 13.8004C117.378 13.8447 117.027 13.8891 117.027 13.8891C117.334 16.4608 118.299 18.8553 119.308 21.161C119.571 21.7818 120.185 21.9591 120.536 21.0723C121.457 22.0922 122.422 23.112 122.905 24.4866C122.773 24.5753 122.554 24.5309 122.378 24.4866ZM116.544 16.9929C116.193 17.9684 115.842 18.7222 115.623 19.476C115.448 20.0525 114.746 20.7619 115.404 21.2497C116.105 21.7818 117.158 21.6931 117.904 21.294C118.694 20.8506 117.992 20.0968 117.816 19.5204C117.597 18.7666 117.509 17.8354 116.544 16.9929ZM115.36 13.4013C113.912 16.8156 112.465 20.2298 111.017 23.6441C113.517 20.7176 114.263 17.0373 115.36 13.4013Z" fill="url(#paint23_linear)" fill-opacity="0.4"/>
<path d="M132.204 9.32191C136.152 8.92284 140.1 9.6323 144.004 8.96718C144.487 8.8785 145.013 8.96718 145.057 9.45494C145.189 11.0069 145.276 12.5588 145.189 14.1108C145.145 14.8202 144.487 14.7315 144.048 14.3325C143.61 13.9777 143.215 13.5343 142.732 13.1352C141.636 12.2928 140.32 12.2484 139.179 12.7362C138.214 13.1352 138.697 14.3325 138.697 15.1749C138.653 18.4118 138.784 21.6487 138.697 24.8413C138.653 26.4376 139.091 27.5904 140.583 28.2112C141.109 28.4329 141.811 28.5659 141.679 29.3641C141.504 30.2509 140.714 30.0735 140.056 30.0735C137.424 30.0735 134.792 30.0735 132.16 30.1179C131.634 30.1179 131.064 30.0735 130.845 29.5414C130.625 28.9207 131.108 28.699 131.59 28.3886C133.696 27.147 134.442 24.93 133.433 22.5799C133.082 21.7818 133.038 21.2053 133.345 20.3628C134.178 18.1014 134.047 15.6183 133.52 13.4013C133.169 11.7607 131.195 12.5145 129.967 12.9135C129.265 13.1352 128.651 13.8447 128.037 14.3768C127.598 14.7315 127.16 14.9976 126.633 14.6428C126.107 14.2881 126.195 13.756 126.502 13.2683C126.59 13.1352 126.677 13.0022 126.765 12.9135C127.73 11.8494 125.975 9.67664 127.993 9.23323C129.353 8.8785 130.801 9.23323 132.204 9.32191ZM136.81 21.3827C137.907 18.8552 137.512 12.0267 136.108 10.8739C135.845 13.889 136.196 16.7712 136.679 19.6534C135.363 21.3383 136.196 23.2894 136.108 25.1073C136.108 25.4621 136.459 25.8168 136.854 25.7281C137.337 25.6394 137.249 25.196 137.205 24.8413C137.117 23.7328 136.942 22.5356 136.81 21.3827ZM136.898 10.2531C139.311 12.1597 141.723 10.6521 143.785 11.805C143.873 10.6965 143.829 9.85401 142.557 9.89835C140.802 9.98703 139.091 10.1201 136.898 10.2531ZM128.081 12.3371C129.178 10.6521 131.371 11.5833 132.731 10.3861C128.739 9.6323 127.993 9.89835 128.081 12.3371ZM135.319 10.9182C134.398 13.1352 134.31 15.707 134.968 17.8797C135.67 15.6183 135.582 13.4456 135.319 10.9182Z" fill="#4D4D5D"/>
<path d="M132.204 9.32191C136.152 8.92284 140.1 9.6323 144.004 8.96718C144.487 8.8785 145.013 8.96718 145.057 9.45494C145.189 11.0069 145.276 12.5588 145.189 14.1108C145.145 14.8202 144.487 14.7315 144.048 14.3325C143.61 13.9777 143.215 13.5343 142.732 13.1352C141.636 12.2928 140.32 12.2484 139.179 12.7362C138.214 13.1352 138.697 14.3325 138.697 15.1749C138.653 18.4118 138.784 21.6487 138.697 24.8413C138.653 26.4376 139.091 27.5904 140.583 28.2112C141.109 28.4329 141.811 28.5659 141.679 29.3641C141.504 30.2509 140.714 30.0735 140.056 30.0735C137.424 30.0735 134.792 30.0735 132.16 30.1179C131.634 30.1179 131.064 30.0735 130.845 29.5414C130.625 28.9207 131.108 28.699 131.59 28.3886C133.696 27.147 134.442 24.93 133.433 22.5799C133.082 21.7818 133.038 21.2053 133.345 20.3628C134.178 18.1014 134.047 15.6183 133.52 13.4013C133.169 11.7607 131.195 12.5145 129.967 12.9135C129.265 13.1352 128.651 13.8447 128.037 14.3768C127.598 14.7315 127.16 14.9976 126.633 14.6428C126.107 14.2881 126.195 13.756 126.502 13.2683C126.59 13.1352 126.677 13.0022 126.765 12.9135C127.73 11.8494 125.975 9.67664 127.993 9.23323C129.353 8.8785 130.801 9.23323 132.204 9.32191ZM136.81 21.3827C137.907 18.8552 137.512 12.0267 136.108 10.8739C135.845 13.889 136.196 16.7712 136.679 19.6534C135.363 21.3383 136.196 23.2894 136.108 25.1073C136.108 25.4621 136.459 25.8168 136.854 25.7281C137.337 25.6394 137.249 25.196 137.205 24.8413C137.117 23.7328 136.942 22.5356 136.81 21.3827ZM136.898 10.2531C139.311 12.1597 141.723 10.6521 143.785 11.805C143.873 10.6965 143.829 9.85401 142.557 9.89835C140.802 9.98703 139.091 10.1201 136.898 10.2531ZM128.081 12.3371C129.178 10.6521 131.371 11.5833 132.731 10.3861C128.739 9.6323 127.993 9.89835 128.081 12.3371ZM135.319 10.9182C134.398 13.1352 134.31 15.707 134.968 17.8797C135.67 15.6183 135.582 13.4456 135.319 10.9182Z" fill="url(#paint24_linear)" fill-opacity="0.4"/>
<path d="M174.842 30.6499C174.228 30.6056 173.702 30.5613 173.175 30.4726C169.271 29.8962 168.789 29.231 169.359 25.3734C169.49 24.3535 169.578 23.3337 169.666 22.3138C169.71 21.9148 169.754 21.5157 170.148 21.427C170.719 21.3383 170.806 21.7817 170.894 22.2695C171.026 22.9789 171.289 23.6884 171.464 24.3979C171.991 26.3489 173.351 26.8366 175.193 26.5262C176.026 26.3932 176.728 26.0385 177.035 25.1517C177.342 24.1762 176.992 23.378 176.246 22.8016C174.93 21.7374 173.526 20.8062 172.254 19.6977C169.622 17.392 169.008 14.9532 170.236 11.9824C171.157 9.67662 173.57 8.52375 176.86 8.7898C178 8.87848 179.097 9.18887 180.018 7.99166C180.632 7.19352 181.247 7.54825 181.203 8.52375C180.983 10.8738 180.676 13.2239 180.369 15.574C180.325 15.9731 180.194 16.3721 179.755 16.3278C179.536 16.3278 179.229 16.0617 179.097 15.84C178.702 15.1306 178.395 14.3768 178 13.6673C177.211 12.2041 176.026 12.2927 174.798 12.9135C173.438 13.623 173.526 14.7315 174.096 15.9287C174.535 16.8155 175.325 17.392 176.114 17.9241C177.211 18.6779 178.351 19.343 179.404 20.0968C181.466 21.56 182.343 23.511 181.773 26.0385C181.203 28.6103 179.492 29.8962 177.079 30.3396C176.334 30.5169 175.544 30.5613 174.842 30.6499ZM172.561 16.9486C171.377 17.4363 171.684 18.1014 172.386 18.7665C174.096 20.4072 175.983 21.8704 178.088 22.9346C179.711 22.1365 178.965 21.294 178.044 20.6289C176.202 19.2986 174.052 18.3231 172.737 16.2834C172.517 15.9731 172.605 16.7268 172.561 16.9486ZM178.088 10.1644C177.825 11.3172 178.658 11.938 179.404 12.5588C178.483 12.0267 181.817 9.23321 178.088 10.1644C175.588 9.18887 172.912 9.58794 171.596 11.2286C170.324 12.8692 170.28 14.6872 170.85 17.0816C171.684 15.6627 171.157 14.5985 171.728 13.623C173.263 11.1399 175.412 10.2087 178.088 10.1644ZM178.22 27.28C176.377 29.4084 173.921 28.3886 171.464 28.4329C174.36 29.9848 178.483 29.4527 179.887 27.5017C180.983 25.9498 180.896 23.9101 179.667 22.6242C178.878 23.9101 180.457 25.6394 178.878 26.7036C178.79 26.1272 178.922 25.5064 178.176 25.1073C176.86 27.7234 174.623 27.8121 172.122 27.3687C174.228 28.5659 176.202 28.0782 178.22 27.28Z" fill="#4D4D5D"/>
<path d="M174.842 30.6499C174.228 30.6056 173.702 30.5613 173.175 30.4726C169.271 29.8962 168.789 29.231 169.359 25.3734C169.49 24.3535 169.578 23.3337 169.666 22.3138C169.71 21.9148 169.754 21.5157 170.148 21.427C170.719 21.3383 170.806 21.7817 170.894 22.2695C171.026 22.9789 171.289 23.6884 171.464 24.3979C171.991 26.3489 173.351 26.8366 175.193 26.5262C176.026 26.3932 176.728 26.0385 177.035 25.1517C177.342 24.1762 176.992 23.378 176.246 22.8016C174.93 21.7374 173.526 20.8062 172.254 19.6977C169.622 17.392 169.008 14.9532 170.236 11.9824C171.157 9.67662 173.57 8.52375 176.86 8.7898C178 8.87848 179.097 9.18887 180.018 7.99166C180.632 7.19352 181.247 7.54825 181.203 8.52375C180.983 10.8738 180.676 13.2239 180.369 15.574C180.325 15.9731 180.194 16.3721 179.755 16.3278C179.536 16.3278 179.229 16.0617 179.097 15.84C178.702 15.1306 178.395 14.3768 178 13.6673C177.211 12.2041 176.026 12.2927 174.798 12.9135C173.438 13.623 173.526 14.7315 174.096 15.9287C174.535 16.8155 175.325 17.392 176.114 17.9241C177.211 18.6779 178.351 19.343 179.404 20.0968C181.466 21.56 182.343 23.511 181.773 26.0385C181.203 28.6103 179.492 29.8962 177.079 30.3396C176.334 30.5169 175.544 30.5613 174.842 30.6499ZM172.561 16.9486C171.377 17.4363 171.684 18.1014 172.386 18.7665C174.096 20.4072 175.983 21.8704 178.088 22.9346C179.711 22.1365 178.965 21.294 178.044 20.6289C176.202 19.2986 174.052 18.3231 172.737 16.2834C172.517 15.9731 172.605 16.7268 172.561 16.9486ZM178.088 10.1644C177.825 11.3172 178.658 11.938 179.404 12.5588C178.483 12.0267 181.817 9.23321 178.088 10.1644C175.588 9.18887 172.912 9.58794 171.596 11.2286C170.324 12.8692 170.28 14.6872 170.85 17.0816C171.684 15.6627 171.157 14.5985 171.728 13.623C173.263 11.1399 175.412 10.2087 178.088 10.1644ZM178.22 27.28C176.377 29.4084 173.921 28.3886 171.464 28.4329C174.36 29.9848 178.483 29.4527 179.887 27.5017C180.983 25.9498 180.896 23.9101 179.667 22.6242C178.878 23.9101 180.457 25.6394 178.878 26.7036C178.79 26.1272 178.922 25.5064 178.176 25.1073C176.86 27.7234 174.623 27.8121 172.122 27.3687C174.228 28.5659 176.202 28.0782 178.22 27.28Z" fill="url(#paint25_linear)" fill-opacity="0.4"/>
<path d="M61.6679 13.6674C64.1683 15.9731 63.7296 18.8109 63.1593 21.6931C63.2471 18.9439 63.2032 16.1505 61.6679 13.6674Z" fill="#4D4D5D"/>
<path d="M61.6679 13.6674C64.1683 15.9731 63.7296 18.8109 63.1593 21.6931C63.2471 18.9439 63.2032 16.1505 61.6679 13.6674Z" fill="url(#paint26_linear)" fill-opacity="0.4"/>
<path d="M69.2567 11.4946C69.6953 11.4946 70.1778 11.4946 70.6165 11.4946C70.3972 16.2391 69.3444 21.028 71.0552 25.7281C69.7392 24.6196 69.783 23.0677 69.6953 21.5157C69.5637 18.1458 70.134 14.7759 69.2567 11.4946Z" fill="#4D4D5D"/>
<path d="M69.2567 11.4946C69.6953 11.4946 70.1778 11.4946 70.6165 11.4946C70.3972 16.2391 69.3444 21.028 71.0552 25.7281C69.7392 24.6196 69.783 23.0677 69.6953 21.5157C69.5637 18.1458 70.134 14.7759 69.2567 11.4946Z" fill="url(#paint27_linear)" fill-opacity="0.4"/>
<defs>
<linearGradient id="paint0_linear" x1="18.3818" y1="0" x2="18.3818" y2="37.1983" gradientUnits="userSpaceOnUse">
<stop stop-color="white"/>
<stop offset="1" stop-color="white" stop-opacity="0"/>
</linearGradient>
<linearGradient id="paint1_linear" x1="17.0243" y1="1.60632" x2="17.0243" y2="12.4587" gradientUnits="userSpaceOnUse">
<stop stop-color="white"/>
<stop offset="1" stop-color="white" stop-opacity="0"/>
</linearGradient>
<linearGradient id="paint2_linear" x1="29.7975" y1="18.988" x2="29.7975" y2="28.6987" gradientUnits="userSpaceOnUse">
<stop stop-color="white"/>
<stop offset="1" stop-color="white" stop-opacity="0"/>
</linearGradient>
<linearGradient id="paint3_linear" x1="9.58214" y1="22.6611" x2="9.58214" y2="32.0244" gradientUnits="userSpaceOnUse">
<stop stop-color="white"/>
<stop offset="1" stop-color="white" stop-opacity="0"/>
</linearGradient>
<linearGradient id="paint4_linear" x1="23.7919" y1="2.34302" x2="23.7919" y2="11.0067" gradientUnits="userSpaceOnUse">
<stop stop-color="white"/>
<stop offset="1" stop-color="white" stop-opacity="0"/>
</linearGradient>
<linearGradient id="paint5_linear" x1="26.3995" y1="3.87927" x2="26.3995" y2="8.89301" gradientUnits="userSpaceOnUse">
<stop stop-color="white"/>
<stop offset="1" stop-color="white" stop-opacity="0"/>
</linearGradient>
<linearGradient id="paint6_linear" x1="32.5208" y1="12.1527" x2="32.5208" y2="17.2587" gradientUnits="userSpaceOnUse">
<stop stop-color="white"/>
<stop offset="1" stop-color="white" stop-opacity="0"/>
</linearGradient>
<linearGradient id="paint7_linear" x1="13.9635" y1="30.6467" x2="13.9635" y2="35.0715" gradientUnits="userSpaceOnUse">
<stop stop-color="white"/>
<stop offset="1" stop-color="white" stop-opacity="0"/>
</linearGradient>
<linearGradient id="paint8_linear" x1="5.03678" y1="34.0396" x2="5.03678" y2="35.6215" gradientUnits="userSpaceOnUse">
<stop stop-color="white"/>
<stop offset="1" stop-color="white" stop-opacity="0"/>
</linearGradient>
<linearGradient id="paint9_linear" x1="25.4344" y1="26.4817" x2="25.4344" y2="33.8423" gradientUnits="userSpaceOnUse">
<stop stop-color="white"/>
<stop offset="1" stop-color="white" stop-opacity="0"/>
</linearGradient>
<linearGradient id="paint10_linear" x1="7.75196" y1="26.7478" x2="7.75196" y2="34.9952" gradientUnits="userSpaceOnUse">
<stop stop-color="white"/>
<stop offset="1" stop-color="white" stop-opacity="0"/>
</linearGradient>
<linearGradient id="paint11_linear" x1="30.6328" y1="14.2018" x2="30.6328" y2="19.2346" gradientUnits="userSpaceOnUse">
<stop stop-color="white"/>
<stop offset="1" stop-color="white" stop-opacity="0"/>
</linearGradient>
<linearGradient id="paint12_linear" x1="18.4378" y1="31.8042" x2="18.4378" y2="35.8597" gradientUnits="userSpaceOnUse">
<stop stop-color="white"/>
<stop offset="1" stop-color="white" stop-opacity="0"/>
</linearGradient>
<linearGradient id="paint13_linear" x1="27.8587" y1="9.66992" x2="27.8587" y2="14.1992" gradientUnits="userSpaceOnUse">
<stop stop-color="white"/>
<stop offset="1" stop-color="white" stop-opacity="0"/>
</linearGradient>
<linearGradient id="paint14_linear" x1="18.5694" y1="20.9834" x2="18.5694" y2="24.6637" gradientUnits="userSpaceOnUse">
<stop stop-color="white"/>
<stop offset="1" stop-color="white" stop-opacity="0"/>
</linearGradient>
<linearGradient id="paint15_linear" x1="25.8927" y1="25.2224" x2="25.8927" y2="28.2997" gradientUnits="userSpaceOnUse">
<stop stop-color="white"/>
<stop offset="1" stop-color="white" stop-opacity="0"/>
</linearGradient>
<linearGradient id="paint16_linear" x1="22.7366" y1="15.2452" x2="22.7366" y2="18.1456" gradientUnits="userSpaceOnUse">
<stop stop-color="white"/>
<stop offset="1" stop-color="white" stop-opacity="0"/>
</linearGradient>
<linearGradient id="paint17_linear" x1="13.9635" y1="15.2255" x2="13.9635" y2="16.9143" gradientUnits="userSpaceOnUse">
<stop stop-color="white"/>
<stop offset="1" stop-color="white" stop-opacity="0"/>
</linearGradient>
<linearGradient id="paint18_linear" x1="8.56794" y1="22.2705" x2="8.56794" y2="23.093" gradientUnits="userSpaceOnUse">
<stop stop-color="white"/>
<stop offset="1" stop-color="white" stop-opacity="0"/>
</linearGradient>
<linearGradient id="paint19_linear" x1="54.6984" y1="8.5791" x2="54.6984" y2="30.5713" gradientUnits="userSpaceOnUse">
<stop stop-color="white"/>
<stop offset="1" stop-color="white" stop-opacity="0"/>
</linearGradient>
<linearGradient id="paint20_linear" x1="75.9325" y1="8.69275" x2="75.9325" y2="30.9398" gradientUnits="userSpaceOnUse">
<stop stop-color="white"/>
<stop offset="1" stop-color="white" stop-opacity="0"/>
</linearGradient>
<linearGradient id="paint21_linear" x1="157.411" y1="8.7373" x2="157.411" y2="30.7517" gradientUnits="userSpaceOnUse">
<stop stop-color="white"/>
<stop offset="1" stop-color="white" stop-opacity="0"/>
</linearGradient>
<linearGradient id="paint22_linear" x1="96.4971" y1="6.20312" x2="96.4971" y2="30.9746" gradientUnits="userSpaceOnUse">
<stop stop-color="white"/>
<stop offset="1" stop-color="white" stop-opacity="0"/>
</linearGradient>
<linearGradient id="paint23_linear" x1="117.395" y1="8.1615" x2="117.395" y2="30.2961" gradientUnits="userSpaceOnUse">
<stop stop-color="white"/>
<stop offset="1" stop-color="white" stop-opacity="0"/>
</linearGradient>
<linearGradient id="paint24_linear" x1="135.739" y1="8.93677" x2="135.739" y2="30.1179" gradientUnits="userSpaceOnUse">
<stop stop-color="white"/>
<stop offset="1" stop-color="white" stop-opacity="0"/>
</linearGradient>
<linearGradient id="paint25_linear" x1="175.552" y1="7.552" x2="175.552" y2="30.6499" gradientUnits="userSpaceOnUse">
<stop stop-color="white"/>
<stop offset="1" stop-color="white" stop-opacity="0"/>
</linearGradient>
<linearGradient id="paint26_linear" x1="62.6344" y1="13.6674" x2="62.6344" y2="21.6931" gradientUnits="userSpaceOnUse">
<stop stop-color="white"/>
<stop offset="1" stop-color="white" stop-opacity="0"/>
</linearGradient>
<linearGradient id="paint27_linear" x1="70.1559" y1="11.4946" x2="70.1559" y2="25.7281" gradientUnits="userSpaceOnUse">
<stop stop-color="white"/>
<stop offset="1" stop-color="white" stop-opacity="0"/>
</linearGradient>
</defs>
</svg>
