<svg xmlns="http://www.w3.org/2000/svg" width="107" height="87" fill="none"><path fill="#4D4D5D" d="M46.44 0L33.03 18.97l-7.1 30.27 20.51 12.1 20.62-12.1-6.97-30.27L46.44 0zm13.11 19.07l-3.52 11.09-9.31-16.09V1.21l12.83 17.86zm-13.1-4.43l9.36 16.18-5.7 17.93h-7.26L37.21 30.7l9.24-16.05zM46.2 1.23v12.81L37 30.02l-3.42-10.95L46.2 1.23zM33.27 19.98l3.37 10.69-9.73 16.87 6.36-27.56zm3.65 11.44l5.42 17.32H26.88l10.04-17.32zm-9.83 17.82h15.4l3.53 11.28L27.1 49.24zm16.05 0h6.79l-3.49 11-3.3-11zm3.74 11.28l3.59-11.28 15.5.02-19.09 11.26zm3.75-11.78l5.52-17.33 2.76 4.75 7.28 12.58H50.63zm8.7-12.85l-2.94-5.07 3.41-10.84 6.4 27.75-6.87-11.84z"/><path fill="url(#paint0_linear)" fill-opacity=".4" d="M46.44 0L33.03 18.97l-7.1 30.27 20.51 12.1 20.62-12.1-6.97-30.27L46.44 0zm13.11 19.07l-3.52 11.09-9.31-16.09V1.21l12.83 17.86zm-13.1-4.43l9.36 16.18-5.7 17.93h-7.26L37.21 30.7l9.24-16.05zM46.2 1.23v12.81L37 30.02l-3.42-10.95L46.2 1.23zM33.27 19.98l3.37 10.69-9.73 16.87 6.36-27.56zm3.65 11.44l5.42 17.32H26.88l10.04-17.32zm-9.83 17.82h15.4l3.53 11.28L27.1 49.24zm16.05 0h6.79l-3.49 11-3.3-11zm3.74 11.28l3.59-11.28 15.5.02-19.09 11.26zm3.75-11.78l5.52-17.33 2.76 4.75 7.28 12.58H50.63zm8.7-12.85l-2.94-5.07 3.41-10.84 6.4 27.75-6.87-11.84z"/><path fill="#4D4D5D" d="M14.12 65.04v-1.76H0v22.9h14.12v-1.76H1.77v-8.8h10.87v-1.77H1.77v-8.8h12.35z"/><path fill="url(#paint1_linear)" fill-opacity=".4" d="M14.12 65.04v-1.76H0v22.9h14.12v-1.76H1.77v-8.8h10.87v-1.77H1.77v-8.8h12.35z"/><path fill="#4D4D5D" d="M57.05 74.74c0-3.74-.54-6.87-3.35-9.4-3.45-3.1-10.85-3.16-14.37 0-2.84 2.56-3.35 5.83-3.35 9.47-.01 3.67.53 6.87 3.35 9.4 3.55 3.2 10.94 3.1 14.37 0 2.84-2.57 3.35-5.8 3.35-9.47zm-1.77.32c0 6.14-2.64 9.75-8.83 9.72-.49.02-3.82.03-5.95-1.88-2.4-2.17-2.76-4.94-2.76-8.08 0-3.1.35-5.99 2.76-8.16 1.57-1.41 3.93-1.9 6.07-1.88.49-.01 3.82-.03 5.94 1.88 2.77 2.49 2.77 5.97 2.77 7.84 0 0 0 .58 0 .56z"/><path fill="url(#paint2_linear)" fill-opacity=".4" d="M57.05 74.74c0-3.74-.54-6.87-3.35-9.4-3.45-3.1-10.85-3.16-14.37 0-2.84 2.56-3.35 5.83-3.35 9.47-.01 3.67.53 6.87 3.35 9.4 3.55 3.2 10.94 3.1 14.37 0 2.84-2.57 3.35-5.8 3.35-9.47zm-1.77.32c0 6.14-2.64 9.75-8.83 9.72-.49.02-3.82.03-5.95-1.88-2.4-2.17-2.76-4.94-2.76-8.08 0-3.1.35-5.99 2.76-8.16 1.57-1.41 3.93-1.9 6.07-1.88.49-.01 3.82-.03 5.94 1.88 2.77 2.49 2.77 5.97 2.77 7.84 0 0 0 .58 0 .56z"/><path fill="#4D4D5D" d="M79.54 84.99v-2.05c.22.15.6.35.58.35.85.57 11.27 4.05 12.58-2.52.4-3.5-2.57-4.7-6.03-5.53a14.63 14.63 0 01-4.2-1.54 5.38 5.38 0 01-2.81-4.83v-.05c.54-7.49 10.76-6.21 13.51-4.5v2c-.66-.32-1.24-.88-4.07-1.3-3.72-.54-7.38.11-7.68 3.91-.02 2.85 2.7 3.9 5.66 4.6 1.87.44 3.93 1.09 5.4 2.31 3.53 2.92 2.33 8.75-2.5 10.23-3.28.99-8.9.04-10.44-1.08z"/><path fill="url(#paint3_linear)" fill-opacity=".4" d="M79.54 84.99v-2.05c.22.15.6.35.58.35.85.57 11.27 4.05 12.58-2.52.4-3.5-2.57-4.7-6.03-5.53a14.63 14.63 0 01-4.2-1.54 5.38 5.38 0 01-2.81-4.83v-.05c.54-7.49 10.76-6.21 13.51-4.5v2c-.66-.32-1.24-.88-4.07-1.3-3.72-.54-7.38.11-7.68 3.91-.02 2.85 2.7 3.9 5.66 4.6 1.87.44 3.93 1.09 5.4 2.31 3.53 2.92 2.33 8.75-2.5 10.23-3.28.99-8.9.04-10.44-1.08z"/><path fill="#4D4D5D" d="M100.62 67.27v-3.43h-1.3v-.59h3.29v.6h-1.32v3.42h-.67zm2.43 0v-4.02h.98l1.01 3.2.99-3.2h.97v4.02h-.6v-3.38l-1.04 3.38h-.6l-1.08-3.43v3.43h-.63z"/><path fill="url(#paint4_linear)" fill-opacity=".4" d="M100.62 67.27v-3.43h-1.3v-.59h3.29v.6h-1.32v3.42h-.67zm2.43 0v-4.02h.98l1.01 3.2.99-3.2h.97v4.02h-.6v-3.38l-1.04 3.38h-.6l-1.08-3.43v3.43h-.63z"/><defs><linearGradient id="paint0_linear" x1="46.497" x2="46.497" y1="0" y2="61.343" gradientUnits="userSpaceOnUse"><stop stop-color="#fff"/><stop offset="1" stop-color="#fff" stop-opacity="0"/></linearGradient><linearGradient id="paint1_linear" x1="7.06" x2="7.06" y1="63.276" y2="86.186" gradientUnits="userSpaceOnUse"><stop stop-color="#fff"/><stop offset="1" stop-color="#fff" stop-opacity="0"/></linearGradient><linearGradient id="paint2_linear" x1="46.516" x2="46.516" y1="62.993" y2="86.575" gradientUnits="userSpaceOnUse"><stop stop-color="#fff"/><stop offset="1" stop-color="#fff" stop-opacity="0"/></linearGradient><linearGradient id="paint3_linear" x1="87.031" x2="87.031" y1="63.005" y2="86.485" gradientUnits="userSpaceOnUse"><stop stop-color="#fff"/><stop offset="1" stop-color="#fff" stop-opacity="0"/></linearGradient><linearGradient id="paint4_linear" x1="103.161" x2="103.161" y1="63.25" y2="67.266" gradientUnits="userSpaceOnUse"><stop stop-color="#fff"/><stop offset="1" stop-color="#fff" stop-opacity="0"/></linearGradient></defs></svg>