<svg xmlns="http://www.w3.org/2000/svg" width="182" height="38" fill="none"><path fill="#4D4D5D" d="M.43 5.33C-.27 4.05-.14 3.51 1 3.6c4.78.4 9.21-1.24 13.78-2.04a5.9 5.9 0 002.54-1.1c1.45-1.11 3.6.08 4.21.66 1.71 1.64 3.64 1.33 5.48 1.5 1.36.14 2.02.58 2.2 1.87.48 2.97 1.97 5.01 4.95 5.72.44.09.88.31.93.84.3 2.84 1.05 5.59 1.57 8.38.18 1.07.22 2.22-.74 3.06-.4.36-.62.93-.48 1.42.57 2.26-.35 3.81-2.07 5.1-.35.27-.7.66-.74 1.06-.44 2.89-3.07 3.06-4.91 4.35-4.26 2.97-8.87 3.06-13.73 2.53-4-.45-8.03-.45-12.02-.58-.66-.04-1.4.04-1.5-.89-.08-.75.49-1.06 1.06-1.15 2.9-.49 3.2-2.3 3.16-4.92-.18-6.25-.18-12.5.08-18.76.14-2.66-.83-3.94-3.11-4.7-.44-.13-1.1 0-1.27-.66 1.7-.67 3.02.75 4.56.84.13.84.35 1.68.35 2.53.04 7.76 0 15.47.04 23.23 0 .93-.04 1.73-.96 2.22-.66.27-1.4.3-1.76 1.06 2.11.98 4.4.54 6.63.67.74.04.48-.49.4-.93.56-.05 1.13-.1 1.7-.18-.48-.93-1.62-1.82-.26-2.88.22.04.44.09.66.09.88 1.24 2.1 2.04 3.2 2.97-.7 1.02-1.97.75-2.94 1.15 3.6-.04 7.15 1.24 10.75-.09 1.27-.49 2.02-.8.96-2.17 2.55.4 4.79-.58 7.02-1.55.4-.18.57-.5.3-.85-.17-.26-.52-.17-.74 0 .05-.7-1.27-1.2-.35-2.08.92-.93 1.19-2.22 1.8-3.28.35-.53.13-1.5 1.14-1.5 3.51-2.67 4.08-5.15 1.76-7.77-.05-1.64-.31-3.15-2.02-3.94-2.02-1.2-2.15-3.55-3.2-5.37-.92-3.28-2.99-4.35-5.97-3.2-.83-.3-1.32-.92-1.67-1.72C21 .99 18.33.5 17.1 1.65c-.61.49-1.27.89-2.1.89-1.58.22-3.16.44-5.1.7 1.76.94 3.2.19 4.61.36-.3 1.24-1.4 1.64-2.32 2.18-1.98 1.2-2.81 2.66-1.63 4.83.1.49.22 1.02.27 1.5.08.76.57 1.56-.7 1.87-1.06.26-1.98.97-2.46-.98-.4 1.24-1.14 1.82-2.02 2.84 0-2.84 0-5.32 0-7.8 0-.71.35-1.51-.57-1.95-.3-1.47 1.93-.8 1.76-2.18-1.85.05-3.69.67-5.58.31-.79 0-.7.67-.83 1.11z"/><path fill="url(#paint0_linear)" fill-opacity=".4" d="M.43 5.33C-.27 4.05-.14 3.51 1 3.6c4.78.4 9.21-1.24 13.78-2.04a5.9 5.9 0 002.54-1.1c1.45-1.11 3.6.08 4.21.66 1.71 1.64 3.64 1.33 5.48 1.5 1.36.14 2.02.58 2.2 1.87.48 2.97 1.97 5.01 4.95 5.72.44.09.88.31.93.84.3 2.84 1.05 5.59 1.57 8.38.18 1.07.22 2.22-.74 3.06-.4.36-.62.93-.48 1.42.57 2.26-.35 3.81-2.07 5.1-.35.27-.7.66-.74 1.06-.44 2.89-3.07 3.06-4.91 4.35-4.26 2.97-8.87 3.06-13.73 2.53-4-.45-8.03-.45-12.02-.58-.66-.04-1.4.04-1.5-.89-.08-.75.49-1.06 1.06-1.15 2.9-.49 3.2-2.3 3.16-4.92-.18-6.25-.18-12.5.08-18.76.14-2.66-.83-3.94-3.11-4.7-.44-.13-1.1 0-1.27-.66 1.7-.67 3.02.75 4.56.84.13.84.35 1.68.35 2.53.04 7.76 0 15.47.04 23.23 0 .93-.04 1.73-.96 2.22-.66.27-1.4.3-1.76 1.06 2.11.98 4.4.54 6.63.67.74.04.48-.49.4-.93.56-.05 1.13-.1 1.7-.18-.48-.93-1.62-1.82-.26-2.88.22.04.44.09.66.09.88 1.24 2.1 2.04 3.2 2.97-.7 1.02-1.97.75-2.94 1.15 3.6-.04 7.15 1.24 10.75-.09 1.27-.49 2.02-.8.96-2.17 2.55.4 4.79-.58 7.02-1.55.4-.18.57-.5.3-.85-.17-.26-.52-.17-.74 0 .05-.7-1.27-1.2-.35-2.08.92-.93 1.19-2.22 1.8-3.28.35-.53.13-1.5 1.14-1.5 3.51-2.67 4.08-5.15 1.76-7.77-.05-1.64-.31-3.15-2.02-3.94-2.02-1.2-2.15-3.55-3.2-5.37-.92-3.28-2.99-4.35-5.97-3.2-.83-.3-1.32-.92-1.67-1.72C21 .99 18.33.5 17.1 1.65c-.61.49-1.27.89-2.1.89-1.58.22-3.16.44-5.1.7 1.76.94 3.2.19 4.61.36-.3 1.24-1.4 1.64-2.32 2.18-1.98 1.2-2.81 2.66-1.63 4.83.1.49.22 1.02.27 1.5.08.76.57 1.56-.7 1.87-1.06.26-1.98.97-2.46-.98-.4 1.24-1.14 1.82-2.02 2.84 0-2.84 0-5.32 0-7.8 0-.71.35-1.51-.57-1.95-.3-1.47 1.93-.8 1.76-2.18-1.85.05-3.69.67-5.58.31-.79 0-.7.67-.83 1.11z"/><path fill="#4D4D5D" d="M24.07 9.59c-1.1 1.24-2.58 1.77-3.99 2.48-.4.22-1.05.58-1.23-.22-.48-1.77-.3-.13-.35.04-.26.67-.74.67-1.22.4-.88-.49-1.93-.88-2.55-1.64-.74-.93-1.71-1.37-2.59-1.1-1 .3-.17 1.55-.61 2.39-.35-.49-.7-.93-1.01-1.38-1.18-2.21-.35-3.68 1.62-4.83.92-.53 2.02-.93 2.33-2.17.17-.36.3-.71.48-1.07.83 0 1.45-.4 2.1-.88.49 1.06 1.76-.1 2.29.88a66.39 66.39 0 014.73 7.1z"/><path fill="url(#paint1_linear)" fill-opacity=".4" d="M24.07 9.59c-1.1 1.24-2.58 1.77-3.99 2.48-.4.22-1.05.58-1.23-.22-.48-1.77-.3-.13-.35.04-.26.67-.74.67-1.22.4-.88-.49-1.93-.88-2.55-1.64-.74-.93-1.71-1.37-2.59-1.1-1 .3-.17 1.55-.61 2.39-.35-.49-.7-.93-1.01-1.38-1.18-2.21-.35-3.68 1.62-4.83.92-.53 2.02-.93 2.33-2.17.17-.36.3-.71.48-1.07.83 0 1.45-.4 2.1-.88.49 1.06 1.76-.1 2.29.88a66.39 66.39 0 014.73 7.1z"/><path fill="#4D4D5D" d="M25.3 25.33c-.44-1.5.31-3.06-.44-4.66-.35-.75 1.36-.88 1.85-1.68 2.58.8 5.35.35 8.07.84-.53 1.64-1.63 3.06-1.93 4.79-1.01 0-.8.97-1.14 1.5-1.54.14-1.4 2-2.72 2.58-.09-.58-.13-1.11-.3-2.17-.18 1.1-.14 1.9-1.1 1.81.08-1.73-.97-2.48-2.29-3.01z"/><path fill="url(#paint2_linear)" fill-opacity=".4" d="M25.3 25.33c-.44-1.5.31-3.06-.44-4.66-.35-.75 1.36-.88 1.85-1.68 2.58.8 5.35.35 8.07.84-.53 1.64-1.63 3.06-1.93 4.79-1.01 0-.8.97-1.14 1.5-1.54.14-1.4 2-2.72 2.58-.09-.58-.13-1.11-.3-2.17-.18 1.1-.14 1.9-1.1 1.81.08-1.73-.97-2.48-2.29-3.01z"/><path fill="#4D4D5D" d="M6.7 26.75c-.61-.8-.96-1.51.27-2.17.65-.36 1.18-.98 1.75-1.51.18-.05.35-.05.53-.1 1.49-.7 2.02-.21 1.62 1.38-.04.14-.09.27-.09.45-.08.62-.74 1.33-.13 1.81.26.23.88-.7 1.62-.57-.13.49-.21.97-.35 1.5-.26 1.2-.26 1.2.88 2.05.22.17.18.66.22 1.06-.44.44-.88.89-1.27 1.37a3.35 3.35 0 00-.66-.08c-.92-1.2-2.1-2.22-2.41-3.73-.18-.93-.88-.53-1.32-.75-.22-.27-.44-.5-.66-.71z"/><path fill="url(#paint3_linear)" fill-opacity=".4" d="M6.7 26.75c-.61-.8-.96-1.51.27-2.17.65-.36 1.18-.98 1.75-1.51.18-.05.35-.05.53-.1 1.49-.7 2.02-.21 1.62 1.38-.04.14-.09.27-.09.45-.08.62-.74 1.33-.13 1.81.26.23.88-.7 1.62-.57-.13.49-.21.97-.35 1.5-.26 1.2-.26 1.2.88 2.05.22.17.18.66.22 1.06-.44.44-.88.89-1.27 1.37a3.35 3.35 0 00-.66-.08c-.92-1.2-2.1-2.22-2.41-3.73-.18-.93-.88-.53-1.32-.75-.22-.27-.44-.5-.66-.71z"/><path fill="#4D4D5D" d="M24.07 9.59a50.03 50.03 0 00-4.78-6.96c.84-.76 1.63.26 2.46 0 .35.8.88 1.42 1.67 1.73 1.4 1.06 2.28 2.57 3.24 3.99.05.66.35 1.02 1.1.93.66-.05.57.44.44.88-.7.58-1.5.8-2.37.85-.79-.18-1.23-.85-1.76-1.42z"/><path fill="url(#paint4_linear)" fill-opacity=".4" d="M24.07 9.59a50.03 50.03 0 00-4.78-6.96c.84-.76 1.63.26 2.46 0 .35.8.88 1.42 1.67 1.73 1.4 1.06 2.28 2.57 3.24 3.99.05.66.35 1.02 1.1.93.66-.05.57.44.44.88-.7.58-1.5.8-2.37.85-.79-.18-1.23-.85-1.76-1.42z"/><path fill="#4D4D5D" d="M26.66 8.35c-.96-1.42-1.84-2.93-3.24-4 2.98-1.2 5.04-.13 5.96 3.15-.22 2.62-1.8.71-2.72.85z"/><path fill="url(#paint5_linear)" fill-opacity=".4" d="M26.66 8.35c-.96-1.42-1.84-2.93-3.24-4 2.98-1.2 5.04-.13 5.96 3.15-.22 2.62-1.8.71-2.72.85z"/><path fill="#4D4D5D" d="M30.74 14.24c-.13-.7-.66-1.55.09-2 .61-.4 1.1.58 1.75.67 1.72.8 1.98 2.3 2.02 3.95-.13.13-.26.27-.4.4-1.62-.44-2.19-2.13-3.46-3.02z"/><path fill="url(#paint6_linear)" fill-opacity=".4" d="M30.74 14.24c-.13-.7-.66-1.55.09-2 .61-.4 1.1.58 1.75.67 1.72.8 1.98 2.3 2.02 3.95-.13.13-.26.27-.4.4-1.62-.44-2.19-2.13-3.46-3.02z"/><path fill="#4D4D5D" d="M16.22 34.02c-.4.35-.35 1.33-1.31.98-1.14-.94-2.37-1.78-3.2-2.98.43-.44.87-.88 1.27-1.37 1.53-.09 1.22 1.86 2.37 2.17.3.4.57.8.87 1.2z"/><path fill="url(#paint7_linear)" fill-opacity=".4" d="M16.22 34.02c-.4.35-.35 1.33-1.31.98-1.14-.94-2.37-1.78-3.2-2.98.43-.44.87-.88 1.27-1.37 1.53-.09 1.22 1.86 2.37 2.17.3.4.57.8.87 1.2z"/><path fill="#4D4D5D" d="M4.33 34.15c.75-.17 1.5-.22 2.11.45.35.13.66.26 1 .4-1.57.93-3.2.66-4.82.22.31-.8 1.1-.85 1.71-1.07z"/><path fill="url(#paint8_linear)" fill-opacity=".4" d="M4.33 34.15c.75-.17 1.5-.22 2.11.45.35.13.66.26 1 .4-1.57.93-3.2.66-4.82.22.31-.8 1.1-.85 1.71-1.07z"/><path fill="#4D4D5D" d="M26.75 28.3c1.18 1.02 2.37 2.08 3.55 3.1a15.23 15.23 0 01-7.72.85c1.01.48 1.8.04 2.37.7-.09.76-.88.58-1.27.9-.92-.67-2.5.83-3.11-.94.96-.8 1.66-1.9 2.98-2.26.61-.18.22-.35.17-.75-.13-1.11-.3-2.35.35-3.42.93.67 1.8 1.24 2.68 1.82z"/><path fill="url(#paint9_linear)" fill-opacity=".4" d="M26.75 28.3c1.18 1.02 2.37 2.08 3.55 3.1a15.23 15.23 0 01-7.72.85c1.01.48 1.8.04 2.37.7-.09.76-.88.58-1.27.9-.92-.67-2.5.83-3.11-.94.96-.8 1.66-1.9 2.98-2.26.61-.18.22-.35.17-.75-.13-1.11-.3-2.35.35-3.42.93.67 1.8 1.24 2.68 1.82z"/><path fill="#4D4D5D" d="M9.64 35c-.74 0-1.49 0-2.23-.05-.36-.13-.66-.27-1.01-.4-1.28-2.3-1.14-6.38.26-7.8.22.22.44.44.66.62 1.05 1.9 2.2 3.77 2.59 5.94.13.67.13 1.2-.27 1.69z"/><path fill="url(#paint10_linear)" fill-opacity=".4" d="M9.64 35c-.74 0-1.49 0-2.23-.05-.36-.13-.66-.27-1.01-.4-1.28-2.3-1.14-6.38.26-7.8.22.22.44.44.66.62 1.05 1.9 2.2 3.77 2.59 5.94.13.67.13 1.2-.27 1.69z"/><path fill="#4D4D5D" d="M30.74 14.24c1.27.89 1.84 2.58 3.47 3.02.35.58.83 1.37-.4 1.33-2.41-.13-4.7 1.06-7.15.49.66-1.07 1.71-.27 2.68-.71-2.37-.27-1.01-2-1.36-3.1 1.31.66 1.62-1.38 2.76-1.03z"/><path fill="url(#paint11_linear)" fill-opacity=".4" d="M30.74 14.24c1.27.89 1.84 2.58 3.47 3.02.35.58.83 1.37-.4 1.33-2.41-.13-4.7 1.06-7.15.49.66-1.07 1.71-.27 2.68-.71-2.37-.27-1.01-2-1.36-3.1 1.31.66 1.62-1.38 2.76-1.03z"/><path fill="#4D4D5D" d="M16.22 34.02c-.3-.4-.57-.8-.87-1.24 1.14-1.73 2.63-.67 3.99-.49.4 1.15.96 2.22 2.19 3.33-2.37.62-4 .04-5.3-1.6z"/><path fill="url(#paint12_linear)" fill-opacity=".4" d="M16.22 34.02c-.3-.4-.57-.8-.87-1.24 1.14-1.73 2.63-.67 3.99-.49.4 1.15.96 2.22 2.19 3.33-2.37.62-4 .04-5.3-1.6z"/><path fill="#4D4D5D" d="M28.2 10.16c.66-.48 1.23-.93 1.53.31.49 2.04-.48 3.46-2.54 3.73-.4-1.1-1.45-1.9-1.32-3.2.84 0 1.63-.26 2.33-.84z"/><path fill="url(#paint13_linear)" fill-opacity=".4" d="M28.2 10.16c.66-.48 1.23-.93 1.53.31.49 2.04-.48 3.46-2.54 3.73-.4-1.1-1.45-1.9-1.32-3.2.84 0 1.63-.26 2.33-.84z"/><path fill="#4D4D5D" d="M16.97 24.66c3.2-2.04.52-2.52-.75-3.68 1.67 0 3.12 0 4.7 0-.7 1.07-3.9 1.56-.66 3.68-1.23 0-2.06 0-3.3 0z"/><path fill="url(#paint14_linear)" fill-opacity=".4" d="M16.97 24.66c3.2-2.04.52-2.52-.75-3.68 1.67 0 3.12 0 4.7 0-.7 1.07-3.9 1.56-.66 3.68-1.23 0-2.06 0-3.3 0z"/><path fill="#4D4D5D" d="M26.75 28.3c-.88-.58-1.75-1.2-2.63-1.77-.05-.9.13-1.51 1.23-1.25 1.31.54 2.37 1.29 2.32 2.93-.35.09-.66.09-.92.09z"/><path fill="url(#paint15_linear)" fill-opacity=".4" d="M26.75 28.3c-.88-.58-1.75-1.2-2.63-1.77-.05-.9.13-1.51 1.23-1.25 1.31.54 2.37 1.29 2.32 2.93-.35.09-.66.09-.92.09z"/><path fill="#4D4D5D" d="M24.69 15.49c-.75 1.64-2.63 1.06-3.9 2.66.7-2.66 1.88-3.33 3.9-2.66z"/><path fill="url(#paint16_linear)" fill-opacity=".4" d="M24.69 15.49c-.75 1.64-2.63 1.06-3.9 2.66.7-2.66 1.88-3.33 3.9-2.66z"/><path fill="#4D4D5D" d="M12.14 15.3c1.63-.04 3.07-.52 3.64 1.52-1.49.35-2.5-.27-3.64-1.51z"/><path fill="url(#paint17_linear)" fill-opacity=".4" d="M12.14 15.3c1.63-.04 3.07-.52 3.64 1.52-1.49.35-2.5-.27-3.64-1.51z"/><path fill="#4D4D5D" d="M9.2 22.98c-.17.04-.35.04-.52.09-.35.04-.7.09-.75-.4 0-.13.09-.31.18-.36.61-.17.87.23 1.1.67z"/><path fill="url(#paint18_linear)" fill-opacity=".4" d="M9.2 22.98c-.17.04-.35.04-.52.09-.35.04-.7.09-.75-.4 0-.13.09-.31.18-.36.61-.17.87.23 1.1.67z"/><path fill="#4D4D5D" d="M50.44 8.83c2.41.05 5.13-.3 7.76.54 3.95 1.28 6.19 3.85 7.42 7.93 1.05 3.5-.49 6.08-1.93 8.7-1.5 2.7-4.26 3.72-7.15 4.16-4 .62-8.03.1-12.02.4-.49.05-.93-.04-1.06-.58-.13-.53.18-.8.66-.93 2.24-.75 2.59-2.52 2.55-4.6-.1-3.42-.14-6.8-.05-10.2.05-1.82-.48-3.15-2.06-4.04-.44-.27-1.27-.49-.97-1.24.31-.76 1.01-.18 1.58-.18 1.63.04 3.3.04 5.27.04zm-2.68 11.13c-.26-2.88 1.01-5.72.22-8.64-.74 2.88-1.23 5.72-.22 8.64-.09 1.64-.13 3.29-.3 4.93-.1 1.1-.05 2.17.74 3.01-.83.09-1.71 0-2.28 1.15 3.2 0 6.23 0 9.21 0-1.18-.22-2.41-.17-3.6-.26-1.18-.1-2.54.44-3.37-.89 1.23-3.32.26-6.74.4-10.1-.45.66-.1 1.59-.8 2.16zm15.4 1.73c-.09.93-.13 1.91-.22 2.84a12.43 12.43 0 001.14-7.8c-.3-2.04-.92-4.22-3.5-4.66-.67-.22-1.2-1.06-2.33-.53 1.88 1.55 3.29 3.24 3.6 5.54.3 2.13.08 4.26-.14 6.52.97-.49.88-1.46 1.45-1.9zm-11.84-2.61c0 1.9 0 3.85 0 5.76 0 .84.04 1.64 1 2.04 3.47 1.42 7.81-.8 8.73-4.43.53-2.13.44-4.26-.26-6.34-.57-1.69-1.58-3.24-3.33-3.55a34.19 34.19 0 01-3.69-.84c-1.45-.4-2.59.08-2.45 2.04.08 1.77 0 3.54 0 5.32zm-1.63 7.76c0-5.01 0-10.07 0-15.08a59.8 59.8 0 000 15.08zm11.32-1.56c-2.94 3.1-6.71 2.67-10.4 2.53 4.52 1.29 9.17.18 10.4-2.53zm-10.18-16c-1.53 0-2.54-.05-3.55 0-.44 0-1.23-.22-1.23.44 0 .75.8 1.07 1.45.89.96-.22 1.89-.71 3.33-1.33z"/><path fill="url(#paint19_linear)" fill-opacity=".4" d="M50.44 8.83c2.41.05 5.13-.3 7.76.54 3.95 1.28 6.19 3.85 7.42 7.93 1.05 3.5-.49 6.08-1.93 8.7-1.5 2.7-4.26 3.72-7.15 4.16-4 .62-8.03.1-12.02.4-.49.05-.93-.04-1.06-.58-.13-.53.18-.8.66-.93 2.24-.75 2.59-2.52 2.55-4.6-.1-3.42-.14-6.8-.05-10.2.05-1.82-.48-3.15-2.06-4.04-.44-.27-1.27-.49-.97-1.24.31-.76 1.01-.18 1.58-.18 1.63.04 3.3.04 5.27.04zm-2.68 11.13c-.26-2.88 1.01-5.72.22-8.64-.74 2.88-1.23 5.72-.22 8.64-.09 1.64-.13 3.29-.3 4.93-.1 1.1-.05 2.17.74 3.01-.83.09-1.71 0-2.28 1.15 3.2 0 6.23 0 9.21 0-1.18-.22-2.41-.17-3.6-.26-1.18-.1-2.54.44-3.37-.89 1.23-3.32.26-6.74.4-10.1-.45.66-.1 1.59-.8 2.16zm15.4 1.73c-.09.93-.13 1.91-.22 2.84a12.43 12.43 0 001.14-7.8c-.3-2.04-.92-4.22-3.5-4.66-.67-.22-1.2-1.06-2.33-.53 1.88 1.55 3.29 3.24 3.6 5.54.3 2.13.08 4.26-.14 6.52.97-.49.88-1.46 1.45-1.9zm-11.84-2.61c0 1.9 0 3.85 0 5.76 0 .84.04 1.64 1 2.04 3.47 1.42 7.81-.8 8.73-4.43.53-2.13.44-4.26-.26-6.34-.57-1.69-1.58-3.24-3.33-3.55a34.19 34.19 0 01-3.69-.84c-1.45-.4-2.59.08-2.45 2.04.08 1.77 0 3.54 0 5.32zm-1.63 7.76c0-5.01 0-10.07 0-15.08a59.8 59.8 0 000 15.08zm11.32-1.56c-2.94 3.1-6.71 2.67-10.4 2.53 4.52 1.29 9.17.18 10.4-2.53zm-10.18-16c-1.53 0-2.54-.05-3.55 0-.44 0-1.23-.22-1.23.44 0 .75.8 1.07 1.45.89.96-.22 1.89-.71 3.33-1.33z"/><path fill="#4D4D5D" d="M67.63 18.32c0-1.55-.04-3.1 0-4.65.1-1.64-.35-2.93-1.88-3.64-.4-.18-.92-.3-.75-.89.18-.57.7-.4 1.1-.4 2.54 0 5.13 0 7.67-.04.36 0 .8-.09.97.31.26.58-.18.8-.57 1.02-1.32.8-1.45 2.04-1.54 3.42-.21 3.01-.21 6.03.05 9.04.26 2.97 1.75 4.3 4.65 4.4 1.8.04 2.5-.94 2.85-2.4.61-2.62.4-5.28.4-7.94 0-.71-.1-1.46 0-2.17.17-1.73-.1-3.24-1.76-4.17-.35-.18-.88-.44-.75-.98.18-.7.8-.4 1.28-.4 2.1 0 4.25 0 6.36-.04.44 0 .87-.22 1.14.35.17.45-.13.76-.44.94-1.76 1.02-1.67 2.7-1.71 4.47-.09 4.04.44 8.12-.88 12.1a5.18 5.18 0 01-2.85 3.3c-5.18 2.6-11.98-.14-13.2-5.6-.44-1.95-.1-4.03-.14-6.03.05 0 .05 0 0 0zm2.94-6.83c.31-.62 1.23-.8 1.23-1.77-1.5-.18-2.9-.3-4.47.09.79.66 1.36 1.2 1.97 1.68-.4.18-.79.45-.79.94.04 4.16-.53 8.38.4 12.5.83 3.68 7.76 6.07 11 4 .23-.14.8-.36.23-.76-.14-.1-.4 0-.62 0 4.52-4 2.46-9.23 2.76-14.06-1.66 4.61.66 10.24-3.64 14.19-3.2 1.02-6.27-.04-7.63-2.62.83.36 1.27 1.47 2.37 1.33-2.46-3.72-2.85-7.8-2.1-12.15.17-1.06.83-2.52-.7-3.37zm9.74-1.72c2.37 2 2.37 2 3.77.04a11.84 11.84 0 00-3.77-.04z"/><path fill="url(#paint20_linear)" fill-opacity=".4" d="M67.63 18.32c0-1.55-.04-3.1 0-4.65.1-1.64-.35-2.93-1.88-3.64-.4-.18-.92-.3-.75-.89.18-.57.7-.4 1.1-.4 2.54 0 5.13 0 7.67-.04.36 0 .8-.09.97.31.26.58-.18.8-.57 1.02-1.32.8-1.45 2.04-1.54 3.42-.21 3.01-.21 6.03.05 9.04.26 2.97 1.75 4.3 4.65 4.4 1.8.04 2.5-.94 2.85-2.4.61-2.62.4-5.28.4-7.94 0-.71-.1-1.46 0-2.17.17-1.73-.1-3.24-1.76-4.17-.35-.18-.88-.44-.75-.98.18-.7.8-.4 1.28-.4 2.1 0 4.25 0 6.36-.04.44 0 .87-.22 1.14.35.17.45-.13.76-.44.94-1.76 1.02-1.67 2.7-1.71 4.47-.09 4.04.44 8.12-.88 12.1a5.18 5.18 0 01-2.85 3.3c-5.18 2.6-11.98-.14-13.2-5.6-.44-1.95-.1-4.03-.14-6.03.05 0 .05 0 0 0zm2.94-6.83c.31-.62 1.23-.8 1.23-1.77-1.5-.18-2.9-.3-4.47.09.79.66 1.36 1.2 1.97 1.68-.4.18-.79.45-.79.94.04 4.16-.53 8.38.4 12.5.83 3.68 7.76 6.07 11 4 .23-.14.8-.36.23-.76-.14-.1-.4 0-.62 0 4.52-4 2.46-9.23 2.76-14.06-1.66 4.61.66 10.24-3.64 14.19-3.2 1.02-6.27-.04-7.63-2.62.83.36 1.27 1.47 2.37 1.33-2.46-3.72-2.85-7.8-2.1-12.15.17-1.06.83-2.52-.7-3.37zm9.74-1.72c2.37 2 2.37 2 3.77.04a11.84 11.84 0 00-3.77-.04z"/><path fill="#4D4D5D" d="M148.96 20.1c-.4-2.57.57-4.84-1.14-6.65-.17-.18-.09-.8.13-1.02 1.01-1.11.22-1.69-.57-2.27-.3-.26-.92-.35-.79-.93.18-.7.84-.44 1.27-.44 2.29 0 4.52 0 6.8 0 .49 0 1.1-.27 1.32.4.18.53-.35.75-.7.97-1.1.71-1.4 1.78-1.4 3.06 0 2.53-.14 5.01-.14 7.54 0 1.24.13 2.53.62 3.68.79 1.86 2.54 2.7 4.91 2.49 1.93-.23 2.32-1.82 2.41-3.24.22-3.68.18-7.36.22-11 0-1.33-.96-1.9-1.84-2.53-.35-.26-.83-.44-.62-1.02.18-.48.57-.35.93-.35 2.32 0 4.65-.04 7.01 0 .27 0 .62.09.75.27.26.35.04.75-.26.93-2.06 1.2-1.8 3.15-1.8 5.1 0 2.75.09 5.5-.18 8.2-.43 4.57-2.76 7.14-6.44 7.4-5.58.45-9.26-1.68-10.36-6.34-.44-1.55-.13-3.23-.13-4.25zm1.45-8.65c.44 0 .88.04 1.36.04-.53 4.57-.92 9.1.26 13.62-2.02-2.18-.66-4.97-1.27-7.5-.7 1.56-.83 3.1-.88 4.62-.09 2.48.49 4.92 3.03 6.16a11.06 11.06 0 006.84 1.02 5.22 5.22 0 004.3-3.68c1.45-4.35.61-8.78.61-13.17-.52 2.4-.6 4.79-.35 7.23a8.7 8.7 0 01-1.05 5.45c.09-1.6.88-3.24.05-4.83 1.22-2.97-.14-5.94-.05-8.92 1.01-.08 1.76-.53 2.24-1.77-1.27 0-2.41-.3-3.64.27.48.66 1.23.84 1.44 1.55-.7 2.97-.3 5.94.05 8.91-1.1 1.9-.44 4.21-1.89 6.39 1.23-.4 1.32-1.2 1.84-1.6a3.2 3.2 0 01-2.01 2.93 7.24 7.24 0 01-6.67-.36c.44.05.92.22 1.45-.13-2.63-1.42-3.3-3.81-3.38-6.39-.09-2.57 0-5.14 0-7.71 0-.76.26-1.69-.88-2 .44-.53 1.23-.8 1.36-1.86-1.36 0-2.63-.3-4.08.22.48.62.92 1.07 1.32 1.51-.7 2.04-.84 4.12-.62 6.25.4-2.04 1.36-4.03.62-6.25z"/><path fill="url(#paint21_linear)" fill-opacity=".4" d="M148.96 20.1c-.4-2.57.57-4.84-1.14-6.65-.17-.18-.09-.8.13-1.02 1.01-1.11.22-1.69-.57-2.27-.3-.26-.92-.35-.79-.93.18-.7.84-.44 1.27-.44 2.29 0 4.52 0 6.8 0 .49 0 1.1-.27 1.32.4.18.53-.35.75-.7.97-1.1.71-1.4 1.78-1.4 3.06 0 2.53-.14 5.01-.14 7.54 0 1.24.13 2.53.62 3.68.79 1.86 2.54 2.7 4.91 2.49 1.93-.23 2.32-1.82 2.41-3.24.22-3.68.18-7.36.22-11 0-1.33-.96-1.9-1.84-2.53-.35-.26-.83-.44-.62-1.02.18-.48.57-.35.93-.35 2.32 0 4.65-.04 7.01 0 .27 0 .62.09.75.27.26.35.04.75-.26.93-2.06 1.2-1.8 3.15-1.8 5.1 0 2.75.09 5.5-.18 8.2-.43 4.57-2.76 7.14-6.44 7.4-5.58.45-9.26-1.68-10.36-6.34-.44-1.55-.13-3.23-.13-4.25zm1.45-8.65c.44 0 .88.04 1.36.04-.53 4.57-.92 9.1.26 13.62-2.02-2.18-.66-4.97-1.27-7.5-.7 1.56-.83 3.1-.88 4.62-.09 2.48.49 4.92 3.03 6.16a11.06 11.06 0 006.84 1.02 5.22 5.22 0 004.3-3.68c1.45-4.35.61-8.78.61-13.17-.52 2.4-.6 4.79-.35 7.23a8.7 8.7 0 01-1.05 5.45c.09-1.6.88-3.24.05-4.83 1.22-2.97-.14-5.94-.05-8.92 1.01-.08 1.76-.53 2.24-1.77-1.27 0-2.41-.3-3.64.27.48.66 1.23.84 1.44 1.55-.7 2.97-.3 5.94.05 8.91-1.1 1.9-.44 4.21-1.89 6.39 1.23-.4 1.32-1.2 1.84-1.6a3.2 3.2 0 01-2.01 2.93 7.24 7.24 0 01-6.67-.36c.44.05.92.22 1.45-.13-2.63-1.42-3.3-3.81-3.38-6.39-.09-2.57 0-5.14 0-7.71 0-.76.26-1.69-.88-2 .44-.53 1.23-.8 1.36-1.86-1.36 0-2.63-.3-4.08.22.48.62.92 1.07 1.32 1.51-.7 2.04-.84 4.12-.62 6.25.4-2.04 1.36-4.03.62-6.25z"/><path fill="#4D4D5D" d="M97.24 8.7c.92.05 1.63-.04 2.24.13 2.24.71 3.82.05 5-1.95.22-.4.48-.84 1.01-.62.61.22.57.76.44 1.33-.48 2.53-1.01 5.06-1.5 7.58-.08.5-.26.9-.74.94-.52.04-.7-.36-.79-.85-.61-3.06-3.02-2.97-5.3-3.01-2.99-.05-4.74.97-5.62 3.32-1.05 2.93-1.14 5.86 1 8.38 2.2 2.58 5.18 2.89 8.25 2.44 1.4-.22 2.33-1.42 3.25-2.52.3-.4.57-.98 1.19-.63.61.32.39.8.22 1.34-.53 1.72-.53 4.03-1.67 5.14-1.36 1.33-3.86.84-5.84 1.2-3.6.62-9.43-3.82-10.74-7.5-1.71-4.79-.27-10.2 3.46-13.03a8.65 8.65 0 016.14-1.69zm-4.2 3.33c3.2-1.6 6.4-1.29 10.17.13-2.98-2.04-4.91-2.17-9.83-1.02.44-.49.84-.93 1.5-1.64a9.33 9.33 0 00-6.8 11.04c1.1-1.55.57-3.55 1.62-5.01-.18 1.15-.35 2.35.13 3.55.3-2.7 1.05-5.2 3.2-7.05zm-3.12 9.75c-.48.09-.8-.84-1.32-.3-.44.43-.4 1.06-.17 1.63A9.2 9.2 0 0094 28.4c-.53-.67-.8-1.07-1.06-1.42 2.64 1.1 5.31 1.9 8.2.84-3.41.36-6.53-.22-8.99-2.88-.83-.93-1.49-2.08-2.23-3.15z"/><path fill="url(#paint22_linear)" fill-opacity=".4" d="M97.24 8.7c.92.05 1.63-.04 2.24.13 2.24.71 3.82.05 5-1.95.22-.4.48-.84 1.01-.62.61.22.57.76.44 1.33-.48 2.53-1.01 5.06-1.5 7.58-.08.5-.26.9-.74.94-.52.04-.7-.36-.79-.85-.61-3.06-3.02-2.97-5.3-3.01-2.99-.05-4.74.97-5.62 3.32-1.05 2.93-1.14 5.86 1 8.38 2.2 2.58 5.18 2.89 8.25 2.44 1.4-.22 2.33-1.42 3.25-2.52.3-.4.57-.98 1.19-.63.61.32.39.8.22 1.34-.53 1.72-.53 4.03-1.67 5.14-1.36 1.33-3.86.84-5.84 1.2-3.6.62-9.43-3.82-10.74-7.5-1.71-4.79-.27-10.2 3.46-13.03a8.65 8.65 0 016.14-1.69zm-4.2 3.33c3.2-1.6 6.4-1.29 10.17.13-2.98-2.04-4.91-2.17-9.83-1.02.44-.49.84-.93 1.5-1.64a9.33 9.33 0 00-6.8 11.04c1.1-1.55.57-3.55 1.62-5.01-.18 1.15-.35 2.35.13 3.55.3-2.7 1.05-5.2 3.2-7.05zm-3.12 9.75c-.48.09-.8-.84-1.32-.3-.44.43-.4 1.06-.17 1.63A9.2 9.2 0 0094 28.4c-.53-.67-.8-1.07-1.06-1.42 2.64 1.1 5.31 1.9 8.2.84-3.41.36-6.53-.22-8.99-2.88-.83-.93-1.49-2.08-2.23-3.15z"/><path fill="#4D4D5D" d="M124.8 30.12c-.8 0-1.63 0-2.42 0-1.1 0-3.07.88-1.23-1.64.79-1.11-.7-2.4-1.18-3.55-.44-1.02-4.35-1.64-5.66-.84-1.4.88-1.45 2.57-1.8 4.08-.05.13.22.4.35.48.44.32 1.36.32 1.1 1.11-.27.89-1.14.4-1.71.4-1.85.05-3.65.05-5.49.05-.48 0-1.14.22-1.31-.45-.18-.75.44-.8.96-.88 1.58-.27 2.28-1.42 2.85-2.8 2.28-5.72 5.1-11.26 7.06-17.11.14-.36.27-.8.62-.8.75-.09.88.62 1.14 1.15 1.84 3.86 3.77 7.67 5.48 11.57.92 2.13 2.77 3.73 3.12 6.17.13.84 1.05 1.37 1.88 1.73.44.18.93.4.8.88-.14.71-.75.54-1.24.54-1.14-.05-2.23-.05-3.33-.1 0 .05 0 0 0 0zm-2.42-5.63c-.88.13-.88-1.33-1.98-1.11.31 1.73.97 3.15 2.33 4.61 0-.84 0-1.38 0-1.86.66.84 1 2.17 2.59 1.64-.31-1.2-1.45-1.69-1.84-2.7.26-.14.48-.4.35-.72-2.11-4.43-4.22-8.82-6.5-13.6-.35 1.41.27 2.16.27 3.05-.22.04-.57.09-.57.09.3 2.57 1.27 4.97 2.28 7.27.26.62.88.8 1.23-.09.92 1.02 1.88 2.04 2.36 3.42-.13.09-.35.04-.52 0zm-5.84-7.5c-.35.98-.7 1.73-.92 2.49-.17.57-.87 1.28-.22 1.77.7.53 1.76.44 2.5.04.8-.44.1-1.2-.08-1.77-.22-.75-.31-1.68-1.28-2.53zm-1.18-3.59c-1.45 3.42-2.9 6.83-4.34 10.24 2.5-2.92 3.24-6.6 4.34-10.24z"/><path fill="url(#paint23_linear)" fill-opacity=".4" d="M124.8 30.12c-.8 0-1.63 0-2.42 0-1.1 0-3.07.88-1.23-1.64.79-1.11-.7-2.4-1.18-3.55-.44-1.02-4.35-1.64-5.66-.84-1.4.88-1.45 2.57-1.8 4.08-.05.13.22.4.35.48.44.32 1.36.32 1.1 1.11-.27.89-1.14.4-1.71.4-1.85.05-3.65.05-5.49.05-.48 0-1.14.22-1.31-.45-.18-.75.44-.8.96-.88 1.58-.27 2.28-1.42 2.85-2.8 2.28-5.72 5.1-11.26 7.06-17.11.14-.36.27-.8.62-.8.75-.09.88.62 1.14 1.15 1.84 3.86 3.77 7.67 5.48 11.57.92 2.13 2.77 3.73 3.12 6.17.13.84 1.05 1.37 1.88 1.73.44.18.93.4.8.88-.14.71-.75.54-1.24.54-1.14-.05-2.23-.05-3.33-.1 0 .05 0 0 0 0zm-2.42-5.63c-.88.13-.88-1.33-1.98-1.11.31 1.73.97 3.15 2.33 4.61 0-.84 0-1.38 0-1.86.66.84 1 2.17 2.59 1.64-.31-1.2-1.45-1.69-1.84-2.7.26-.14.48-.4.35-.72-2.11-4.43-4.22-8.82-6.5-13.6-.35 1.41.27 2.16.27 3.05-.22.04-.57.09-.57.09.3 2.57 1.27 4.97 2.28 7.27.26.62.88.8 1.23-.09.92 1.02 1.88 2.04 2.36 3.42-.13.09-.35.04-.52 0zm-5.84-7.5c-.35.98-.7 1.73-.92 2.49-.17.57-.87 1.28-.22 1.77.7.53 1.76.44 2.5.04.8-.44.1-1.2-.08-1.77-.22-.75-.31-1.68-1.28-2.53zm-1.18-3.59c-1.45 3.42-2.9 6.83-4.34 10.24 2.5-2.92 3.24-6.6 4.34-10.24z"/><path fill="#4D4D5D" d="M132.2 9.32c3.95-.4 7.9.31 11.8-.35.49-.1 1.01 0 1.06.48.13 1.56.22 3.1.13 4.66-.04.71-.7.62-1.14.22-.44-.35-.84-.8-1.32-1.2a3.46 3.46 0 00-3.55-.4c-.97.4-.48 1.6-.48 2.44-.05 3.24.08 6.48 0 9.67-.05 1.6.4 2.75 1.88 3.37.53.22 1.23.36 1.1 1.15-.18.9-.97.71-1.62.71-2.64 0-5.27 0-7.9.05-.53 0-1.1-.05-1.31-.58-.22-.62.26-.84.74-1.15 2.1-1.24 2.85-3.46 1.84-5.81-.35-.8-.4-1.37-.09-2.22.84-2.26.7-4.74.18-6.96-.35-1.64-2.33-.89-3.55-.49-.7.23-1.32.93-1.93 1.47-.44.35-.88.62-1.4.26-.53-.35-.45-.88-.14-1.37.09-.13.18-.27.27-.36.96-1.06-.8-3.23 1.22-3.68 1.36-.35 2.81 0 4.21.1zm4.61 12.06c1.1-2.52.7-9.35-.7-10.5-.27 3 .09 5.9.57 8.77-1.32 1.69-.48 3.64-.57 5.46 0 .35.35.7.74.62.49-.1.4-.53.36-.89-.1-1.1-.27-2.3-.4-3.46zm.09-11.13c2.41 1.91 4.82.4 6.88 1.55.1-1.1.05-1.95-1.22-1.9-1.76.09-3.47.22-5.66.35zm-8.82 2.09c1.1-1.69 3.3-.76 4.65-1.95-4-.76-4.74-.5-4.65 1.95zm7.24-1.42c-.92 2.22-1.01 4.79-.35 6.96.7-2.26.61-4.43.35-6.96z"/><path fill="url(#paint24_linear)" fill-opacity=".4" d="M132.2 9.32c3.95-.4 7.9.31 11.8-.35.49-.1 1.01 0 1.06.48.13 1.56.22 3.1.13 4.66-.04.71-.7.62-1.14.22-.44-.35-.84-.8-1.32-1.2a3.46 3.46 0 00-3.55-.4c-.97.4-.48 1.6-.48 2.44-.05 3.24.08 6.48 0 9.67-.05 1.6.4 2.75 1.88 3.37.53.22 1.23.36 1.1 1.15-.18.9-.97.71-1.62.71-2.64 0-5.27 0-7.9.05-.53 0-1.1-.05-1.31-.58-.22-.62.26-.84.74-1.15 2.1-1.24 2.85-3.46 1.84-5.81-.35-.8-.4-1.37-.09-2.22.84-2.26.7-4.74.18-6.96-.35-1.64-2.33-.89-3.55-.49-.7.23-1.32.93-1.93 1.47-.44.35-.88.62-1.4.26-.53-.35-.45-.88-.14-1.37.09-.13.18-.27.27-.36.96-1.06-.8-3.23 1.22-3.68 1.36-.35 2.81 0 4.21.1zm4.61 12.06c1.1-2.52.7-9.35-.7-10.5-.27 3 .09 5.9.57 8.77-1.32 1.69-.48 3.64-.57 5.46 0 .35.35.7.74.62.49-.1.4-.53.36-.89-.1-1.1-.27-2.3-.4-3.46zm.09-11.13c2.41 1.91 4.82.4 6.88 1.55.1-1.1.05-1.95-1.22-1.9-1.76.09-3.47.22-5.66.35zm-8.82 2.09c1.1-1.69 3.3-.76 4.65-1.95-4-.76-4.74-.5-4.65 1.95zm7.24-1.42c-.92 2.22-1.01 4.79-.35 6.96.7-2.26.61-4.43.35-6.96z"/><path fill="#4D4D5D" d="M174.84 30.65c-.61-.04-1.14-.09-1.66-.18-3.9-.57-4.4-1.24-3.82-5.1.13-1.02.22-2.04.3-3.06.05-.4.1-.8.49-.88.57-.1.66.35.74.84.14.7.4 1.42.57 2.13.53 1.95 1.9 2.44 3.73 2.13.84-.14 1.54-.5 1.84-1.38.31-.97-.04-1.77-.78-2.35-1.32-1.06-2.72-2-4-3.1-2.63-2.3-3.24-4.75-2.01-7.72.92-2.3 3.33-3.46 6.62-3.19 1.14.09 2.24.4 3.16-.8.61-.8 1.23-.44 1.18.53-.22 2.35-.52 4.7-.83 7.05-.05.4-.18.8-.62.76-.21 0-.52-.27-.65-.49-.4-.7-.7-1.46-1.1-2.17-.79-1.47-1.97-1.38-3.2-.76-1.36.71-1.27 1.82-.7 3.02a5.48 5.48 0 002.01 2c1.1.75 2.24 1.41 3.3 2.17 2.06 1.46 2.93 3.41 2.36 5.94-.57 2.57-2.28 3.86-4.7 4.3-.74.18-1.53.22-2.23.31zm-2.28-13.7c-1.18.49-.88 1.15-.17 1.82 1.7 1.64 3.6 3.1 5.7 4.16 1.62-.8.88-1.64-.05-2.3-1.84-1.33-3.99-2.3-5.3-4.35-.22-.3-.14.45-.18.67zm5.53-6.79c-.27 1.16.57 1.78 1.31 2.4-.92-.53 2.42-3.33-1.31-2.4-2.5-.97-5.18-.57-6.5 1.07-1.27 1.64-1.31 3.46-.74 5.85.83-1.42.3-2.48.88-3.46 1.53-2.48 3.68-3.41 6.36-3.46zm.13 17.12c-1.84 2.13-4.3 1.1-6.76 1.15 2.9 1.55 7.02 1.02 8.43-.93 1.1-1.55 1-3.59-.22-4.88-.8 1.29.79 3.02-.8 4.08-.08-.57.05-1.2-.7-1.6-1.31 2.62-3.55 2.71-6.05 2.27 2.1 1.2 4.08.7 6.1-.09z"/><path fill="url(#paint25_linear)" fill-opacity=".4" d="M174.84 30.65c-.61-.04-1.14-.09-1.66-.18-3.9-.57-4.4-1.24-3.82-5.1.13-1.02.22-2.04.3-3.06.05-.4.1-.8.49-.88.57-.1.66.35.74.84.14.7.4 1.42.57 2.13.53 1.95 1.9 2.44 3.73 2.13.84-.14 1.54-.5 1.84-1.38.31-.97-.04-1.77-.78-2.35-1.32-1.06-2.72-2-4-3.1-2.63-2.3-3.24-4.75-2.01-7.72.92-2.3 3.33-3.46 6.62-3.19 1.14.09 2.24.4 3.16-.8.61-.8 1.23-.44 1.18.53-.22 2.35-.52 4.7-.83 7.05-.05.4-.18.8-.62.76-.21 0-.52-.27-.65-.49-.4-.7-.7-1.46-1.1-2.17-.79-1.47-1.97-1.38-3.2-.76-1.36.71-1.27 1.82-.7 3.02a5.48 5.48 0 002.01 2c1.1.75 2.24 1.41 3.3 2.17 2.06 1.46 2.93 3.41 2.36 5.94-.57 2.57-2.28 3.86-4.7 4.3-.74.18-1.53.22-2.23.31zm-2.28-13.7c-1.18.49-.88 1.15-.17 1.82 1.7 1.64 3.6 3.1 5.7 4.16 1.62-.8.88-1.64-.05-2.3-1.84-1.33-3.99-2.3-5.3-4.35-.22-.3-.14.45-.18.67zm5.53-6.79c-.27 1.16.57 1.78 1.31 2.4-.92-.53 2.42-3.33-1.31-2.4-2.5-.97-5.18-.57-6.5 1.07-1.27 1.64-1.31 3.46-.74 5.85.83-1.42.3-2.48.88-3.46 1.53-2.48 3.68-3.41 6.36-3.46zm.13 17.12c-1.84 2.13-4.3 1.1-6.76 1.15 2.9 1.55 7.02 1.02 8.43-.93 1.1-1.55 1-3.59-.22-4.88-.8 1.29.79 3.02-.8 4.08-.08-.57.05-1.2-.7-1.6-1.31 2.62-3.55 2.71-6.05 2.27 2.1 1.2 4.08.7 6.1-.09z"/><path fill="#4D4D5D" d="M61.67 13.67c2.5 2.3 2.06 5.14 1.49 8.02.09-2.75.04-5.54-1.5-8.02z"/><path fill="url(#paint26_linear)" fill-opacity=".4" d="M61.67 13.67c2.5 2.3 2.06 5.14 1.49 8.02.09-2.75.04-5.54-1.5-8.02z"/><path fill="#4D4D5D" d="M69.26 11.5c.44 0 .92 0 1.36 0-.22 4.74-1.28 9.53.44 14.23-1.32-1.11-1.28-2.66-1.36-4.21-.14-3.37.43-6.74-.44-10.03z"/><path fill="url(#paint27_linear)" fill-opacity=".4" d="M69.26 11.5c.44 0 .92 0 1.36 0-.22 4.74-1.28 9.53.44 14.23-1.32-1.11-1.28-2.66-1.36-4.21-.14-3.37.43-6.74-.44-10.03z"/><defs><linearGradient id="paint14_linear" x1="18.569" x2="18.569" y1="20.983" y2="24.664" gradientUnits="userSpaceOnUse"><stop stop-color="#fff"/><stop offset="1" stop-color="#fff" stop-opacity="0"/></linearGradient><linearGradient id="paint0_linear" x1="18.382" x2="18.382" y1="0" y2="37.198" gradientUnits="userSpaceOnUse"><stop stop-color="#fff"/><stop offset="1" stop-color="#fff" stop-opacity="0"/></linearGradient><linearGradient id="paint2_linear" x1="29.797" x2="29.797" y1="18.988" y2="28.699" gradientUnits="userSpaceOnUse"><stop stop-color="#fff"/><stop offset="1" stop-color="#fff" stop-opacity="0"/></linearGradient><linearGradient id="paint3_linear" x1="9.582" x2="9.582" y1="22.661" y2="32.024" gradientUnits="userSpaceOnUse"><stop stop-color="#fff"/><stop offset="1" stop-color="#fff" stop-opacity="0"/></linearGradient><linearGradient id="paint4_linear" x1="23.792" x2="23.792" y1="2.343" y2="11.007" gradientUnits="userSpaceOnUse"><stop stop-color="#fff"/><stop offset="1" stop-color="#fff" stop-opacity="0"/></linearGradient><linearGradient id="paint5_linear" x1="26.399" x2="26.399" y1="3.879" y2="8.893" gradientUnits="userSpaceOnUse"><stop stop-color="#fff"/><stop offset="1" stop-color="#fff" stop-opacity="0"/></linearGradient><linearGradient id="paint6_linear" x1="32.521" x2="32.521" y1="12.153" y2="17.259" gradientUnits="userSpaceOnUse"><stop stop-color="#fff"/><stop offset="1" stop-color="#fff" stop-opacity="0"/></linearGradient><linearGradient id="paint7_linear" x1="13.963" x2="13.963" y1="30.647" y2="35.072" gradientUnits="userSpaceOnUse"><stop stop-color="#fff"/><stop offset="1" stop-color="#fff" stop-opacity="0"/></linearGradient><linearGradient id="paint8_linear" x1="5.037" x2="5.037" y1="34.04" y2="35.621" gradientUnits="userSpaceOnUse"><stop stop-color="#fff"/><stop offset="1" stop-color="#fff" stop-opacity="0"/></linearGradient><linearGradient id="paint9_linear" x1="25.434" x2="25.434" y1="26.482" y2="33.842" gradientUnits="userSpaceOnUse"><stop stop-color="#fff"/><stop offset="1" stop-color="#fff" stop-opacity="0"/></linearGradient><linearGradient id="paint10_linear" x1="7.752" x2="7.752" y1="26.748" y2="34.995" gradientUnits="userSpaceOnUse"><stop stop-color="#fff"/><stop offset="1" stop-color="#fff" stop-opacity="0"/></linearGradient><linearGradient id="paint11_linear" x1="30.633" x2="30.633" y1="14.202" y2="19.235" gradientUnits="userSpaceOnUse"><stop stop-color="#fff"/><stop offset="1" stop-color="#fff" stop-opacity="0"/></linearGradient><linearGradient id="paint12_linear" x1="18.438" x2="18.438" y1="31.804" y2="35.86" gradientUnits="userSpaceOnUse"><stop stop-color="#fff"/><stop offset="1" stop-color="#fff" stop-opacity="0"/></linearGradient><linearGradient id="paint13_linear" x1="27.859" x2="27.859" y1="9.67" y2="14.199" gradientUnits="userSpaceOnUse"><stop stop-color="#fff"/><stop offset="1" stop-color="#fff" stop-opacity="0"/></linearGradient><linearGradient id="paint1_linear" x1="17.024" x2="17.024" y1="1.606" y2="12.459" gradientUnits="userSpaceOnUse"><stop stop-color="#fff"/><stop offset="1" stop-color="#fff" stop-opacity="0"/></linearGradient><linearGradient id="paint15_linear" x1="25.893" x2="25.893" y1="25.222" y2="28.3" gradientUnits="userSpaceOnUse"><stop stop-color="#fff"/><stop offset="1" stop-color="#fff" stop-opacity="0"/></linearGradient><linearGradient id="paint16_linear" x1="22.737" x2="22.737" y1="15.245" y2="18.146" gradientUnits="userSpaceOnUse"><stop stop-color="#fff"/><stop offset="1" stop-color="#fff" stop-opacity="0"/></linearGradient><linearGradient id="paint17_linear" x1="13.963" x2="13.963" y1="15.226" y2="16.914" gradientUnits="userSpaceOnUse"><stop stop-color="#fff"/><stop offset="1" stop-color="#fff" stop-opacity="0"/></linearGradient><linearGradient id="paint18_linear" x1="8.568" x2="8.568" y1="22.27" y2="23.093" gradientUnits="userSpaceOnUse"><stop stop-color="#fff"/><stop offset="1" stop-color="#fff" stop-opacity="0"/></linearGradient><linearGradient id="paint19_linear" x1="54.698" x2="54.698" y1="8.579" y2="30.571" gradientUnits="userSpaceOnUse"><stop stop-color="#fff"/><stop offset="1" stop-color="#fff" stop-opacity="0"/></linearGradient><linearGradient id="paint20_linear" x1="75.933" x2="75.933" y1="8.693" y2="30.94" gradientUnits="userSpaceOnUse"><stop stop-color="#fff"/><stop offset="1" stop-color="#fff" stop-opacity="0"/></linearGradient><linearGradient id="paint21_linear" x1="157.411" x2="157.411" y1="8.737" y2="30.752" gradientUnits="userSpaceOnUse"><stop stop-color="#fff"/><stop offset="1" stop-color="#fff" stop-opacity="0"/></linearGradient><linearGradient id="paint22_linear" x1="96.497" x2="96.497" y1="6.203" y2="30.975" gradientUnits="userSpaceOnUse"><stop stop-color="#fff"/><stop offset="1" stop-color="#fff" stop-opacity="0"/></linearGradient><linearGradient id="paint23_linear" x1="117.395" x2="117.395" y1="8.162" y2="30.296" gradientUnits="userSpaceOnUse"><stop stop-color="#fff"/><stop offset="1" stop-color="#fff" stop-opacity="0"/></linearGradient><linearGradient id="paint24_linear" x1="135.739" x2="135.739" y1="8.937" y2="30.118" gradientUnits="userSpaceOnUse"><stop stop-color="#fff"/><stop offset="1" stop-color="#fff" stop-opacity="0"/></linearGradient><linearGradient id="paint25_linear" x1="175.552" x2="175.552" y1="7.552" y2="30.65" gradientUnits="userSpaceOnUse"><stop stop-color="#fff"/><stop offset="1" stop-color="#fff" stop-opacity="0"/></linearGradient><linearGradient id="paint26_linear" x1="62.634" x2="62.634" y1="13.667" y2="21.693" gradientUnits="userSpaceOnUse"><stop stop-color="#fff"/><stop offset="1" stop-color="#fff" stop-opacity="0"/></linearGradient><linearGradient id="paint27_linear" x1="70.156" x2="70.156" y1="11.495" y2="25.728" gradientUnits="userSpaceOnUse"><stop stop-color="#fff"/><stop offset="1" stop-color="#fff" stop-opacity="0"/></linearGradient></defs></svg>